<?xml version="1.0" encoding="utf-8" standalone="no"?>
<!DOCTYPE svg PUBLIC "-//W3C//DTD SVG 1.1//EN"
  "http://www.w3.org/Graphics/SVG/1.1/DTD/svg11.dtd">
<svg xmlns:xlink="http://www.w3.org/1999/xlink" width="756pt" height="446.4pt" viewBox="0 0 756 446.4" xmlns="http://www.w3.org/2000/svg" version="1.1">
 <metadata>
  <rdf:RDF xmlns:dc="http://purl.org/dc/elements/1.1/" xmlns:cc="http://creativecommons.org/ns#" xmlns:rdf="http://www.w3.org/1999/02/22-rdf-syntax-ns#">
   <cc:Work>
    <dc:type rdf:resource="http://purl.org/dc/dcmitype/StillImage"/>
    <dc:date>2025-11-05T09:03:14.689742</dc:date>
    <dc:format>image/svg+xml</dc:format>
    <dc:creator>
     <cc:Agent>
      <dc:title>Matplotlib v3.10.1, https://matplotlib.org/</dc:title>
     </cc:Agent>
    </dc:creator>
   </cc:Work>
  </rdf:RDF>
 </metadata>
 <defs>
  <style type="text/css">*{stroke-linejoin: round; stroke-linecap: butt}</style>
 </defs>
 <g id="figure_1">
  <g id="patch_1">
   <path d="M 0 446.4 
L 756 446.4 
L 756 0 
L 0 0 
z
" style="fill: #ffffff"/>
  </g>
  <g id="axes_1">
   <g id="patch_2">
    <path d="M 50.87 404.44 
L 745.2 404.44 
L 745.2 41.856 
L 50.87 41.856 
z
" style="fill: #ffffff"/>
   </g>
   <g id="matplotlib.axis_1">
    <g id="xtick_1">
     <g id="line2d_1">
      <path d="M 187.63197 404.44 
L 187.63197 41.856 
" clip-path="url(#p535079e9dc)" style="fill: none; stroke-dasharray: 0.8,1.32; stroke-dashoffset: 0; stroke: #b0b0b0; stroke-opacity: 0.6; stroke-width: 0.8"/>
     </g>
     <g id="line2d_2">
      <defs>
       <path id="m4205a4a6c5" d="M 0 0 
L 0 3.5 
" style="stroke: #000000; stroke-width: 0.8"/>
      </defs>
      <g>
       <use xlink:href="#m4205a4a6c5" x="187.63197" y="404.44" style="stroke: #000000; stroke-width: 0.8"/>
      </g>
     </g>
     <g id="text_1">
      <!-- 0.2 -->
      <g transform="translate(179.680407 419.038437) scale(0.1 -0.1)">
       <defs>
        <path id="DejaVuSans-30" d="M 2034 4250 
Q 1547 4250 1301 3770 
Q 1056 3291 1056 2328 
Q 1056 1369 1301 889 
Q 1547 409 2034 409 
Q 2525 409 2770 889 
Q 3016 1369 3016 2328 
Q 3016 3291 2770 3770 
Q 2525 4250 2034 4250 
z
M 2034 4750 
Q 2819 4750 3233 4129 
Q 3647 3509 3647 2328 
Q 3647 1150 3233 529 
Q 2819 -91 2034 -91 
Q 1250 -91 836 529 
Q 422 1150 422 2328 
Q 422 3509 836 4129 
Q 1250 4750 2034 4750 
z
" transform="scale(0.015625)"/>
        <path id="DejaVuSans-2e" d="M 684 794 
L 1344 794 
L 1344 0 
L 684 0 
L 684 794 
z
" transform="scale(0.015625)"/>
        <path id="DejaVuSans-32" d="M 1228 531 
L 3431 531 
L 3431 0 
L 469 0 
L 469 531 
Q 828 903 1448 1529 
Q 2069 2156 2228 2338 
Q 2531 2678 2651 2914 
Q 2772 3150 2772 3378 
Q 2772 3750 2511 3984 
Q 2250 4219 1831 4219 
Q 1534 4219 1204 4116 
Q 875 4013 500 3803 
L 500 4441 
Q 881 4594 1212 4672 
Q 1544 4750 1819 4750 
Q 2544 4750 2975 4387 
Q 3406 4025 3406 3419 
Q 3406 3131 3298 2873 
Q 3191 2616 2906 2266 
Q 2828 2175 2409 1742 
Q 1991 1309 1228 531 
z
" transform="scale(0.015625)"/>
       </defs>
       <use xlink:href="#DejaVuSans-30"/>
       <use xlink:href="#DejaVuSans-2e" transform="translate(63.623047 0)"/>
       <use xlink:href="#DejaVuSans-32" transform="translate(95.410156 0)"/>
      </g>
     </g>
    </g>
    <g id="xtick_2">
     <g id="line2d_3">
      <path d="M 327.900657 404.44 
L 327.900657 41.856 
" clip-path="url(#p535079e9dc)" style="fill: none; stroke-dasharray: 0.8,1.32; stroke-dashoffset: 0; stroke: #b0b0b0; stroke-opacity: 0.6; stroke-width: 0.8"/>
     </g>
     <g id="line2d_4">
      <g>
       <use xlink:href="#m4205a4a6c5" x="327.900657" y="404.44" style="stroke: #000000; stroke-width: 0.8"/>
      </g>
     </g>
     <g id="text_2">
      <!-- 0.4 -->
      <g transform="translate(319.949094 419.038437) scale(0.1 -0.1)">
       <defs>
        <path id="DejaVuSans-34" d="M 2419 4116 
L 825 1625 
L 2419 1625 
L 2419 4116 
z
M 2253 4666 
L 3047 4666 
L 3047 1625 
L 3713 1625 
L 3713 1100 
L 3047 1100 
L 3047 0 
L 2419 0 
L 2419 1100 
L 313 1100 
L 313 1709 
L 2253 4666 
z
" transform="scale(0.015625)"/>
       </defs>
       <use xlink:href="#DejaVuSans-30"/>
       <use xlink:href="#DejaVuSans-2e" transform="translate(63.623047 0)"/>
       <use xlink:href="#DejaVuSans-34" transform="translate(95.410156 0)"/>
      </g>
     </g>
    </g>
    <g id="xtick_3">
     <g id="line2d_5">
      <path d="M 468.169343 404.44 
L 468.169343 41.856 
" clip-path="url(#p535079e9dc)" style="fill: none; stroke-dasharray: 0.8,1.32; stroke-dashoffset: 0; stroke: #b0b0b0; stroke-opacity: 0.6; stroke-width: 0.8"/>
     </g>
     <g id="line2d_6">
      <g>
       <use xlink:href="#m4205a4a6c5" x="468.169343" y="404.44" style="stroke: #000000; stroke-width: 0.8"/>
      </g>
     </g>
     <g id="text_3">
      <!-- 0.6 -->
      <g transform="translate(460.217781 419.038437) scale(0.1 -0.1)">
       <defs>
        <path id="DejaVuSans-36" d="M 2113 2584 
Q 1688 2584 1439 2293 
Q 1191 2003 1191 1497 
Q 1191 994 1439 701 
Q 1688 409 2113 409 
Q 2538 409 2786 701 
Q 3034 994 3034 1497 
Q 3034 2003 2786 2293 
Q 2538 2584 2113 2584 
z
M 3366 4563 
L 3366 3988 
Q 3128 4100 2886 4159 
Q 2644 4219 2406 4219 
Q 1781 4219 1451 3797 
Q 1122 3375 1075 2522 
Q 1259 2794 1537 2939 
Q 1816 3084 2150 3084 
Q 2853 3084 3261 2657 
Q 3669 2231 3669 1497 
Q 3669 778 3244 343 
Q 2819 -91 2113 -91 
Q 1303 -91 875 529 
Q 447 1150 447 2328 
Q 447 3434 972 4092 
Q 1497 4750 2381 4750 
Q 2619 4750 2861 4703 
Q 3103 4656 3366 4563 
z
" transform="scale(0.015625)"/>
       </defs>
       <use xlink:href="#DejaVuSans-30"/>
       <use xlink:href="#DejaVuSans-2e" transform="translate(63.623047 0)"/>
       <use xlink:href="#DejaVuSans-36" transform="translate(95.410156 0)"/>
      </g>
     </g>
    </g>
    <g id="xtick_4">
     <g id="line2d_7">
      <path d="M 608.43803 404.44 
L 608.43803 41.856 
" clip-path="url(#p535079e9dc)" style="fill: none; stroke-dasharray: 0.8,1.32; stroke-dashoffset: 0; stroke: #b0b0b0; stroke-opacity: 0.6; stroke-width: 0.8"/>
     </g>
     <g id="line2d_8">
      <g>
       <use xlink:href="#m4205a4a6c5" x="608.43803" y="404.44" style="stroke: #000000; stroke-width: 0.8"/>
      </g>
     </g>
     <g id="text_4">
      <!-- 0.8 -->
      <g transform="translate(600.486468 419.038437) scale(0.1 -0.1)">
       <defs>
        <path id="DejaVuSans-38" d="M 2034 2216 
Q 1584 2216 1326 1975 
Q 1069 1734 1069 1313 
Q 1069 891 1326 650 
Q 1584 409 2034 409 
Q 2484 409 2743 651 
Q 3003 894 3003 1313 
Q 3003 1734 2745 1975 
Q 2488 2216 2034 2216 
z
M 1403 2484 
Q 997 2584 770 2862 
Q 544 3141 544 3541 
Q 544 4100 942 4425 
Q 1341 4750 2034 4750 
Q 2731 4750 3128 4425 
Q 3525 4100 3525 3541 
Q 3525 3141 3298 2862 
Q 3072 2584 2669 2484 
Q 3125 2378 3379 2068 
Q 3634 1759 3634 1313 
Q 3634 634 3220 271 
Q 2806 -91 2034 -91 
Q 1263 -91 848 271 
Q 434 634 434 1313 
Q 434 1759 690 2068 
Q 947 2378 1403 2484 
z
M 1172 3481 
Q 1172 3119 1398 2916 
Q 1625 2713 2034 2713 
Q 2441 2713 2670 2916 
Q 2900 3119 2900 3481 
Q 2900 3844 2670 4047 
Q 2441 4250 2034 4250 
Q 1625 4250 1398 4047 
Q 1172 3844 1172 3481 
z
" transform="scale(0.015625)"/>
       </defs>
       <use xlink:href="#DejaVuSans-30"/>
       <use xlink:href="#DejaVuSans-2e" transform="translate(63.623047 0)"/>
       <use xlink:href="#DejaVuSans-38" transform="translate(95.410156 0)"/>
      </g>
     </g>
    </g>
    <g id="text_5">
     <!-- Quality, x [-] -->
     <g transform="translate(366.736563 432.716563) scale(0.1 -0.1)">
      <defs>
       <path id="DejaVuSans-51" d="M 2522 4238 
Q 1834 4238 1429 3725 
Q 1025 3213 1025 2328 
Q 1025 1447 1429 934 
Q 1834 422 2522 422 
Q 3209 422 3611 934 
Q 4013 1447 4013 2328 
Q 4013 3213 3611 3725 
Q 3209 4238 2522 4238 
z
M 3406 84 
L 4238 -825 
L 3475 -825 
L 2784 -78 
Q 2681 -84 2626 -87 
Q 2572 -91 2522 -91 
Q 1538 -91 948 567 
Q 359 1225 359 2328 
Q 359 3434 948 4092 
Q 1538 4750 2522 4750 
Q 3503 4750 4090 4092 
Q 4678 3434 4678 2328 
Q 4678 1516 4351 937 
Q 4025 359 3406 84 
z
" transform="scale(0.015625)"/>
       <path id="DejaVuSans-75" d="M 544 1381 
L 544 3500 
L 1119 3500 
L 1119 1403 
Q 1119 906 1312 657 
Q 1506 409 1894 409 
Q 2359 409 2629 706 
Q 2900 1003 2900 1516 
L 2900 3500 
L 3475 3500 
L 3475 0 
L 2900 0 
L 2900 538 
Q 2691 219 2414 64 
Q 2138 -91 1772 -91 
Q 1169 -91 856 284 
Q 544 659 544 1381 
z
M 1991 3584 
L 1991 3584 
z
" transform="scale(0.015625)"/>
       <path id="DejaVuSans-61" d="M 2194 1759 
Q 1497 1759 1228 1600 
Q 959 1441 959 1056 
Q 959 750 1161 570 
Q 1363 391 1709 391 
Q 2188 391 2477 730 
Q 2766 1069 2766 1631 
L 2766 1759 
L 2194 1759 
z
M 3341 1997 
L 3341 0 
L 2766 0 
L 2766 531 
Q 2569 213 2275 61 
Q 1981 -91 1556 -91 
Q 1019 -91 701 211 
Q 384 513 384 1019 
Q 384 1609 779 1909 
Q 1175 2209 1959 2209 
L 2766 2209 
L 2766 2266 
Q 2766 2663 2505 2880 
Q 2244 3097 1772 3097 
Q 1472 3097 1187 3025 
Q 903 2953 641 2809 
L 641 3341 
Q 956 3463 1253 3523 
Q 1550 3584 1831 3584 
Q 2591 3584 2966 3190 
Q 3341 2797 3341 1997 
z
" transform="scale(0.015625)"/>
       <path id="DejaVuSans-6c" d="M 603 4863 
L 1178 4863 
L 1178 0 
L 603 0 
L 603 4863 
z
" transform="scale(0.015625)"/>
       <path id="DejaVuSans-69" d="M 603 3500 
L 1178 3500 
L 1178 0 
L 603 0 
L 603 3500 
z
M 603 4863 
L 1178 4863 
L 1178 4134 
L 603 4134 
L 603 4863 
z
" transform="scale(0.015625)"/>
       <path id="DejaVuSans-74" d="M 1172 4494 
L 1172 3500 
L 2356 3500 
L 2356 3053 
L 1172 3053 
L 1172 1153 
Q 1172 725 1289 603 
Q 1406 481 1766 481 
L 2356 481 
L 2356 0 
L 1766 0 
Q 1100 0 847 248 
Q 594 497 594 1153 
L 594 3053 
L 172 3053 
L 172 3500 
L 594 3500 
L 594 4494 
L 1172 4494 
z
" transform="scale(0.015625)"/>
       <path id="DejaVuSans-79" d="M 2059 -325 
Q 1816 -950 1584 -1140 
Q 1353 -1331 966 -1331 
L 506 -1331 
L 506 -850 
L 844 -850 
Q 1081 -850 1212 -737 
Q 1344 -625 1503 -206 
L 1606 56 
L 191 3500 
L 800 3500 
L 1894 763 
L 2988 3500 
L 3597 3500 
L 2059 -325 
z
" transform="scale(0.015625)"/>
       <path id="DejaVuSans-2c" d="M 750 794 
L 1409 794 
L 1409 256 
L 897 -744 
L 494 -744 
L 750 256 
L 750 794 
z
" transform="scale(0.015625)"/>
       <path id="DejaVuSans-20" transform="scale(0.015625)"/>
       <path id="DejaVuSans-78" d="M 3513 3500 
L 2247 1797 
L 3578 0 
L 2900 0 
L 1881 1375 
L 863 0 
L 184 0 
L 1544 1831 
L 300 3500 
L 978 3500 
L 1906 2253 
L 2834 3500 
L 3513 3500 
z
" transform="scale(0.015625)"/>
       <path id="DejaVuSans-5b" d="M 550 4863 
L 1875 4863 
L 1875 4416 
L 1125 4416 
L 1125 -397 
L 1875 -397 
L 1875 -844 
L 550 -844 
L 550 4863 
z
" transform="scale(0.015625)"/>
       <path id="DejaVuSans-2d" d="M 313 2009 
L 1997 2009 
L 1997 1497 
L 313 1497 
L 313 2009 
z
" transform="scale(0.015625)"/>
       <path id="DejaVuSans-5d" d="M 1947 4863 
L 1947 -844 
L 622 -844 
L 622 -397 
L 1369 -397 
L 1369 4416 
L 622 4416 
L 622 4863 
L 1947 4863 
z
" transform="scale(0.015625)"/>
      </defs>
      <use xlink:href="#DejaVuSans-51"/>
      <use xlink:href="#DejaVuSans-75" transform="translate(78.710938 0)"/>
      <use xlink:href="#DejaVuSans-61" transform="translate(142.089844 0)"/>
      <use xlink:href="#DejaVuSans-6c" transform="translate(203.369141 0)"/>
      <use xlink:href="#DejaVuSans-69" transform="translate(231.152344 0)"/>
      <use xlink:href="#DejaVuSans-74" transform="translate(258.935547 0)"/>
      <use xlink:href="#DejaVuSans-79" transform="translate(298.144531 0)"/>
      <use xlink:href="#DejaVuSans-2c" transform="translate(357.324219 0)"/>
      <use xlink:href="#DejaVuSans-20" transform="translate(389.111328 0)"/>
      <use xlink:href="#DejaVuSans-78" transform="translate(420.898438 0)"/>
      <use xlink:href="#DejaVuSans-20" transform="translate(480.078125 0)"/>
      <use xlink:href="#DejaVuSans-5b" transform="translate(511.865234 0)"/>
      <use xlink:href="#DejaVuSans-2d" transform="translate(550.878906 0)"/>
      <use xlink:href="#DejaVuSans-5d" transform="translate(586.962891 0)"/>
     </g>
    </g>
   </g>
   <g id="matplotlib.axis_2">
    <g id="ytick_1">
     <g id="line2d_9">
      <path d="M 50.87 390.862059 
L 745.2 390.862059 
" clip-path="url(#p535079e9dc)" style="fill: none; stroke-dasharray: 0.8,1.32; stroke-dashoffset: 0; stroke: #b0b0b0; stroke-opacity: 0.6; stroke-width: 0.8"/>
     </g>
     <g id="line2d_10">
      <defs>
       <path id="mec1b245cfd" d="M 0 0 
L -3.5 0 
" style="stroke: #000000; stroke-width: 0.8"/>
      </defs>
      <g>
       <use xlink:href="#mec1b245cfd" x="50.87" y="390.862059" style="stroke: #000000; stroke-width: 0.8"/>
      </g>
     </g>
     <g id="text_6">
      <!-- 20 -->
      <g transform="translate(31.145 394.661277) scale(0.1 -0.1)">
       <use xlink:href="#DejaVuSans-32"/>
       <use xlink:href="#DejaVuSans-30" transform="translate(63.623047 0)"/>
      </g>
     </g>
    </g>
    <g id="ytick_2">
     <g id="line2d_11">
      <path d="M 50.87 329.472621 
L 745.2 329.472621 
" clip-path="url(#p535079e9dc)" style="fill: none; stroke-dasharray: 0.8,1.32; stroke-dashoffset: 0; stroke: #b0b0b0; stroke-opacity: 0.6; stroke-width: 0.8"/>
     </g>
     <g id="line2d_12">
      <g>
       <use xlink:href="#mec1b245cfd" x="50.87" y="329.472621" style="stroke: #000000; stroke-width: 0.8"/>
      </g>
     </g>
     <g id="text_7">
      <!-- 40 -->
      <g transform="translate(31.145 333.271839) scale(0.1 -0.1)">
       <use xlink:href="#DejaVuSans-34"/>
       <use xlink:href="#DejaVuSans-30" transform="translate(63.623047 0)"/>
      </g>
     </g>
    </g>
    <g id="ytick_3">
     <g id="line2d_13">
      <path d="M 50.87 268.083183 
L 745.2 268.083183 
" clip-path="url(#p535079e9dc)" style="fill: none; stroke-dasharray: 0.8,1.32; stroke-dashoffset: 0; stroke: #b0b0b0; stroke-opacity: 0.6; stroke-width: 0.8"/>
     </g>
     <g id="line2d_14">
      <g>
       <use xlink:href="#mec1b245cfd" x="50.87" y="268.083183" style="stroke: #000000; stroke-width: 0.8"/>
      </g>
     </g>
     <g id="text_8">
      <!-- 60 -->
      <g transform="translate(31.145 271.882402) scale(0.1 -0.1)">
       <use xlink:href="#DejaVuSans-36"/>
       <use xlink:href="#DejaVuSans-30" transform="translate(63.623047 0)"/>
      </g>
     </g>
    </g>
    <g id="ytick_4">
     <g id="line2d_15">
      <path d="M 50.87 206.693745 
L 745.2 206.693745 
" clip-path="url(#p535079e9dc)" style="fill: none; stroke-dasharray: 0.8,1.32; stroke-dashoffset: 0; stroke: #b0b0b0; stroke-opacity: 0.6; stroke-width: 0.8"/>
     </g>
     <g id="line2d_16">
      <g>
       <use xlink:href="#mec1b245cfd" x="50.87" y="206.693745" style="stroke: #000000; stroke-width: 0.8"/>
      </g>
     </g>
     <g id="text_9">
      <!-- 80 -->
      <g transform="translate(31.145 210.492964) scale(0.1 -0.1)">
       <use xlink:href="#DejaVuSans-38"/>
       <use xlink:href="#DejaVuSans-30" transform="translate(63.623047 0)"/>
      </g>
     </g>
    </g>
    <g id="ytick_5">
     <g id="line2d_17">
      <path d="M 50.87 145.304307 
L 745.2 145.304307 
" clip-path="url(#p535079e9dc)" style="fill: none; stroke-dasharray: 0.8,1.32; stroke-dashoffset: 0; stroke: #b0b0b0; stroke-opacity: 0.6; stroke-width: 0.8"/>
     </g>
     <g id="line2d_18">
      <g>
       <use xlink:href="#mec1b245cfd" x="50.87" y="145.304307" style="stroke: #000000; stroke-width: 0.8"/>
      </g>
     </g>
     <g id="text_10">
      <!-- 100 -->
      <g transform="translate(24.7825 149.103526) scale(0.1 -0.1)">
       <defs>
        <path id="DejaVuSans-31" d="M 794 531 
L 1825 531 
L 1825 4091 
L 703 3866 
L 703 4441 
L 1819 4666 
L 2450 4666 
L 2450 531 
L 3481 531 
L 3481 0 
L 794 0 
L 794 531 
z
" transform="scale(0.015625)"/>
       </defs>
       <use xlink:href="#DejaVuSans-31"/>
       <use xlink:href="#DejaVuSans-30" transform="translate(63.623047 0)"/>
       <use xlink:href="#DejaVuSans-30" transform="translate(127.246094 0)"/>
      </g>
     </g>
    </g>
    <g id="ytick_6">
     <g id="line2d_19">
      <path d="M 50.87 83.914869 
L 745.2 83.914869 
" clip-path="url(#p535079e9dc)" style="fill: none; stroke-dasharray: 0.8,1.32; stroke-dashoffset: 0; stroke: #b0b0b0; stroke-opacity: 0.6; stroke-width: 0.8"/>
     </g>
     <g id="line2d_20">
      <g>
       <use xlink:href="#mec1b245cfd" x="50.87" y="83.914869" style="stroke: #000000; stroke-width: 0.8"/>
      </g>
     </g>
     <g id="text_11">
      <!-- 120 -->
      <g transform="translate(24.7825 87.714088) scale(0.1 -0.1)">
       <use xlink:href="#DejaVuSans-31"/>
       <use xlink:href="#DejaVuSans-32" transform="translate(63.623047 0)"/>
       <use xlink:href="#DejaVuSans-30" transform="translate(127.246094 0)"/>
      </g>
     </g>
    </g>
    <g id="text_12">
     <!-- Speed of sound, a [m/s] -->
     <g transform="translate(18.702813 282.889406) rotate(-90) scale(0.1 -0.1)">
      <defs>
       <path id="DejaVuSans-53" d="M 3425 4513 
L 3425 3897 
Q 3066 4069 2747 4153 
Q 2428 4238 2131 4238 
Q 1616 4238 1336 4038 
Q 1056 3838 1056 3469 
Q 1056 3159 1242 3001 
Q 1428 2844 1947 2747 
L 2328 2669 
Q 3034 2534 3370 2195 
Q 3706 1856 3706 1288 
Q 3706 609 3251 259 
Q 2797 -91 1919 -91 
Q 1588 -91 1214 -16 
Q 841 59 441 206 
L 441 856 
Q 825 641 1194 531 
Q 1563 422 1919 422 
Q 2459 422 2753 634 
Q 3047 847 3047 1241 
Q 3047 1584 2836 1778 
Q 2625 1972 2144 2069 
L 1759 2144 
Q 1053 2284 737 2584 
Q 422 2884 422 3419 
Q 422 4038 858 4394 
Q 1294 4750 2059 4750 
Q 2388 4750 2728 4690 
Q 3069 4631 3425 4513 
z
" transform="scale(0.015625)"/>
       <path id="DejaVuSans-70" d="M 1159 525 
L 1159 -1331 
L 581 -1331 
L 581 3500 
L 1159 3500 
L 1159 2969 
Q 1341 3281 1617 3432 
Q 1894 3584 2278 3584 
Q 2916 3584 3314 3078 
Q 3713 2572 3713 1747 
Q 3713 922 3314 415 
Q 2916 -91 2278 -91 
Q 1894 -91 1617 61 
Q 1341 213 1159 525 
z
M 3116 1747 
Q 3116 2381 2855 2742 
Q 2594 3103 2138 3103 
Q 1681 3103 1420 2742 
Q 1159 2381 1159 1747 
Q 1159 1113 1420 752 
Q 1681 391 2138 391 
Q 2594 391 2855 752 
Q 3116 1113 3116 1747 
z
" transform="scale(0.015625)"/>
       <path id="DejaVuSans-65" d="M 3597 1894 
L 3597 1613 
L 953 1613 
Q 991 1019 1311 708 
Q 1631 397 2203 397 
Q 2534 397 2845 478 
Q 3156 559 3463 722 
L 3463 178 
Q 3153 47 2828 -22 
Q 2503 -91 2169 -91 
Q 1331 -91 842 396 
Q 353 884 353 1716 
Q 353 2575 817 3079 
Q 1281 3584 2069 3584 
Q 2775 3584 3186 3129 
Q 3597 2675 3597 1894 
z
M 3022 2063 
Q 3016 2534 2758 2815 
Q 2500 3097 2075 3097 
Q 1594 3097 1305 2825 
Q 1016 2553 972 2059 
L 3022 2063 
z
" transform="scale(0.015625)"/>
       <path id="DejaVuSans-64" d="M 2906 2969 
L 2906 4863 
L 3481 4863 
L 3481 0 
L 2906 0 
L 2906 525 
Q 2725 213 2448 61 
Q 2172 -91 1784 -91 
Q 1150 -91 751 415 
Q 353 922 353 1747 
Q 353 2572 751 3078 
Q 1150 3584 1784 3584 
Q 2172 3584 2448 3432 
Q 2725 3281 2906 2969 
z
M 947 1747 
Q 947 1113 1208 752 
Q 1469 391 1925 391 
Q 2381 391 2643 752 
Q 2906 1113 2906 1747 
Q 2906 2381 2643 2742 
Q 2381 3103 1925 3103 
Q 1469 3103 1208 2742 
Q 947 2381 947 1747 
z
" transform="scale(0.015625)"/>
       <path id="DejaVuSans-6f" d="M 1959 3097 
Q 1497 3097 1228 2736 
Q 959 2375 959 1747 
Q 959 1119 1226 758 
Q 1494 397 1959 397 
Q 2419 397 2687 759 
Q 2956 1122 2956 1747 
Q 2956 2369 2687 2733 
Q 2419 3097 1959 3097 
z
M 1959 3584 
Q 2709 3584 3137 3096 
Q 3566 2609 3566 1747 
Q 3566 888 3137 398 
Q 2709 -91 1959 -91 
Q 1206 -91 779 398 
Q 353 888 353 1747 
Q 353 2609 779 3096 
Q 1206 3584 1959 3584 
z
" transform="scale(0.015625)"/>
       <path id="DejaVuSans-66" d="M 2375 4863 
L 2375 4384 
L 1825 4384 
Q 1516 4384 1395 4259 
Q 1275 4134 1275 3809 
L 1275 3500 
L 2222 3500 
L 2222 3053 
L 1275 3053 
L 1275 0 
L 697 0 
L 697 3053 
L 147 3053 
L 147 3500 
L 697 3500 
L 697 3744 
Q 697 4328 969 4595 
Q 1241 4863 1831 4863 
L 2375 4863 
z
" transform="scale(0.015625)"/>
       <path id="DejaVuSans-73" d="M 2834 3397 
L 2834 2853 
Q 2591 2978 2328 3040 
Q 2066 3103 1784 3103 
Q 1356 3103 1142 2972 
Q 928 2841 928 2578 
Q 928 2378 1081 2264 
Q 1234 2150 1697 2047 
L 1894 2003 
Q 2506 1872 2764 1633 
Q 3022 1394 3022 966 
Q 3022 478 2636 193 
Q 2250 -91 1575 -91 
Q 1294 -91 989 -36 
Q 684 19 347 128 
L 347 722 
Q 666 556 975 473 
Q 1284 391 1588 391 
Q 1994 391 2212 530 
Q 2431 669 2431 922 
Q 2431 1156 2273 1281 
Q 2116 1406 1581 1522 
L 1381 1569 
Q 847 1681 609 1914 
Q 372 2147 372 2553 
Q 372 3047 722 3315 
Q 1072 3584 1716 3584 
Q 2034 3584 2315 3537 
Q 2597 3491 2834 3397 
z
" transform="scale(0.015625)"/>
       <path id="DejaVuSans-6e" d="M 3513 2113 
L 3513 0 
L 2938 0 
L 2938 2094 
Q 2938 2591 2744 2837 
Q 2550 3084 2163 3084 
Q 1697 3084 1428 2787 
Q 1159 2491 1159 1978 
L 1159 0 
L 581 0 
L 581 3500 
L 1159 3500 
L 1159 2956 
Q 1366 3272 1645 3428 
Q 1925 3584 2291 3584 
Q 2894 3584 3203 3211 
Q 3513 2838 3513 2113 
z
" transform="scale(0.015625)"/>
       <path id="DejaVuSans-6d" d="M 3328 2828 
Q 3544 3216 3844 3400 
Q 4144 3584 4550 3584 
Q 5097 3584 5394 3201 
Q 5691 2819 5691 2113 
L 5691 0 
L 5113 0 
L 5113 2094 
Q 5113 2597 4934 2840 
Q 4756 3084 4391 3084 
Q 3944 3084 3684 2787 
Q 3425 2491 3425 1978 
L 3425 0 
L 2847 0 
L 2847 2094 
Q 2847 2600 2669 2842 
Q 2491 3084 2119 3084 
Q 1678 3084 1418 2786 
Q 1159 2488 1159 1978 
L 1159 0 
L 581 0 
L 581 3500 
L 1159 3500 
L 1159 2956 
Q 1356 3278 1631 3431 
Q 1906 3584 2284 3584 
Q 2666 3584 2933 3390 
Q 3200 3197 3328 2828 
z
" transform="scale(0.015625)"/>
       <path id="DejaVuSans-2f" d="M 1625 4666 
L 2156 4666 
L 531 -594 
L 0 -594 
L 1625 4666 
z
" transform="scale(0.015625)"/>
      </defs>
      <use xlink:href="#DejaVuSans-53"/>
      <use xlink:href="#DejaVuSans-70" transform="translate(63.476562 0)"/>
      <use xlink:href="#DejaVuSans-65" transform="translate(126.953125 0)"/>
      <use xlink:href="#DejaVuSans-65" transform="translate(188.476562 0)"/>
      <use xlink:href="#DejaVuSans-64" transform="translate(250 0)"/>
      <use xlink:href="#DejaVuSans-20" transform="translate(313.476562 0)"/>
      <use xlink:href="#DejaVuSans-6f" transform="translate(345.263672 0)"/>
      <use xlink:href="#DejaVuSans-66" transform="translate(406.445312 0)"/>
      <use xlink:href="#DejaVuSans-20" transform="translate(441.650391 0)"/>
      <use xlink:href="#DejaVuSans-73" transform="translate(473.4375 0)"/>
      <use xlink:href="#DejaVuSans-6f" transform="translate(525.537109 0)"/>
      <use xlink:href="#DejaVuSans-75" transform="translate(586.71875 0)"/>
      <use xlink:href="#DejaVuSans-6e" transform="translate(650.097656 0)"/>
      <use xlink:href="#DejaVuSans-64" transform="translate(713.476562 0)"/>
      <use xlink:href="#DejaVuSans-2c" transform="translate(776.953125 0)"/>
      <use xlink:href="#DejaVuSans-20" transform="translate(808.740234 0)"/>
      <use xlink:href="#DejaVuSans-61" transform="translate(840.527344 0)"/>
      <use xlink:href="#DejaVuSans-20" transform="translate(901.806641 0)"/>
      <use xlink:href="#DejaVuSans-5b" transform="translate(933.59375 0)"/>
      <use xlink:href="#DejaVuSans-6d" transform="translate(972.607422 0)"/>
      <use xlink:href="#DejaVuSans-2f" transform="translate(1070.019531 0)"/>
      <use xlink:href="#DejaVuSans-73" transform="translate(1103.710938 0)"/>
      <use xlink:href="#DejaVuSans-5d" transform="translate(1155.810547 0)"/>
     </g>
    </g>
   </g>
   <g id="line2d_21">
    <path d="M 82.430455 387.958909 
L 92.950606 379.521159 
L 103.470758 371.286317 
L 113.990909 363.243315 
L 124.511061 355.381962 
L 135.031212 347.692861 
L 145.551364 340.167324 
L 156.071515 332.797307 
L 166.591667 325.575347 
L 177.111818 318.494505 
L 187.63197 311.548324 
L 198.152121 304.730781 
L 208.672273 298.036253 
L 219.192424 291.459478 
L 229.712576 284.99553 
L 240.232727 278.639786 
L 250.752879 272.387907 
L 261.27303 266.235811 
L 271.793182 260.179656 
L 282.313333 254.21582 
L 292.833485 248.340886 
L 303.353636 242.551625 
L 313.873788 236.844984 
L 324.393939 231.218073 
L 334.914091 225.668155 
L 345.434242 220.192631 
L 355.954394 214.789037 
L 366.474545 209.455031 
L 376.994697 204.188384 
L 387.514848 198.986977 
L 398.035 193.848792 
L 408.555152 188.771902 
L 419.075303 183.754473 
L 429.595455 178.794752 
L 440.115606 173.891064 
L 450.635758 169.041808 
L 461.155909 164.245453 
L 471.676061 159.500534 
L 482.196212 154.805647 
L 492.716364 150.159445 
L 503.236515 145.560639 
L 513.756667 141.00799 
L 524.276818 136.500309 
L 534.79697 132.036454 
L 545.317121 127.615328 
L 555.837273 123.235875 
L 566.357424 118.897078 
L 576.877576 114.597962 
L 587.397727 110.337582 
L 597.917879 106.115033 
L 608.43803 101.92944 
L 618.958182 97.779959 
L 629.478333 93.665775 
L 639.998485 89.586104 
L 650.518636 85.540186 
L 661.038788 81.527288 
L 671.558939 77.546702 
L 682.079091 73.597743 
L 692.599242 69.679748 
L 703.119394 65.792076 
L 713.639545 61.934107 
" clip-path="url(#p535079e9dc)" style="fill: none; stroke: #d62728; stroke-width: 2; stroke-linecap: square"/>
   </g>
   <g id="line2d_22">
    <path d="M 82.430455 276.850606 
L 92.950606 275.838972 
L 103.470758 272.90063 
L 113.990909 269.014533 
L 124.511061 264.634666 
L 135.031212 259.995761 
L 145.551364 255.228366 
L 156.071515 250.40882 
L 166.591667 245.583297 
L 177.111818 240.780306 
L 187.63197 236.017593 
L 198.152121 231.30614 
L 208.672273 226.652574 
L 219.192424 222.060666 
L 229.712576 217.532296 
L 240.232727 213.06807 
L 250.752879 208.667749 
L 261.27303 204.330522 
L 271.793182 200.055206 
L 282.313333 195.840378 
L 292.833485 191.684466 
L 303.353636 187.585818 
L 313.873788 183.542744 
L 324.393939 179.553551 
L 334.914091 175.616563 
L 345.434242 171.730136 
L 355.954394 167.89267 
L 366.474545 164.102614 
L 376.994697 160.35847 
L 387.514848 156.658796 
L 398.035 153.002203 
L 408.555152 149.387362 
L 419.075303 145.812994 
L 429.595455 142.277877 
L 440.115606 138.780839 
L 450.635758 135.320757 
L 461.155909 131.896556 
L 471.676061 128.507209 
L 482.196212 125.151728 
L 492.716364 121.82917 
L 503.236515 118.538631 
L 513.756667 115.279243 
L 524.276818 112.050175 
L 534.79697 108.850631 
L 545.317121 105.679844 
L 555.837273 102.537081 
L 566.357424 99.421637 
L 576.877576 96.332834 
L 587.397727 93.27002 
L 597.917879 90.23257 
L 608.43803 87.219881 
L 618.958182 84.231372 
L 629.478333 81.266486 
L 639.998485 78.324683 
L 650.518636 75.405447 
L 661.038788 72.508276 
L 671.558939 69.632687 
L 682.079091 66.778217 
L 692.599242 63.944414 
L 703.119394 61.130845 
L 713.639545 58.337091 
" clip-path="url(#p535079e9dc)" style="fill: none; stroke-dasharray: 7.4,3.2; stroke-dashoffset: 0; stroke: #9467bd; stroke-width: 2"/>
   </g>
   <g id="line2d_23">
    <path d="M 82.430455 277.924166 
L 92.950606 276.906696 
L 103.470758 273.97188 
L 113.990909 270.092699 
L 124.511061 265.720454 
L 135.031212 261.088563 
L 145.551364 256.326909 
L 156.071515 251.511503 
L 166.591667 246.688371 
L 177.111818 241.885981 
L 187.63197 237.122096 
L 198.152121 232.407749 
L 208.672273 227.74964 
L 219.192424 223.151624 
L 229.712576 218.615666 
L 240.232727 214.142464 
L 250.752879 209.731863 
L 261.27303 205.383139 
L 271.793182 201.09519 
L 282.313333 196.866671 
L 292.833485 192.696083 
L 303.353636 188.581843 
L 313.873788 184.522328 
L 324.393939 180.515905 
L 334.914091 176.560955 
L 345.434242 172.655889 
L 355.954394 168.799157 
L 366.474545 164.989255 
L 376.994697 161.224729 
L 387.514848 157.504176 
L 398.035 153.826248 
L 408.555152 150.18965 
L 419.075303 146.593137 
L 429.595455 143.035518 
L 440.115606 139.51565 
L 450.635758 136.032438 
L 461.155909 132.584831 
L 471.676061 129.171825 
L 482.196212 125.792457 
L 492.716364 122.445803 
L 503.236515 119.130977 
L 513.756667 115.847131 
L 524.276818 112.593451 
L 534.79697 109.369155 
L 545.317121 106.173492 
L 555.837273 103.005743 
L 566.357424 99.865214 
L 576.877576 96.751241 
L 587.397727 93.663183 
L 597.917879 90.600425 
L 608.43803 87.562374 
L 618.958182 84.548459 
L 629.478333 81.55813 
L 639.998485 78.590858 
L 650.518636 75.646131 
L 661.038788 72.723456 
L 671.558939 69.822358 
L 682.079091 66.942377 
L 692.599242 64.083069 
L 703.119394 61.244006 
L 713.639545 58.424773 
" clip-path="url(#p535079e9dc)" style="fill: none; stroke-dasharray: 12.8,3.2,2,3.2; stroke-dashoffset: 0; stroke: #ff7f0e; stroke-width: 2"/>
   </g>
   <g id="line2d_24">
    <path d="M 82.430455 387.958779 
L 92.950606 379.520973 
L 103.470758 371.286069 
L 113.990909 363.243 
L 124.511061 355.381575 
L 135.031212 347.692398 
L 145.551364 340.166781 
L 156.071515 332.796681 
L 166.591667 325.574635 
L 177.111818 318.493705 
L 187.63197 311.547433 
L 198.152121 304.729798 
L 208.672273 298.035176 
L 219.192424 291.458306 
L 229.712576 284.994261 
L 240.232727 278.63842 
L 250.752879 272.386442 
L 261.27303 266.234247 
L 271.793182 260.177992 
L 282.313333 254.214056 
L 292.833485 248.339021 
L 303.353636 242.549659 
L 313.873788 236.842917 
L 324.393939 231.215906 
L 334.914091 225.665886 
L 345.434242 220.190261 
L 355.954394 214.786566 
L 366.474545 209.452458 
L 376.994697 204.18571 
L 387.514848 198.984203 
L 398.035 193.845917 
L 408.555152 188.768927 
L 419.075303 183.751398 
L 429.595455 178.791577 
L 440.115606 173.887789 
L 450.635758 169.038434 
L 461.155909 164.24198 
L 471.676061 159.496963 
L 482.196212 154.801977 
L 492.716364 150.155678 
L 503.236515 145.556774 
L 513.756667 141.004029 
L 524.276818 136.496251 
L 534.79697 132.032301 
L 545.317121 127.611079 
L 555.837273 123.231531 
L 566.357424 118.89264 
L 576.877576 114.593429 
L 587.397727 110.332956 
L 597.917879 106.110314 
L 608.43803 101.924627 
L 618.958182 97.775054 
L 629.478333 93.660778 
L 639.998485 89.581016 
L 650.518636 85.535007 
L 661.038788 81.522019 
L 671.558939 77.541343 
L 682.079091 73.592294 
L 692.599242 69.67421 
L 703.119394 65.786449 
L 713.639545 61.928392 
" clip-path="url(#p535079e9dc)" style="fill: none; stroke: #1f77b4; stroke-width: 2; stroke-linecap: square"/>
   </g>
   <g id="patch_3">
    <path d="M 50.87 404.44 
L 50.87 41.856 
" style="fill: none; stroke: #000000; stroke-width: 0.8; stroke-linejoin: miter; stroke-linecap: square"/>
   </g>
   <g id="patch_4">
    <path d="M 745.2 404.44 
L 745.2 41.856 
" style="fill: none; stroke: #000000; stroke-width: 0.8; stroke-linejoin: miter; stroke-linecap: square"/>
   </g>
   <g id="patch_5">
    <path d="M 50.87 404.44 
L 745.2 404.44 
" style="fill: none; stroke: #000000; stroke-width: 0.8; stroke-linejoin: miter; stroke-linecap: square"/>
   </g>
   <g id="patch_6">
    <path d="M 50.87 41.856 
L 745.2 41.856 
" style="fill: none; stroke: #000000; stroke-width: 0.8; stroke-linejoin: miter; stroke-linecap: square"/>
   </g>
   <g id="text_13">
    <!-- Two-phase Speed of Sound vs Quality at P=10.00 bar(a) -->
    <g transform="translate(229.375938 22.418625) scale(0.12 -0.12)">
     <defs>
      <path id="DejaVuSans-54" d="M -19 4666 
L 3928 4666 
L 3928 4134 
L 2272 4134 
L 2272 0 
L 1638 0 
L 1638 4134 
L -19 4134 
L -19 4666 
z
" transform="scale(0.015625)"/>
      <path id="DejaVuSans-77" d="M 269 3500 
L 844 3500 
L 1563 769 
L 2278 3500 
L 2956 3500 
L 3675 769 
L 4391 3500 
L 4966 3500 
L 4050 0 
L 3372 0 
L 2619 2869 
L 1863 0 
L 1184 0 
L 269 3500 
z
" transform="scale(0.015625)"/>
      <path id="DejaVuSans-68" d="M 3513 2113 
L 3513 0 
L 2938 0 
L 2938 2094 
Q 2938 2591 2744 2837 
Q 2550 3084 2163 3084 
Q 1697 3084 1428 2787 
Q 1159 2491 1159 1978 
L 1159 0 
L 581 0 
L 581 4863 
L 1159 4863 
L 1159 2956 
Q 1366 3272 1645 3428 
Q 1925 3584 2291 3584 
Q 2894 3584 3203 3211 
Q 3513 2838 3513 2113 
z
" transform="scale(0.015625)"/>
      <path id="DejaVuSans-76" d="M 191 3500 
L 800 3500 
L 1894 563 
L 2988 3500 
L 3597 3500 
L 2284 0 
L 1503 0 
L 191 3500 
z
" transform="scale(0.015625)"/>
      <path id="DejaVuSans-50" d="M 1259 4147 
L 1259 2394 
L 2053 2394 
Q 2494 2394 2734 2622 
Q 2975 2850 2975 3272 
Q 2975 3691 2734 3919 
Q 2494 4147 2053 4147 
L 1259 4147 
z
M 628 4666 
L 2053 4666 
Q 2838 4666 3239 4311 
Q 3641 3956 3641 3272 
Q 3641 2581 3239 2228 
Q 2838 1875 2053 1875 
L 1259 1875 
L 1259 0 
L 628 0 
L 628 4666 
z
" transform="scale(0.015625)"/>
      <path id="DejaVuSans-3d" d="M 678 2906 
L 4684 2906 
L 4684 2381 
L 678 2381 
L 678 2906 
z
M 678 1631 
L 4684 1631 
L 4684 1100 
L 678 1100 
L 678 1631 
z
" transform="scale(0.015625)"/>
      <path id="DejaVuSans-62" d="M 3116 1747 
Q 3116 2381 2855 2742 
Q 2594 3103 2138 3103 
Q 1681 3103 1420 2742 
Q 1159 2381 1159 1747 
Q 1159 1113 1420 752 
Q 1681 391 2138 391 
Q 2594 391 2855 752 
Q 3116 1113 3116 1747 
z
M 1159 2969 
Q 1341 3281 1617 3432 
Q 1894 3584 2278 3584 
Q 2916 3584 3314 3078 
Q 3713 2572 3713 1747 
Q 3713 922 3314 415 
Q 2916 -91 2278 -91 
Q 1894 -91 1617 61 
Q 1341 213 1159 525 
L 1159 0 
L 581 0 
L 581 4863 
L 1159 4863 
L 1159 2969 
z
" transform="scale(0.015625)"/>
      <path id="DejaVuSans-72" d="M 2631 2963 
Q 2534 3019 2420 3045 
Q 2306 3072 2169 3072 
Q 1681 3072 1420 2755 
Q 1159 2438 1159 1844 
L 1159 0 
L 581 0 
L 581 3500 
L 1159 3500 
L 1159 2956 
Q 1341 3275 1631 3429 
Q 1922 3584 2338 3584 
Q 2397 3584 2469 3576 
Q 2541 3569 2628 3553 
L 2631 2963 
z
" transform="scale(0.015625)"/>
      <path id="DejaVuSans-28" d="M 1984 4856 
Q 1566 4138 1362 3434 
Q 1159 2731 1159 2009 
Q 1159 1288 1364 580 
Q 1569 -128 1984 -844 
L 1484 -844 
Q 1016 -109 783 600 
Q 550 1309 550 2009 
Q 550 2706 781 3412 
Q 1013 4119 1484 4856 
L 1984 4856 
z
" transform="scale(0.015625)"/>
      <path id="DejaVuSans-29" d="M 513 4856 
L 1013 4856 
Q 1481 4119 1714 3412 
Q 1947 2706 1947 2009 
Q 1947 1309 1714 600 
Q 1481 -109 1013 -844 
L 513 -844 
Q 928 -128 1133 580 
Q 1338 1288 1338 2009 
Q 1338 2731 1133 3434 
Q 928 4138 513 4856 
z
" transform="scale(0.015625)"/>
     </defs>
     <use xlink:href="#DejaVuSans-54"/>
     <use xlink:href="#DejaVuSans-77" transform="translate(44.583984 0)"/>
     <use xlink:href="#DejaVuSans-6f" transform="translate(126.371094 0)"/>
     <use xlink:href="#DejaVuSans-2d" transform="translate(189.427734 0)"/>
     <use xlink:href="#DejaVuSans-70" transform="translate(225.511719 0)"/>
     <use xlink:href="#DejaVuSans-68" transform="translate(288.988281 0)"/>
     <use xlink:href="#DejaVuSans-61" transform="translate(352.367188 0)"/>
     <use xlink:href="#DejaVuSans-73" transform="translate(413.646484 0)"/>
     <use xlink:href="#DejaVuSans-65" transform="translate(465.746094 0)"/>
     <use xlink:href="#DejaVuSans-20" transform="translate(527.269531 0)"/>
     <use xlink:href="#DejaVuSans-53" transform="translate(559.056641 0)"/>
     <use xlink:href="#DejaVuSans-70" transform="translate(622.533203 0)"/>
     <use xlink:href="#DejaVuSans-65" transform="translate(686.009766 0)"/>
     <use xlink:href="#DejaVuSans-65" transform="translate(747.533203 0)"/>
     <use xlink:href="#DejaVuSans-64" transform="translate(809.056641 0)"/>
     <use xlink:href="#DejaVuSans-20" transform="translate(872.533203 0)"/>
     <use xlink:href="#DejaVuSans-6f" transform="translate(904.320312 0)"/>
     <use xlink:href="#DejaVuSans-66" transform="translate(965.501953 0)"/>
     <use xlink:href="#DejaVuSans-20" transform="translate(1000.707031 0)"/>
     <use xlink:href="#DejaVuSans-53" transform="translate(1032.494141 0)"/>
     <use xlink:href="#DejaVuSans-6f" transform="translate(1095.970703 0)"/>
     <use xlink:href="#DejaVuSans-75" transform="translate(1157.152344 0)"/>
     <use xlink:href="#DejaVuSans-6e" transform="translate(1220.53125 0)"/>
     <use xlink:href="#DejaVuSans-64" transform="translate(1283.910156 0)"/>
     <use xlink:href="#DejaVuSans-20" transform="translate(1347.386719 0)"/>
     <use xlink:href="#DejaVuSans-76" transform="translate(1379.173828 0)"/>
     <use xlink:href="#DejaVuSans-73" transform="translate(1438.353516 0)"/>
     <use xlink:href="#DejaVuSans-20" transform="translate(1490.453125 0)"/>
     <use xlink:href="#DejaVuSans-51" transform="translate(1522.240234 0)"/>
     <use xlink:href="#DejaVuSans-75" transform="translate(1600.951172 0)"/>
     <use xlink:href="#DejaVuSans-61" transform="translate(1664.330078 0)"/>
     <use xlink:href="#DejaVuSans-6c" transform="translate(1725.609375 0)"/>
     <use xlink:href="#DejaVuSans-69" transform="translate(1753.392578 0)"/>
     <use xlink:href="#DejaVuSans-74" transform="translate(1781.175781 0)"/>
     <use xlink:href="#DejaVuSans-79" transform="translate(1820.384766 0)"/>
     <use xlink:href="#DejaVuSans-20" transform="translate(1879.564453 0)"/>
     <use xlink:href="#DejaVuSans-61" transform="translate(1911.351562 0)"/>
     <use xlink:href="#DejaVuSans-74" transform="translate(1972.630859 0)"/>
     <use xlink:href="#DejaVuSans-20" transform="translate(2011.839844 0)"/>
     <use xlink:href="#DejaVuSans-50" transform="translate(2043.626953 0)"/>
     <use xlink:href="#DejaVuSans-3d" transform="translate(2103.929688 0)"/>
     <use xlink:href="#DejaVuSans-31" transform="translate(2187.71875 0)"/>
     <use xlink:href="#DejaVuSans-30" transform="translate(2251.341797 0)"/>
     <use xlink:href="#DejaVuSans-2e" transform="translate(2314.964844 0)"/>
     <use xlink:href="#DejaVuSans-30" transform="translate(2346.751953 0)"/>
     <use xlink:href="#DejaVuSans-30" transform="translate(2410.375 0)"/>
     <use xlink:href="#DejaVuSans-20" transform="translate(2473.998047 0)"/>
     <use xlink:href="#DejaVuSans-62" transform="translate(2505.785156 0)"/>
     <use xlink:href="#DejaVuSans-61" transform="translate(2569.261719 0)"/>
     <use xlink:href="#DejaVuSans-72" transform="translate(2630.541016 0)"/>
     <use xlink:href="#DejaVuSans-28" transform="translate(2671.654297 0)"/>
     <use xlink:href="#DejaVuSans-61" transform="translate(2710.667969 0)"/>
     <use xlink:href="#DejaVuSans-29" transform="translate(2771.947266 0)"/>
    </g>
    <!-- REFPROP::R1234ZE(E) -->
    <g transform="translate(330.64 35.856) scale(0.12 -0.12)">
     <defs>
      <path id="DejaVuSans-52" d="M 2841 2188 
Q 3044 2119 3236 1894 
Q 3428 1669 3622 1275 
L 4263 0 
L 3584 0 
L 2988 1197 
Q 2756 1666 2539 1819 
Q 2322 1972 1947 1972 
L 1259 1972 
L 1259 0 
L 628 0 
L 628 4666 
L 2053 4666 
Q 2853 4666 3247 4331 
Q 3641 3997 3641 3322 
Q 3641 2881 3436 2590 
Q 3231 2300 2841 2188 
z
M 1259 4147 
L 1259 2491 
L 2053 2491 
Q 2509 2491 2742 2702 
Q 2975 2913 2975 3322 
Q 2975 3731 2742 3939 
Q 2509 4147 2053 4147 
L 1259 4147 
z
" transform="scale(0.015625)"/>
      <path id="DejaVuSans-45" d="M 628 4666 
L 3578 4666 
L 3578 4134 
L 1259 4134 
L 1259 2753 
L 3481 2753 
L 3481 2222 
L 1259 2222 
L 1259 531 
L 3634 531 
L 3634 0 
L 628 0 
L 628 4666 
z
" transform="scale(0.015625)"/>
      <path id="DejaVuSans-46" d="M 628 4666 
L 3309 4666 
L 3309 4134 
L 1259 4134 
L 1259 2759 
L 3109 2759 
L 3109 2228 
L 1259 2228 
L 1259 0 
L 628 0 
L 628 4666 
z
" transform="scale(0.015625)"/>
      <path id="DejaVuSans-4f" d="M 2522 4238 
Q 1834 4238 1429 3725 
Q 1025 3213 1025 2328 
Q 1025 1447 1429 934 
Q 1834 422 2522 422 
Q 3209 422 3611 934 
Q 4013 1447 4013 2328 
Q 4013 3213 3611 3725 
Q 3209 4238 2522 4238 
z
M 2522 4750 
Q 3503 4750 4090 4092 
Q 4678 3434 4678 2328 
Q 4678 1225 4090 567 
Q 3503 -91 2522 -91 
Q 1538 -91 948 565 
Q 359 1222 359 2328 
Q 359 3434 948 4092 
Q 1538 4750 2522 4750 
z
" transform="scale(0.015625)"/>
      <path id="DejaVuSans-3a" d="M 750 794 
L 1409 794 
L 1409 0 
L 750 0 
L 750 794 
z
M 750 3309 
L 1409 3309 
L 1409 2516 
L 750 2516 
L 750 3309 
z
" transform="scale(0.015625)"/>
      <path id="DejaVuSans-33" d="M 2597 2516 
Q 3050 2419 3304 2112 
Q 3559 1806 3559 1356 
Q 3559 666 3084 287 
Q 2609 -91 1734 -91 
Q 1441 -91 1130 -33 
Q 819 25 488 141 
L 488 750 
Q 750 597 1062 519 
Q 1375 441 1716 441 
Q 2309 441 2620 675 
Q 2931 909 2931 1356 
Q 2931 1769 2642 2001 
Q 2353 2234 1838 2234 
L 1294 2234 
L 1294 2753 
L 1863 2753 
Q 2328 2753 2575 2939 
Q 2822 3125 2822 3475 
Q 2822 3834 2567 4026 
Q 2313 4219 1838 4219 
Q 1578 4219 1281 4162 
Q 984 4106 628 3988 
L 628 4550 
Q 988 4650 1302 4700 
Q 1616 4750 1894 4750 
Q 2613 4750 3031 4423 
Q 3450 4097 3450 3541 
Q 3450 3153 3228 2886 
Q 3006 2619 2597 2516 
z
" transform="scale(0.015625)"/>
      <path id="DejaVuSans-5a" d="M 359 4666 
L 4025 4666 
L 4025 4184 
L 1075 531 
L 4097 531 
L 4097 0 
L 288 0 
L 288 481 
L 3238 4134 
L 359 4134 
L 359 4666 
z
" transform="scale(0.015625)"/>
     </defs>
     <use xlink:href="#DejaVuSans-52"/>
     <use xlink:href="#DejaVuSans-45" transform="translate(69.482422 0)"/>
     <use xlink:href="#DejaVuSans-46" transform="translate(132.666016 0)"/>
     <use xlink:href="#DejaVuSans-50" transform="translate(190.185547 0)"/>
     <use xlink:href="#DejaVuSans-52" transform="translate(250.488281 0)"/>
     <use xlink:href="#DejaVuSans-4f" transform="translate(319.970703 0)"/>
     <use xlink:href="#DejaVuSans-50" transform="translate(398.681641 0)"/>
     <use xlink:href="#DejaVuSans-3a" transform="translate(458.984375 0)"/>
     <use xlink:href="#DejaVuSans-3a" transform="translate(492.675781 0)"/>
     <use xlink:href="#DejaVuSans-52" transform="translate(526.367188 0)"/>
     <use xlink:href="#DejaVuSans-31" transform="translate(595.849609 0)"/>
     <use xlink:href="#DejaVuSans-32" transform="translate(659.472656 0)"/>
     <use xlink:href="#DejaVuSans-33" transform="translate(723.095703 0)"/>
     <use xlink:href="#DejaVuSans-34" transform="translate(786.71875 0)"/>
     <use xlink:href="#DejaVuSans-5a" transform="translate(850.341797 0)"/>
     <use xlink:href="#DejaVuSans-45" transform="translate(918.847656 0)"/>
     <use xlink:href="#DejaVuSans-28" transform="translate(982.03125 0)"/>
     <use xlink:href="#DejaVuSans-45" transform="translate(1021.044922 0)"/>
     <use xlink:href="#DejaVuSans-29" transform="translate(1084.228516 0)"/>
    </g>
   </g>
   <g id="legend_1">
    <g id="patch_7">
     <path d="M 57.87 108.890375 
L 261.835625 108.890375 
Q 263.835625 108.890375 263.835625 106.890375 
L 263.835625 48.856 
Q 263.835625 46.856 261.835625 46.856 
L 57.87 46.856 
Q 55.87 46.856 55.87 48.856 
L 55.87 106.890375 
Q 55.87 108.890375 57.87 108.890375 
z
" style="fill: #ffffff; opacity: 0.8; stroke: #cccccc; stroke-linejoin: miter"/>
    </g>
    <g id="line2d_25">
     <path d="M 59.87 54.954437 
L 69.87 54.954437 
L 79.87 54.954437 
" style="fill: none; stroke: #d62728; stroke-width: 2; stroke-linecap: square"/>
    </g>
    <g id="text_14">
     <!-- HEM (equilibrium, improved) -->
     <g transform="translate(87.87 58.454437) scale(0.1 -0.1)">
      <defs>
       <path id="DejaVuSans-48" d="M 628 4666 
L 1259 4666 
L 1259 2753 
L 3553 2753 
L 3553 4666 
L 4184 4666 
L 4184 0 
L 3553 0 
L 3553 2222 
L 1259 2222 
L 1259 0 
L 628 0 
L 628 4666 
z
" transform="scale(0.015625)"/>
       <path id="DejaVuSans-4d" d="M 628 4666 
L 1569 4666 
L 2759 1491 
L 3956 4666 
L 4897 4666 
L 4897 0 
L 4281 0 
L 4281 4097 
L 3078 897 
L 2444 897 
L 1241 4097 
L 1241 0 
L 628 0 
L 628 4666 
z
" transform="scale(0.015625)"/>
       <path id="DejaVuSans-71" d="M 947 1747 
Q 947 1113 1208 752 
Q 1469 391 1925 391 
Q 2381 391 2643 752 
Q 2906 1113 2906 1747 
Q 2906 2381 2643 2742 
Q 2381 3103 1925 3103 
Q 1469 3103 1208 2742 
Q 947 2381 947 1747 
z
M 2906 525 
Q 2725 213 2448 61 
Q 2172 -91 1784 -91 
Q 1150 -91 751 415 
Q 353 922 353 1747 
Q 353 2572 751 3078 
Q 1150 3584 1784 3584 
Q 2172 3584 2448 3432 
Q 2725 3281 2906 2969 
L 2906 3500 
L 3481 3500 
L 3481 -1331 
L 2906 -1331 
L 2906 525 
z
" transform="scale(0.015625)"/>
      </defs>
      <use xlink:href="#DejaVuSans-48"/>
      <use xlink:href="#DejaVuSans-45" transform="translate(75.195312 0)"/>
      <use xlink:href="#DejaVuSans-4d" transform="translate(138.378906 0)"/>
      <use xlink:href="#DejaVuSans-20" transform="translate(224.658203 0)"/>
      <use xlink:href="#DejaVuSans-28" transform="translate(256.445312 0)"/>
      <use xlink:href="#DejaVuSans-65" transform="translate(295.458984 0)"/>
      <use xlink:href="#DejaVuSans-71" transform="translate(356.982422 0)"/>
      <use xlink:href="#DejaVuSans-75" transform="translate(420.458984 0)"/>
      <use xlink:href="#DejaVuSans-69" transform="translate(483.837891 0)"/>
      <use xlink:href="#DejaVuSans-6c" transform="translate(511.621094 0)"/>
      <use xlink:href="#DejaVuSans-69" transform="translate(539.404297 0)"/>
      <use xlink:href="#DejaVuSans-62" transform="translate(567.1875 0)"/>
      <use xlink:href="#DejaVuSans-72" transform="translate(630.664062 0)"/>
      <use xlink:href="#DejaVuSans-69" transform="translate(671.777344 0)"/>
      <use xlink:href="#DejaVuSans-75" transform="translate(699.560547 0)"/>
      <use xlink:href="#DejaVuSans-6d" transform="translate(762.939453 0)"/>
      <use xlink:href="#DejaVuSans-2c" transform="translate(860.351562 0)"/>
      <use xlink:href="#DejaVuSans-20" transform="translate(892.138672 0)"/>
      <use xlink:href="#DejaVuSans-69" transform="translate(923.925781 0)"/>
      <use xlink:href="#DejaVuSans-6d" transform="translate(951.708984 0)"/>
      <use xlink:href="#DejaVuSans-70" transform="translate(1049.121094 0)"/>
      <use xlink:href="#DejaVuSans-72" transform="translate(1112.597656 0)"/>
      <use xlink:href="#DejaVuSans-6f" transform="translate(1151.460938 0)"/>
      <use xlink:href="#DejaVuSans-76" transform="translate(1212.642578 0)"/>
      <use xlink:href="#DejaVuSans-65" transform="translate(1271.822266 0)"/>
      <use xlink:href="#DejaVuSans-64" transform="translate(1333.345703 0)"/>
      <use xlink:href="#DejaVuSans-29" transform="translate(1396.822266 0)"/>
     </g>
    </g>
    <g id="line2d_26">
     <path d="M 59.87 69.632563 
L 69.87 69.632563 
L 79.87 69.632563 
" style="fill: none; stroke-dasharray: 7.4,3.2; stroke-dashoffset: 0; stroke: #9467bd; stroke-width: 2"/>
    </g>
    <g id="text_15">
     <!-- Frozen (Wood) -->
     <g transform="translate(87.87 73.132563) scale(0.1 -0.1)">
      <defs>
       <path id="DejaVuSans-7a" d="M 353 3500 
L 3084 3500 
L 3084 2975 
L 922 459 
L 3084 459 
L 3084 0 
L 275 0 
L 275 525 
L 2438 3041 
L 353 3041 
L 353 3500 
z
" transform="scale(0.015625)"/>
       <path id="DejaVuSans-57" d="M 213 4666 
L 850 4666 
L 1831 722 
L 2809 4666 
L 3519 4666 
L 4500 722 
L 5478 4666 
L 6119 4666 
L 4947 0 
L 4153 0 
L 3169 4050 
L 2175 0 
L 1381 0 
L 213 4666 
z
" transform="scale(0.015625)"/>
      </defs>
      <use xlink:href="#DejaVuSans-46"/>
      <use xlink:href="#DejaVuSans-72" transform="translate(50.269531 0)"/>
      <use xlink:href="#DejaVuSans-6f" transform="translate(89.132812 0)"/>
      <use xlink:href="#DejaVuSans-7a" transform="translate(150.314453 0)"/>
      <use xlink:href="#DejaVuSans-65" transform="translate(202.804688 0)"/>
      <use xlink:href="#DejaVuSans-6e" transform="translate(264.328125 0)"/>
      <use xlink:href="#DejaVuSans-20" transform="translate(327.707031 0)"/>
      <use xlink:href="#DejaVuSans-28" transform="translate(359.494141 0)"/>
      <use xlink:href="#DejaVuSans-57" transform="translate(398.507812 0)"/>
      <use xlink:href="#DejaVuSans-6f" transform="translate(491.509766 0)"/>
      <use xlink:href="#DejaVuSans-6f" transform="translate(552.691406 0)"/>
      <use xlink:href="#DejaVuSans-64" transform="translate(613.873047 0)"/>
      <use xlink:href="#DejaVuSans-29" transform="translate(677.349609 0)"/>
     </g>
    </g>
    <g id="line2d_27">
     <path d="M 59.87 84.354437 
L 69.87 84.354437 
L 79.87 84.354437 
" style="fill: none; stroke-dasharray: 12.8,3.2,2,3.2; stroke-dashoffset: 0; stroke: #ff7f0e; stroke-width: 2"/>
    </g>
    <g id="text_16">
     <!-- Relaxation |a| (f=200 Hz, τ=5 ms) -->
     <g transform="translate(87.87 87.854437) scale(0.1 -0.1)">
      <defs>
       <path id="DejaVuSans-7c" d="M 1344 4891 
L 1344 -1509 
L 813 -1509 
L 813 4891 
L 1344 4891 
z
" transform="scale(0.015625)"/>
       <path id="DejaVuSans-3c4" d="M 2319 638 
Q 2431 488 2769 488 
L 3047 488 
L 3047 0 
L 2700 0 
Q 2138 0 1881 300 
Q 1625 606 1625 1269 
L 1625 2925 
L 313 2925 
L 313 3500 
L 3541 3500 
L 3541 2925 
L 2213 2925 
L 2213 1234 
Q 2213 781 2319 638 
z
" transform="scale(0.015625)"/>
       <path id="DejaVuSans-35" d="M 691 4666 
L 3169 4666 
L 3169 4134 
L 1269 4134 
L 1269 2991 
Q 1406 3038 1543 3061 
Q 1681 3084 1819 3084 
Q 2600 3084 3056 2656 
Q 3513 2228 3513 1497 
Q 3513 744 3044 326 
Q 2575 -91 1722 -91 
Q 1428 -91 1123 -41 
Q 819 9 494 109 
L 494 744 
Q 775 591 1075 516 
Q 1375 441 1709 441 
Q 2250 441 2565 725 
Q 2881 1009 2881 1497 
Q 2881 1984 2565 2268 
Q 2250 2553 1709 2553 
Q 1456 2553 1204 2497 
Q 953 2441 691 2322 
L 691 4666 
z
" transform="scale(0.015625)"/>
      </defs>
      <use xlink:href="#DejaVuSans-52"/>
      <use xlink:href="#DejaVuSans-65" transform="translate(64.982422 0)"/>
      <use xlink:href="#DejaVuSans-6c" transform="translate(126.505859 0)"/>
      <use xlink:href="#DejaVuSans-61" transform="translate(154.289062 0)"/>
      <use xlink:href="#DejaVuSans-78" transform="translate(215.568359 0)"/>
      <use xlink:href="#DejaVuSans-61" transform="translate(274.748047 0)"/>
      <use xlink:href="#DejaVuSans-74" transform="translate(336.027344 0)"/>
      <use xlink:href="#DejaVuSans-69" transform="translate(375.236328 0)"/>
      <use xlink:href="#DejaVuSans-6f" transform="translate(403.019531 0)"/>
      <use xlink:href="#DejaVuSans-6e" transform="translate(464.201172 0)"/>
      <use xlink:href="#DejaVuSans-20" transform="translate(527.580078 0)"/>
      <use xlink:href="#DejaVuSans-7c" transform="translate(559.367188 0)"/>
      <use xlink:href="#DejaVuSans-61" transform="translate(593.058594 0)"/>
      <use xlink:href="#DejaVuSans-7c" transform="translate(654.337891 0)"/>
      <use xlink:href="#DejaVuSans-20" transform="translate(688.029297 0)"/>
      <use xlink:href="#DejaVuSans-28" transform="translate(719.816406 0)"/>
      <use xlink:href="#DejaVuSans-66" transform="translate(758.830078 0)"/>
      <use xlink:href="#DejaVuSans-3d" transform="translate(794.035156 0)"/>
      <use xlink:href="#DejaVuSans-32" transform="translate(877.824219 0)"/>
      <use xlink:href="#DejaVuSans-30" transform="translate(941.447266 0)"/>
      <use xlink:href="#DejaVuSans-30" transform="translate(1005.070312 0)"/>
      <use xlink:href="#DejaVuSans-20" transform="translate(1068.693359 0)"/>
      <use xlink:href="#DejaVuSans-48" transform="translate(1100.480469 0)"/>
      <use xlink:href="#DejaVuSans-7a" transform="translate(1175.675781 0)"/>
      <use xlink:href="#DejaVuSans-2c" transform="translate(1228.166016 0)"/>
      <use xlink:href="#DejaVuSans-20" transform="translate(1259.953125 0)"/>
      <use xlink:href="#DejaVuSans-3c4" transform="translate(1291.740234 0)"/>
      <use xlink:href="#DejaVuSans-3d" transform="translate(1351.945312 0)"/>
      <use xlink:href="#DejaVuSans-35" transform="translate(1435.734375 0)"/>
      <use xlink:href="#DejaVuSans-20" transform="translate(1499.357422 0)"/>
      <use xlink:href="#DejaVuSans-6d" transform="translate(1531.144531 0)"/>
      <use xlink:href="#DejaVuSans-73" transform="translate(1628.556641 0)"/>
      <use xlink:href="#DejaVuSans-29" transform="translate(1680.65625 0)"/>
     </g>
    </g>
    <g id="line2d_28">
     <path d="M 59.87 99.310687 
L 69.87 99.310687 
L 79.87 99.310687 
" style="fill: none; stroke: #1f77b4; stroke-width: 2; stroke-linecap: square"/>
    </g>
    <g id="text_17">
     <!-- Your P–Q method (stabilized) -->
     <g transform="translate(87.87 102.810687) scale(0.1 -0.1)">
      <defs>
       <path id="DejaVuSans-59" d="M -13 4666 
L 666 4666 
L 1959 2747 
L 3244 4666 
L 3922 4666 
L 2272 2222 
L 2272 0 
L 1638 0 
L 1638 2222 
L -13 4666 
z
" transform="scale(0.015625)"/>
       <path id="DejaVuSans-2013" d="M 313 1978 
L 2888 1978 
L 2888 1528 
L 313 1528 
L 313 1978 
z
" transform="scale(0.015625)"/>
      </defs>
      <use xlink:href="#DejaVuSans-59"/>
      <use xlink:href="#DejaVuSans-6f" transform="translate(47.833984 0)"/>
      <use xlink:href="#DejaVuSans-75" transform="translate(109.015625 0)"/>
      <use xlink:href="#DejaVuSans-72" transform="translate(172.394531 0)"/>
      <use xlink:href="#DejaVuSans-20" transform="translate(213.507812 0)"/>
      <use xlink:href="#DejaVuSans-50" transform="translate(245.294922 0)"/>
      <use xlink:href="#DejaVuSans-2013" transform="translate(305.597656 0)"/>
      <use xlink:href="#DejaVuSans-51" transform="translate(355.597656 0)"/>
      <use xlink:href="#DejaVuSans-20" transform="translate(434.308594 0)"/>
      <use xlink:href="#DejaVuSans-6d" transform="translate(466.095703 0)"/>
      <use xlink:href="#DejaVuSans-65" transform="translate(563.507812 0)"/>
      <use xlink:href="#DejaVuSans-74" transform="translate(625.03125 0)"/>
      <use xlink:href="#DejaVuSans-68" transform="translate(664.240234 0)"/>
      <use xlink:href="#DejaVuSans-6f" transform="translate(727.619141 0)"/>
      <use xlink:href="#DejaVuSans-64" transform="translate(788.800781 0)"/>
      <use xlink:href="#DejaVuSans-20" transform="translate(852.277344 0)"/>
      <use xlink:href="#DejaVuSans-28" transform="translate(884.064453 0)"/>
      <use xlink:href="#DejaVuSans-73" transform="translate(923.078125 0)"/>
      <use xlink:href="#DejaVuSans-74" transform="translate(975.177734 0)"/>
      <use xlink:href="#DejaVuSans-61" transform="translate(1014.386719 0)"/>
      <use xlink:href="#DejaVuSans-62" transform="translate(1075.666016 0)"/>
      <use xlink:href="#DejaVuSans-69" transform="translate(1139.142578 0)"/>
      <use xlink:href="#DejaVuSans-6c" transform="translate(1166.925781 0)"/>
      <use xlink:href="#DejaVuSans-69" transform="translate(1194.708984 0)"/>
      <use xlink:href="#DejaVuSans-7a" transform="translate(1222.492188 0)"/>
      <use xlink:href="#DejaVuSans-65" transform="translate(1274.982422 0)"/>
      <use xlink:href="#DejaVuSans-64" transform="translate(1336.505859 0)"/>
      <use xlink:href="#DejaVuSans-29" transform="translate(1399.982422 0)"/>
     </g>
    </g>
   </g>
  </g>
 </g>
 <defs>
  <clipPath id="p535079e9dc">
   <rect x="50.87" y="41.856" width="694.33" height="362.584"/>
  </clipPath>
 </defs>
</svg>
