<?xml version="1.0" encoding="utf-8" standalone="no"?>
<!DOCTYPE svg PUBLIC "-//W3C//DTD SVG 1.1//EN"
  "http://www.w3.org/Graphics/SVG/1.1/DTD/svg11.dtd">
<svg xmlns:xlink="http://www.w3.org/1999/xlink" width="792pt" height="446.4pt" viewBox="0 0 792 446.4" xmlns="http://www.w3.org/2000/svg" version="1.1">
 <metadata>
  <rdf:RDF xmlns:dc="http://purl.org/dc/elements/1.1/" xmlns:cc="http://creativecommons.org/ns#" xmlns:rdf="http://www.w3.org/1999/02/22-rdf-syntax-ns#">
   <cc:Work>
    <dc:type rdf:resource="http://purl.org/dc/dcmitype/StillImage"/>
    <dc:date>2025-11-03T13:39:52.181618</dc:date>
    <dc:format>image/svg+xml</dc:format>
    <dc:creator>
     <cc:Agent>
      <dc:title>Matplotlib v3.10.1, https://matplotlib.org/</dc:title>
     </cc:Agent>
    </dc:creator>
   </cc:Work>
  </rdf:RDF>
 </metadata>
 <defs>
  <style type="text/css">*{stroke-linejoin: round; stroke-linecap: butt}</style>
 </defs>
 <g id="figure_1">
  <g id="patch_1">
   <path d="M 0 446.4 
L 792 446.4 
L 792 0 
L 0 0 
z
" style="fill: #ffffff"/>
  </g>
  <g id="axes_1">
   <g id="patch_2">
    <path d="M 50.87 404.08 
L 781.2 404.08 
L 781.2 42.04725 
L 50.87 42.04725 
z
" style="fill: #ffffff"/>
   </g>
   <g id="matplotlib.axis_1">
    <g id="xtick_1">
     <g id="line2d_1">
      <path d="M 84.066818 404.08 
L 84.066818 42.04725 
" clip-path="url(#pcc0d0fe47d)" style="fill: none; stroke-dasharray: 0.8,1.32; stroke-dashoffset: 0; stroke: #b0b0b0; stroke-opacity: 0.6; stroke-width: 0.8"/>
     </g>
     <g id="line2d_2">
      <defs>
       <path id="m3299fb4dd7" d="M 0 0 
L 0 3.5 
" style="stroke: #000000; stroke-width: 0.8"/>
      </defs>
      <g>
       <use xlink:href="#m3299fb4dd7" x="84.066818" y="404.08" style="stroke: #000000; stroke-width: 0.8"/>
      </g>
     </g>
     <g id="text_1">
      <!-- -2 -->
      <g transform="translate(79.081662 418.678438) scale(0.1 -0.1)">
       <defs>
        <path id="DejaVuSans-2d" d="M 313 2009 
L 1997 2009 
L 1997 1497 
L 313 1497 
L 313 2009 
z
" transform="scale(0.015625)"/>
        <path id="DejaVuSans-32" d="M 1228 531 
L 3431 531 
L 3431 0 
L 469 0 
L 469 531 
Q 828 903 1448 1529 
Q 2069 2156 2228 2338 
Q 2531 2678 2651 2914 
Q 2772 3150 2772 3378 
Q 2772 3750 2511 3984 
Q 2250 4219 1831 4219 
Q 1534 4219 1204 4116 
Q 875 4013 500 3803 
L 500 4441 
Q 881 4594 1212 4672 
Q 1544 4750 1819 4750 
Q 2544 4750 2975 4387 
Q 3406 4025 3406 3419 
Q 3406 3131 3298 2873 
Q 3191 2616 2906 2266 
Q 2828 2175 2409 1742 
Q 1991 1309 1228 531 
z
" transform="scale(0.015625)"/>
       </defs>
       <use xlink:href="#DejaVuSans-2d"/>
       <use xlink:href="#DejaVuSans-32" transform="translate(36.083984 0)"/>
      </g>
     </g>
    </g>
    <g id="xtick_2">
     <g id="line2d_3">
      <path d="M 104.81483 404.08 
L 104.81483 42.04725 
" clip-path="url(#pcc0d0fe47d)" style="fill: none; stroke-dasharray: 0.8,1.32; stroke-dashoffset: 0; stroke: #b0b0b0; stroke-opacity: 0.6; stroke-width: 0.8"/>
     </g>
     <g id="line2d_4">
      <g>
       <use xlink:href="#m3299fb4dd7" x="104.81483" y="404.08" style="stroke: #000000; stroke-width: 0.8"/>
      </g>
     </g>
     <g id="text_2">
      <!-- -1 -->
      <g transform="translate(99.829673 418.678438) scale(0.1 -0.1)">
       <defs>
        <path id="DejaVuSans-31" d="M 794 531 
L 1825 531 
L 1825 4091 
L 703 3866 
L 703 4441 
L 1819 4666 
L 2450 4666 
L 2450 531 
L 3481 531 
L 3481 0 
L 794 0 
L 794 531 
z
" transform="scale(0.015625)"/>
       </defs>
       <use xlink:href="#DejaVuSans-2d"/>
       <use xlink:href="#DejaVuSans-31" transform="translate(36.083984 0)"/>
      </g>
     </g>
    </g>
    <g id="xtick_3">
     <g id="line2d_5">
      <path d="M 125.562841 404.08 
L 125.562841 42.04725 
" clip-path="url(#pcc0d0fe47d)" style="fill: none; stroke-dasharray: 0.8,1.32; stroke-dashoffset: 0; stroke: #b0b0b0; stroke-opacity: 0.6; stroke-width: 0.8"/>
     </g>
     <g id="line2d_6">
      <g>
       <use xlink:href="#m3299fb4dd7" x="125.562841" y="404.08" style="stroke: #000000; stroke-width: 0.8"/>
      </g>
     </g>
     <g id="text_3">
      <!-- -1 -->
      <g transform="translate(120.577685 418.678438) scale(0.1 -0.1)">
       <use xlink:href="#DejaVuSans-2d"/>
       <use xlink:href="#DejaVuSans-31" transform="translate(36.083984 0)"/>
      </g>
     </g>
    </g>
    <g id="xtick_4">
     <g id="line2d_7">
      <path d="M 146.310852 404.08 
L 146.310852 42.04725 
" clip-path="url(#pcc0d0fe47d)" style="fill: none; stroke-dasharray: 0.8,1.32; stroke-dashoffset: 0; stroke: #b0b0b0; stroke-opacity: 0.6; stroke-width: 0.8"/>
     </g>
     <g id="line2d_8">
      <g>
       <use xlink:href="#m3299fb4dd7" x="146.310852" y="404.08" style="stroke: #000000; stroke-width: 0.8"/>
      </g>
     </g>
     <g id="text_4">
      <!-- 0 -->
      <g transform="translate(143.129602 418.678438) scale(0.1 -0.1)">
       <defs>
        <path id="DejaVuSans-30" d="M 2034 4250 
Q 1547 4250 1301 3770 
Q 1056 3291 1056 2328 
Q 1056 1369 1301 889 
Q 1547 409 2034 409 
Q 2525 409 2770 889 
Q 3016 1369 3016 2328 
Q 3016 3291 2770 3770 
Q 2525 4250 2034 4250 
z
M 2034 4750 
Q 2819 4750 3233 4129 
Q 3647 3509 3647 2328 
Q 3647 1150 3233 529 
Q 2819 -91 2034 -91 
Q 1250 -91 836 529 
Q 422 1150 422 2328 
Q 422 3509 836 4129 
Q 1250 4750 2034 4750 
z
" transform="scale(0.015625)"/>
       </defs>
       <use xlink:href="#DejaVuSans-30"/>
      </g>
     </g>
    </g>
    <g id="xtick_5">
     <g id="line2d_9">
      <path d="M 167.058864 404.08 
L 167.058864 42.04725 
" clip-path="url(#pcc0d0fe47d)" style="fill: none; stroke-dasharray: 0.8,1.32; stroke-dashoffset: 0; stroke: #b0b0b0; stroke-opacity: 0.6; stroke-width: 0.8"/>
     </g>
     <g id="line2d_10">
      <g>
       <use xlink:href="#m3299fb4dd7" x="167.058864" y="404.08" style="stroke: #000000; stroke-width: 0.8"/>
      </g>
     </g>
     <g id="text_5">
      <!-- Q=0 -->
      <g transform="translate(155.751832 418.678438) scale(0.1 -0.1)">
       <defs>
        <path id="DejaVuSans-51" d="M 2522 4238 
Q 1834 4238 1429 3725 
Q 1025 3213 1025 2328 
Q 1025 1447 1429 934 
Q 1834 422 2522 422 
Q 3209 422 3611 934 
Q 4013 1447 4013 2328 
Q 4013 3213 3611 3725 
Q 3209 4238 2522 4238 
z
M 3406 84 
L 4238 -825 
L 3475 -825 
L 2784 -78 
Q 2681 -84 2626 -87 
Q 2572 -91 2522 -91 
Q 1538 -91 948 567 
Q 359 1225 359 2328 
Q 359 3434 948 4092 
Q 1538 4750 2522 4750 
Q 3503 4750 4090 4092 
Q 4678 3434 4678 2328 
Q 4678 1516 4351 937 
Q 4025 359 3406 84 
z
" transform="scale(0.015625)"/>
        <path id="DejaVuSans-3d" d="M 678 2906 
L 4684 2906 
L 4684 2381 
L 678 2381 
L 678 2906 
z
M 678 1631 
L 4684 1631 
L 4684 1100 
L 678 1100 
L 678 1631 
z
" transform="scale(0.015625)"/>
       </defs>
       <use xlink:href="#DejaVuSans-51"/>
       <use xlink:href="#DejaVuSans-3d" transform="translate(78.710938 0)"/>
       <use xlink:href="#DejaVuSans-30" transform="translate(162.5 0)"/>
      </g>
     </g>
    </g>
    <g id="xtick_6">
     <g id="line2d_11">
      <path d="M 167.058864 404.08 
L 167.058864 42.04725 
" clip-path="url(#pcc0d0fe47d)" style="fill: none; stroke-dasharray: 0.8,1.32; stroke-dashoffset: 0; stroke: #b0b0b0; stroke-opacity: 0.6; stroke-width: 0.8"/>
     </g>
     <g id="line2d_12">
      <g>
       <use xlink:href="#m3299fb4dd7" x="167.058864" y="404.08" style="stroke: #000000; stroke-width: 0.8"/>
      </g>
     </g>
     <g id="text_6">
      <!-- Q=0 -->
      <g transform="translate(155.751832 418.678438) scale(0.1 -0.1)">
       <use xlink:href="#DejaVuSans-51"/>
       <use xlink:href="#DejaVuSans-3d" transform="translate(78.710938 0)"/>
       <use xlink:href="#DejaVuSans-30" transform="translate(162.5 0)"/>
      </g>
     </g>
    </g>
    <g id="xtick_7">
     <g id="line2d_13">
      <path d="M 291.546932 404.08 
L 291.546932 42.04725 
" clip-path="url(#pcc0d0fe47d)" style="fill: none; stroke-dasharray: 0.8,1.32; stroke-dashoffset: 0; stroke: #b0b0b0; stroke-opacity: 0.6; stroke-width: 0.8"/>
     </g>
     <g id="line2d_14">
      <g>
       <use xlink:href="#m3299fb4dd7" x="291.546932" y="404.08" style="stroke: #000000; stroke-width: 0.8"/>
      </g>
     </g>
     <g id="text_7">
      <!-- 0.25 -->
      <g transform="translate(280.414119 418.678438) scale(0.1 -0.1)">
       <defs>
        <path id="DejaVuSans-2e" d="M 684 794 
L 1344 794 
L 1344 0 
L 684 0 
L 684 794 
z
" transform="scale(0.015625)"/>
        <path id="DejaVuSans-35" d="M 691 4666 
L 3169 4666 
L 3169 4134 
L 1269 4134 
L 1269 2991 
Q 1406 3038 1543 3061 
Q 1681 3084 1819 3084 
Q 2600 3084 3056 2656 
Q 3513 2228 3513 1497 
Q 3513 744 3044 326 
Q 2575 -91 1722 -91 
Q 1428 -91 1123 -41 
Q 819 9 494 109 
L 494 744 
Q 775 591 1075 516 
Q 1375 441 1709 441 
Q 2250 441 2565 725 
Q 2881 1009 2881 1497 
Q 2881 1984 2565 2268 
Q 2250 2553 1709 2553 
Q 1456 2553 1204 2497 
Q 953 2441 691 2322 
L 691 4666 
z
" transform="scale(0.015625)"/>
       </defs>
       <use xlink:href="#DejaVuSans-30"/>
       <use xlink:href="#DejaVuSans-2e" transform="translate(63.623047 0)"/>
       <use xlink:href="#DejaVuSans-32" transform="translate(95.410156 0)"/>
       <use xlink:href="#DejaVuSans-35" transform="translate(159.033203 0)"/>
      </g>
     </g>
    </g>
    <g id="xtick_8">
     <g id="line2d_15">
      <path d="M 416.035 404.08 
L 416.035 42.04725 
" clip-path="url(#pcc0d0fe47d)" style="fill: none; stroke-dasharray: 0.8,1.32; stroke-dashoffset: 0; stroke: #b0b0b0; stroke-opacity: 0.6; stroke-width: 0.8"/>
     </g>
     <g id="line2d_16">
      <g>
       <use xlink:href="#m3299fb4dd7" x="416.035" y="404.08" style="stroke: #000000; stroke-width: 0.8"/>
      </g>
     </g>
     <g id="text_8">
      <!-- 0.5 -->
      <g transform="translate(408.083437 418.678438) scale(0.1 -0.1)">
       <use xlink:href="#DejaVuSans-30"/>
       <use xlink:href="#DejaVuSans-2e" transform="translate(63.623047 0)"/>
       <use xlink:href="#DejaVuSans-35" transform="translate(95.410156 0)"/>
      </g>
     </g>
    </g>
    <g id="xtick_9">
     <g id="line2d_17">
      <path d="M 540.523068 404.08 
L 540.523068 42.04725 
" clip-path="url(#pcc0d0fe47d)" style="fill: none; stroke-dasharray: 0.8,1.32; stroke-dashoffset: 0; stroke: #b0b0b0; stroke-opacity: 0.6; stroke-width: 0.8"/>
     </g>
     <g id="line2d_18">
      <g>
       <use xlink:href="#m3299fb4dd7" x="540.523068" y="404.08" style="stroke: #000000; stroke-width: 0.8"/>
      </g>
     </g>
     <g id="text_9">
      <!-- 0.75 -->
      <g transform="translate(529.390256 418.678438) scale(0.1 -0.1)">
       <defs>
        <path id="DejaVuSans-37" d="M 525 4666 
L 3525 4666 
L 3525 4397 
L 1831 0 
L 1172 0 
L 2766 4134 
L 525 4134 
L 525 4666 
z
" transform="scale(0.015625)"/>
       </defs>
       <use xlink:href="#DejaVuSans-30"/>
       <use xlink:href="#DejaVuSans-2e" transform="translate(63.623047 0)"/>
       <use xlink:href="#DejaVuSans-37" transform="translate(95.410156 0)"/>
       <use xlink:href="#DejaVuSans-35" transform="translate(159.033203 0)"/>
      </g>
     </g>
    </g>
    <g id="xtick_10">
     <g id="line2d_19">
      <path d="M 665.011136 404.08 
L 665.011136 42.04725 
" clip-path="url(#pcc0d0fe47d)" style="fill: none; stroke-dasharray: 0.8,1.32; stroke-dashoffset: 0; stroke: #b0b0b0; stroke-opacity: 0.6; stroke-width: 0.8"/>
     </g>
     <g id="line2d_20">
      <g>
       <use xlink:href="#m3299fb4dd7" x="665.011136" y="404.08" style="stroke: #000000; stroke-width: 0.8"/>
      </g>
     </g>
     <g id="text_10">
      <!-- 0 -->
      <g transform="translate(661.829886 418.678438) scale(0.1 -0.1)">
       <use xlink:href="#DejaVuSans-30"/>
      </g>
     </g>
    </g>
    <g id="xtick_11">
     <g id="line2d_21">
      <path d="M 665.011136 404.08 
L 665.011136 42.04725 
" clip-path="url(#pcc0d0fe47d)" style="fill: none; stroke-dasharray: 0.8,1.32; stroke-dashoffset: 0; stroke: #b0b0b0; stroke-opacity: 0.6; stroke-width: 0.8"/>
     </g>
     <g id="line2d_22">
      <g>
       <use xlink:href="#m3299fb4dd7" x="665.011136" y="404.08" style="stroke: #000000; stroke-width: 0.8"/>
      </g>
     </g>
     <g id="text_11">
      <!-- 0 -->
      <g transform="translate(661.829886 418.678438) scale(0.1 -0.1)">
       <use xlink:href="#DejaVuSans-30"/>
      </g>
     </g>
    </g>
    <g id="xtick_12">
     <g id="line2d_23">
      <path d="M 685.759148 404.08 
L 685.759148 42.04725 
" clip-path="url(#pcc0d0fe47d)" style="fill: none; stroke-dasharray: 0.8,1.32; stroke-dashoffset: 0; stroke: #b0b0b0; stroke-opacity: 0.6; stroke-width: 0.8"/>
     </g>
     <g id="line2d_24">
      <g>
       <use xlink:href="#m3299fb4dd7" x="685.759148" y="404.08" style="stroke: #000000; stroke-width: 0.8"/>
      </g>
     </g>
     <g id="text_12">
      <!-- 1 -->
      <g transform="translate(682.577898 418.678438) scale(0.1 -0.1)">
       <use xlink:href="#DejaVuSans-31"/>
      </g>
     </g>
    </g>
    <g id="xtick_13">
     <g id="line2d_25">
      <path d="M 706.507159 404.08 
L 706.507159 42.04725 
" clip-path="url(#pcc0d0fe47d)" style="fill: none; stroke-dasharray: 0.8,1.32; stroke-dashoffset: 0; stroke: #b0b0b0; stroke-opacity: 0.6; stroke-width: 0.8"/>
     </g>
     <g id="line2d_26">
      <g>
       <use xlink:href="#m3299fb4dd7" x="706.507159" y="404.08" style="stroke: #000000; stroke-width: 0.8"/>
      </g>
     </g>
     <g id="text_13">
      <!-- 2 -->
      <g transform="translate(703.325909 418.678438) scale(0.1 -0.1)">
       <use xlink:href="#DejaVuSans-32"/>
      </g>
     </g>
    </g>
    <g id="xtick_14">
     <g id="line2d_27">
      <path d="M 727.25517 404.08 
L 727.25517 42.04725 
" clip-path="url(#pcc0d0fe47d)" style="fill: none; stroke-dasharray: 0.8,1.32; stroke-dashoffset: 0; stroke: #b0b0b0; stroke-opacity: 0.6; stroke-width: 0.8"/>
     </g>
     <g id="line2d_28">
      <g>
       <use xlink:href="#m3299fb4dd7" x="727.25517" y="404.08" style="stroke: #000000; stroke-width: 0.8"/>
      </g>
     </g>
     <g id="text_14">
      <!-- 3 -->
      <g transform="translate(724.07392 418.678438) scale(0.1 -0.1)">
       <defs>
        <path id="DejaVuSans-33" d="M 2597 2516 
Q 3050 2419 3304 2112 
Q 3559 1806 3559 1356 
Q 3559 666 3084 287 
Q 2609 -91 1734 -91 
Q 1441 -91 1130 -33 
Q 819 25 488 141 
L 488 750 
Q 750 597 1062 519 
Q 1375 441 1716 441 
Q 2309 441 2620 675 
Q 2931 909 2931 1356 
Q 2931 1769 2642 2001 
Q 2353 2234 1838 2234 
L 1294 2234 
L 1294 2753 
L 1863 2753 
Q 2328 2753 2575 2939 
Q 2822 3125 2822 3475 
Q 2822 3834 2567 4026 
Q 2313 4219 1838 4219 
Q 1578 4219 1281 4162 
Q 984 4106 628 3988 
L 628 4550 
Q 988 4650 1302 4700 
Q 1616 4750 1894 4750 
Q 2613 4750 3031 4423 
Q 3450 4097 3450 3541 
Q 3450 3153 3228 2886 
Q 3006 2619 2597 2516 
z
" transform="scale(0.015625)"/>
       </defs>
       <use xlink:href="#DejaVuSans-33"/>
      </g>
     </g>
    </g>
    <g id="xtick_15">
     <g id="line2d_29">
      <path d="M 748.003182 404.08 
L 748.003182 42.04725 
" clip-path="url(#pcc0d0fe47d)" style="fill: none; stroke-dasharray: 0.8,1.32; stroke-dashoffset: 0; stroke: #b0b0b0; stroke-opacity: 0.6; stroke-width: 0.8"/>
     </g>
     <g id="line2d_30">
      <g>
       <use xlink:href="#m3299fb4dd7" x="748.003182" y="404.08" style="stroke: #000000; stroke-width: 0.8"/>
      </g>
     </g>
     <g id="text_15">
      <!-- 5 -->
      <g transform="translate(744.821932 418.678438) scale(0.1 -0.1)">
       <use xlink:href="#DejaVuSans-35"/>
      </g>
     </g>
    </g>
    <g id="text_16">
     <!-- Left: Subcooling ΔT [K]      |       Middle: Quality Q      |      Right: Superheat ΔT [K]  -->
     <g transform="translate(212.044375 432.400313) scale(0.1 -0.1)">
      <defs>
       <path id="DejaVuSans-4c" d="M 628 4666 
L 1259 4666 
L 1259 531 
L 3531 531 
L 3531 0 
L 628 0 
L 628 4666 
z
" transform="scale(0.015625)"/>
       <path id="DejaVuSans-65" d="M 3597 1894 
L 3597 1613 
L 953 1613 
Q 991 1019 1311 708 
Q 1631 397 2203 397 
Q 2534 397 2845 478 
Q 3156 559 3463 722 
L 3463 178 
Q 3153 47 2828 -22 
Q 2503 -91 2169 -91 
Q 1331 -91 842 396 
Q 353 884 353 1716 
Q 353 2575 817 3079 
Q 1281 3584 2069 3584 
Q 2775 3584 3186 3129 
Q 3597 2675 3597 1894 
z
M 3022 2063 
Q 3016 2534 2758 2815 
Q 2500 3097 2075 3097 
Q 1594 3097 1305 2825 
Q 1016 2553 972 2059 
L 3022 2063 
z
" transform="scale(0.015625)"/>
       <path id="DejaVuSans-66" d="M 2375 4863 
L 2375 4384 
L 1825 4384 
Q 1516 4384 1395 4259 
Q 1275 4134 1275 3809 
L 1275 3500 
L 2222 3500 
L 2222 3053 
L 1275 3053 
L 1275 0 
L 697 0 
L 697 3053 
L 147 3053 
L 147 3500 
L 697 3500 
L 697 3744 
Q 697 4328 969 4595 
Q 1241 4863 1831 4863 
L 2375 4863 
z
" transform="scale(0.015625)"/>
       <path id="DejaVuSans-74" d="M 1172 4494 
L 1172 3500 
L 2356 3500 
L 2356 3053 
L 1172 3053 
L 1172 1153 
Q 1172 725 1289 603 
Q 1406 481 1766 481 
L 2356 481 
L 2356 0 
L 1766 0 
Q 1100 0 847 248 
Q 594 497 594 1153 
L 594 3053 
L 172 3053 
L 172 3500 
L 594 3500 
L 594 4494 
L 1172 4494 
z
" transform="scale(0.015625)"/>
       <path id="DejaVuSans-3a" d="M 750 794 
L 1409 794 
L 1409 0 
L 750 0 
L 750 794 
z
M 750 3309 
L 1409 3309 
L 1409 2516 
L 750 2516 
L 750 3309 
z
" transform="scale(0.015625)"/>
       <path id="DejaVuSans-20" transform="scale(0.015625)"/>
       <path id="DejaVuSans-53" d="M 3425 4513 
L 3425 3897 
Q 3066 4069 2747 4153 
Q 2428 4238 2131 4238 
Q 1616 4238 1336 4038 
Q 1056 3838 1056 3469 
Q 1056 3159 1242 3001 
Q 1428 2844 1947 2747 
L 2328 2669 
Q 3034 2534 3370 2195 
Q 3706 1856 3706 1288 
Q 3706 609 3251 259 
Q 2797 -91 1919 -91 
Q 1588 -91 1214 -16 
Q 841 59 441 206 
L 441 856 
Q 825 641 1194 531 
Q 1563 422 1919 422 
Q 2459 422 2753 634 
Q 3047 847 3047 1241 
Q 3047 1584 2836 1778 
Q 2625 1972 2144 2069 
L 1759 2144 
Q 1053 2284 737 2584 
Q 422 2884 422 3419 
Q 422 4038 858 4394 
Q 1294 4750 2059 4750 
Q 2388 4750 2728 4690 
Q 3069 4631 3425 4513 
z
" transform="scale(0.015625)"/>
       <path id="DejaVuSans-75" d="M 544 1381 
L 544 3500 
L 1119 3500 
L 1119 1403 
Q 1119 906 1312 657 
Q 1506 409 1894 409 
Q 2359 409 2629 706 
Q 2900 1003 2900 1516 
L 2900 3500 
L 3475 3500 
L 3475 0 
L 2900 0 
L 2900 538 
Q 2691 219 2414 64 
Q 2138 -91 1772 -91 
Q 1169 -91 856 284 
Q 544 659 544 1381 
z
M 1991 3584 
L 1991 3584 
z
" transform="scale(0.015625)"/>
       <path id="DejaVuSans-62" d="M 3116 1747 
Q 3116 2381 2855 2742 
Q 2594 3103 2138 3103 
Q 1681 3103 1420 2742 
Q 1159 2381 1159 1747 
Q 1159 1113 1420 752 
Q 1681 391 2138 391 
Q 2594 391 2855 752 
Q 3116 1113 3116 1747 
z
M 1159 2969 
Q 1341 3281 1617 3432 
Q 1894 3584 2278 3584 
Q 2916 3584 3314 3078 
Q 3713 2572 3713 1747 
Q 3713 922 3314 415 
Q 2916 -91 2278 -91 
Q 1894 -91 1617 61 
Q 1341 213 1159 525 
L 1159 0 
L 581 0 
L 581 4863 
L 1159 4863 
L 1159 2969 
z
" transform="scale(0.015625)"/>
       <path id="DejaVuSans-63" d="M 3122 3366 
L 3122 2828 
Q 2878 2963 2633 3030 
Q 2388 3097 2138 3097 
Q 1578 3097 1268 2742 
Q 959 2388 959 1747 
Q 959 1106 1268 751 
Q 1578 397 2138 397 
Q 2388 397 2633 464 
Q 2878 531 3122 666 
L 3122 134 
Q 2881 22 2623 -34 
Q 2366 -91 2075 -91 
Q 1284 -91 818 406 
Q 353 903 353 1747 
Q 353 2603 823 3093 
Q 1294 3584 2113 3584 
Q 2378 3584 2631 3529 
Q 2884 3475 3122 3366 
z
" transform="scale(0.015625)"/>
       <path id="DejaVuSans-6f" d="M 1959 3097 
Q 1497 3097 1228 2736 
Q 959 2375 959 1747 
Q 959 1119 1226 758 
Q 1494 397 1959 397 
Q 2419 397 2687 759 
Q 2956 1122 2956 1747 
Q 2956 2369 2687 2733 
Q 2419 3097 1959 3097 
z
M 1959 3584 
Q 2709 3584 3137 3096 
Q 3566 2609 3566 1747 
Q 3566 888 3137 398 
Q 2709 -91 1959 -91 
Q 1206 -91 779 398 
Q 353 888 353 1747 
Q 353 2609 779 3096 
Q 1206 3584 1959 3584 
z
" transform="scale(0.015625)"/>
       <path id="DejaVuSans-6c" d="M 603 4863 
L 1178 4863 
L 1178 0 
L 603 0 
L 603 4863 
z
" transform="scale(0.015625)"/>
       <path id="DejaVuSans-69" d="M 603 3500 
L 1178 3500 
L 1178 0 
L 603 0 
L 603 3500 
z
M 603 4863 
L 1178 4863 
L 1178 4134 
L 603 4134 
L 603 4863 
z
" transform="scale(0.015625)"/>
       <path id="DejaVuSans-6e" d="M 3513 2113 
L 3513 0 
L 2938 0 
L 2938 2094 
Q 2938 2591 2744 2837 
Q 2550 3084 2163 3084 
Q 1697 3084 1428 2787 
Q 1159 2491 1159 1978 
L 1159 0 
L 581 0 
L 581 3500 
L 1159 3500 
L 1159 2956 
Q 1366 3272 1645 3428 
Q 1925 3584 2291 3584 
Q 2894 3584 3203 3211 
Q 3513 2838 3513 2113 
z
" transform="scale(0.015625)"/>
       <path id="DejaVuSans-67" d="M 2906 1791 
Q 2906 2416 2648 2759 
Q 2391 3103 1925 3103 
Q 1463 3103 1205 2759 
Q 947 2416 947 1791 
Q 947 1169 1205 825 
Q 1463 481 1925 481 
Q 2391 481 2648 825 
Q 2906 1169 2906 1791 
z
M 3481 434 
Q 3481 -459 3084 -895 
Q 2688 -1331 1869 -1331 
Q 1566 -1331 1297 -1286 
Q 1028 -1241 775 -1147 
L 775 -588 
Q 1028 -725 1275 -790 
Q 1522 -856 1778 -856 
Q 2344 -856 2625 -561 
Q 2906 -266 2906 331 
L 2906 616 
Q 2728 306 2450 153 
Q 2172 0 1784 0 
Q 1141 0 747 490 
Q 353 981 353 1791 
Q 353 2603 747 3093 
Q 1141 3584 1784 3584 
Q 2172 3584 2450 3431 
Q 2728 3278 2906 2969 
L 2906 3500 
L 3481 3500 
L 3481 434 
z
" transform="scale(0.015625)"/>
       <path id="DejaVuSans-394" d="M 2188 4044 
L 906 525 
L 3472 525 
L 2188 4044 
z
M 50 0 
L 1831 4666 
L 2547 4666 
L 4325 0 
L 50 0 
z
" transform="scale(0.015625)"/>
       <path id="DejaVuSans-54" d="M -19 4666 
L 3928 4666 
L 3928 4134 
L 2272 4134 
L 2272 0 
L 1638 0 
L 1638 4134 
L -19 4134 
L -19 4666 
z
" transform="scale(0.015625)"/>
       <path id="DejaVuSans-5b" d="M 550 4863 
L 1875 4863 
L 1875 4416 
L 1125 4416 
L 1125 -397 
L 1875 -397 
L 1875 -844 
L 550 -844 
L 550 4863 
z
" transform="scale(0.015625)"/>
       <path id="DejaVuSans-4b" d="M 628 4666 
L 1259 4666 
L 1259 2694 
L 3353 4666 
L 4166 4666 
L 1850 2491 
L 4331 0 
L 3500 0 
L 1259 2247 
L 1259 0 
L 628 0 
L 628 4666 
z
" transform="scale(0.015625)"/>
       <path id="DejaVuSans-5d" d="M 1947 4863 
L 1947 -844 
L 622 -844 
L 622 -397 
L 1369 -397 
L 1369 4416 
L 622 4416 
L 622 4863 
L 1947 4863 
z
" transform="scale(0.015625)"/>
       <path id="DejaVuSans-7c" d="M 1344 4891 
L 1344 -1509 
L 813 -1509 
L 813 4891 
L 1344 4891 
z
" transform="scale(0.015625)"/>
       <path id="DejaVuSans-4d" d="M 628 4666 
L 1569 4666 
L 2759 1491 
L 3956 4666 
L 4897 4666 
L 4897 0 
L 4281 0 
L 4281 4097 
L 3078 897 
L 2444 897 
L 1241 4097 
L 1241 0 
L 628 0 
L 628 4666 
z
" transform="scale(0.015625)"/>
       <path id="DejaVuSans-64" d="M 2906 2969 
L 2906 4863 
L 3481 4863 
L 3481 0 
L 2906 0 
L 2906 525 
Q 2725 213 2448 61 
Q 2172 -91 1784 -91 
Q 1150 -91 751 415 
Q 353 922 353 1747 
Q 353 2572 751 3078 
Q 1150 3584 1784 3584 
Q 2172 3584 2448 3432 
Q 2725 3281 2906 2969 
z
M 947 1747 
Q 947 1113 1208 752 
Q 1469 391 1925 391 
Q 2381 391 2643 752 
Q 2906 1113 2906 1747 
Q 2906 2381 2643 2742 
Q 2381 3103 1925 3103 
Q 1469 3103 1208 2742 
Q 947 2381 947 1747 
z
" transform="scale(0.015625)"/>
       <path id="DejaVuSans-61" d="M 2194 1759 
Q 1497 1759 1228 1600 
Q 959 1441 959 1056 
Q 959 750 1161 570 
Q 1363 391 1709 391 
Q 2188 391 2477 730 
Q 2766 1069 2766 1631 
L 2766 1759 
L 2194 1759 
z
M 3341 1997 
L 3341 0 
L 2766 0 
L 2766 531 
Q 2569 213 2275 61 
Q 1981 -91 1556 -91 
Q 1019 -91 701 211 
Q 384 513 384 1019 
Q 384 1609 779 1909 
Q 1175 2209 1959 2209 
L 2766 2209 
L 2766 2266 
Q 2766 2663 2505 2880 
Q 2244 3097 1772 3097 
Q 1472 3097 1187 3025 
Q 903 2953 641 2809 
L 641 3341 
Q 956 3463 1253 3523 
Q 1550 3584 1831 3584 
Q 2591 3584 2966 3190 
Q 3341 2797 3341 1997 
z
" transform="scale(0.015625)"/>
       <path id="DejaVuSans-79" d="M 2059 -325 
Q 1816 -950 1584 -1140 
Q 1353 -1331 966 -1331 
L 506 -1331 
L 506 -850 
L 844 -850 
Q 1081 -850 1212 -737 
Q 1344 -625 1503 -206 
L 1606 56 
L 191 3500 
L 800 3500 
L 1894 763 
L 2988 3500 
L 3597 3500 
L 2059 -325 
z
" transform="scale(0.015625)"/>
       <path id="DejaVuSans-52" d="M 2841 2188 
Q 3044 2119 3236 1894 
Q 3428 1669 3622 1275 
L 4263 0 
L 3584 0 
L 2988 1197 
Q 2756 1666 2539 1819 
Q 2322 1972 1947 1972 
L 1259 1972 
L 1259 0 
L 628 0 
L 628 4666 
L 2053 4666 
Q 2853 4666 3247 4331 
Q 3641 3997 3641 3322 
Q 3641 2881 3436 2590 
Q 3231 2300 2841 2188 
z
M 1259 4147 
L 1259 2491 
L 2053 2491 
Q 2509 2491 2742 2702 
Q 2975 2913 2975 3322 
Q 2975 3731 2742 3939 
Q 2509 4147 2053 4147 
L 1259 4147 
z
" transform="scale(0.015625)"/>
       <path id="DejaVuSans-68" d="M 3513 2113 
L 3513 0 
L 2938 0 
L 2938 2094 
Q 2938 2591 2744 2837 
Q 2550 3084 2163 3084 
Q 1697 3084 1428 2787 
Q 1159 2491 1159 1978 
L 1159 0 
L 581 0 
L 581 4863 
L 1159 4863 
L 1159 2956 
Q 1366 3272 1645 3428 
Q 1925 3584 2291 3584 
Q 2894 3584 3203 3211 
Q 3513 2838 3513 2113 
z
" transform="scale(0.015625)"/>
       <path id="DejaVuSans-70" d="M 1159 525 
L 1159 -1331 
L 581 -1331 
L 581 3500 
L 1159 3500 
L 1159 2969 
Q 1341 3281 1617 3432 
Q 1894 3584 2278 3584 
Q 2916 3584 3314 3078 
Q 3713 2572 3713 1747 
Q 3713 922 3314 415 
Q 2916 -91 2278 -91 
Q 1894 -91 1617 61 
Q 1341 213 1159 525 
z
M 3116 1747 
Q 3116 2381 2855 2742 
Q 2594 3103 2138 3103 
Q 1681 3103 1420 2742 
Q 1159 2381 1159 1747 
Q 1159 1113 1420 752 
Q 1681 391 2138 391 
Q 2594 391 2855 752 
Q 3116 1113 3116 1747 
z
" transform="scale(0.015625)"/>
       <path id="DejaVuSans-72" d="M 2631 2963 
Q 2534 3019 2420 3045 
Q 2306 3072 2169 3072 
Q 1681 3072 1420 2755 
Q 1159 2438 1159 1844 
L 1159 0 
L 581 0 
L 581 3500 
L 1159 3500 
L 1159 2956 
Q 1341 3275 1631 3429 
Q 1922 3584 2338 3584 
Q 2397 3584 2469 3576 
Q 2541 3569 2628 3553 
L 2631 2963 
z
" transform="scale(0.015625)"/>
      </defs>
      <use xlink:href="#DejaVuSans-4c"/>
      <use xlink:href="#DejaVuSans-65" transform="translate(53.962891 0)"/>
      <use xlink:href="#DejaVuSans-66" transform="translate(115.486328 0)"/>
      <use xlink:href="#DejaVuSans-74" transform="translate(148.941406 0)"/>
      <use xlink:href="#DejaVuSans-3a" transform="translate(188.150391 0)"/>
      <use xlink:href="#DejaVuSans-20" transform="translate(221.841797 0)"/>
      <use xlink:href="#DejaVuSans-53" transform="translate(253.628906 0)"/>
      <use xlink:href="#DejaVuSans-75" transform="translate(317.105469 0)"/>
      <use xlink:href="#DejaVuSans-62" transform="translate(380.484375 0)"/>
      <use xlink:href="#DejaVuSans-63" transform="translate(443.960938 0)"/>
      <use xlink:href="#DejaVuSans-6f" transform="translate(498.941406 0)"/>
      <use xlink:href="#DejaVuSans-6f" transform="translate(560.123047 0)"/>
      <use xlink:href="#DejaVuSans-6c" transform="translate(621.304688 0)"/>
      <use xlink:href="#DejaVuSans-69" transform="translate(649.087891 0)"/>
      <use xlink:href="#DejaVuSans-6e" transform="translate(676.871094 0)"/>
      <use xlink:href="#DejaVuSans-67" transform="translate(740.25 0)"/>
      <use xlink:href="#DejaVuSans-20" transform="translate(803.726562 0)"/>
      <use xlink:href="#DejaVuSans-394" transform="translate(835.513672 0)"/>
      <use xlink:href="#DejaVuSans-54" transform="translate(903.921875 0)"/>
      <use xlink:href="#DejaVuSans-20" transform="translate(965.005859 0)"/>
      <use xlink:href="#DejaVuSans-5b" transform="translate(996.792969 0)"/>
      <use xlink:href="#DejaVuSans-4b" transform="translate(1035.806641 0)"/>
      <use xlink:href="#DejaVuSans-5d" transform="translate(1101.382812 0)"/>
      <use xlink:href="#DejaVuSans-20" transform="translate(1140.396484 0)"/>
      <use xlink:href="#DejaVuSans-20" transform="translate(1172.183594 0)"/>
      <use xlink:href="#DejaVuSans-20" transform="translate(1203.970703 0)"/>
      <use xlink:href="#DejaVuSans-20" transform="translate(1235.757812 0)"/>
      <use xlink:href="#DejaVuSans-20" transform="translate(1267.544922 0)"/>
      <use xlink:href="#DejaVuSans-20" transform="translate(1299.332031 0)"/>
      <use xlink:href="#DejaVuSans-7c" transform="translate(1331.119141 0)"/>
      <use xlink:href="#DejaVuSans-20" transform="translate(1364.810547 0)"/>
      <use xlink:href="#DejaVuSans-20" transform="translate(1396.597656 0)"/>
      <use xlink:href="#DejaVuSans-20" transform="translate(1428.384766 0)"/>
      <use xlink:href="#DejaVuSans-20" transform="translate(1460.171875 0)"/>
      <use xlink:href="#DejaVuSans-20" transform="translate(1491.958984 0)"/>
      <use xlink:href="#DejaVuSans-20" transform="translate(1523.746094 0)"/>
      <use xlink:href="#DejaVuSans-20" transform="translate(1555.533203 0)"/>
      <use xlink:href="#DejaVuSans-4d" transform="translate(1587.320312 0)"/>
      <use xlink:href="#DejaVuSans-69" transform="translate(1673.599609 0)"/>
      <use xlink:href="#DejaVuSans-64" transform="translate(1701.382812 0)"/>
      <use xlink:href="#DejaVuSans-64" transform="translate(1764.859375 0)"/>
      <use xlink:href="#DejaVuSans-6c" transform="translate(1828.335938 0)"/>
      <use xlink:href="#DejaVuSans-65" transform="translate(1856.119141 0)"/>
      <use xlink:href="#DejaVuSans-3a" transform="translate(1917.642578 0)"/>
      <use xlink:href="#DejaVuSans-20" transform="translate(1951.333984 0)"/>
      <use xlink:href="#DejaVuSans-51" transform="translate(1983.121094 0)"/>
      <use xlink:href="#DejaVuSans-75" transform="translate(2061.832031 0)"/>
      <use xlink:href="#DejaVuSans-61" transform="translate(2125.210938 0)"/>
      <use xlink:href="#DejaVuSans-6c" transform="translate(2186.490234 0)"/>
      <use xlink:href="#DejaVuSans-69" transform="translate(2214.273438 0)"/>
      <use xlink:href="#DejaVuSans-74" transform="translate(2242.056641 0)"/>
      <use xlink:href="#DejaVuSans-79" transform="translate(2281.265625 0)"/>
      <use xlink:href="#DejaVuSans-20" transform="translate(2340.445312 0)"/>
      <use xlink:href="#DejaVuSans-51" transform="translate(2372.232422 0)"/>
      <use xlink:href="#DejaVuSans-20" transform="translate(2450.943359 0)"/>
      <use xlink:href="#DejaVuSans-20" transform="translate(2482.730469 0)"/>
      <use xlink:href="#DejaVuSans-20" transform="translate(2514.517578 0)"/>
      <use xlink:href="#DejaVuSans-20" transform="translate(2546.304688 0)"/>
      <use xlink:href="#DejaVuSans-20" transform="translate(2578.091797 0)"/>
      <use xlink:href="#DejaVuSans-20" transform="translate(2609.878906 0)"/>
      <use xlink:href="#DejaVuSans-7c" transform="translate(2641.666016 0)"/>
      <use xlink:href="#DejaVuSans-20" transform="translate(2675.357422 0)"/>
      <use xlink:href="#DejaVuSans-20" transform="translate(2707.144531 0)"/>
      <use xlink:href="#DejaVuSans-20" transform="translate(2738.931641 0)"/>
      <use xlink:href="#DejaVuSans-20" transform="translate(2770.71875 0)"/>
      <use xlink:href="#DejaVuSans-20" transform="translate(2802.505859 0)"/>
      <use xlink:href="#DejaVuSans-20" transform="translate(2834.292969 0)"/>
      <use xlink:href="#DejaVuSans-52" transform="translate(2866.080078 0)"/>
      <use xlink:href="#DejaVuSans-69" transform="translate(2935.5625 0)"/>
      <use xlink:href="#DejaVuSans-67" transform="translate(2963.345703 0)"/>
      <use xlink:href="#DejaVuSans-68" transform="translate(3026.822266 0)"/>
      <use xlink:href="#DejaVuSans-74" transform="translate(3090.201172 0)"/>
      <use xlink:href="#DejaVuSans-3a" transform="translate(3129.410156 0)"/>
      <use xlink:href="#DejaVuSans-20" transform="translate(3163.101562 0)"/>
      <use xlink:href="#DejaVuSans-53" transform="translate(3194.888672 0)"/>
      <use xlink:href="#DejaVuSans-75" transform="translate(3258.365234 0)"/>
      <use xlink:href="#DejaVuSans-70" transform="translate(3321.744141 0)"/>
      <use xlink:href="#DejaVuSans-65" transform="translate(3385.220703 0)"/>
      <use xlink:href="#DejaVuSans-72" transform="translate(3446.744141 0)"/>
      <use xlink:href="#DejaVuSans-68" transform="translate(3486.107422 0)"/>
      <use xlink:href="#DejaVuSans-65" transform="translate(3549.486328 0)"/>
      <use xlink:href="#DejaVuSans-61" transform="translate(3611.009766 0)"/>
      <use xlink:href="#DejaVuSans-74" transform="translate(3672.289062 0)"/>
      <use xlink:href="#DejaVuSans-20" transform="translate(3711.498047 0)"/>
      <use xlink:href="#DejaVuSans-394" transform="translate(3743.285156 0)"/>
      <use xlink:href="#DejaVuSans-54" transform="translate(3811.693359 0)"/>
      <use xlink:href="#DejaVuSans-20" transform="translate(3872.777344 0)"/>
      <use xlink:href="#DejaVuSans-5b" transform="translate(3904.564453 0)"/>
      <use xlink:href="#DejaVuSans-4b" transform="translate(3943.578125 0)"/>
      <use xlink:href="#DejaVuSans-5d" transform="translate(4009.154297 0)"/>
      <use xlink:href="#DejaVuSans-20" transform="translate(4048.167969 0)"/>
     </g>
    </g>
   </g>
   <g id="matplotlib.axis_2">
    <g id="ytick_1">
     <g id="line2d_31">
      <path d="M 50.87 398.197749 
L 781.2 398.197749 
" clip-path="url(#pcc0d0fe47d)" style="fill: none; stroke-dasharray: 0.8,1.32; stroke-dashoffset: 0; stroke: #b0b0b0; stroke-opacity: 0.6; stroke-width: 0.8"/>
     </g>
     <g id="line2d_32">
      <defs>
       <path id="mcc16b58cc4" d="M 0 0 
L -3.5 0 
" style="stroke: #000000; stroke-width: 0.8"/>
      </defs>
      <g>
       <use xlink:href="#mcc16b58cc4" x="50.87" y="398.197749" style="stroke: #000000; stroke-width: 0.8"/>
      </g>
     </g>
     <g id="text_17">
      <!-- 0 -->
      <g transform="translate(37.5075 401.996967) scale(0.1 -0.1)">
       <use xlink:href="#DejaVuSans-30"/>
      </g>
     </g>
    </g>
    <g id="ytick_2">
     <g id="line2d_33">
      <path d="M 50.87 323.560046 
L 781.2 323.560046 
" clip-path="url(#pcc0d0fe47d)" style="fill: none; stroke-dasharray: 0.8,1.32; stroke-dashoffset: 0; stroke: #b0b0b0; stroke-opacity: 0.6; stroke-width: 0.8"/>
     </g>
     <g id="line2d_34">
      <g>
       <use xlink:href="#mcc16b58cc4" x="50.87" y="323.560046" style="stroke: #000000; stroke-width: 0.8"/>
      </g>
     </g>
     <g id="text_18">
      <!-- 100 -->
      <g transform="translate(24.7825 327.359265) scale(0.1 -0.1)">
       <use xlink:href="#DejaVuSans-31"/>
       <use xlink:href="#DejaVuSans-30" transform="translate(63.623047 0)"/>
       <use xlink:href="#DejaVuSans-30" transform="translate(127.246094 0)"/>
      </g>
     </g>
    </g>
    <g id="ytick_3">
     <g id="line2d_35">
      <path d="M 50.87 248.922344 
L 781.2 248.922344 
" clip-path="url(#pcc0d0fe47d)" style="fill: none; stroke-dasharray: 0.8,1.32; stroke-dashoffset: 0; stroke: #b0b0b0; stroke-opacity: 0.6; stroke-width: 0.8"/>
     </g>
     <g id="line2d_36">
      <g>
       <use xlink:href="#mcc16b58cc4" x="50.87" y="248.922344" style="stroke: #000000; stroke-width: 0.8"/>
      </g>
     </g>
     <g id="text_19">
      <!-- 200 -->
      <g transform="translate(24.7825 252.721563) scale(0.1 -0.1)">
       <use xlink:href="#DejaVuSans-32"/>
       <use xlink:href="#DejaVuSans-30" transform="translate(63.623047 0)"/>
       <use xlink:href="#DejaVuSans-30" transform="translate(127.246094 0)"/>
      </g>
     </g>
    </g>
    <g id="ytick_4">
     <g id="line2d_37">
      <path d="M 50.87 174.284642 
L 781.2 174.284642 
" clip-path="url(#pcc0d0fe47d)" style="fill: none; stroke-dasharray: 0.8,1.32; stroke-dashoffset: 0; stroke: #b0b0b0; stroke-opacity: 0.6; stroke-width: 0.8"/>
     </g>
     <g id="line2d_38">
      <g>
       <use xlink:href="#mcc16b58cc4" x="50.87" y="174.284642" style="stroke: #000000; stroke-width: 0.8"/>
      </g>
     </g>
     <g id="text_20">
      <!-- 300 -->
      <g transform="translate(24.7825 178.08386) scale(0.1 -0.1)">
       <use xlink:href="#DejaVuSans-33"/>
       <use xlink:href="#DejaVuSans-30" transform="translate(63.623047 0)"/>
       <use xlink:href="#DejaVuSans-30" transform="translate(127.246094 0)"/>
      </g>
     </g>
    </g>
    <g id="ytick_5">
     <g id="line2d_39">
      <path d="M 50.87 99.646939 
L 781.2 99.646939 
" clip-path="url(#pcc0d0fe47d)" style="fill: none; stroke-dasharray: 0.8,1.32; stroke-dashoffset: 0; stroke: #b0b0b0; stroke-opacity: 0.6; stroke-width: 0.8"/>
     </g>
     <g id="line2d_40">
      <g>
       <use xlink:href="#mcc16b58cc4" x="50.87" y="99.646939" style="stroke: #000000; stroke-width: 0.8"/>
      </g>
     </g>
     <g id="text_21">
      <!-- 400 -->
      <g transform="translate(24.7825 103.446158) scale(0.1 -0.1)">
       <defs>
        <path id="DejaVuSans-34" d="M 2419 4116 
L 825 1625 
L 2419 1625 
L 2419 4116 
z
M 2253 4666 
L 3047 4666 
L 3047 1625 
L 3713 1625 
L 3713 1100 
L 3047 1100 
L 3047 0 
L 2419 0 
L 2419 1100 
L 313 1100 
L 313 1709 
L 2253 4666 
z
" transform="scale(0.015625)"/>
       </defs>
       <use xlink:href="#DejaVuSans-34"/>
       <use xlink:href="#DejaVuSans-30" transform="translate(63.623047 0)"/>
       <use xlink:href="#DejaVuSans-30" transform="translate(127.246094 0)"/>
      </g>
     </g>
    </g>
    <g id="text_22">
     <!-- Speed of sound [m/s] -->
     <g transform="translate(18.702813 276.562844) rotate(-90) scale(0.1 -0.1)">
      <defs>
       <path id="DejaVuSans-73" d="M 2834 3397 
L 2834 2853 
Q 2591 2978 2328 3040 
Q 2066 3103 1784 3103 
Q 1356 3103 1142 2972 
Q 928 2841 928 2578 
Q 928 2378 1081 2264 
Q 1234 2150 1697 2047 
L 1894 2003 
Q 2506 1872 2764 1633 
Q 3022 1394 3022 966 
Q 3022 478 2636 193 
Q 2250 -91 1575 -91 
Q 1294 -91 989 -36 
Q 684 19 347 128 
L 347 722 
Q 666 556 975 473 
Q 1284 391 1588 391 
Q 1994 391 2212 530 
Q 2431 669 2431 922 
Q 2431 1156 2273 1281 
Q 2116 1406 1581 1522 
L 1381 1569 
Q 847 1681 609 1914 
Q 372 2147 372 2553 
Q 372 3047 722 3315 
Q 1072 3584 1716 3584 
Q 2034 3584 2315 3537 
Q 2597 3491 2834 3397 
z
" transform="scale(0.015625)"/>
       <path id="DejaVuSans-6d" d="M 3328 2828 
Q 3544 3216 3844 3400 
Q 4144 3584 4550 3584 
Q 5097 3584 5394 3201 
Q 5691 2819 5691 2113 
L 5691 0 
L 5113 0 
L 5113 2094 
Q 5113 2597 4934 2840 
Q 4756 3084 4391 3084 
Q 3944 3084 3684 2787 
Q 3425 2491 3425 1978 
L 3425 0 
L 2847 0 
L 2847 2094 
Q 2847 2600 2669 2842 
Q 2491 3084 2119 3084 
Q 1678 3084 1418 2786 
Q 1159 2488 1159 1978 
L 1159 0 
L 581 0 
L 581 3500 
L 1159 3500 
L 1159 2956 
Q 1356 3278 1631 3431 
Q 1906 3584 2284 3584 
Q 2666 3584 2933 3390 
Q 3200 3197 3328 2828 
z
" transform="scale(0.015625)"/>
       <path id="DejaVuSans-2f" d="M 1625 4666 
L 2156 4666 
L 531 -594 
L 0 -594 
L 1625 4666 
z
" transform="scale(0.015625)"/>
      </defs>
      <use xlink:href="#DejaVuSans-53"/>
      <use xlink:href="#DejaVuSans-70" transform="translate(63.476562 0)"/>
      <use xlink:href="#DejaVuSans-65" transform="translate(126.953125 0)"/>
      <use xlink:href="#DejaVuSans-65" transform="translate(188.476562 0)"/>
      <use xlink:href="#DejaVuSans-64" transform="translate(250 0)"/>
      <use xlink:href="#DejaVuSans-20" transform="translate(313.476562 0)"/>
      <use xlink:href="#DejaVuSans-6f" transform="translate(345.263672 0)"/>
      <use xlink:href="#DejaVuSans-66" transform="translate(406.445312 0)"/>
      <use xlink:href="#DejaVuSans-20" transform="translate(441.650391 0)"/>
      <use xlink:href="#DejaVuSans-73" transform="translate(473.4375 0)"/>
      <use xlink:href="#DejaVuSans-6f" transform="translate(525.537109 0)"/>
      <use xlink:href="#DejaVuSans-75" transform="translate(586.71875 0)"/>
      <use xlink:href="#DejaVuSans-6e" transform="translate(650.097656 0)"/>
      <use xlink:href="#DejaVuSans-64" transform="translate(713.476562 0)"/>
      <use xlink:href="#DejaVuSans-20" transform="translate(776.953125 0)"/>
      <use xlink:href="#DejaVuSans-5b" transform="translate(808.740234 0)"/>
      <use xlink:href="#DejaVuSans-6d" transform="translate(847.753906 0)"/>
      <use xlink:href="#DejaVuSans-2f" transform="translate(945.166016 0)"/>
      <use xlink:href="#DejaVuSans-73" transform="translate(978.857422 0)"/>
      <use xlink:href="#DejaVuSans-5d" transform="translate(1030.957031 0)"/>
     </g>
    </g>
   </g>
   <g id="line2d_41">
    <path d="M 84.066818 58.503284 
L 90.982822 59.098335 
L 97.898826 59.693935 
L 104.81483 60.29009 
L 111.730833 60.886804 
L 118.646837 61.484084 
L 125.562841 62.081933 
L 132.478845 62.680359 
L 139.394848 63.279365 
L 146.310852 63.878958 
L 153.226856 64.479143 
L 160.14286 65.079925 
" clip-path="url(#pcc0d0fe47d)" style="fill: none; stroke: #1f77b4; stroke-width: 2; stroke-linecap: square"/>
   </g>
   <g id="line2d_42">
    <path d="M 177.017909 387.623966 
L 181.846537 386.154006 
L 186.675165 384.710764 
L 191.503793 383.293143 
L 196.332421 381.900112 
L 201.16105 380.530699 
L 205.989678 379.183991 
L 210.818306 377.859123 
L 215.646934 376.555283 
L 220.475562 375.2717 
L 225.30419 374.007646 
L 230.132818 372.762432 
L 234.961446 371.535403 
L 239.790074 370.32594 
L 244.618702 369.133454 
L 249.447331 367.957386 
L 254.275959 366.797202 
L 259.104587 365.652397 
L 263.933215 364.522487 
L 268.761843 363.407012 
L 273.590471 362.305535 
L 278.419099 361.217634 
L 283.247727 360.142911 
L 288.076355 359.080982 
L 292.904983 358.03148 
L 297.733612 356.994056 
L 302.56224 355.968374 
L 307.390868 354.954112 
L 312.219496 353.950961 
L 317.048124 352.958626 
L 321.876752 351.976821 
L 326.70538 351.005275 
L 331.534008 350.043725 
L 336.362636 349.091918 
L 341.191264 348.149611 
L 346.019893 347.216572 
L 350.848521 346.292575 
L 355.677149 345.377404 
L 360.505777 344.47085 
L 365.334405 343.572711 
L 370.163033 342.682793 
L 374.991661 341.800908 
L 379.820289 340.926876 
L 384.648917 340.060522 
L 389.477545 339.201677 
L 394.306174 338.350177 
L 399.134802 337.505865 
L 403.96343 336.668588 
L 408.792058 335.838198 
L 413.620686 335.014551 
L 418.449314 334.197511 
L 423.277942 333.386941 
L 428.10657 332.582713 
L 432.935198 331.784699 
L 437.763826 330.992779 
L 442.592455 330.206832 
L 447.421083 329.426745 
L 452.249711 328.652405 
L 457.078339 327.883704 
L 461.906967 327.120537 
L 466.735595 326.362801 
L 471.564223 325.610397 
L 476.392851 324.863229 
L 481.221479 324.121202 
L 486.050107 323.384226 
L 490.878736 322.65221 
L 495.707364 321.92507 
L 500.535992 321.202721 
L 505.36462 320.48508 
L 510.193248 319.772069 
L 515.021876 319.063609 
L 519.850504 318.359624 
L 524.679132 317.660042 
L 529.50776 316.96479 
L 534.336388 316.273799 
L 539.165017 315.586999 
L 543.993645 314.904325 
L 548.822273 314.225711 
L 553.650901 313.551094 
L 558.479529 312.880412 
L 563.308157 312.213604 
L 568.136785 311.550613 
L 572.965413 310.89138 
L 577.794041 310.235848 
L 582.622669 309.583964 
L 587.451298 308.935673 
L 592.279926 308.290923 
L 597.108554 307.649663 
L 601.937182 307.011843 
L 606.76581 306.377414 
L 611.594438 305.746327 
L 616.423066 305.118536 
L 621.251694 304.493995 
L 626.080322 303.87266 
L 630.90895 303.254486 
L 635.737579 302.639431 
L 640.566207 302.027452 
L 645.394835 301.418509 
L 650.223463 300.81256 
L 655.052091 300.209568 
" clip-path="url(#pcc0d0fe47d)" style="fill: none; stroke: #d62728; stroke-width: 2; stroke-linecap: square"/>
   </g>
   <g id="line2d_43">
    <path d="M 177.017909 354.948373 
L 181.846537 357.325442 
L 186.675165 358.053566 
L 191.503793 358.069522 
L 196.332421 357.72276 
L 201.16105 357.173141 
L 205.989678 356.503608 
L 210.818306 355.761034 
L 215.646934 354.973589 
L 220.475562 354.158985 
L 225.30419 353.328749 
L 230.132818 352.490584 
L 234.961446 351.64973 
L 239.790074 350.809805 
L 244.618702 349.973327 
L 249.447331 349.142049 
L 254.275959 348.317191 
L 259.104587 347.499588 
L 263.933215 346.689803 
L 268.761843 345.888196 
L 273.590471 345.094978 
L 278.419099 344.310255 
L 283.247727 343.534052 
L 288.076355 342.766335 
L 292.904983 342.007025 
L 297.733612 341.256015 
L 302.56224 340.513173 
L 307.390868 339.77835 
L 312.219496 339.051389 
L 317.048124 338.332124 
L 321.876752 337.620385 
L 326.70538 336.916001 
L 331.534008 336.218801 
L 336.362636 335.528613 
L 341.191264 334.845271 
L 346.019893 334.168609 
L 350.848521 333.498465 
L 355.677149 332.83468 
L 360.505777 332.177102 
L 365.334405 331.52558 
L 370.163033 330.879968 
L 374.991661 330.240126 
L 379.820289 329.605917 
L 384.648917 328.977207 
L 389.477545 328.353868 
L 394.306174 327.735777 
L 399.134802 327.122812 
L 403.96343 326.514857 
L 408.792058 325.9118 
L 413.620686 325.313531 
L 418.449314 324.719946 
L 423.277942 324.130941 
L 428.10657 323.546418 
L 432.935198 322.966282 
L 437.763826 322.39044 
L 442.592455 321.818803 
L 447.421083 321.251284 
L 452.249711 320.687798 
L 457.078339 320.128265 
L 461.906967 319.572606 
L 466.735595 319.020745 
L 471.564223 318.472606 
L 476.392851 317.92812 
L 481.221479 317.387215 
L 486.050107 316.849825 
L 490.878736 316.315883 
L 495.707364 315.785327 
L 500.535992 315.258095 
L 505.36462 314.734126 
L 510.193248 314.213362 
L 515.021876 313.695746 
L 519.850504 313.181225 
L 524.679132 312.669743 
L 529.50776 312.161249 
L 534.336388 311.655693 
L 539.165017 311.153025 
L 543.993645 310.653197 
L 548.822273 310.156163 
L 553.650901 309.661877 
L 558.479529 309.170295 
L 563.308157 308.681374 
L 568.136785 308.195072 
L 572.965413 307.711348 
L 577.794041 307.230162 
L 582.622669 306.751475 
L 587.451298 306.27525 
L 592.279926 305.801449 
L 597.108554 305.330036 
L 601.937182 304.860976 
L 606.76581 304.394235 
L 611.594438 303.929779 
L 616.423066 303.467575 
L 621.251694 303.007591 
L 626.080322 302.549797 
L 630.90895 302.09416 
L 635.737579 301.640653 
L 640.566207 301.189245 
L 645.394835 300.739907 
L 650.223463 300.292612 
L 655.052091 299.847333 
" clip-path="url(#pcc0d0fe47d)" style="fill: none; stroke-dasharray: 7.4,3.2; stroke-dashoffset: 0; stroke: #9467bd; stroke-width: 2"/>
   </g>
   <g id="line2d_44">
    <path d="M 177.017909 355.217026 
L 181.846537 357.578308 
L 186.675165 358.300614 
L 191.503793 358.314883 
L 196.332421 357.968395 
L 201.16105 357.42002 
L 205.989678 356.752193 
L 210.818306 356.011509 
L 215.646934 355.22597 
L 220.475562 354.413189 
L 225.30419 353.584635 
L 230.132818 352.747971 
L 234.961446 351.908419 
L 239.790074 351.069583 
L 244.618702 350.233976 
L 249.447331 349.403352 
L 254.275959 348.578932 
L 259.104587 347.761557 
L 263.933215 346.951794 
L 268.761843 346.150009 
L 273.590471 345.356423 
L 278.419099 344.571148 
L 283.247727 343.794216 
L 288.076355 343.025601 
L 292.904983 342.265232 
L 297.733612 341.513009 
L 302.56224 340.768806 
L 307.390868 340.032483 
L 312.219496 339.303888 
L 317.048124 338.582862 
L 321.876752 337.869242 
L 326.70538 337.162862 
L 331.534008 336.463556 
L 336.362636 335.77116 
L 341.191264 335.08551 
L 346.019893 334.406447 
L 350.848521 333.733813 
L 355.677149 333.067455 
L 360.505777 332.407223 
L 365.334405 331.752971 
L 370.163033 331.104559 
L 374.991661 330.461847 
L 379.820289 329.824704 
L 384.648917 329.192999 
L 389.477545 328.566608 
L 394.306174 327.945409 
L 399.134802 327.329284 
L 403.96343 326.718121 
L 408.792058 326.111809 
L 413.620686 325.510241 
L 418.449314 324.913315 
L 423.277942 324.320931 
L 428.10657 323.732992 
L 432.935198 323.149406 
L 437.763826 322.57008 
L 442.592455 321.994928 
L 447.421083 321.423865 
L 452.249711 320.856808 
L 457.078339 320.293679 
L 461.906967 319.734399 
L 466.735595 319.178894 
L 471.564223 318.627091 
L 476.392851 318.07892 
L 481.221479 317.534313 
L 486.050107 316.993203 
L 490.878736 316.455525 
L 495.707364 315.921218 
L 500.535992 315.390221 
L 505.36462 314.862475 
L 510.193248 314.337922 
L 515.021876 313.816506 
L 519.850504 313.298175 
L 524.679132 312.782874 
L 529.50776 312.270553 
L 534.336388 311.761162 
L 539.165017 311.254653 
L 543.993645 310.750978 
L 548.822273 310.250091 
L 553.650901 309.751948 
L 558.479529 309.256505 
L 563.308157 308.763719 
L 568.136785 308.27355 
L 572.965413 307.785956 
L 577.794041 307.300899 
L 582.622669 306.818339 
L 587.451298 306.33824 
L 592.279926 305.860565 
L 597.108554 305.385279 
L 601.937182 304.912346 
L 606.76581 304.441732 
L 611.594438 303.973405 
L 616.423066 303.507332 
L 621.251694 303.043481 
L 626.080322 302.581822 
L 630.90895 302.122323 
L 635.737579 301.664956 
L 640.566207 301.209692 
L 645.394835 300.756502 
L 650.223463 300.305358 
L 655.052091 299.856234 
" clip-path="url(#pcc0d0fe47d)" style="fill: none; stroke-dasharray: 12.8,3.2,2,3.2; stroke-dashoffset: 0; stroke: #ff7f0e; stroke-width: 2"/>
   </g>
   <g id="line2d_45">
    <path d="M 665.011136 298.936637 
L 667.872931 298.861392 
L 670.734726 298.786342 
L 673.59652 298.711484 
L 676.458315 298.636818 
L 679.32011 298.562342 
L 682.181904 298.488056 
L 685.043699 298.413958 
L 687.905494 298.340046 
L 690.767288 298.26632 
L 693.629083 298.192779 
L 696.490878 298.119421 
L 699.352672 298.046245 
L 702.214467 297.973249 
L 705.076262 297.900434 
L 707.938056 297.827797 
L 710.799851 297.755338 
L 713.661646 297.683056 
L 716.52344 297.610948 
L 719.385235 297.539015 
L 722.24703 297.467256 
L 725.108824 297.395668 
L 727.970619 297.324251 
L 730.832414 297.253005 
L 733.694208 297.181927 
L 736.556003 297.111017 
L 739.417798 297.040274 
L 742.279592 296.969697 
L 745.141387 296.899285 
L 748.003182 296.829037 
" clip-path="url(#pcc0d0fe47d)" style="fill: none; stroke: #2ca02c; stroke-width: 2; stroke-linecap: square"/>
   </g>
   <g id="line2d_46">
    <path d="M 167.058864 404.08 
L 167.058864 42.04725 
" clip-path="url(#pcc0d0fe47d)" style="fill: none; stroke: #000000; stroke-opacity: 0.6; stroke-linecap: square"/>
   </g>
   <g id="line2d_47">
    <path d="M 665.011136 404.08 
L 665.011136 42.04725 
" clip-path="url(#pcc0d0fe47d)" style="fill: none; stroke: #000000; stroke-opacity: 0.6; stroke-linecap: square"/>
   </g>
   <g id="patch_3">
    <path d="M 50.87 404.08 
L 50.87 42.04725 
" style="fill: none; stroke: #000000; stroke-width: 0.8; stroke-linejoin: miter; stroke-linecap: square"/>
   </g>
   <g id="patch_4">
    <path d="M 781.2 404.08 
L 781.2 42.04725 
" style="fill: none; stroke: #000000; stroke-width: 0.8; stroke-linejoin: miter; stroke-linecap: square"/>
   </g>
   <g id="patch_5">
    <path d="M 50.87 404.08 
L 781.2 404.08 
" style="fill: none; stroke: #000000; stroke-width: 0.8; stroke-linejoin: miter; stroke-linecap: square"/>
   </g>
   <g id="patch_6">
    <path d="M 50.87 42.04725 
L 781.2 42.04725 
" style="fill: none; stroke: #000000; stroke-width: 0.8; stroke-linejoin: miter; stroke-linecap: square"/>
   </g>
   <g id="text_23">
    <!-- Speed of Sound at T_evap=45.0 °C — Extended Two-phase Region -->
    <g transform="translate(215.709062 22.276125) scale(0.12 -0.12)">
     <defs>
      <path id="DejaVuSans-5f" d="M 3263 -1063 
L 3263 -1509 
L -63 -1509 
L -63 -1063 
L 3263 -1063 
z
" transform="scale(0.015625)"/>
      <path id="DejaVuSans-76" d="M 191 3500 
L 800 3500 
L 1894 563 
L 2988 3500 
L 3597 3500 
L 2284 0 
L 1503 0 
L 191 3500 
z
" transform="scale(0.015625)"/>
      <path id="DejaVuSans-b0" d="M 1600 4347 
Q 1350 4347 1178 4173 
Q 1006 4000 1006 3750 
Q 1006 3503 1178 3333 
Q 1350 3163 1600 3163 
Q 1850 3163 2022 3333 
Q 2194 3503 2194 3750 
Q 2194 3997 2020 4172 
Q 1847 4347 1600 4347 
z
M 1600 4750 
Q 1800 4750 1984 4673 
Q 2169 4597 2303 4453 
Q 2447 4313 2519 4134 
Q 2591 3956 2591 3750 
Q 2591 3338 2302 3052 
Q 2013 2766 1594 2766 
Q 1172 2766 890 3047 
Q 609 3328 609 3750 
Q 609 4169 896 4459 
Q 1184 4750 1600 4750 
z
" transform="scale(0.015625)"/>
      <path id="DejaVuSans-43" d="M 4122 4306 
L 4122 3641 
Q 3803 3938 3442 4084 
Q 3081 4231 2675 4231 
Q 1875 4231 1450 3742 
Q 1025 3253 1025 2328 
Q 1025 1406 1450 917 
Q 1875 428 2675 428 
Q 3081 428 3442 575 
Q 3803 722 4122 1019 
L 4122 359 
Q 3791 134 3420 21 
Q 3050 -91 2638 -91 
Q 1578 -91 968 557 
Q 359 1206 359 2328 
Q 359 3453 968 4101 
Q 1578 4750 2638 4750 
Q 3056 4750 3426 4639 
Q 3797 4528 4122 4306 
z
" transform="scale(0.015625)"/>
      <path id="DejaVuSans-2014" d="M 313 1978 
L 6088 1978 
L 6088 1528 
L 313 1528 
L 313 1978 
z
" transform="scale(0.015625)"/>
      <path id="DejaVuSans-45" d="M 628 4666 
L 3578 4666 
L 3578 4134 
L 1259 4134 
L 1259 2753 
L 3481 2753 
L 3481 2222 
L 1259 2222 
L 1259 531 
L 3634 531 
L 3634 0 
L 628 0 
L 628 4666 
z
" transform="scale(0.015625)"/>
      <path id="DejaVuSans-78" d="M 3513 3500 
L 2247 1797 
L 3578 0 
L 2900 0 
L 1881 1375 
L 863 0 
L 184 0 
L 1544 1831 
L 300 3500 
L 978 3500 
L 1906 2253 
L 2834 3500 
L 3513 3500 
z
" transform="scale(0.015625)"/>
      <path id="DejaVuSans-77" d="M 269 3500 
L 844 3500 
L 1563 769 
L 2278 3500 
L 2956 3500 
L 3675 769 
L 4391 3500 
L 4966 3500 
L 4050 0 
L 3372 0 
L 2619 2869 
L 1863 0 
L 1184 0 
L 269 3500 
z
" transform="scale(0.015625)"/>
     </defs>
     <use xlink:href="#DejaVuSans-53"/>
     <use xlink:href="#DejaVuSans-70" transform="translate(63.476562 0)"/>
     <use xlink:href="#DejaVuSans-65" transform="translate(126.953125 0)"/>
     <use xlink:href="#DejaVuSans-65" transform="translate(188.476562 0)"/>
     <use xlink:href="#DejaVuSans-64" transform="translate(250 0)"/>
     <use xlink:href="#DejaVuSans-20" transform="translate(313.476562 0)"/>
     <use xlink:href="#DejaVuSans-6f" transform="translate(345.263672 0)"/>
     <use xlink:href="#DejaVuSans-66" transform="translate(406.445312 0)"/>
     <use xlink:href="#DejaVuSans-20" transform="translate(441.650391 0)"/>
     <use xlink:href="#DejaVuSans-53" transform="translate(473.4375 0)"/>
     <use xlink:href="#DejaVuSans-6f" transform="translate(536.914062 0)"/>
     <use xlink:href="#DejaVuSans-75" transform="translate(598.095703 0)"/>
     <use xlink:href="#DejaVuSans-6e" transform="translate(661.474609 0)"/>
     <use xlink:href="#DejaVuSans-64" transform="translate(724.853516 0)"/>
     <use xlink:href="#DejaVuSans-20" transform="translate(788.330078 0)"/>
     <use xlink:href="#DejaVuSans-61" transform="translate(820.117188 0)"/>
     <use xlink:href="#DejaVuSans-74" transform="translate(881.396484 0)"/>
     <use xlink:href="#DejaVuSans-20" transform="translate(920.605469 0)"/>
     <use xlink:href="#DejaVuSans-54" transform="translate(952.392578 0)"/>
     <use xlink:href="#DejaVuSans-5f" transform="translate(1013.476562 0)"/>
     <use xlink:href="#DejaVuSans-65" transform="translate(1063.476562 0)"/>
     <use xlink:href="#DejaVuSans-76" transform="translate(1125 0)"/>
     <use xlink:href="#DejaVuSans-61" transform="translate(1184.179688 0)"/>
     <use xlink:href="#DejaVuSans-70" transform="translate(1245.458984 0)"/>
     <use xlink:href="#DejaVuSans-3d" transform="translate(1308.935547 0)"/>
     <use xlink:href="#DejaVuSans-34" transform="translate(1392.724609 0)"/>
     <use xlink:href="#DejaVuSans-35" transform="translate(1456.347656 0)"/>
     <use xlink:href="#DejaVuSans-2e" transform="translate(1519.970703 0)"/>
     <use xlink:href="#DejaVuSans-30" transform="translate(1551.757812 0)"/>
     <use xlink:href="#DejaVuSans-20" transform="translate(1615.380859 0)"/>
     <use xlink:href="#DejaVuSans-b0" transform="translate(1647.167969 0)"/>
     <use xlink:href="#DejaVuSans-43" transform="translate(1697.167969 0)"/>
     <use xlink:href="#DejaVuSans-20" transform="translate(1766.992188 0)"/>
     <use xlink:href="#DejaVuSans-2014" transform="translate(1798.779297 0)"/>
     <use xlink:href="#DejaVuSans-20" transform="translate(1898.779297 0)"/>
     <use xlink:href="#DejaVuSans-45" transform="translate(1930.566406 0)"/>
     <use xlink:href="#DejaVuSans-78" transform="translate(1993.75 0)"/>
     <use xlink:href="#DejaVuSans-74" transform="translate(2052.929688 0)"/>
     <use xlink:href="#DejaVuSans-65" transform="translate(2092.138672 0)"/>
     <use xlink:href="#DejaVuSans-6e" transform="translate(2153.662109 0)"/>
     <use xlink:href="#DejaVuSans-64" transform="translate(2217.041016 0)"/>
     <use xlink:href="#DejaVuSans-65" transform="translate(2280.517578 0)"/>
     <use xlink:href="#DejaVuSans-64" transform="translate(2342.041016 0)"/>
     <use xlink:href="#DejaVuSans-20" transform="translate(2405.517578 0)"/>
     <use xlink:href="#DejaVuSans-54" transform="translate(2437.304688 0)"/>
     <use xlink:href="#DejaVuSans-77" transform="translate(2481.888672 0)"/>
     <use xlink:href="#DejaVuSans-6f" transform="translate(2563.675781 0)"/>
     <use xlink:href="#DejaVuSans-2d" transform="translate(2626.732422 0)"/>
     <use xlink:href="#DejaVuSans-70" transform="translate(2662.816406 0)"/>
     <use xlink:href="#DejaVuSans-68" transform="translate(2726.292969 0)"/>
     <use xlink:href="#DejaVuSans-61" transform="translate(2789.671875 0)"/>
     <use xlink:href="#DejaVuSans-73" transform="translate(2850.951172 0)"/>
     <use xlink:href="#DejaVuSans-65" transform="translate(2903.050781 0)"/>
     <use xlink:href="#DejaVuSans-20" transform="translate(2964.574219 0)"/>
     <use xlink:href="#DejaVuSans-52" transform="translate(2996.361328 0)"/>
     <use xlink:href="#DejaVuSans-65" transform="translate(3061.34375 0)"/>
     <use xlink:href="#DejaVuSans-67" transform="translate(3122.867188 0)"/>
     <use xlink:href="#DejaVuSans-69" transform="translate(3186.34375 0)"/>
     <use xlink:href="#DejaVuSans-6f" transform="translate(3214.126953 0)"/>
     <use xlink:href="#DejaVuSans-6e" transform="translate(3275.308594 0)"/>
    </g>
    <!-- REFPROP::R1234ZE(E) -->
    <g transform="translate(348.64 36.04725) scale(0.12 -0.12)">
     <defs>
      <path id="DejaVuSans-46" d="M 628 4666 
L 3309 4666 
L 3309 4134 
L 1259 4134 
L 1259 2759 
L 3109 2759 
L 3109 2228 
L 1259 2228 
L 1259 0 
L 628 0 
L 628 4666 
z
" transform="scale(0.015625)"/>
      <path id="DejaVuSans-50" d="M 1259 4147 
L 1259 2394 
L 2053 2394 
Q 2494 2394 2734 2622 
Q 2975 2850 2975 3272 
Q 2975 3691 2734 3919 
Q 2494 4147 2053 4147 
L 1259 4147 
z
M 628 4666 
L 2053 4666 
Q 2838 4666 3239 4311 
Q 3641 3956 3641 3272 
Q 3641 2581 3239 2228 
Q 2838 1875 2053 1875 
L 1259 1875 
L 1259 0 
L 628 0 
L 628 4666 
z
" transform="scale(0.015625)"/>
      <path id="DejaVuSans-4f" d="M 2522 4238 
Q 1834 4238 1429 3725 
Q 1025 3213 1025 2328 
Q 1025 1447 1429 934 
Q 1834 422 2522 422 
Q 3209 422 3611 934 
Q 4013 1447 4013 2328 
Q 4013 3213 3611 3725 
Q 3209 4238 2522 4238 
z
M 2522 4750 
Q 3503 4750 4090 4092 
Q 4678 3434 4678 2328 
Q 4678 1225 4090 567 
Q 3503 -91 2522 -91 
Q 1538 -91 948 565 
Q 359 1222 359 2328 
Q 359 3434 948 4092 
Q 1538 4750 2522 4750 
z
" transform="scale(0.015625)"/>
      <path id="DejaVuSans-5a" d="M 359 4666 
L 4025 4666 
L 4025 4184 
L 1075 531 
L 4097 531 
L 4097 0 
L 288 0 
L 288 481 
L 3238 4134 
L 359 4134 
L 359 4666 
z
" transform="scale(0.015625)"/>
      <path id="DejaVuSans-28" d="M 1984 4856 
Q 1566 4138 1362 3434 
Q 1159 2731 1159 2009 
Q 1159 1288 1364 580 
Q 1569 -128 1984 -844 
L 1484 -844 
Q 1016 -109 783 600 
Q 550 1309 550 2009 
Q 550 2706 781 3412 
Q 1013 4119 1484 4856 
L 1984 4856 
z
" transform="scale(0.015625)"/>
      <path id="DejaVuSans-29" d="M 513 4856 
L 1013 4856 
Q 1481 4119 1714 3412 
Q 1947 2706 1947 2009 
Q 1947 1309 1714 600 
Q 1481 -109 1013 -844 
L 513 -844 
Q 928 -128 1133 580 
Q 1338 1288 1338 2009 
Q 1338 2731 1133 3434 
Q 928 4138 513 4856 
z
" transform="scale(0.015625)"/>
     </defs>
     <use xlink:href="#DejaVuSans-52"/>
     <use xlink:href="#DejaVuSans-45" transform="translate(69.482422 0)"/>
     <use xlink:href="#DejaVuSans-46" transform="translate(132.666016 0)"/>
     <use xlink:href="#DejaVuSans-50" transform="translate(190.185547 0)"/>
     <use xlink:href="#DejaVuSans-52" transform="translate(250.488281 0)"/>
     <use xlink:href="#DejaVuSans-4f" transform="translate(319.970703 0)"/>
     <use xlink:href="#DejaVuSans-50" transform="translate(398.681641 0)"/>
     <use xlink:href="#DejaVuSans-3a" transform="translate(458.984375 0)"/>
     <use xlink:href="#DejaVuSans-3a" transform="translate(492.675781 0)"/>
     <use xlink:href="#DejaVuSans-52" transform="translate(526.367188 0)"/>
     <use xlink:href="#DejaVuSans-31" transform="translate(595.849609 0)"/>
     <use xlink:href="#DejaVuSans-32" transform="translate(659.472656 0)"/>
     <use xlink:href="#DejaVuSans-33" transform="translate(723.095703 0)"/>
     <use xlink:href="#DejaVuSans-34" transform="translate(786.71875 0)"/>
     <use xlink:href="#DejaVuSans-5a" transform="translate(850.341797 0)"/>
     <use xlink:href="#DejaVuSans-45" transform="translate(918.847656 0)"/>
     <use xlink:href="#DejaVuSans-28" transform="translate(982.03125 0)"/>
     <use xlink:href="#DejaVuSans-45" transform="translate(1021.044922 0)"/>
     <use xlink:href="#DejaVuSans-29" transform="translate(1084.228516 0)"/>
    </g>
   </g>
   <g id="legend_1">
    <g id="patch_7">
     <path d="M 284.510781 123.75975 
L 547.559219 123.75975 
Q 549.559219 123.75975 549.559219 121.75975 
L 549.559219 49.04725 
Q 549.559219 47.04725 547.559219 47.04725 
L 284.510781 47.04725 
Q 282.510781 47.04725 282.510781 49.04725 
L 282.510781 121.75975 
Q 282.510781 123.75975 284.510781 123.75975 
z
" style="fill: #ffffff; opacity: 0.8; stroke: #cccccc; stroke-linejoin: miter"/>
    </g>
    <g id="line2d_48">
     <path d="M 286.510781 55.145688 
L 296.510781 55.145688 
L 306.510781 55.145688 
" style="fill: none; stroke: #1f77b4; stroke-width: 2; stroke-linecap: square"/>
    </g>
    <g id="text_24">
     <!-- Subcooled liquid (ΔT=2 K) -->
     <g transform="translate(314.510781 58.645688) scale(0.1 -0.1)">
      <defs>
       <path id="DejaVuSans-71" d="M 947 1747 
Q 947 1113 1208 752 
Q 1469 391 1925 391 
Q 2381 391 2643 752 
Q 2906 1113 2906 1747 
Q 2906 2381 2643 2742 
Q 2381 3103 1925 3103 
Q 1469 3103 1208 2742 
Q 947 2381 947 1747 
z
M 2906 525 
Q 2725 213 2448 61 
Q 2172 -91 1784 -91 
Q 1150 -91 751 415 
Q 353 922 353 1747 
Q 353 2572 751 3078 
Q 1150 3584 1784 3584 
Q 2172 3584 2448 3432 
Q 2725 3281 2906 2969 
L 2906 3500 
L 3481 3500 
L 3481 -1331 
L 2906 -1331 
L 2906 525 
z
" transform="scale(0.015625)"/>
      </defs>
      <use xlink:href="#DejaVuSans-53"/>
      <use xlink:href="#DejaVuSans-75" transform="translate(63.476562 0)"/>
      <use xlink:href="#DejaVuSans-62" transform="translate(126.855469 0)"/>
      <use xlink:href="#DejaVuSans-63" transform="translate(190.332031 0)"/>
      <use xlink:href="#DejaVuSans-6f" transform="translate(245.3125 0)"/>
      <use xlink:href="#DejaVuSans-6f" transform="translate(306.494141 0)"/>
      <use xlink:href="#DejaVuSans-6c" transform="translate(367.675781 0)"/>
      <use xlink:href="#DejaVuSans-65" transform="translate(395.458984 0)"/>
      <use xlink:href="#DejaVuSans-64" transform="translate(456.982422 0)"/>
      <use xlink:href="#DejaVuSans-20" transform="translate(520.458984 0)"/>
      <use xlink:href="#DejaVuSans-6c" transform="translate(552.246094 0)"/>
      <use xlink:href="#DejaVuSans-69" transform="translate(580.029297 0)"/>
      <use xlink:href="#DejaVuSans-71" transform="translate(607.8125 0)"/>
      <use xlink:href="#DejaVuSans-75" transform="translate(671.289062 0)"/>
      <use xlink:href="#DejaVuSans-69" transform="translate(734.667969 0)"/>
      <use xlink:href="#DejaVuSans-64" transform="translate(762.451172 0)"/>
      <use xlink:href="#DejaVuSans-20" transform="translate(825.927734 0)"/>
      <use xlink:href="#DejaVuSans-28" transform="translate(857.714844 0)"/>
      <use xlink:href="#DejaVuSans-394" transform="translate(896.728516 0)"/>
      <use xlink:href="#DejaVuSans-54" transform="translate(965.136719 0)"/>
      <use xlink:href="#DejaVuSans-3d" transform="translate(1026.220703 0)"/>
      <use xlink:href="#DejaVuSans-32" transform="translate(1110.009766 0)"/>
      <use xlink:href="#DejaVuSans-20" transform="translate(1173.632812 0)"/>
      <use xlink:href="#DejaVuSans-4b" transform="translate(1205.419922 0)"/>
      <use xlink:href="#DejaVuSans-29" transform="translate(1270.996094 0)"/>
     </g>
    </g>
    <g id="line2d_49">
     <path d="M 286.510781 69.823813 
L 296.510781 69.823813 
L 306.510781 69.823813 
" style="fill: none; stroke: #d62728; stroke-width: 2; stroke-linecap: square"/>
    </g>
    <g id="text_25">
     <!-- Two-phase (HEM - equilibrium) -->
     <g transform="translate(314.510781 73.323813) scale(0.1 -0.1)">
      <defs>
       <path id="DejaVuSans-48" d="M 628 4666 
L 1259 4666 
L 1259 2753 
L 3553 2753 
L 3553 4666 
L 4184 4666 
L 4184 0 
L 3553 0 
L 3553 2222 
L 1259 2222 
L 1259 0 
L 628 0 
L 628 4666 
z
" transform="scale(0.015625)"/>
      </defs>
      <use xlink:href="#DejaVuSans-54"/>
      <use xlink:href="#DejaVuSans-77" transform="translate(44.583984 0)"/>
      <use xlink:href="#DejaVuSans-6f" transform="translate(126.371094 0)"/>
      <use xlink:href="#DejaVuSans-2d" transform="translate(189.427734 0)"/>
      <use xlink:href="#DejaVuSans-70" transform="translate(225.511719 0)"/>
      <use xlink:href="#DejaVuSans-68" transform="translate(288.988281 0)"/>
      <use xlink:href="#DejaVuSans-61" transform="translate(352.367188 0)"/>
      <use xlink:href="#DejaVuSans-73" transform="translate(413.646484 0)"/>
      <use xlink:href="#DejaVuSans-65" transform="translate(465.746094 0)"/>
      <use xlink:href="#DejaVuSans-20" transform="translate(527.269531 0)"/>
      <use xlink:href="#DejaVuSans-28" transform="translate(559.056641 0)"/>
      <use xlink:href="#DejaVuSans-48" transform="translate(598.070312 0)"/>
      <use xlink:href="#DejaVuSans-45" transform="translate(673.265625 0)"/>
      <use xlink:href="#DejaVuSans-4d" transform="translate(736.449219 0)"/>
      <use xlink:href="#DejaVuSans-20" transform="translate(822.728516 0)"/>
      <use xlink:href="#DejaVuSans-2d" transform="translate(854.515625 0)"/>
      <use xlink:href="#DejaVuSans-20" transform="translate(890.599609 0)"/>
      <use xlink:href="#DejaVuSans-65" transform="translate(922.386719 0)"/>
      <use xlink:href="#DejaVuSans-71" transform="translate(983.910156 0)"/>
      <use xlink:href="#DejaVuSans-75" transform="translate(1047.386719 0)"/>
      <use xlink:href="#DejaVuSans-69" transform="translate(1110.765625 0)"/>
      <use xlink:href="#DejaVuSans-6c" transform="translate(1138.548828 0)"/>
      <use xlink:href="#DejaVuSans-69" transform="translate(1166.332031 0)"/>
      <use xlink:href="#DejaVuSans-62" transform="translate(1194.115234 0)"/>
      <use xlink:href="#DejaVuSans-72" transform="translate(1257.591797 0)"/>
      <use xlink:href="#DejaVuSans-69" transform="translate(1298.705078 0)"/>
      <use xlink:href="#DejaVuSans-75" transform="translate(1326.488281 0)"/>
      <use xlink:href="#DejaVuSans-6d" transform="translate(1389.867188 0)"/>
      <use xlink:href="#DejaVuSans-29" transform="translate(1487.279297 0)"/>
     </g>
    </g>
    <g id="line2d_50">
     <path d="M 286.510781 84.501938 
L 296.510781 84.501938 
L 306.510781 84.501938 
" style="fill: none; stroke-dasharray: 7.4,3.2; stroke-dashoffset: 0; stroke: #9467bd; stroke-width: 2"/>
    </g>
    <g id="text_26">
     <!-- Two-phase (Frozen / Wood) -->
     <g transform="translate(314.510781 88.001938) scale(0.1 -0.1)">
      <defs>
       <path id="DejaVuSans-7a" d="M 353 3500 
L 3084 3500 
L 3084 2975 
L 922 459 
L 3084 459 
L 3084 0 
L 275 0 
L 275 525 
L 2438 3041 
L 353 3041 
L 353 3500 
z
" transform="scale(0.015625)"/>
       <path id="DejaVuSans-57" d="M 213 4666 
L 850 4666 
L 1831 722 
L 2809 4666 
L 3519 4666 
L 4500 722 
L 5478 4666 
L 6119 4666 
L 4947 0 
L 4153 0 
L 3169 4050 
L 2175 0 
L 1381 0 
L 213 4666 
z
" transform="scale(0.015625)"/>
      </defs>
      <use xlink:href="#DejaVuSans-54"/>
      <use xlink:href="#DejaVuSans-77" transform="translate(44.583984 0)"/>
      <use xlink:href="#DejaVuSans-6f" transform="translate(126.371094 0)"/>
      <use xlink:href="#DejaVuSans-2d" transform="translate(189.427734 0)"/>
      <use xlink:href="#DejaVuSans-70" transform="translate(225.511719 0)"/>
      <use xlink:href="#DejaVuSans-68" transform="translate(288.988281 0)"/>
      <use xlink:href="#DejaVuSans-61" transform="translate(352.367188 0)"/>
      <use xlink:href="#DejaVuSans-73" transform="translate(413.646484 0)"/>
      <use xlink:href="#DejaVuSans-65" transform="translate(465.746094 0)"/>
      <use xlink:href="#DejaVuSans-20" transform="translate(527.269531 0)"/>
      <use xlink:href="#DejaVuSans-28" transform="translate(559.056641 0)"/>
      <use xlink:href="#DejaVuSans-46" transform="translate(598.070312 0)"/>
      <use xlink:href="#DejaVuSans-72" transform="translate(648.339844 0)"/>
      <use xlink:href="#DejaVuSans-6f" transform="translate(687.203125 0)"/>
      <use xlink:href="#DejaVuSans-7a" transform="translate(748.384766 0)"/>
      <use xlink:href="#DejaVuSans-65" transform="translate(800.875 0)"/>
      <use xlink:href="#DejaVuSans-6e" transform="translate(862.398438 0)"/>
      <use xlink:href="#DejaVuSans-20" transform="translate(925.777344 0)"/>
      <use xlink:href="#DejaVuSans-2f" transform="translate(957.564453 0)"/>
      <use xlink:href="#DejaVuSans-20" transform="translate(991.255859 0)"/>
      <use xlink:href="#DejaVuSans-57" transform="translate(1023.042969 0)"/>
      <use xlink:href="#DejaVuSans-6f" transform="translate(1116.044922 0)"/>
      <use xlink:href="#DejaVuSans-6f" transform="translate(1177.226562 0)"/>
      <use xlink:href="#DejaVuSans-64" transform="translate(1238.408203 0)"/>
      <use xlink:href="#DejaVuSans-29" transform="translate(1301.884766 0)"/>
     </g>
    </g>
    <g id="line2d_51">
     <path d="M 286.510781 99.223813 
L 296.510781 99.223813 
L 306.510781 99.223813 
" style="fill: none; stroke-dasharray: 12.8,3.2,2,3.2; stroke-dashoffset: 0; stroke: #ff7f0e; stroke-width: 2"/>
    </g>
    <g id="text_27">
     <!-- Two-phase (Relaxation |a|, f=200 Hz, τ=5 ms) -->
     <g transform="translate(314.510781 102.723813) scale(0.1 -0.1)">
      <defs>
       <path id="DejaVuSans-2c" d="M 750 794 
L 1409 794 
L 1409 256 
L 897 -744 
L 494 -744 
L 750 256 
L 750 794 
z
" transform="scale(0.015625)"/>
       <path id="DejaVuSans-3c4" d="M 2319 638 
Q 2431 488 2769 488 
L 3047 488 
L 3047 0 
L 2700 0 
Q 2138 0 1881 300 
Q 1625 606 1625 1269 
L 1625 2925 
L 313 2925 
L 313 3500 
L 3541 3500 
L 3541 2925 
L 2213 2925 
L 2213 1234 
Q 2213 781 2319 638 
z
" transform="scale(0.015625)"/>
      </defs>
      <use xlink:href="#DejaVuSans-54"/>
      <use xlink:href="#DejaVuSans-77" transform="translate(44.583984 0)"/>
      <use xlink:href="#DejaVuSans-6f" transform="translate(126.371094 0)"/>
      <use xlink:href="#DejaVuSans-2d" transform="translate(189.427734 0)"/>
      <use xlink:href="#DejaVuSans-70" transform="translate(225.511719 0)"/>
      <use xlink:href="#DejaVuSans-68" transform="translate(288.988281 0)"/>
      <use xlink:href="#DejaVuSans-61" transform="translate(352.367188 0)"/>
      <use xlink:href="#DejaVuSans-73" transform="translate(413.646484 0)"/>
      <use xlink:href="#DejaVuSans-65" transform="translate(465.746094 0)"/>
      <use xlink:href="#DejaVuSans-20" transform="translate(527.269531 0)"/>
      <use xlink:href="#DejaVuSans-28" transform="translate(559.056641 0)"/>
      <use xlink:href="#DejaVuSans-52" transform="translate(598.070312 0)"/>
      <use xlink:href="#DejaVuSans-65" transform="translate(663.052734 0)"/>
      <use xlink:href="#DejaVuSans-6c" transform="translate(724.576172 0)"/>
      <use xlink:href="#DejaVuSans-61" transform="translate(752.359375 0)"/>
      <use xlink:href="#DejaVuSans-78" transform="translate(813.638672 0)"/>
      <use xlink:href="#DejaVuSans-61" transform="translate(872.818359 0)"/>
      <use xlink:href="#DejaVuSans-74" transform="translate(934.097656 0)"/>
      <use xlink:href="#DejaVuSans-69" transform="translate(973.306641 0)"/>
      <use xlink:href="#DejaVuSans-6f" transform="translate(1001.089844 0)"/>
      <use xlink:href="#DejaVuSans-6e" transform="translate(1062.271484 0)"/>
      <use xlink:href="#DejaVuSans-20" transform="translate(1125.650391 0)"/>
      <use xlink:href="#DejaVuSans-7c" transform="translate(1157.4375 0)"/>
      <use xlink:href="#DejaVuSans-61" transform="translate(1191.128906 0)"/>
      <use xlink:href="#DejaVuSans-7c" transform="translate(1252.408203 0)"/>
      <use xlink:href="#DejaVuSans-2c" transform="translate(1286.099609 0)"/>
      <use xlink:href="#DejaVuSans-20" transform="translate(1317.886719 0)"/>
      <use xlink:href="#DejaVuSans-66" transform="translate(1349.673828 0)"/>
      <use xlink:href="#DejaVuSans-3d" transform="translate(1384.878906 0)"/>
      <use xlink:href="#DejaVuSans-32" transform="translate(1468.667969 0)"/>
      <use xlink:href="#DejaVuSans-30" transform="translate(1532.291016 0)"/>
      <use xlink:href="#DejaVuSans-30" transform="translate(1595.914062 0)"/>
      <use xlink:href="#DejaVuSans-20" transform="translate(1659.537109 0)"/>
      <use xlink:href="#DejaVuSans-48" transform="translate(1691.324219 0)"/>
      <use xlink:href="#DejaVuSans-7a" transform="translate(1766.519531 0)"/>
      <use xlink:href="#DejaVuSans-2c" transform="translate(1819.009766 0)"/>
      <use xlink:href="#DejaVuSans-20" transform="translate(1850.796875 0)"/>
      <use xlink:href="#DejaVuSans-3c4" transform="translate(1882.583984 0)"/>
      <use xlink:href="#DejaVuSans-3d" transform="translate(1942.789062 0)"/>
      <use xlink:href="#DejaVuSans-35" transform="translate(2026.578125 0)"/>
      <use xlink:href="#DejaVuSans-20" transform="translate(2090.201172 0)"/>
      <use xlink:href="#DejaVuSans-6d" transform="translate(2121.988281 0)"/>
      <use xlink:href="#DejaVuSans-73" transform="translate(2219.400391 0)"/>
      <use xlink:href="#DejaVuSans-29" transform="translate(2271.5 0)"/>
     </g>
    </g>
    <g id="line2d_52">
     <path d="M 286.510781 114.180063 
L 296.510781 114.180063 
L 306.510781 114.180063 
" style="fill: none; stroke: #2ca02c; stroke-width: 2; stroke-linecap: square"/>
    </g>
    <g id="text_28">
     <!-- Superheated vapor (ΔT=5 K) -->
     <g transform="translate(314.510781 117.680063) scale(0.1 -0.1)">
      <use xlink:href="#DejaVuSans-53"/>
      <use xlink:href="#DejaVuSans-75" transform="translate(63.476562 0)"/>
      <use xlink:href="#DejaVuSans-70" transform="translate(126.855469 0)"/>
      <use xlink:href="#DejaVuSans-65" transform="translate(190.332031 0)"/>
      <use xlink:href="#DejaVuSans-72" transform="translate(251.855469 0)"/>
      <use xlink:href="#DejaVuSans-68" transform="translate(291.21875 0)"/>
      <use xlink:href="#DejaVuSans-65" transform="translate(354.597656 0)"/>
      <use xlink:href="#DejaVuSans-61" transform="translate(416.121094 0)"/>
      <use xlink:href="#DejaVuSans-74" transform="translate(477.400391 0)"/>
      <use xlink:href="#DejaVuSans-65" transform="translate(516.609375 0)"/>
      <use xlink:href="#DejaVuSans-64" transform="translate(578.132812 0)"/>
      <use xlink:href="#DejaVuSans-20" transform="translate(641.609375 0)"/>
      <use xlink:href="#DejaVuSans-76" transform="translate(673.396484 0)"/>
      <use xlink:href="#DejaVuSans-61" transform="translate(732.576172 0)"/>
      <use xlink:href="#DejaVuSans-70" transform="translate(793.855469 0)"/>
      <use xlink:href="#DejaVuSans-6f" transform="translate(857.332031 0)"/>
      <use xlink:href="#DejaVuSans-72" transform="translate(918.513672 0)"/>
      <use xlink:href="#DejaVuSans-20" transform="translate(959.626953 0)"/>
      <use xlink:href="#DejaVuSans-28" transform="translate(991.414062 0)"/>
      <use xlink:href="#DejaVuSans-394" transform="translate(1030.427734 0)"/>
      <use xlink:href="#DejaVuSans-54" transform="translate(1098.835938 0)"/>
      <use xlink:href="#DejaVuSans-3d" transform="translate(1159.919922 0)"/>
      <use xlink:href="#DejaVuSans-35" transform="translate(1243.708984 0)"/>
      <use xlink:href="#DejaVuSans-20" transform="translate(1307.332031 0)"/>
      <use xlink:href="#DejaVuSans-4b" transform="translate(1339.119141 0)"/>
      <use xlink:href="#DejaVuSans-29" transform="translate(1404.695312 0)"/>
     </g>
    </g>
   </g>
  </g>
 </g>
 <defs>
  <clipPath id="pcc0d0fe47d">
   <rect x="50.87" y="42.04725" width="730.33" height="362.03275"/>
  </clipPath>
 </defs>
</svg>
