<?xml version="1.0" encoding="utf-8" standalone="no"?>
<!DOCTYPE svg PUBLIC "-//W3C//DTD SVG 1.1//EN"
  "http://www.w3.org/Graphics/SVG/1.1/DTD/svg11.dtd">
<svg xmlns:xlink="http://www.w3.org/1999/xlink" width="756pt" height="432pt" viewBox="0 0 756 432" xmlns="http://www.w3.org/2000/svg" version="1.1">
 <metadata>
  <rdf:RDF xmlns:dc="http://purl.org/dc/elements/1.1/" xmlns:cc="http://creativecommons.org/ns#" xmlns:rdf="http://www.w3.org/1999/02/22-rdf-syntax-ns#">
   <cc:Work>
    <dc:type rdf:resource="http://purl.org/dc/dcmitype/StillImage"/>
    <dc:date>2025-11-03T09:35:48.721251</dc:date>
    <dc:format>image/svg+xml</dc:format>
    <dc:creator>
     <cc:Agent>
      <dc:title>Matplotlib v3.10.1, https://matplotlib.org/</dc:title>
     </cc:Agent>
    </dc:creator>
   </cc:Work>
  </rdf:RDF>
 </metadata>
 <defs>
  <style type="text/css">*{stroke-linejoin: round; stroke-linecap: butt}</style>
 </defs>
 <g id="figure_1">
  <g id="patch_1">
   <path d="M 0 432 
L 756 432 
L 756 0 
L 0 0 
z
" style="fill: #ffffff"/>
  </g>
  <g id="axes_1">
   <g id="patch_2">
    <path d="M 50.87 389.68 
L 745.2 389.68 
L 745.2 42.04725 
L 50.87 42.04725 
z
" style="fill: #ffffff"/>
   </g>
   <g id="matplotlib.axis_1">
    <g id="xtick_1">
     <g id="line2d_1">
      <path d="M 82.430455 389.68 
L 82.430455 42.04725 
" clip-path="url(#pe47e617824)" style="fill: none; stroke-dasharray: 0.8,1.32; stroke-dashoffset: 0; stroke: #b0b0b0; stroke-opacity: 0.6; stroke-width: 0.8"/>
     </g>
     <g id="line2d_2">
      <defs>
       <path id="m5c2a721301" d="M 0 0 
L 0 3.5 
" style="stroke: #000000; stroke-width: 0.8"/>
      </defs>
      <g>
       <use xlink:href="#m5c2a721301" x="82.430455" y="389.68" style="stroke: #000000; stroke-width: 0.8"/>
      </g>
     </g>
     <g id="text_1">
      <!-- -5 -->
      <g transform="translate(77.445298 404.278437) scale(0.1 -0.1)">
       <defs>
        <path id="DejaVuSans-2d" d="M 313 2009 
L 1997 2009 
L 1997 1497 
L 313 1497 
L 313 2009 
z
" transform="scale(0.015625)"/>
        <path id="DejaVuSans-35" d="M 691 4666 
L 3169 4666 
L 3169 4134 
L 1269 4134 
L 1269 2991 
Q 1406 3038 1543 3061 
Q 1681 3084 1819 3084 
Q 2600 3084 3056 2656 
Q 3513 2228 3513 1497 
Q 3513 744 3044 326 
Q 2575 -91 1722 -91 
Q 1428 -91 1123 -41 
Q 819 9 494 109 
L 494 744 
Q 775 591 1075 516 
Q 1375 441 1709 441 
Q 2250 441 2565 725 
Q 2881 1009 2881 1497 
Q 2881 1984 2565 2268 
Q 2250 2553 1709 2553 
Q 1456 2553 1204 2497 
Q 953 2441 691 2322 
L 691 4666 
z
" transform="scale(0.015625)"/>
       </defs>
       <use xlink:href="#DejaVuSans-2d"/>
       <use xlink:href="#DejaVuSans-35" transform="translate(36.083984 0)"/>
      </g>
     </g>
    </g>
    <g id="xtick_2">
     <g id="line2d_3">
      <path d="M 121.881023 389.68 
L 121.881023 42.04725 
" clip-path="url(#pe47e617824)" style="fill: none; stroke-dasharray: 0.8,1.32; stroke-dashoffset: 0; stroke: #b0b0b0; stroke-opacity: 0.6; stroke-width: 0.8"/>
     </g>
     <g id="line2d_4">
      <g>
       <use xlink:href="#m5c2a721301" x="121.881023" y="389.68" style="stroke: #000000; stroke-width: 0.8"/>
      </g>
     </g>
     <g id="text_2">
      <!-- -4 -->
      <g transform="translate(116.895866 404.278437) scale(0.1 -0.1)">
       <defs>
        <path id="DejaVuSans-34" d="M 2419 4116 
L 825 1625 
L 2419 1625 
L 2419 4116 
z
M 2253 4666 
L 3047 4666 
L 3047 1625 
L 3713 1625 
L 3713 1100 
L 3047 1100 
L 3047 0 
L 2419 0 
L 2419 1100 
L 313 1100 
L 313 1709 
L 2253 4666 
z
" transform="scale(0.015625)"/>
       </defs>
       <use xlink:href="#DejaVuSans-2d"/>
       <use xlink:href="#DejaVuSans-34" transform="translate(36.083984 0)"/>
      </g>
     </g>
    </g>
    <g id="xtick_3">
     <g id="line2d_5">
      <path d="M 161.331591 389.68 
L 161.331591 42.04725 
" clip-path="url(#pe47e617824)" style="fill: none; stroke-dasharray: 0.8,1.32; stroke-dashoffset: 0; stroke: #b0b0b0; stroke-opacity: 0.6; stroke-width: 0.8"/>
     </g>
     <g id="line2d_6">
      <g>
       <use xlink:href="#m5c2a721301" x="161.331591" y="389.68" style="stroke: #000000; stroke-width: 0.8"/>
      </g>
     </g>
     <g id="text_3">
      <!-- -3 -->
      <g transform="translate(156.346435 404.278437) scale(0.1 -0.1)">
       <defs>
        <path id="DejaVuSans-33" d="M 2597 2516 
Q 3050 2419 3304 2112 
Q 3559 1806 3559 1356 
Q 3559 666 3084 287 
Q 2609 -91 1734 -91 
Q 1441 -91 1130 -33 
Q 819 25 488 141 
L 488 750 
Q 750 597 1062 519 
Q 1375 441 1716 441 
Q 2309 441 2620 675 
Q 2931 909 2931 1356 
Q 2931 1769 2642 2001 
Q 2353 2234 1838 2234 
L 1294 2234 
L 1294 2753 
L 1863 2753 
Q 2328 2753 2575 2939 
Q 2822 3125 2822 3475 
Q 2822 3834 2567 4026 
Q 2313 4219 1838 4219 
Q 1578 4219 1281 4162 
Q 984 4106 628 3988 
L 628 4550 
Q 988 4650 1302 4700 
Q 1616 4750 1894 4750 
Q 2613 4750 3031 4423 
Q 3450 4097 3450 3541 
Q 3450 3153 3228 2886 
Q 3006 2619 2597 2516 
z
" transform="scale(0.015625)"/>
       </defs>
       <use xlink:href="#DejaVuSans-2d"/>
       <use xlink:href="#DejaVuSans-33" transform="translate(36.083984 0)"/>
      </g>
     </g>
    </g>
    <g id="xtick_4">
     <g id="line2d_7">
      <path d="M 200.782159 389.68 
L 200.782159 42.04725 
" clip-path="url(#pe47e617824)" style="fill: none; stroke-dasharray: 0.8,1.32; stroke-dashoffset: 0; stroke: #b0b0b0; stroke-opacity: 0.6; stroke-width: 0.8"/>
     </g>
     <g id="line2d_8">
      <g>
       <use xlink:href="#m5c2a721301" x="200.782159" y="389.68" style="stroke: #000000; stroke-width: 0.8"/>
      </g>
     </g>
     <g id="text_4">
      <!-- -2 -->
      <g transform="translate(195.797003 404.278437) scale(0.1 -0.1)">
       <defs>
        <path id="DejaVuSans-32" d="M 1228 531 
L 3431 531 
L 3431 0 
L 469 0 
L 469 531 
Q 828 903 1448 1529 
Q 2069 2156 2228 2338 
Q 2531 2678 2651 2914 
Q 2772 3150 2772 3378 
Q 2772 3750 2511 3984 
Q 2250 4219 1831 4219 
Q 1534 4219 1204 4116 
Q 875 4013 500 3803 
L 500 4441 
Q 881 4594 1212 4672 
Q 1544 4750 1819 4750 
Q 2544 4750 2975 4387 
Q 3406 4025 3406 3419 
Q 3406 3131 3298 2873 
Q 3191 2616 2906 2266 
Q 2828 2175 2409 1742 
Q 1991 1309 1228 531 
z
" transform="scale(0.015625)"/>
       </defs>
       <use xlink:href="#DejaVuSans-2d"/>
       <use xlink:href="#DejaVuSans-32" transform="translate(36.083984 0)"/>
      </g>
     </g>
    </g>
    <g id="xtick_5">
     <g id="line2d_9">
      <path d="M 240.232727 389.68 
L 240.232727 42.04725 
" clip-path="url(#pe47e617824)" style="fill: none; stroke-dasharray: 0.8,1.32; stroke-dashoffset: 0; stroke: #b0b0b0; stroke-opacity: 0.6; stroke-width: 0.8"/>
     </g>
     <g id="line2d_10">
      <g>
       <use xlink:href="#m5c2a721301" x="240.232727" y="389.68" style="stroke: #000000; stroke-width: 0.8"/>
      </g>
     </g>
     <g id="text_5">
      <!-- -1 -->
      <g transform="translate(235.247571 404.278437) scale(0.1 -0.1)">
       <defs>
        <path id="DejaVuSans-31" d="M 794 531 
L 1825 531 
L 1825 4091 
L 703 3866 
L 703 4441 
L 1819 4666 
L 2450 4666 
L 2450 531 
L 3481 531 
L 3481 0 
L 794 0 
L 794 531 
z
" transform="scale(0.015625)"/>
       </defs>
       <use xlink:href="#DejaVuSans-2d"/>
       <use xlink:href="#DejaVuSans-31" transform="translate(36.083984 0)"/>
      </g>
     </g>
    </g>
    <g id="xtick_6">
     <g id="line2d_11">
      <path d="M 279.683295 389.68 
L 279.683295 42.04725 
" clip-path="url(#pe47e617824)" style="fill: none; stroke-dasharray: 0.8,1.32; stroke-dashoffset: 0; stroke: #b0b0b0; stroke-opacity: 0.6; stroke-width: 0.8"/>
     </g>
     <g id="line2d_12">
      <g>
       <use xlink:href="#m5c2a721301" x="279.683295" y="389.68" style="stroke: #000000; stroke-width: 0.8"/>
      </g>
     </g>
     <g id="text_6">
      <!-- Q=0 -->
      <g transform="translate(268.376264 404.278437) scale(0.1 -0.1)">
       <defs>
        <path id="DejaVuSans-51" d="M 2522 4238 
Q 1834 4238 1429 3725 
Q 1025 3213 1025 2328 
Q 1025 1447 1429 934 
Q 1834 422 2522 422 
Q 3209 422 3611 934 
Q 4013 1447 4013 2328 
Q 4013 3213 3611 3725 
Q 3209 4238 2522 4238 
z
M 3406 84 
L 4238 -825 
L 3475 -825 
L 2784 -78 
Q 2681 -84 2626 -87 
Q 2572 -91 2522 -91 
Q 1538 -91 948 567 
Q 359 1225 359 2328 
Q 359 3434 948 4092 
Q 1538 4750 2522 4750 
Q 3503 4750 4090 4092 
Q 4678 3434 4678 2328 
Q 4678 1516 4351 937 
Q 4025 359 3406 84 
z
" transform="scale(0.015625)"/>
        <path id="DejaVuSans-3d" d="M 678 2906 
L 4684 2906 
L 4684 2381 
L 678 2381 
L 678 2906 
z
M 678 1631 
L 4684 1631 
L 4684 1100 
L 678 1100 
L 678 1631 
z
" transform="scale(0.015625)"/>
        <path id="DejaVuSans-30" d="M 2034 4250 
Q 1547 4250 1301 3770 
Q 1056 3291 1056 2328 
Q 1056 1369 1301 889 
Q 1547 409 2034 409 
Q 2525 409 2770 889 
Q 3016 1369 3016 2328 
Q 3016 3291 2770 3770 
Q 2525 4250 2034 4250 
z
M 2034 4750 
Q 2819 4750 3233 4129 
Q 3647 3509 3647 2328 
Q 3647 1150 3233 529 
Q 2819 -91 2034 -91 
Q 1250 -91 836 529 
Q 422 1150 422 2328 
Q 422 3509 836 4129 
Q 1250 4750 2034 4750 
z
" transform="scale(0.015625)"/>
       </defs>
       <use xlink:href="#DejaVuSans-51"/>
       <use xlink:href="#DejaVuSans-3d" transform="translate(78.710938 0)"/>
       <use xlink:href="#DejaVuSans-30" transform="translate(162.5 0)"/>
      </g>
     </g>
    </g>
    <g id="xtick_7">
     <g id="line2d_13">
      <path d="M 279.683295 389.68 
L 279.683295 42.04725 
" clip-path="url(#pe47e617824)" style="fill: none; stroke-dasharray: 0.8,1.32; stroke-dashoffset: 0; stroke: #b0b0b0; stroke-opacity: 0.6; stroke-width: 0.8"/>
     </g>
     <g id="line2d_14">
      <g>
       <use xlink:href="#m5c2a721301" x="279.683295" y="389.68" style="stroke: #000000; stroke-width: 0.8"/>
      </g>
     </g>
     <g id="text_7">
      <!-- Q=0 -->
      <g transform="translate(268.376264 404.278437) scale(0.1 -0.1)">
       <use xlink:href="#DejaVuSans-51"/>
       <use xlink:href="#DejaVuSans-3d" transform="translate(78.710938 0)"/>
       <use xlink:href="#DejaVuSans-30" transform="translate(162.5 0)"/>
      </g>
     </g>
    </g>
    <g id="xtick_8">
     <g id="line2d_15">
      <path d="M 289.545938 389.68 
L 289.545938 42.04725 
" clip-path="url(#pe47e617824)" style="fill: none; stroke-dasharray: 0.8,1.32; stroke-dashoffset: 0; stroke: #b0b0b0; stroke-opacity: 0.6; stroke-width: 0.8"/>
     </g>
     <g id="line2d_16">
      <g>
       <use xlink:href="#m5c2a721301" x="289.545938" y="389.68" style="stroke: #000000; stroke-width: 0.8"/>
      </g>
     </g>
     <g id="text_8">
      <!-- 0.25 -->
      <g transform="translate(278.413125 404.278437) scale(0.1 -0.1)">
       <defs>
        <path id="DejaVuSans-2e" d="M 684 794 
L 1344 794 
L 1344 0 
L 684 0 
L 684 794 
z
" transform="scale(0.015625)"/>
       </defs>
       <use xlink:href="#DejaVuSans-30"/>
       <use xlink:href="#DejaVuSans-2e" transform="translate(63.623047 0)"/>
       <use xlink:href="#DejaVuSans-32" transform="translate(95.410156 0)"/>
       <use xlink:href="#DejaVuSans-35" transform="translate(159.033203 0)"/>
      </g>
     </g>
    </g>
    <g id="xtick_9">
     <g id="line2d_17">
      <path d="M 299.40858 389.68 
L 299.40858 42.04725 
" clip-path="url(#pe47e617824)" style="fill: none; stroke-dasharray: 0.8,1.32; stroke-dashoffset: 0; stroke: #b0b0b0; stroke-opacity: 0.6; stroke-width: 0.8"/>
     </g>
     <g id="line2d_18">
      <g>
       <use xlink:href="#m5c2a721301" x="299.40858" y="389.68" style="stroke: #000000; stroke-width: 0.8"/>
      </g>
     </g>
     <g id="text_9">
      <!-- 0.5 -->
      <g transform="translate(291.457017 404.278437) scale(0.1 -0.1)">
       <use xlink:href="#DejaVuSans-30"/>
       <use xlink:href="#DejaVuSans-2e" transform="translate(63.623047 0)"/>
       <use xlink:href="#DejaVuSans-35" transform="translate(95.410156 0)"/>
      </g>
     </g>
    </g>
    <g id="xtick_10">
     <g id="line2d_19">
      <path d="M 309.271222 389.68 
L 309.271222 42.04725 
" clip-path="url(#pe47e617824)" style="fill: none; stroke-dasharray: 0.8,1.32; stroke-dashoffset: 0; stroke: #b0b0b0; stroke-opacity: 0.6; stroke-width: 0.8"/>
     </g>
     <g id="line2d_20">
      <g>
       <use xlink:href="#m5c2a721301" x="309.271222" y="389.68" style="stroke: #000000; stroke-width: 0.8"/>
      </g>
     </g>
     <g id="text_10">
      <!-- 0.75 -->
      <g transform="translate(298.138409 404.278437) scale(0.1 -0.1)">
       <defs>
        <path id="DejaVuSans-37" d="M 525 4666 
L 3525 4666 
L 3525 4397 
L 1831 0 
L 1172 0 
L 2766 4134 
L 525 4134 
L 525 4666 
z
" transform="scale(0.015625)"/>
       </defs>
       <use xlink:href="#DejaVuSans-30"/>
       <use xlink:href="#DejaVuSans-2e" transform="translate(63.623047 0)"/>
       <use xlink:href="#DejaVuSans-37" transform="translate(95.410156 0)"/>
       <use xlink:href="#DejaVuSans-35" transform="translate(159.033203 0)"/>
      </g>
     </g>
    </g>
    <g id="xtick_11">
     <g id="line2d_21">
      <path d="M 319.133864 389.68 
L 319.133864 42.04725 
" clip-path="url(#pe47e617824)" style="fill: none; stroke-dasharray: 0.8,1.32; stroke-dashoffset: 0; stroke: #b0b0b0; stroke-opacity: 0.6; stroke-width: 0.8"/>
     </g>
     <g id="line2d_22">
      <g>
       <use xlink:href="#m5c2a721301" x="319.133864" y="389.68" style="stroke: #000000; stroke-width: 0.8"/>
      </g>
     </g>
     <g id="text_11">
      <!-- 0 -->
      <g transform="translate(315.952614 404.278437) scale(0.1 -0.1)">
       <use xlink:href="#DejaVuSans-30"/>
      </g>
     </g>
    </g>
    <g id="xtick_12">
     <g id="line2d_23">
      <path d="M 319.133864 389.68 
L 319.133864 42.04725 
" clip-path="url(#pe47e617824)" style="fill: none; stroke-dasharray: 0.8,1.32; stroke-dashoffset: 0; stroke: #b0b0b0; stroke-opacity: 0.6; stroke-width: 0.8"/>
     </g>
     <g id="line2d_24">
      <g>
       <use xlink:href="#m5c2a721301" x="319.133864" y="389.68" style="stroke: #000000; stroke-width: 0.8"/>
      </g>
     </g>
     <g id="text_12">
      <!-- 0 -->
      <g transform="translate(315.952614 404.278437) scale(0.1 -0.1)">
       <use xlink:href="#DejaVuSans-30"/>
      </g>
     </g>
    </g>
    <g id="xtick_13">
     <g id="line2d_25">
      <path d="M 398.035 389.68 
L 398.035 42.04725 
" clip-path="url(#pe47e617824)" style="fill: none; stroke-dasharray: 0.8,1.32; stroke-dashoffset: 0; stroke: #b0b0b0; stroke-opacity: 0.6; stroke-width: 0.8"/>
     </g>
     <g id="line2d_26">
      <g>
       <use xlink:href="#m5c2a721301" x="398.035" y="389.68" style="stroke: #000000; stroke-width: 0.8"/>
      </g>
     </g>
     <g id="text_13">
      <!-- 2 -->
      <g transform="translate(394.85375 404.278437) scale(0.1 -0.1)">
       <use xlink:href="#DejaVuSans-32"/>
      </g>
     </g>
    </g>
    <g id="xtick_14">
     <g id="line2d_27">
      <path d="M 476.936136 389.68 
L 476.936136 42.04725 
" clip-path="url(#pe47e617824)" style="fill: none; stroke-dasharray: 0.8,1.32; stroke-dashoffset: 0; stroke: #b0b0b0; stroke-opacity: 0.6; stroke-width: 0.8"/>
     </g>
     <g id="line2d_28">
      <g>
       <use xlink:href="#m5c2a721301" x="476.936136" y="389.68" style="stroke: #000000; stroke-width: 0.8"/>
      </g>
     </g>
     <g id="text_14">
      <!-- 4 -->
      <g transform="translate(473.754886 404.278437) scale(0.1 -0.1)">
       <use xlink:href="#DejaVuSans-34"/>
      </g>
     </g>
    </g>
    <g id="xtick_15">
     <g id="line2d_29">
      <path d="M 555.837273 389.68 
L 555.837273 42.04725 
" clip-path="url(#pe47e617824)" style="fill: none; stroke-dasharray: 0.8,1.32; stroke-dashoffset: 0; stroke: #b0b0b0; stroke-opacity: 0.6; stroke-width: 0.8"/>
     </g>
     <g id="line2d_30">
      <g>
       <use xlink:href="#m5c2a721301" x="555.837273" y="389.68" style="stroke: #000000; stroke-width: 0.8"/>
      </g>
     </g>
     <g id="text_15">
      <!-- 6 -->
      <g transform="translate(552.656023 404.278437) scale(0.1 -0.1)">
       <defs>
        <path id="DejaVuSans-36" d="M 2113 2584 
Q 1688 2584 1439 2293 
Q 1191 2003 1191 1497 
Q 1191 994 1439 701 
Q 1688 409 2113 409 
Q 2538 409 2786 701 
Q 3034 994 3034 1497 
Q 3034 2003 2786 2293 
Q 2538 2584 2113 2584 
z
M 3366 4563 
L 3366 3988 
Q 3128 4100 2886 4159 
Q 2644 4219 2406 4219 
Q 1781 4219 1451 3797 
Q 1122 3375 1075 2522 
Q 1259 2794 1537 2939 
Q 1816 3084 2150 3084 
Q 2853 3084 3261 2657 
Q 3669 2231 3669 1497 
Q 3669 778 3244 343 
Q 2819 -91 2113 -91 
Q 1303 -91 875 529 
Q 447 1150 447 2328 
Q 447 3434 972 4092 
Q 1497 4750 2381 4750 
Q 2619 4750 2861 4703 
Q 3103 4656 3366 4563 
z
" transform="scale(0.015625)"/>
       </defs>
       <use xlink:href="#DejaVuSans-36"/>
      </g>
     </g>
    </g>
    <g id="xtick_16">
     <g id="line2d_31">
      <path d="M 634.738409 389.68 
L 634.738409 42.04725 
" clip-path="url(#pe47e617824)" style="fill: none; stroke-dasharray: 0.8,1.32; stroke-dashoffset: 0; stroke: #b0b0b0; stroke-opacity: 0.6; stroke-width: 0.8"/>
     </g>
     <g id="line2d_32">
      <g>
       <use xlink:href="#m5c2a721301" x="634.738409" y="389.68" style="stroke: #000000; stroke-width: 0.8"/>
      </g>
     </g>
     <g id="text_16">
      <!-- 8 -->
      <g transform="translate(631.557159 404.278437) scale(0.1 -0.1)">
       <defs>
        <path id="DejaVuSans-38" d="M 2034 2216 
Q 1584 2216 1326 1975 
Q 1069 1734 1069 1313 
Q 1069 891 1326 650 
Q 1584 409 2034 409 
Q 2484 409 2743 651 
Q 3003 894 3003 1313 
Q 3003 1734 2745 1975 
Q 2488 2216 2034 2216 
z
M 1403 2484 
Q 997 2584 770 2862 
Q 544 3141 544 3541 
Q 544 4100 942 4425 
Q 1341 4750 2034 4750 
Q 2731 4750 3128 4425 
Q 3525 4100 3525 3541 
Q 3525 3141 3298 2862 
Q 3072 2584 2669 2484 
Q 3125 2378 3379 2068 
Q 3634 1759 3634 1313 
Q 3634 634 3220 271 
Q 2806 -91 2034 -91 
Q 1263 -91 848 271 
Q 434 634 434 1313 
Q 434 1759 690 2068 
Q 947 2378 1403 2484 
z
M 1172 3481 
Q 1172 3119 1398 2916 
Q 1625 2713 2034 2713 
Q 2441 2713 2670 2916 
Q 2900 3119 2900 3481 
Q 2900 3844 2670 4047 
Q 2441 4250 2034 4250 
Q 1625 4250 1398 4047 
Q 1172 3844 1172 3481 
z
" transform="scale(0.015625)"/>
       </defs>
       <use xlink:href="#DejaVuSans-38"/>
      </g>
     </g>
    </g>
    <g id="xtick_17">
     <g id="line2d_33">
      <path d="M 713.639545 389.68 
L 713.639545 42.04725 
" clip-path="url(#pe47e617824)" style="fill: none; stroke-dasharray: 0.8,1.32; stroke-dashoffset: 0; stroke: #b0b0b0; stroke-opacity: 0.6; stroke-width: 0.8"/>
     </g>
     <g id="line2d_34">
      <g>
       <use xlink:href="#m5c2a721301" x="713.639545" y="389.68" style="stroke: #000000; stroke-width: 0.8"/>
      </g>
     </g>
     <g id="text_17">
      <!-- 10 -->
      <g transform="translate(707.277045 404.278437) scale(0.1 -0.1)">
       <use xlink:href="#DejaVuSans-31"/>
       <use xlink:href="#DejaVuSans-30" transform="translate(63.623047 0)"/>
      </g>
     </g>
    </g>
    <g id="text_18">
     <!-- Left: Subcooling ΔT [K]   |   Middle: Quality Q   |   Right: Superheat ΔT [K] -->
     <g transform="translate(216.29125 418.000312) scale(0.1 -0.1)">
      <defs>
       <path id="DejaVuSans-4c" d="M 628 4666 
L 1259 4666 
L 1259 531 
L 3531 531 
L 3531 0 
L 628 0 
L 628 4666 
z
" transform="scale(0.015625)"/>
       <path id="DejaVuSans-65" d="M 3597 1894 
L 3597 1613 
L 953 1613 
Q 991 1019 1311 708 
Q 1631 397 2203 397 
Q 2534 397 2845 478 
Q 3156 559 3463 722 
L 3463 178 
Q 3153 47 2828 -22 
Q 2503 -91 2169 -91 
Q 1331 -91 842 396 
Q 353 884 353 1716 
Q 353 2575 817 3079 
Q 1281 3584 2069 3584 
Q 2775 3584 3186 3129 
Q 3597 2675 3597 1894 
z
M 3022 2063 
Q 3016 2534 2758 2815 
Q 2500 3097 2075 3097 
Q 1594 3097 1305 2825 
Q 1016 2553 972 2059 
L 3022 2063 
z
" transform="scale(0.015625)"/>
       <path id="DejaVuSans-66" d="M 2375 4863 
L 2375 4384 
L 1825 4384 
Q 1516 4384 1395 4259 
Q 1275 4134 1275 3809 
L 1275 3500 
L 2222 3500 
L 2222 3053 
L 1275 3053 
L 1275 0 
L 697 0 
L 697 3053 
L 147 3053 
L 147 3500 
L 697 3500 
L 697 3744 
Q 697 4328 969 4595 
Q 1241 4863 1831 4863 
L 2375 4863 
z
" transform="scale(0.015625)"/>
       <path id="DejaVuSans-74" d="M 1172 4494 
L 1172 3500 
L 2356 3500 
L 2356 3053 
L 1172 3053 
L 1172 1153 
Q 1172 725 1289 603 
Q 1406 481 1766 481 
L 2356 481 
L 2356 0 
L 1766 0 
Q 1100 0 847 248 
Q 594 497 594 1153 
L 594 3053 
L 172 3053 
L 172 3500 
L 594 3500 
L 594 4494 
L 1172 4494 
z
" transform="scale(0.015625)"/>
       <path id="DejaVuSans-3a" d="M 750 794 
L 1409 794 
L 1409 0 
L 750 0 
L 750 794 
z
M 750 3309 
L 1409 3309 
L 1409 2516 
L 750 2516 
L 750 3309 
z
" transform="scale(0.015625)"/>
       <path id="DejaVuSans-20" transform="scale(0.015625)"/>
       <path id="DejaVuSans-53" d="M 3425 4513 
L 3425 3897 
Q 3066 4069 2747 4153 
Q 2428 4238 2131 4238 
Q 1616 4238 1336 4038 
Q 1056 3838 1056 3469 
Q 1056 3159 1242 3001 
Q 1428 2844 1947 2747 
L 2328 2669 
Q 3034 2534 3370 2195 
Q 3706 1856 3706 1288 
Q 3706 609 3251 259 
Q 2797 -91 1919 -91 
Q 1588 -91 1214 -16 
Q 841 59 441 206 
L 441 856 
Q 825 641 1194 531 
Q 1563 422 1919 422 
Q 2459 422 2753 634 
Q 3047 847 3047 1241 
Q 3047 1584 2836 1778 
Q 2625 1972 2144 2069 
L 1759 2144 
Q 1053 2284 737 2584 
Q 422 2884 422 3419 
Q 422 4038 858 4394 
Q 1294 4750 2059 4750 
Q 2388 4750 2728 4690 
Q 3069 4631 3425 4513 
z
" transform="scale(0.015625)"/>
       <path id="DejaVuSans-75" d="M 544 1381 
L 544 3500 
L 1119 3500 
L 1119 1403 
Q 1119 906 1312 657 
Q 1506 409 1894 409 
Q 2359 409 2629 706 
Q 2900 1003 2900 1516 
L 2900 3500 
L 3475 3500 
L 3475 0 
L 2900 0 
L 2900 538 
Q 2691 219 2414 64 
Q 2138 -91 1772 -91 
Q 1169 -91 856 284 
Q 544 659 544 1381 
z
M 1991 3584 
L 1991 3584 
z
" transform="scale(0.015625)"/>
       <path id="DejaVuSans-62" d="M 3116 1747 
Q 3116 2381 2855 2742 
Q 2594 3103 2138 3103 
Q 1681 3103 1420 2742 
Q 1159 2381 1159 1747 
Q 1159 1113 1420 752 
Q 1681 391 2138 391 
Q 2594 391 2855 752 
Q 3116 1113 3116 1747 
z
M 1159 2969 
Q 1341 3281 1617 3432 
Q 1894 3584 2278 3584 
Q 2916 3584 3314 3078 
Q 3713 2572 3713 1747 
Q 3713 922 3314 415 
Q 2916 -91 2278 -91 
Q 1894 -91 1617 61 
Q 1341 213 1159 525 
L 1159 0 
L 581 0 
L 581 4863 
L 1159 4863 
L 1159 2969 
z
" transform="scale(0.015625)"/>
       <path id="DejaVuSans-63" d="M 3122 3366 
L 3122 2828 
Q 2878 2963 2633 3030 
Q 2388 3097 2138 3097 
Q 1578 3097 1268 2742 
Q 959 2388 959 1747 
Q 959 1106 1268 751 
Q 1578 397 2138 397 
Q 2388 397 2633 464 
Q 2878 531 3122 666 
L 3122 134 
Q 2881 22 2623 -34 
Q 2366 -91 2075 -91 
Q 1284 -91 818 406 
Q 353 903 353 1747 
Q 353 2603 823 3093 
Q 1294 3584 2113 3584 
Q 2378 3584 2631 3529 
Q 2884 3475 3122 3366 
z
" transform="scale(0.015625)"/>
       <path id="DejaVuSans-6f" d="M 1959 3097 
Q 1497 3097 1228 2736 
Q 959 2375 959 1747 
Q 959 1119 1226 758 
Q 1494 397 1959 397 
Q 2419 397 2687 759 
Q 2956 1122 2956 1747 
Q 2956 2369 2687 2733 
Q 2419 3097 1959 3097 
z
M 1959 3584 
Q 2709 3584 3137 3096 
Q 3566 2609 3566 1747 
Q 3566 888 3137 398 
Q 2709 -91 1959 -91 
Q 1206 -91 779 398 
Q 353 888 353 1747 
Q 353 2609 779 3096 
Q 1206 3584 1959 3584 
z
" transform="scale(0.015625)"/>
       <path id="DejaVuSans-6c" d="M 603 4863 
L 1178 4863 
L 1178 0 
L 603 0 
L 603 4863 
z
" transform="scale(0.015625)"/>
       <path id="DejaVuSans-69" d="M 603 3500 
L 1178 3500 
L 1178 0 
L 603 0 
L 603 3500 
z
M 603 4863 
L 1178 4863 
L 1178 4134 
L 603 4134 
L 603 4863 
z
" transform="scale(0.015625)"/>
       <path id="DejaVuSans-6e" d="M 3513 2113 
L 3513 0 
L 2938 0 
L 2938 2094 
Q 2938 2591 2744 2837 
Q 2550 3084 2163 3084 
Q 1697 3084 1428 2787 
Q 1159 2491 1159 1978 
L 1159 0 
L 581 0 
L 581 3500 
L 1159 3500 
L 1159 2956 
Q 1366 3272 1645 3428 
Q 1925 3584 2291 3584 
Q 2894 3584 3203 3211 
Q 3513 2838 3513 2113 
z
" transform="scale(0.015625)"/>
       <path id="DejaVuSans-67" d="M 2906 1791 
Q 2906 2416 2648 2759 
Q 2391 3103 1925 3103 
Q 1463 3103 1205 2759 
Q 947 2416 947 1791 
Q 947 1169 1205 825 
Q 1463 481 1925 481 
Q 2391 481 2648 825 
Q 2906 1169 2906 1791 
z
M 3481 434 
Q 3481 -459 3084 -895 
Q 2688 -1331 1869 -1331 
Q 1566 -1331 1297 -1286 
Q 1028 -1241 775 -1147 
L 775 -588 
Q 1028 -725 1275 -790 
Q 1522 -856 1778 -856 
Q 2344 -856 2625 -561 
Q 2906 -266 2906 331 
L 2906 616 
Q 2728 306 2450 153 
Q 2172 0 1784 0 
Q 1141 0 747 490 
Q 353 981 353 1791 
Q 353 2603 747 3093 
Q 1141 3584 1784 3584 
Q 2172 3584 2450 3431 
Q 2728 3278 2906 2969 
L 2906 3500 
L 3481 3500 
L 3481 434 
z
" transform="scale(0.015625)"/>
       <path id="DejaVuSans-394" d="M 2188 4044 
L 906 525 
L 3472 525 
L 2188 4044 
z
M 50 0 
L 1831 4666 
L 2547 4666 
L 4325 0 
L 50 0 
z
" transform="scale(0.015625)"/>
       <path id="DejaVuSans-54" d="M -19 4666 
L 3928 4666 
L 3928 4134 
L 2272 4134 
L 2272 0 
L 1638 0 
L 1638 4134 
L -19 4134 
L -19 4666 
z
" transform="scale(0.015625)"/>
       <path id="DejaVuSans-5b" d="M 550 4863 
L 1875 4863 
L 1875 4416 
L 1125 4416 
L 1125 -397 
L 1875 -397 
L 1875 -844 
L 550 -844 
L 550 4863 
z
" transform="scale(0.015625)"/>
       <path id="DejaVuSans-4b" d="M 628 4666 
L 1259 4666 
L 1259 2694 
L 3353 4666 
L 4166 4666 
L 1850 2491 
L 4331 0 
L 3500 0 
L 1259 2247 
L 1259 0 
L 628 0 
L 628 4666 
z
" transform="scale(0.015625)"/>
       <path id="DejaVuSans-5d" d="M 1947 4863 
L 1947 -844 
L 622 -844 
L 622 -397 
L 1369 -397 
L 1369 4416 
L 622 4416 
L 622 4863 
L 1947 4863 
z
" transform="scale(0.015625)"/>
       <path id="DejaVuSans-7c" d="M 1344 4891 
L 1344 -1509 
L 813 -1509 
L 813 4891 
L 1344 4891 
z
" transform="scale(0.015625)"/>
       <path id="DejaVuSans-4d" d="M 628 4666 
L 1569 4666 
L 2759 1491 
L 3956 4666 
L 4897 4666 
L 4897 0 
L 4281 0 
L 4281 4097 
L 3078 897 
L 2444 897 
L 1241 4097 
L 1241 0 
L 628 0 
L 628 4666 
z
" transform="scale(0.015625)"/>
       <path id="DejaVuSans-64" d="M 2906 2969 
L 2906 4863 
L 3481 4863 
L 3481 0 
L 2906 0 
L 2906 525 
Q 2725 213 2448 61 
Q 2172 -91 1784 -91 
Q 1150 -91 751 415 
Q 353 922 353 1747 
Q 353 2572 751 3078 
Q 1150 3584 1784 3584 
Q 2172 3584 2448 3432 
Q 2725 3281 2906 2969 
z
M 947 1747 
Q 947 1113 1208 752 
Q 1469 391 1925 391 
Q 2381 391 2643 752 
Q 2906 1113 2906 1747 
Q 2906 2381 2643 2742 
Q 2381 3103 1925 3103 
Q 1469 3103 1208 2742 
Q 947 2381 947 1747 
z
" transform="scale(0.015625)"/>
       <path id="DejaVuSans-61" d="M 2194 1759 
Q 1497 1759 1228 1600 
Q 959 1441 959 1056 
Q 959 750 1161 570 
Q 1363 391 1709 391 
Q 2188 391 2477 730 
Q 2766 1069 2766 1631 
L 2766 1759 
L 2194 1759 
z
M 3341 1997 
L 3341 0 
L 2766 0 
L 2766 531 
Q 2569 213 2275 61 
Q 1981 -91 1556 -91 
Q 1019 -91 701 211 
Q 384 513 384 1019 
Q 384 1609 779 1909 
Q 1175 2209 1959 2209 
L 2766 2209 
L 2766 2266 
Q 2766 2663 2505 2880 
Q 2244 3097 1772 3097 
Q 1472 3097 1187 3025 
Q 903 2953 641 2809 
L 641 3341 
Q 956 3463 1253 3523 
Q 1550 3584 1831 3584 
Q 2591 3584 2966 3190 
Q 3341 2797 3341 1997 
z
" transform="scale(0.015625)"/>
       <path id="DejaVuSans-79" d="M 2059 -325 
Q 1816 -950 1584 -1140 
Q 1353 -1331 966 -1331 
L 506 -1331 
L 506 -850 
L 844 -850 
Q 1081 -850 1212 -737 
Q 1344 -625 1503 -206 
L 1606 56 
L 191 3500 
L 800 3500 
L 1894 763 
L 2988 3500 
L 3597 3500 
L 2059 -325 
z
" transform="scale(0.015625)"/>
       <path id="DejaVuSans-52" d="M 2841 2188 
Q 3044 2119 3236 1894 
Q 3428 1669 3622 1275 
L 4263 0 
L 3584 0 
L 2988 1197 
Q 2756 1666 2539 1819 
Q 2322 1972 1947 1972 
L 1259 1972 
L 1259 0 
L 628 0 
L 628 4666 
L 2053 4666 
Q 2853 4666 3247 4331 
Q 3641 3997 3641 3322 
Q 3641 2881 3436 2590 
Q 3231 2300 2841 2188 
z
M 1259 4147 
L 1259 2491 
L 2053 2491 
Q 2509 2491 2742 2702 
Q 2975 2913 2975 3322 
Q 2975 3731 2742 3939 
Q 2509 4147 2053 4147 
L 1259 4147 
z
" transform="scale(0.015625)"/>
       <path id="DejaVuSans-68" d="M 3513 2113 
L 3513 0 
L 2938 0 
L 2938 2094 
Q 2938 2591 2744 2837 
Q 2550 3084 2163 3084 
Q 1697 3084 1428 2787 
Q 1159 2491 1159 1978 
L 1159 0 
L 581 0 
L 581 4863 
L 1159 4863 
L 1159 2956 
Q 1366 3272 1645 3428 
Q 1925 3584 2291 3584 
Q 2894 3584 3203 3211 
Q 3513 2838 3513 2113 
z
" transform="scale(0.015625)"/>
       <path id="DejaVuSans-70" d="M 1159 525 
L 1159 -1331 
L 581 -1331 
L 581 3500 
L 1159 3500 
L 1159 2969 
Q 1341 3281 1617 3432 
Q 1894 3584 2278 3584 
Q 2916 3584 3314 3078 
Q 3713 2572 3713 1747 
Q 3713 922 3314 415 
Q 2916 -91 2278 -91 
Q 1894 -91 1617 61 
Q 1341 213 1159 525 
z
M 3116 1747 
Q 3116 2381 2855 2742 
Q 2594 3103 2138 3103 
Q 1681 3103 1420 2742 
Q 1159 2381 1159 1747 
Q 1159 1113 1420 752 
Q 1681 391 2138 391 
Q 2594 391 2855 752 
Q 3116 1113 3116 1747 
z
" transform="scale(0.015625)"/>
       <path id="DejaVuSans-72" d="M 2631 2963 
Q 2534 3019 2420 3045 
Q 2306 3072 2169 3072 
Q 1681 3072 1420 2755 
Q 1159 2438 1159 1844 
L 1159 0 
L 581 0 
L 581 3500 
L 1159 3500 
L 1159 2956 
Q 1341 3275 1631 3429 
Q 1922 3584 2338 3584 
Q 2397 3584 2469 3576 
Q 2541 3569 2628 3553 
L 2631 2963 
z
" transform="scale(0.015625)"/>
      </defs>
      <use xlink:href="#DejaVuSans-4c"/>
      <use xlink:href="#DejaVuSans-65" transform="translate(53.962891 0)"/>
      <use xlink:href="#DejaVuSans-66" transform="translate(115.486328 0)"/>
      <use xlink:href="#DejaVuSans-74" transform="translate(148.941406 0)"/>
      <use xlink:href="#DejaVuSans-3a" transform="translate(188.150391 0)"/>
      <use xlink:href="#DejaVuSans-20" transform="translate(221.841797 0)"/>
      <use xlink:href="#DejaVuSans-53" transform="translate(253.628906 0)"/>
      <use xlink:href="#DejaVuSans-75" transform="translate(317.105469 0)"/>
      <use xlink:href="#DejaVuSans-62" transform="translate(380.484375 0)"/>
      <use xlink:href="#DejaVuSans-63" transform="translate(443.960938 0)"/>
      <use xlink:href="#DejaVuSans-6f" transform="translate(498.941406 0)"/>
      <use xlink:href="#DejaVuSans-6f" transform="translate(560.123047 0)"/>
      <use xlink:href="#DejaVuSans-6c" transform="translate(621.304688 0)"/>
      <use xlink:href="#DejaVuSans-69" transform="translate(649.087891 0)"/>
      <use xlink:href="#DejaVuSans-6e" transform="translate(676.871094 0)"/>
      <use xlink:href="#DejaVuSans-67" transform="translate(740.25 0)"/>
      <use xlink:href="#DejaVuSans-20" transform="translate(803.726562 0)"/>
      <use xlink:href="#DejaVuSans-394" transform="translate(835.513672 0)"/>
      <use xlink:href="#DejaVuSans-54" transform="translate(903.921875 0)"/>
      <use xlink:href="#DejaVuSans-20" transform="translate(965.005859 0)"/>
      <use xlink:href="#DejaVuSans-5b" transform="translate(996.792969 0)"/>
      <use xlink:href="#DejaVuSans-4b" transform="translate(1035.806641 0)"/>
      <use xlink:href="#DejaVuSans-5d" transform="translate(1101.382812 0)"/>
      <use xlink:href="#DejaVuSans-20" transform="translate(1140.396484 0)"/>
      <use xlink:href="#DejaVuSans-20" transform="translate(1172.183594 0)"/>
      <use xlink:href="#DejaVuSans-20" transform="translate(1203.970703 0)"/>
      <use xlink:href="#DejaVuSans-7c" transform="translate(1235.757812 0)"/>
      <use xlink:href="#DejaVuSans-20" transform="translate(1269.449219 0)"/>
      <use xlink:href="#DejaVuSans-20" transform="translate(1301.236328 0)"/>
      <use xlink:href="#DejaVuSans-20" transform="translate(1333.023438 0)"/>
      <use xlink:href="#DejaVuSans-4d" transform="translate(1364.810547 0)"/>
      <use xlink:href="#DejaVuSans-69" transform="translate(1451.089844 0)"/>
      <use xlink:href="#DejaVuSans-64" transform="translate(1478.873047 0)"/>
      <use xlink:href="#DejaVuSans-64" transform="translate(1542.349609 0)"/>
      <use xlink:href="#DejaVuSans-6c" transform="translate(1605.826172 0)"/>
      <use xlink:href="#DejaVuSans-65" transform="translate(1633.609375 0)"/>
      <use xlink:href="#DejaVuSans-3a" transform="translate(1695.132812 0)"/>
      <use xlink:href="#DejaVuSans-20" transform="translate(1728.824219 0)"/>
      <use xlink:href="#DejaVuSans-51" transform="translate(1760.611328 0)"/>
      <use xlink:href="#DejaVuSans-75" transform="translate(1839.322266 0)"/>
      <use xlink:href="#DejaVuSans-61" transform="translate(1902.701172 0)"/>
      <use xlink:href="#DejaVuSans-6c" transform="translate(1963.980469 0)"/>
      <use xlink:href="#DejaVuSans-69" transform="translate(1991.763672 0)"/>
      <use xlink:href="#DejaVuSans-74" transform="translate(2019.546875 0)"/>
      <use xlink:href="#DejaVuSans-79" transform="translate(2058.755859 0)"/>
      <use xlink:href="#DejaVuSans-20" transform="translate(2117.935547 0)"/>
      <use xlink:href="#DejaVuSans-51" transform="translate(2149.722656 0)"/>
      <use xlink:href="#DejaVuSans-20" transform="translate(2228.433594 0)"/>
      <use xlink:href="#DejaVuSans-20" transform="translate(2260.220703 0)"/>
      <use xlink:href="#DejaVuSans-20" transform="translate(2292.007812 0)"/>
      <use xlink:href="#DejaVuSans-7c" transform="translate(2323.794922 0)"/>
      <use xlink:href="#DejaVuSans-20" transform="translate(2357.486328 0)"/>
      <use xlink:href="#DejaVuSans-20" transform="translate(2389.273438 0)"/>
      <use xlink:href="#DejaVuSans-20" transform="translate(2421.060547 0)"/>
      <use xlink:href="#DejaVuSans-52" transform="translate(2452.847656 0)"/>
      <use xlink:href="#DejaVuSans-69" transform="translate(2522.330078 0)"/>
      <use xlink:href="#DejaVuSans-67" transform="translate(2550.113281 0)"/>
      <use xlink:href="#DejaVuSans-68" transform="translate(2613.589844 0)"/>
      <use xlink:href="#DejaVuSans-74" transform="translate(2676.96875 0)"/>
      <use xlink:href="#DejaVuSans-3a" transform="translate(2716.177734 0)"/>
      <use xlink:href="#DejaVuSans-20" transform="translate(2749.869141 0)"/>
      <use xlink:href="#DejaVuSans-53" transform="translate(2781.65625 0)"/>
      <use xlink:href="#DejaVuSans-75" transform="translate(2845.132812 0)"/>
      <use xlink:href="#DejaVuSans-70" transform="translate(2908.511719 0)"/>
      <use xlink:href="#DejaVuSans-65" transform="translate(2971.988281 0)"/>
      <use xlink:href="#DejaVuSans-72" transform="translate(3033.511719 0)"/>
      <use xlink:href="#DejaVuSans-68" transform="translate(3072.875 0)"/>
      <use xlink:href="#DejaVuSans-65" transform="translate(3136.253906 0)"/>
      <use xlink:href="#DejaVuSans-61" transform="translate(3197.777344 0)"/>
      <use xlink:href="#DejaVuSans-74" transform="translate(3259.056641 0)"/>
      <use xlink:href="#DejaVuSans-20" transform="translate(3298.265625 0)"/>
      <use xlink:href="#DejaVuSans-394" transform="translate(3330.052734 0)"/>
      <use xlink:href="#DejaVuSans-54" transform="translate(3398.460938 0)"/>
      <use xlink:href="#DejaVuSans-20" transform="translate(3459.544922 0)"/>
      <use xlink:href="#DejaVuSans-5b" transform="translate(3491.332031 0)"/>
      <use xlink:href="#DejaVuSans-4b" transform="translate(3530.345703 0)"/>
      <use xlink:href="#DejaVuSans-5d" transform="translate(3595.921875 0)"/>
     </g>
    </g>
   </g>
   <g id="matplotlib.axis_2">
    <g id="ytick_1">
     <g id="line2d_35">
      <path d="M 50.87 383.714258 
L 745.2 383.714258 
" clip-path="url(#pe47e617824)" style="fill: none; stroke-dasharray: 0.8,1.32; stroke-dashoffset: 0; stroke: #b0b0b0; stroke-opacity: 0.6; stroke-width: 0.8"/>
     </g>
     <g id="line2d_36">
      <defs>
       <path id="mb643d68bd5" d="M 0 0 
L -3.5 0 
" style="stroke: #000000; stroke-width: 0.8"/>
      </defs>
      <g>
       <use xlink:href="#mb643d68bd5" x="50.87" y="383.714258" style="stroke: #000000; stroke-width: 0.8"/>
      </g>
     </g>
     <g id="text_19">
      <!-- 0 -->
      <g transform="translate(37.5075 387.513476) scale(0.1 -0.1)">
       <use xlink:href="#DejaVuSans-30"/>
      </g>
     </g>
    </g>
    <g id="ytick_2">
     <g id="line2d_37">
      <path d="M 50.87 314.28617 
L 745.2 314.28617 
" clip-path="url(#pe47e617824)" style="fill: none; stroke-dasharray: 0.8,1.32; stroke-dashoffset: 0; stroke: #b0b0b0; stroke-opacity: 0.6; stroke-width: 0.8"/>
     </g>
     <g id="line2d_38">
      <g>
       <use xlink:href="#mb643d68bd5" x="50.87" y="314.28617" style="stroke: #000000; stroke-width: 0.8"/>
      </g>
     </g>
     <g id="text_20">
      <!-- 100 -->
      <g transform="translate(24.7825 318.085389) scale(0.1 -0.1)">
       <use xlink:href="#DejaVuSans-31"/>
       <use xlink:href="#DejaVuSans-30" transform="translate(63.623047 0)"/>
       <use xlink:href="#DejaVuSans-30" transform="translate(127.246094 0)"/>
      </g>
     </g>
    </g>
    <g id="ytick_3">
     <g id="line2d_39">
      <path d="M 50.87 244.858083 
L 745.2 244.858083 
" clip-path="url(#pe47e617824)" style="fill: none; stroke-dasharray: 0.8,1.32; stroke-dashoffset: 0; stroke: #b0b0b0; stroke-opacity: 0.6; stroke-width: 0.8"/>
     </g>
     <g id="line2d_40">
      <g>
       <use xlink:href="#mb643d68bd5" x="50.87" y="244.858083" style="stroke: #000000; stroke-width: 0.8"/>
      </g>
     </g>
     <g id="text_21">
      <!-- 200 -->
      <g transform="translate(24.7825 248.657302) scale(0.1 -0.1)">
       <use xlink:href="#DejaVuSans-32"/>
       <use xlink:href="#DejaVuSans-30" transform="translate(63.623047 0)"/>
       <use xlink:href="#DejaVuSans-30" transform="translate(127.246094 0)"/>
      </g>
     </g>
    </g>
    <g id="ytick_4">
     <g id="line2d_41">
      <path d="M 50.87 175.429996 
L 745.2 175.429996 
" clip-path="url(#pe47e617824)" style="fill: none; stroke-dasharray: 0.8,1.32; stroke-dashoffset: 0; stroke: #b0b0b0; stroke-opacity: 0.6; stroke-width: 0.8"/>
     </g>
     <g id="line2d_42">
      <g>
       <use xlink:href="#mb643d68bd5" x="50.87" y="175.429996" style="stroke: #000000; stroke-width: 0.8"/>
      </g>
     </g>
     <g id="text_22">
      <!-- 300 -->
      <g transform="translate(24.7825 179.229214) scale(0.1 -0.1)">
       <use xlink:href="#DejaVuSans-33"/>
       <use xlink:href="#DejaVuSans-30" transform="translate(63.623047 0)"/>
       <use xlink:href="#DejaVuSans-30" transform="translate(127.246094 0)"/>
      </g>
     </g>
    </g>
    <g id="ytick_5">
     <g id="line2d_43">
      <path d="M 50.87 106.001908 
L 745.2 106.001908 
" clip-path="url(#pe47e617824)" style="fill: none; stroke-dasharray: 0.8,1.32; stroke-dashoffset: 0; stroke: #b0b0b0; stroke-opacity: 0.6; stroke-width: 0.8"/>
     </g>
     <g id="line2d_44">
      <g>
       <use xlink:href="#mb643d68bd5" x="50.87" y="106.001908" style="stroke: #000000; stroke-width: 0.8"/>
      </g>
     </g>
     <g id="text_23">
      <!-- 400 -->
      <g transform="translate(24.7825 109.801127) scale(0.1 -0.1)">
       <use xlink:href="#DejaVuSans-34"/>
       <use xlink:href="#DejaVuSans-30" transform="translate(63.623047 0)"/>
       <use xlink:href="#DejaVuSans-30" transform="translate(127.246094 0)"/>
      </g>
     </g>
    </g>
    <g id="text_24">
     <!-- Speed of sound [m/s] -->
     <g transform="translate(18.702813 269.362844) rotate(-90) scale(0.1 -0.1)">
      <defs>
       <path id="DejaVuSans-73" d="M 2834 3397 
L 2834 2853 
Q 2591 2978 2328 3040 
Q 2066 3103 1784 3103 
Q 1356 3103 1142 2972 
Q 928 2841 928 2578 
Q 928 2378 1081 2264 
Q 1234 2150 1697 2047 
L 1894 2003 
Q 2506 1872 2764 1633 
Q 3022 1394 3022 966 
Q 3022 478 2636 193 
Q 2250 -91 1575 -91 
Q 1294 -91 989 -36 
Q 684 19 347 128 
L 347 722 
Q 666 556 975 473 
Q 1284 391 1588 391 
Q 1994 391 2212 530 
Q 2431 669 2431 922 
Q 2431 1156 2273 1281 
Q 2116 1406 1581 1522 
L 1381 1569 
Q 847 1681 609 1914 
Q 372 2147 372 2553 
Q 372 3047 722 3315 
Q 1072 3584 1716 3584 
Q 2034 3584 2315 3537 
Q 2597 3491 2834 3397 
z
" transform="scale(0.015625)"/>
       <path id="DejaVuSans-6d" d="M 3328 2828 
Q 3544 3216 3844 3400 
Q 4144 3584 4550 3584 
Q 5097 3584 5394 3201 
Q 5691 2819 5691 2113 
L 5691 0 
L 5113 0 
L 5113 2094 
Q 5113 2597 4934 2840 
Q 4756 3084 4391 3084 
Q 3944 3084 3684 2787 
Q 3425 2491 3425 1978 
L 3425 0 
L 2847 0 
L 2847 2094 
Q 2847 2600 2669 2842 
Q 2491 3084 2119 3084 
Q 1678 3084 1418 2786 
Q 1159 2488 1159 1978 
L 1159 0 
L 581 0 
L 581 3500 
L 1159 3500 
L 1159 2956 
Q 1356 3278 1631 3431 
Q 1906 3584 2284 3584 
Q 2666 3584 2933 3390 
Q 3200 3197 3328 2828 
z
" transform="scale(0.015625)"/>
       <path id="DejaVuSans-2f" d="M 1625 4666 
L 2156 4666 
L 531 -594 
L 0 -594 
L 1625 4666 
z
" transform="scale(0.015625)"/>
      </defs>
      <use xlink:href="#DejaVuSans-53"/>
      <use xlink:href="#DejaVuSans-70" transform="translate(63.476562 0)"/>
      <use xlink:href="#DejaVuSans-65" transform="translate(126.953125 0)"/>
      <use xlink:href="#DejaVuSans-65" transform="translate(188.476562 0)"/>
      <use xlink:href="#DejaVuSans-64" transform="translate(250 0)"/>
      <use xlink:href="#DejaVuSans-20" transform="translate(313.476562 0)"/>
      <use xlink:href="#DejaVuSans-6f" transform="translate(345.263672 0)"/>
      <use xlink:href="#DejaVuSans-66" transform="translate(406.445312 0)"/>
      <use xlink:href="#DejaVuSans-20" transform="translate(441.650391 0)"/>
      <use xlink:href="#DejaVuSans-73" transform="translate(473.4375 0)"/>
      <use xlink:href="#DejaVuSans-6f" transform="translate(525.537109 0)"/>
      <use xlink:href="#DejaVuSans-75" transform="translate(586.71875 0)"/>
      <use xlink:href="#DejaVuSans-6e" transform="translate(650.097656 0)"/>
      <use xlink:href="#DejaVuSans-64" transform="translate(713.476562 0)"/>
      <use xlink:href="#DejaVuSans-20" transform="translate(776.953125 0)"/>
      <use xlink:href="#DejaVuSans-5b" transform="translate(808.740234 0)"/>
      <use xlink:href="#DejaVuSans-6d" transform="translate(847.753906 0)"/>
      <use xlink:href="#DejaVuSans-2f" transform="translate(945.166016 0)"/>
      <use xlink:href="#DejaVuSans-73" transform="translate(978.857422 0)"/>
      <use xlink:href="#DejaVuSans-5d" transform="translate(1030.957031 0)"/>
     </g>
    </g>
   </g>
   <g id="line2d_45">
    <path d="M 82.430455 57.848739 
L 87.488219 58.268019 
L 92.545983 58.687554 
L 97.603747 59.107343 
L 102.661511 59.527389 
L 107.719275 59.947695 
L 112.777039 60.368262 
L 117.834804 60.789091 
L 122.892568 61.210186 
L 127.950332 61.631548 
L 133.008096 62.053179 
L 138.06586 62.475082 
L 143.123624 62.897257 
L 148.181388 63.319708 
L 153.239153 63.742436 
L 158.296917 64.165443 
L 163.354681 64.588732 
L 168.412445 65.012305 
L 173.470209 65.436163 
L 178.527973 65.860309 
L 183.585737 66.284745 
L 188.643501 66.709473 
L 193.701266 67.134495 
L 198.75903 67.559814 
L 203.816794 67.985431 
L 208.874558 68.411349 
L 213.932322 68.83757 
L 218.990086 69.264096 
L 224.04785 69.69093 
L 229.105615 70.118073 
L 234.163379 70.545528 
L 239.221143 70.973297 
L 244.278907 71.401382 
L 249.336671 71.829786 
L 254.394435 72.258512 
L 259.452199 72.68756 
L 264.509964 73.116934 
L 269.567728 73.546636 
L 274.625492 73.976668 
L 279.683256 74.407033 
" clip-path="url(#pe47e617824)" style="fill: none; stroke: #1f77b4; stroke-width: 2; stroke-linecap: square"/>
   </g>
   <g id="line2d_46">
    <path d="M 279.683295 373.878511 
L 280.309495 371.74103 
L 280.935694 369.663482 
L 281.561894 367.642106 
L 282.188093 365.673484 
L 282.814293 363.7545 
L 283.440492 361.882307 
L 284.066692 360.054293 
L 284.692891 358.268062 
L 285.319091 356.521407 
L 285.94529 354.812293 
L 286.57149 353.138836 
L 287.197689 351.499294 
L 287.823889 349.89205 
L 288.450088 348.315598 
L 289.076288 346.76854 
L 289.702487 345.24957 
L 290.328687 343.757466 
L 290.954886 342.291089 
L 291.581086 340.849369 
L 292.207285 339.431304 
L 292.833485 338.03595 
L 293.459684 336.662423 
L 294.085884 335.309887 
L 294.712083 333.977557 
L 295.338283 332.664689 
L 295.964482 331.370583 
L 296.590682 330.094574 
L 297.216881 328.836035 
L 297.843081 327.594371 
L 298.46928 326.369016 
L 299.09548 325.159435 
L 299.721679 323.965118 
L 300.347879 322.78558 
L 300.974078 321.62036 
L 301.600278 320.469019 
L 302.226477 319.331137 
L 302.852677 318.206315 
L 303.478876 317.094171 
L 304.105076 315.99434 
L 304.731275 314.906474 
L 305.357475 313.830238 
L 305.983674 312.765313 
L 306.609874 311.711394 
L 307.236073 310.668187 
L 307.862273 309.63541 
L 308.488472 308.612793 
L 309.114672 307.600076 
L 309.740871 306.597012 
L 310.367071 305.603359 
L 310.99327 304.618888 
L 311.61947 303.643377 
L 312.245669 302.676612 
L 312.871869 301.718388 
L 313.498068 300.768506 
L 314.124268 299.826775 
L 314.750467 298.89301 
L 315.376667 297.967035 
L 316.002866 297.048677 
L 316.629066 296.13777 
L 317.255265 295.234153 
L 317.881465 294.337673 
L 318.507664 293.448179 
L 319.133864 292.565525 
" clip-path="url(#pe47e617824)" style="fill: none; stroke: #d62728; stroke-width: 2; stroke-linecap: square"/>
   </g>
   <g id="line2d_47">
    <path d="M 279.683295 343.483633 
L 280.309495 346.193516 
L 280.935694 346.356866 
L 281.561894 345.713114 
L 282.188093 344.738506 
L 282.814293 343.613584 
L 283.440492 342.419661 
L 284.066692 341.197394 
L 284.692891 339.968499 
L 285.319091 338.745046 
L 285.94529 337.533862 
L 286.57149 336.338786 
L 287.197689 335.161892 
L 287.823889 334.004186 
L 288.450088 332.866017 
L 289.076288 331.747327 
L 289.702487 330.647808 
L 290.328687 329.567 
L 290.954886 328.504353 
L 291.581086 327.459273 
L 292.207285 326.431143 
L 292.833485 325.419347 
L 293.459684 324.423275 
L 294.085884 323.442334 
L 294.712083 322.475952 
L 295.338283 321.523579 
L 295.964482 320.584692 
L 296.590682 319.658787 
L 297.216881 318.74539 
L 297.843081 317.844046 
L 298.46928 316.954325 
L 299.09548 316.075819 
L 299.721679 315.208139 
L 300.347879 314.350916 
L 300.974078 313.503802 
L 301.600278 312.666464 
L 302.226477 311.838585 
L 302.852677 311.019865 
L 303.478876 310.210019 
L 304.105076 309.408774 
L 304.731275 308.615872 
L 305.357475 307.831065 
L 305.983674 307.054117 
L 306.609874 306.284804 
L 307.236073 305.52291 
L 307.862273 304.768232 
L 308.488472 304.020571 
L 309.114672 303.279741 
L 309.740871 302.545562 
L 310.367071 301.817861 
L 310.99327 301.096473 
L 311.61947 300.381239 
L 312.245669 299.672008 
L 312.871869 298.968634 
L 313.498068 298.270975 
L 314.124268 297.578897 
L 314.750467 296.892271 
L 315.376667 296.210971 
L 316.002866 295.534876 
L 316.629066 294.863872 
L 317.255265 294.197845 
L 317.881465 293.536689 
L 318.507664 292.880299 
L 319.133864 292.228574 
" clip-path="url(#pe47e617824)" style="fill: none; stroke-dasharray: 7.4,3.2; stroke-dashoffset: 0; stroke: #9467bd; stroke-width: 2"/>
   </g>
   <g id="line2d_48">
    <path d="M 279.683295 343.733534 
L 280.309495 346.424979 
L 280.935694 346.585055 
L 281.561894 345.94237 
L 282.188093 344.970234 
L 282.814293 343.848099 
L 283.440492 342.656812 
L 284.066692 341.436816 
L 284.692891 340.209735 
L 285.319091 338.987601 
L 285.94529 337.777238 
L 286.57149 336.582494 
L 287.197689 335.405466 
L 287.823889 334.247183 
L 288.450088 333.108022 
L 289.076288 331.987952 
L 289.702487 330.886692 
L 290.328687 329.803806 
L 290.954886 328.738772 
L 291.581086 327.691017 
L 292.207285 326.659946 
L 292.833485 325.644964 
L 293.459684 324.645479 
L 294.085884 323.660918 
L 294.712083 322.690723 
L 295.338283 321.734362 
L 295.964482 320.791322 
L 296.590682 319.861116 
L 297.216881 318.94328 
L 297.843081 318.037372 
L 298.46928 317.142971 
L 299.09548 316.259679 
L 299.721679 315.387117 
L 300.347879 314.524924 
L 300.974078 313.672759 
L 301.600278 312.830295 
L 302.226477 311.997225 
L 302.852677 311.173253 
L 303.478876 310.3581 
L 304.105076 309.551499 
L 304.731275 308.753196 
L 305.357475 307.962947 
L 305.983674 307.180523 
L 306.609874 306.405701 
L 307.236073 305.638272 
L 307.862273 304.878032 
L 308.488472 304.124789 
L 309.114672 303.378359 
L 309.740871 302.638563 
L 310.367071 301.905233 
L 310.99327 301.178205 
L 311.61947 300.457323 
L 312.245669 299.742437 
L 312.871869 299.033404 
L 313.498068 298.330084 
L 314.124268 297.632344 
L 314.750467 296.940055 
L 315.376667 296.253095 
L 316.002866 295.571345 
L 316.629066 294.894688 
L 317.255265 294.223016 
L 317.881465 293.556221 
L 318.507664 292.8942 
L 319.133864 292.236854 
" clip-path="url(#pe47e617824)" style="fill: none; stroke-dasharray: 12.8,3.2,2,3.2; stroke-dashoffset: 0; stroke: #ff7f0e; stroke-width: 2"/>
   </g>
   <g id="line2d_49">
    <path d="M 319.133903 291.381443 
L 325.820439 291.312635 
L 332.506976 291.244001 
L 339.193512 291.175541 
L 345.880048 291.107254 
L 352.566585 291.039138 
L 359.253121 290.971191 
L 365.939657 290.903415 
L 372.626194 290.835806 
L 379.31273 290.768364 
L 385.999266 290.701088 
L 392.685803 290.633977 
L 399.372339 290.567029 
L 406.058875 290.500245 
L 412.745411 290.433623 
L 419.431948 290.367161 
L 426.118484 290.300859 
L 432.80502 290.234717 
L 439.491557 290.168732 
L 446.178093 290.102904 
L 452.864629 290.037232 
L 459.551166 289.971715 
L 466.237702 289.906352 
L 472.924238 289.841143 
L 479.610775 289.776085 
L 486.297311 289.711179 
L 492.983847 289.646424 
L 499.670383 289.581818 
L 506.35692 289.51736 
L 513.043456 289.45305 
L 519.729992 289.388888 
L 526.416529 289.324871 
L 533.103065 289.260999 
L 539.789601 289.197271 
L 546.476138 289.133687 
L 553.162674 289.070246 
L 559.84921 289.006946 
L 566.535747 288.943787 
L 573.222283 288.880769 
L 579.908819 288.817889 
L 586.595356 288.755148 
L 593.281892 288.692545 
L 599.968428 288.630078 
L 606.654964 288.567747 
L 613.341501 288.505552 
L 620.028037 288.443491 
L 626.714573 288.381564 
L 633.40111 288.31977 
L 640.087646 288.258109 
L 646.774182 288.196578 
L 653.460719 288.135178 
L 660.147255 288.073909 
L 666.833791 288.012768 
L 673.520328 287.951756 
L 680.206864 287.890872 
L 686.8934 287.830114 
L 693.579937 287.769483 
L 700.266473 287.708978 
L 706.953009 287.648598 
L 713.639545 287.588342 
" clip-path="url(#pe47e617824)" style="fill: none; stroke: #2ca02c; stroke-width: 2; stroke-linecap: square"/>
   </g>
   <g id="line2d_50">
    <path d="M 279.683295 389.68 
L 279.683295 42.04725 
" clip-path="url(#pe47e617824)" style="fill: none; stroke: #000000; stroke-opacity: 0.6; stroke-linecap: square"/>
   </g>
   <g id="line2d_51">
    <path d="M 319.133864 389.68 
L 319.133864 42.04725 
" clip-path="url(#pe47e617824)" style="fill: none; stroke: #000000; stroke-opacity: 0.6; stroke-linecap: square"/>
   </g>
   <g id="patch_3">
    <path d="M 50.87 389.68 
L 50.87 42.04725 
" style="fill: none; stroke: #000000; stroke-width: 0.8; stroke-linejoin: miter; stroke-linecap: square"/>
   </g>
   <g id="patch_4">
    <path d="M 745.2 389.68 
L 745.2 42.04725 
" style="fill: none; stroke: #000000; stroke-width: 0.8; stroke-linejoin: miter; stroke-linecap: square"/>
   </g>
   <g id="patch_5">
    <path d="M 50.87 389.68 
L 745.2 389.68 
" style="fill: none; stroke: #000000; stroke-width: 0.8; stroke-linejoin: miter; stroke-linecap: square"/>
   </g>
   <g id="patch_6">
    <path d="M 50.87 42.04725 
L 745.2 42.04725 
" style="fill: none; stroke: #000000; stroke-width: 0.8; stroke-linejoin: miter; stroke-linecap: square"/>
   </g>
   <g id="text_25">
    <!-- Speed of Sound across Subcool → Two-phase → Superheat at T_evap=45.0 °C -->
    <g transform="translate(164.922813 22.276125) scale(0.12 -0.12)">
     <defs>
      <path id="DejaVuSans-2192" d="M 5050 2147 
L 5050 1866 
L 3822 638 
L 3447 1013 
L 4175 1741 
L 366 1741 
L 366 2272 
L 4175 2272 
L 3447 3000 
L 3822 3375 
L 5050 2147 
z
" transform="scale(0.015625)"/>
      <path id="DejaVuSans-77" d="M 269 3500 
L 844 3500 
L 1563 769 
L 2278 3500 
L 2956 3500 
L 3675 769 
L 4391 3500 
L 4966 3500 
L 4050 0 
L 3372 0 
L 2619 2869 
L 1863 0 
L 1184 0 
L 269 3500 
z
" transform="scale(0.015625)"/>
      <path id="DejaVuSans-5f" d="M 3263 -1063 
L 3263 -1509 
L -63 -1509 
L -63 -1063 
L 3263 -1063 
z
" transform="scale(0.015625)"/>
      <path id="DejaVuSans-76" d="M 191 3500 
L 800 3500 
L 1894 563 
L 2988 3500 
L 3597 3500 
L 2284 0 
L 1503 0 
L 191 3500 
z
" transform="scale(0.015625)"/>
      <path id="DejaVuSans-b0" d="M 1600 4347 
Q 1350 4347 1178 4173 
Q 1006 4000 1006 3750 
Q 1006 3503 1178 3333 
Q 1350 3163 1600 3163 
Q 1850 3163 2022 3333 
Q 2194 3503 2194 3750 
Q 2194 3997 2020 4172 
Q 1847 4347 1600 4347 
z
M 1600 4750 
Q 1800 4750 1984 4673 
Q 2169 4597 2303 4453 
Q 2447 4313 2519 4134 
Q 2591 3956 2591 3750 
Q 2591 3338 2302 3052 
Q 2013 2766 1594 2766 
Q 1172 2766 890 3047 
Q 609 3328 609 3750 
Q 609 4169 896 4459 
Q 1184 4750 1600 4750 
z
" transform="scale(0.015625)"/>
      <path id="DejaVuSans-43" d="M 4122 4306 
L 4122 3641 
Q 3803 3938 3442 4084 
Q 3081 4231 2675 4231 
Q 1875 4231 1450 3742 
Q 1025 3253 1025 2328 
Q 1025 1406 1450 917 
Q 1875 428 2675 428 
Q 3081 428 3442 575 
Q 3803 722 4122 1019 
L 4122 359 
Q 3791 134 3420 21 
Q 3050 -91 2638 -91 
Q 1578 -91 968 557 
Q 359 1206 359 2328 
Q 359 3453 968 4101 
Q 1578 4750 2638 4750 
Q 3056 4750 3426 4639 
Q 3797 4528 4122 4306 
z
" transform="scale(0.015625)"/>
     </defs>
     <use xlink:href="#DejaVuSans-53"/>
     <use xlink:href="#DejaVuSans-70" transform="translate(63.476562 0)"/>
     <use xlink:href="#DejaVuSans-65" transform="translate(126.953125 0)"/>
     <use xlink:href="#DejaVuSans-65" transform="translate(188.476562 0)"/>
     <use xlink:href="#DejaVuSans-64" transform="translate(250 0)"/>
     <use xlink:href="#DejaVuSans-20" transform="translate(313.476562 0)"/>
     <use xlink:href="#DejaVuSans-6f" transform="translate(345.263672 0)"/>
     <use xlink:href="#DejaVuSans-66" transform="translate(406.445312 0)"/>
     <use xlink:href="#DejaVuSans-20" transform="translate(441.650391 0)"/>
     <use xlink:href="#DejaVuSans-53" transform="translate(473.4375 0)"/>
     <use xlink:href="#DejaVuSans-6f" transform="translate(536.914062 0)"/>
     <use xlink:href="#DejaVuSans-75" transform="translate(598.095703 0)"/>
     <use xlink:href="#DejaVuSans-6e" transform="translate(661.474609 0)"/>
     <use xlink:href="#DejaVuSans-64" transform="translate(724.853516 0)"/>
     <use xlink:href="#DejaVuSans-20" transform="translate(788.330078 0)"/>
     <use xlink:href="#DejaVuSans-61" transform="translate(820.117188 0)"/>
     <use xlink:href="#DejaVuSans-63" transform="translate(881.396484 0)"/>
     <use xlink:href="#DejaVuSans-72" transform="translate(936.376953 0)"/>
     <use xlink:href="#DejaVuSans-6f" transform="translate(975.240234 0)"/>
     <use xlink:href="#DejaVuSans-73" transform="translate(1036.421875 0)"/>
     <use xlink:href="#DejaVuSans-73" transform="translate(1088.521484 0)"/>
     <use xlink:href="#DejaVuSans-20" transform="translate(1140.621094 0)"/>
     <use xlink:href="#DejaVuSans-53" transform="translate(1172.408203 0)"/>
     <use xlink:href="#DejaVuSans-75" transform="translate(1235.884766 0)"/>
     <use xlink:href="#DejaVuSans-62" transform="translate(1299.263672 0)"/>
     <use xlink:href="#DejaVuSans-63" transform="translate(1362.740234 0)"/>
     <use xlink:href="#DejaVuSans-6f" transform="translate(1417.720703 0)"/>
     <use xlink:href="#DejaVuSans-6f" transform="translate(1478.902344 0)"/>
     <use xlink:href="#DejaVuSans-6c" transform="translate(1540.083984 0)"/>
     <use xlink:href="#DejaVuSans-20" transform="translate(1567.867188 0)"/>
     <use xlink:href="#DejaVuSans-2192" transform="translate(1599.654297 0)"/>
     <use xlink:href="#DejaVuSans-20" transform="translate(1683.443359 0)"/>
     <use xlink:href="#DejaVuSans-54" transform="translate(1715.230469 0)"/>
     <use xlink:href="#DejaVuSans-77" transform="translate(1759.814453 0)"/>
     <use xlink:href="#DejaVuSans-6f" transform="translate(1841.601562 0)"/>
     <use xlink:href="#DejaVuSans-2d" transform="translate(1904.658203 0)"/>
     <use xlink:href="#DejaVuSans-70" transform="translate(1940.742188 0)"/>
     <use xlink:href="#DejaVuSans-68" transform="translate(2004.21875 0)"/>
     <use xlink:href="#DejaVuSans-61" transform="translate(2067.597656 0)"/>
     <use xlink:href="#DejaVuSans-73" transform="translate(2128.876953 0)"/>
     <use xlink:href="#DejaVuSans-65" transform="translate(2180.976562 0)"/>
     <use xlink:href="#DejaVuSans-20" transform="translate(2242.5 0)"/>
     <use xlink:href="#DejaVuSans-2192" transform="translate(2274.287109 0)"/>
     <use xlink:href="#DejaVuSans-20" transform="translate(2358.076172 0)"/>
     <use xlink:href="#DejaVuSans-53" transform="translate(2389.863281 0)"/>
     <use xlink:href="#DejaVuSans-75" transform="translate(2453.339844 0)"/>
     <use xlink:href="#DejaVuSans-70" transform="translate(2516.71875 0)"/>
     <use xlink:href="#DejaVuSans-65" transform="translate(2580.195312 0)"/>
     <use xlink:href="#DejaVuSans-72" transform="translate(2641.71875 0)"/>
     <use xlink:href="#DejaVuSans-68" transform="translate(2681.082031 0)"/>
     <use xlink:href="#DejaVuSans-65" transform="translate(2744.460938 0)"/>
     <use xlink:href="#DejaVuSans-61" transform="translate(2805.984375 0)"/>
     <use xlink:href="#DejaVuSans-74" transform="translate(2867.263672 0)"/>
     <use xlink:href="#DejaVuSans-20" transform="translate(2906.472656 0)"/>
     <use xlink:href="#DejaVuSans-61" transform="translate(2938.259766 0)"/>
     <use xlink:href="#DejaVuSans-74" transform="translate(2999.539062 0)"/>
     <use xlink:href="#DejaVuSans-20" transform="translate(3038.748047 0)"/>
     <use xlink:href="#DejaVuSans-54" transform="translate(3070.535156 0)"/>
     <use xlink:href="#DejaVuSans-5f" transform="translate(3131.619141 0)"/>
     <use xlink:href="#DejaVuSans-65" transform="translate(3181.619141 0)"/>
     <use xlink:href="#DejaVuSans-76" transform="translate(3243.142578 0)"/>
     <use xlink:href="#DejaVuSans-61" transform="translate(3302.322266 0)"/>
     <use xlink:href="#DejaVuSans-70" transform="translate(3363.601562 0)"/>
     <use xlink:href="#DejaVuSans-3d" transform="translate(3427.078125 0)"/>
     <use xlink:href="#DejaVuSans-34" transform="translate(3510.867188 0)"/>
     <use xlink:href="#DejaVuSans-35" transform="translate(3574.490234 0)"/>
     <use xlink:href="#DejaVuSans-2e" transform="translate(3638.113281 0)"/>
     <use xlink:href="#DejaVuSans-30" transform="translate(3669.900391 0)"/>
     <use xlink:href="#DejaVuSans-20" transform="translate(3733.523438 0)"/>
     <use xlink:href="#DejaVuSans-b0" transform="translate(3765.310547 0)"/>
     <use xlink:href="#DejaVuSans-43" transform="translate(3815.310547 0)"/>
    </g>
    <!-- REFPROP::R1234ZE(E) -->
    <g transform="translate(330.64 36.04725) scale(0.12 -0.12)">
     <defs>
      <path id="DejaVuSans-45" d="M 628 4666 
L 3578 4666 
L 3578 4134 
L 1259 4134 
L 1259 2753 
L 3481 2753 
L 3481 2222 
L 1259 2222 
L 1259 531 
L 3634 531 
L 3634 0 
L 628 0 
L 628 4666 
z
" transform="scale(0.015625)"/>
      <path id="DejaVuSans-46" d="M 628 4666 
L 3309 4666 
L 3309 4134 
L 1259 4134 
L 1259 2759 
L 3109 2759 
L 3109 2228 
L 1259 2228 
L 1259 0 
L 628 0 
L 628 4666 
z
" transform="scale(0.015625)"/>
      <path id="DejaVuSans-50" d="M 1259 4147 
L 1259 2394 
L 2053 2394 
Q 2494 2394 2734 2622 
Q 2975 2850 2975 3272 
Q 2975 3691 2734 3919 
Q 2494 4147 2053 4147 
L 1259 4147 
z
M 628 4666 
L 2053 4666 
Q 2838 4666 3239 4311 
Q 3641 3956 3641 3272 
Q 3641 2581 3239 2228 
Q 2838 1875 2053 1875 
L 1259 1875 
L 1259 0 
L 628 0 
L 628 4666 
z
" transform="scale(0.015625)"/>
      <path id="DejaVuSans-4f" d="M 2522 4238 
Q 1834 4238 1429 3725 
Q 1025 3213 1025 2328 
Q 1025 1447 1429 934 
Q 1834 422 2522 422 
Q 3209 422 3611 934 
Q 4013 1447 4013 2328 
Q 4013 3213 3611 3725 
Q 3209 4238 2522 4238 
z
M 2522 4750 
Q 3503 4750 4090 4092 
Q 4678 3434 4678 2328 
Q 4678 1225 4090 567 
Q 3503 -91 2522 -91 
Q 1538 -91 948 565 
Q 359 1222 359 2328 
Q 359 3434 948 4092 
Q 1538 4750 2522 4750 
z
" transform="scale(0.015625)"/>
      <path id="DejaVuSans-5a" d="M 359 4666 
L 4025 4666 
L 4025 4184 
L 1075 531 
L 4097 531 
L 4097 0 
L 288 0 
L 288 481 
L 3238 4134 
L 359 4134 
L 359 4666 
z
" transform="scale(0.015625)"/>
      <path id="DejaVuSans-28" d="M 1984 4856 
Q 1566 4138 1362 3434 
Q 1159 2731 1159 2009 
Q 1159 1288 1364 580 
Q 1569 -128 1984 -844 
L 1484 -844 
Q 1016 -109 783 600 
Q 550 1309 550 2009 
Q 550 2706 781 3412 
Q 1013 4119 1484 4856 
L 1984 4856 
z
" transform="scale(0.015625)"/>
      <path id="DejaVuSans-29" d="M 513 4856 
L 1013 4856 
Q 1481 4119 1714 3412 
Q 1947 2706 1947 2009 
Q 1947 1309 1714 600 
Q 1481 -109 1013 -844 
L 513 -844 
Q 928 -128 1133 580 
Q 1338 1288 1338 2009 
Q 1338 2731 1133 3434 
Q 928 4138 513 4856 
z
" transform="scale(0.015625)"/>
     </defs>
     <use xlink:href="#DejaVuSans-52"/>
     <use xlink:href="#DejaVuSans-45" transform="translate(69.482422 0)"/>
     <use xlink:href="#DejaVuSans-46" transform="translate(132.666016 0)"/>
     <use xlink:href="#DejaVuSans-50" transform="translate(190.185547 0)"/>
     <use xlink:href="#DejaVuSans-52" transform="translate(250.488281 0)"/>
     <use xlink:href="#DejaVuSans-4f" transform="translate(319.970703 0)"/>
     <use xlink:href="#DejaVuSans-50" transform="translate(398.681641 0)"/>
     <use xlink:href="#DejaVuSans-3a" transform="translate(458.984375 0)"/>
     <use xlink:href="#DejaVuSans-3a" transform="translate(492.675781 0)"/>
     <use xlink:href="#DejaVuSans-52" transform="translate(526.367188 0)"/>
     <use xlink:href="#DejaVuSans-31" transform="translate(595.849609 0)"/>
     <use xlink:href="#DejaVuSans-32" transform="translate(659.472656 0)"/>
     <use xlink:href="#DejaVuSans-33" transform="translate(723.095703 0)"/>
     <use xlink:href="#DejaVuSans-34" transform="translate(786.71875 0)"/>
     <use xlink:href="#DejaVuSans-5a" transform="translate(850.341797 0)"/>
     <use xlink:href="#DejaVuSans-45" transform="translate(918.847656 0)"/>
     <use xlink:href="#DejaVuSans-28" transform="translate(982.03125 0)"/>
     <use xlink:href="#DejaVuSans-45" transform="translate(1021.044922 0)"/>
     <use xlink:href="#DejaVuSans-29" transform="translate(1084.228516 0)"/>
    </g>
   </g>
   <g id="legend_1">
    <g id="patch_7">
     <path d="M 475.151563 123.75975 
L 738.2 123.75975 
Q 740.2 123.75975 740.2 121.75975 
L 740.2 49.04725 
Q 740.2 47.04725 738.2 47.04725 
L 475.151563 47.04725 
Q 473.151563 47.04725 473.151563 49.04725 
L 473.151563 121.75975 
Q 473.151563 123.75975 475.151563 123.75975 
z
" style="fill: #ffffff; opacity: 0.8; stroke: #cccccc; stroke-linejoin: miter"/>
    </g>
    <g id="line2d_52">
     <path d="M 477.151563 55.145687 
L 487.151563 55.145687 
L 497.151563 55.145687 
" style="fill: none; stroke: #1f77b4; stroke-width: 2; stroke-linecap: square"/>
    </g>
    <g id="text_26">
     <!-- Subcooled liquid (ΔT=5 K) -->
     <g transform="translate(505.151563 58.645687) scale(0.1 -0.1)">
      <defs>
       <path id="DejaVuSans-71" d="M 947 1747 
Q 947 1113 1208 752 
Q 1469 391 1925 391 
Q 2381 391 2643 752 
Q 2906 1113 2906 1747 
Q 2906 2381 2643 2742 
Q 2381 3103 1925 3103 
Q 1469 3103 1208 2742 
Q 947 2381 947 1747 
z
M 2906 525 
Q 2725 213 2448 61 
Q 2172 -91 1784 -91 
Q 1150 -91 751 415 
Q 353 922 353 1747 
Q 353 2572 751 3078 
Q 1150 3584 1784 3584 
Q 2172 3584 2448 3432 
Q 2725 3281 2906 2969 
L 2906 3500 
L 3481 3500 
L 3481 -1331 
L 2906 -1331 
L 2906 525 
z
" transform="scale(0.015625)"/>
      </defs>
      <use xlink:href="#DejaVuSans-53"/>
      <use xlink:href="#DejaVuSans-75" transform="translate(63.476562 0)"/>
      <use xlink:href="#DejaVuSans-62" transform="translate(126.855469 0)"/>
      <use xlink:href="#DejaVuSans-63" transform="translate(190.332031 0)"/>
      <use xlink:href="#DejaVuSans-6f" transform="translate(245.3125 0)"/>
      <use xlink:href="#DejaVuSans-6f" transform="translate(306.494141 0)"/>
      <use xlink:href="#DejaVuSans-6c" transform="translate(367.675781 0)"/>
      <use xlink:href="#DejaVuSans-65" transform="translate(395.458984 0)"/>
      <use xlink:href="#DejaVuSans-64" transform="translate(456.982422 0)"/>
      <use xlink:href="#DejaVuSans-20" transform="translate(520.458984 0)"/>
      <use xlink:href="#DejaVuSans-6c" transform="translate(552.246094 0)"/>
      <use xlink:href="#DejaVuSans-69" transform="translate(580.029297 0)"/>
      <use xlink:href="#DejaVuSans-71" transform="translate(607.8125 0)"/>
      <use xlink:href="#DejaVuSans-75" transform="translate(671.289062 0)"/>
      <use xlink:href="#DejaVuSans-69" transform="translate(734.667969 0)"/>
      <use xlink:href="#DejaVuSans-64" transform="translate(762.451172 0)"/>
      <use xlink:href="#DejaVuSans-20" transform="translate(825.927734 0)"/>
      <use xlink:href="#DejaVuSans-28" transform="translate(857.714844 0)"/>
      <use xlink:href="#DejaVuSans-394" transform="translate(896.728516 0)"/>
      <use xlink:href="#DejaVuSans-54" transform="translate(965.136719 0)"/>
      <use xlink:href="#DejaVuSans-3d" transform="translate(1026.220703 0)"/>
      <use xlink:href="#DejaVuSans-35" transform="translate(1110.009766 0)"/>
      <use xlink:href="#DejaVuSans-20" transform="translate(1173.632812 0)"/>
      <use xlink:href="#DejaVuSans-4b" transform="translate(1205.419922 0)"/>
      <use xlink:href="#DejaVuSans-29" transform="translate(1270.996094 0)"/>
     </g>
    </g>
    <g id="line2d_53">
     <path d="M 477.151563 69.823812 
L 487.151563 69.823812 
L 497.151563 69.823812 
" style="fill: none; stroke: #d62728; stroke-width: 2; stroke-linecap: square"/>
    </g>
    <g id="text_27">
     <!-- Two-phase (HEM - equilibrium) -->
     <g transform="translate(505.151563 73.323812) scale(0.1 -0.1)">
      <defs>
       <path id="DejaVuSans-48" d="M 628 4666 
L 1259 4666 
L 1259 2753 
L 3553 2753 
L 3553 4666 
L 4184 4666 
L 4184 0 
L 3553 0 
L 3553 2222 
L 1259 2222 
L 1259 0 
L 628 0 
L 628 4666 
z
" transform="scale(0.015625)"/>
      </defs>
      <use xlink:href="#DejaVuSans-54"/>
      <use xlink:href="#DejaVuSans-77" transform="translate(44.583984 0)"/>
      <use xlink:href="#DejaVuSans-6f" transform="translate(126.371094 0)"/>
      <use xlink:href="#DejaVuSans-2d" transform="translate(189.427734 0)"/>
      <use xlink:href="#DejaVuSans-70" transform="translate(225.511719 0)"/>
      <use xlink:href="#DejaVuSans-68" transform="translate(288.988281 0)"/>
      <use xlink:href="#DejaVuSans-61" transform="translate(352.367188 0)"/>
      <use xlink:href="#DejaVuSans-73" transform="translate(413.646484 0)"/>
      <use xlink:href="#DejaVuSans-65" transform="translate(465.746094 0)"/>
      <use xlink:href="#DejaVuSans-20" transform="translate(527.269531 0)"/>
      <use xlink:href="#DejaVuSans-28" transform="translate(559.056641 0)"/>
      <use xlink:href="#DejaVuSans-48" transform="translate(598.070312 0)"/>
      <use xlink:href="#DejaVuSans-45" transform="translate(673.265625 0)"/>
      <use xlink:href="#DejaVuSans-4d" transform="translate(736.449219 0)"/>
      <use xlink:href="#DejaVuSans-20" transform="translate(822.728516 0)"/>
      <use xlink:href="#DejaVuSans-2d" transform="translate(854.515625 0)"/>
      <use xlink:href="#DejaVuSans-20" transform="translate(890.599609 0)"/>
      <use xlink:href="#DejaVuSans-65" transform="translate(922.386719 0)"/>
      <use xlink:href="#DejaVuSans-71" transform="translate(983.910156 0)"/>
      <use xlink:href="#DejaVuSans-75" transform="translate(1047.386719 0)"/>
      <use xlink:href="#DejaVuSans-69" transform="translate(1110.765625 0)"/>
      <use xlink:href="#DejaVuSans-6c" transform="translate(1138.548828 0)"/>
      <use xlink:href="#DejaVuSans-69" transform="translate(1166.332031 0)"/>
      <use xlink:href="#DejaVuSans-62" transform="translate(1194.115234 0)"/>
      <use xlink:href="#DejaVuSans-72" transform="translate(1257.591797 0)"/>
      <use xlink:href="#DejaVuSans-69" transform="translate(1298.705078 0)"/>
      <use xlink:href="#DejaVuSans-75" transform="translate(1326.488281 0)"/>
      <use xlink:href="#DejaVuSans-6d" transform="translate(1389.867188 0)"/>
      <use xlink:href="#DejaVuSans-29" transform="translate(1487.279297 0)"/>
     </g>
    </g>
    <g id="line2d_54">
     <path d="M 477.151563 84.501937 
L 487.151563 84.501937 
L 497.151563 84.501937 
" style="fill: none; stroke-dasharray: 7.4,3.2; stroke-dashoffset: 0; stroke: #9467bd; stroke-width: 2"/>
    </g>
    <g id="text_28">
     <!-- Two-phase (Frozen / Wood) -->
     <g transform="translate(505.151563 88.001937) scale(0.1 -0.1)">
      <defs>
       <path id="DejaVuSans-7a" d="M 353 3500 
L 3084 3500 
L 3084 2975 
L 922 459 
L 3084 459 
L 3084 0 
L 275 0 
L 275 525 
L 2438 3041 
L 353 3041 
L 353 3500 
z
" transform="scale(0.015625)"/>
       <path id="DejaVuSans-57" d="M 213 4666 
L 850 4666 
L 1831 722 
L 2809 4666 
L 3519 4666 
L 4500 722 
L 5478 4666 
L 6119 4666 
L 4947 0 
L 4153 0 
L 3169 4050 
L 2175 0 
L 1381 0 
L 213 4666 
z
" transform="scale(0.015625)"/>
      </defs>
      <use xlink:href="#DejaVuSans-54"/>
      <use xlink:href="#DejaVuSans-77" transform="translate(44.583984 0)"/>
      <use xlink:href="#DejaVuSans-6f" transform="translate(126.371094 0)"/>
      <use xlink:href="#DejaVuSans-2d" transform="translate(189.427734 0)"/>
      <use xlink:href="#DejaVuSans-70" transform="translate(225.511719 0)"/>
      <use xlink:href="#DejaVuSans-68" transform="translate(288.988281 0)"/>
      <use xlink:href="#DejaVuSans-61" transform="translate(352.367188 0)"/>
      <use xlink:href="#DejaVuSans-73" transform="translate(413.646484 0)"/>
      <use xlink:href="#DejaVuSans-65" transform="translate(465.746094 0)"/>
      <use xlink:href="#DejaVuSans-20" transform="translate(527.269531 0)"/>
      <use xlink:href="#DejaVuSans-28" transform="translate(559.056641 0)"/>
      <use xlink:href="#DejaVuSans-46" transform="translate(598.070312 0)"/>
      <use xlink:href="#DejaVuSans-72" transform="translate(648.339844 0)"/>
      <use xlink:href="#DejaVuSans-6f" transform="translate(687.203125 0)"/>
      <use xlink:href="#DejaVuSans-7a" transform="translate(748.384766 0)"/>
      <use xlink:href="#DejaVuSans-65" transform="translate(800.875 0)"/>
      <use xlink:href="#DejaVuSans-6e" transform="translate(862.398438 0)"/>
      <use xlink:href="#DejaVuSans-20" transform="translate(925.777344 0)"/>
      <use xlink:href="#DejaVuSans-2f" transform="translate(957.564453 0)"/>
      <use xlink:href="#DejaVuSans-20" transform="translate(991.255859 0)"/>
      <use xlink:href="#DejaVuSans-57" transform="translate(1023.042969 0)"/>
      <use xlink:href="#DejaVuSans-6f" transform="translate(1116.044922 0)"/>
      <use xlink:href="#DejaVuSans-6f" transform="translate(1177.226562 0)"/>
      <use xlink:href="#DejaVuSans-64" transform="translate(1238.408203 0)"/>
      <use xlink:href="#DejaVuSans-29" transform="translate(1301.884766 0)"/>
     </g>
    </g>
    <g id="line2d_55">
     <path d="M 477.151563 99.223812 
L 487.151563 99.223812 
L 497.151563 99.223812 
" style="fill: none; stroke-dasharray: 12.8,3.2,2,3.2; stroke-dashoffset: 0; stroke: #ff7f0e; stroke-width: 2"/>
    </g>
    <g id="text_29">
     <!-- Two-phase (Relaxation |a|, f=200 Hz, τ=5 ms) -->
     <g transform="translate(505.151563 102.723812) scale(0.1 -0.1)">
      <defs>
       <path id="DejaVuSans-78" d="M 3513 3500 
L 2247 1797 
L 3578 0 
L 2900 0 
L 1881 1375 
L 863 0 
L 184 0 
L 1544 1831 
L 300 3500 
L 978 3500 
L 1906 2253 
L 2834 3500 
L 3513 3500 
z
" transform="scale(0.015625)"/>
       <path id="DejaVuSans-2c" d="M 750 794 
L 1409 794 
L 1409 256 
L 897 -744 
L 494 -744 
L 750 256 
L 750 794 
z
" transform="scale(0.015625)"/>
       <path id="DejaVuSans-3c4" d="M 2319 638 
Q 2431 488 2769 488 
L 3047 488 
L 3047 0 
L 2700 0 
Q 2138 0 1881 300 
Q 1625 606 1625 1269 
L 1625 2925 
L 313 2925 
L 313 3500 
L 3541 3500 
L 3541 2925 
L 2213 2925 
L 2213 1234 
Q 2213 781 2319 638 
z
" transform="scale(0.015625)"/>
      </defs>
      <use xlink:href="#DejaVuSans-54"/>
      <use xlink:href="#DejaVuSans-77" transform="translate(44.583984 0)"/>
      <use xlink:href="#DejaVuSans-6f" transform="translate(126.371094 0)"/>
      <use xlink:href="#DejaVuSans-2d" transform="translate(189.427734 0)"/>
      <use xlink:href="#DejaVuSans-70" transform="translate(225.511719 0)"/>
      <use xlink:href="#DejaVuSans-68" transform="translate(288.988281 0)"/>
      <use xlink:href="#DejaVuSans-61" transform="translate(352.367188 0)"/>
      <use xlink:href="#DejaVuSans-73" transform="translate(413.646484 0)"/>
      <use xlink:href="#DejaVuSans-65" transform="translate(465.746094 0)"/>
      <use xlink:href="#DejaVuSans-20" transform="translate(527.269531 0)"/>
      <use xlink:href="#DejaVuSans-28" transform="translate(559.056641 0)"/>
      <use xlink:href="#DejaVuSans-52" transform="translate(598.070312 0)"/>
      <use xlink:href="#DejaVuSans-65" transform="translate(663.052734 0)"/>
      <use xlink:href="#DejaVuSans-6c" transform="translate(724.576172 0)"/>
      <use xlink:href="#DejaVuSans-61" transform="translate(752.359375 0)"/>
      <use xlink:href="#DejaVuSans-78" transform="translate(813.638672 0)"/>
      <use xlink:href="#DejaVuSans-61" transform="translate(872.818359 0)"/>
      <use xlink:href="#DejaVuSans-74" transform="translate(934.097656 0)"/>
      <use xlink:href="#DejaVuSans-69" transform="translate(973.306641 0)"/>
      <use xlink:href="#DejaVuSans-6f" transform="translate(1001.089844 0)"/>
      <use xlink:href="#DejaVuSans-6e" transform="translate(1062.271484 0)"/>
      <use xlink:href="#DejaVuSans-20" transform="translate(1125.650391 0)"/>
      <use xlink:href="#DejaVuSans-7c" transform="translate(1157.4375 0)"/>
      <use xlink:href="#DejaVuSans-61" transform="translate(1191.128906 0)"/>
      <use xlink:href="#DejaVuSans-7c" transform="translate(1252.408203 0)"/>
      <use xlink:href="#DejaVuSans-2c" transform="translate(1286.099609 0)"/>
      <use xlink:href="#DejaVuSans-20" transform="translate(1317.886719 0)"/>
      <use xlink:href="#DejaVuSans-66" transform="translate(1349.673828 0)"/>
      <use xlink:href="#DejaVuSans-3d" transform="translate(1384.878906 0)"/>
      <use xlink:href="#DejaVuSans-32" transform="translate(1468.667969 0)"/>
      <use xlink:href="#DejaVuSans-30" transform="translate(1532.291016 0)"/>
      <use xlink:href="#DejaVuSans-30" transform="translate(1595.914062 0)"/>
      <use xlink:href="#DejaVuSans-20" transform="translate(1659.537109 0)"/>
      <use xlink:href="#DejaVuSans-48" transform="translate(1691.324219 0)"/>
      <use xlink:href="#DejaVuSans-7a" transform="translate(1766.519531 0)"/>
      <use xlink:href="#DejaVuSans-2c" transform="translate(1819.009766 0)"/>
      <use xlink:href="#DejaVuSans-20" transform="translate(1850.796875 0)"/>
      <use xlink:href="#DejaVuSans-3c4" transform="translate(1882.583984 0)"/>
      <use xlink:href="#DejaVuSans-3d" transform="translate(1942.789062 0)"/>
      <use xlink:href="#DejaVuSans-35" transform="translate(2026.578125 0)"/>
      <use xlink:href="#DejaVuSans-20" transform="translate(2090.201172 0)"/>
      <use xlink:href="#DejaVuSans-6d" transform="translate(2121.988281 0)"/>
      <use xlink:href="#DejaVuSans-73" transform="translate(2219.400391 0)"/>
      <use xlink:href="#DejaVuSans-29" transform="translate(2271.5 0)"/>
     </g>
    </g>
    <g id="line2d_56">
     <path d="M 477.151563 114.180062 
L 487.151563 114.180062 
L 497.151563 114.180062 
" style="fill: none; stroke: #2ca02c; stroke-width: 2; stroke-linecap: square"/>
    </g>
    <g id="text_30">
     <!-- Superheated vapor (ΔT=10 K) -->
     <g transform="translate(505.151563 117.680062) scale(0.1 -0.1)">
      <use xlink:href="#DejaVuSans-53"/>
      <use xlink:href="#DejaVuSans-75" transform="translate(63.476562 0)"/>
      <use xlink:href="#DejaVuSans-70" transform="translate(126.855469 0)"/>
      <use xlink:href="#DejaVuSans-65" transform="translate(190.332031 0)"/>
      <use xlink:href="#DejaVuSans-72" transform="translate(251.855469 0)"/>
      <use xlink:href="#DejaVuSans-68" transform="translate(291.21875 0)"/>
      <use xlink:href="#DejaVuSans-65" transform="translate(354.597656 0)"/>
      <use xlink:href="#DejaVuSans-61" transform="translate(416.121094 0)"/>
      <use xlink:href="#DejaVuSans-74" transform="translate(477.400391 0)"/>
      <use xlink:href="#DejaVuSans-65" transform="translate(516.609375 0)"/>
      <use xlink:href="#DejaVuSans-64" transform="translate(578.132812 0)"/>
      <use xlink:href="#DejaVuSans-20" transform="translate(641.609375 0)"/>
      <use xlink:href="#DejaVuSans-76" transform="translate(673.396484 0)"/>
      <use xlink:href="#DejaVuSans-61" transform="translate(732.576172 0)"/>
      <use xlink:href="#DejaVuSans-70" transform="translate(793.855469 0)"/>
      <use xlink:href="#DejaVuSans-6f" transform="translate(857.332031 0)"/>
      <use xlink:href="#DejaVuSans-72" transform="translate(918.513672 0)"/>
      <use xlink:href="#DejaVuSans-20" transform="translate(959.626953 0)"/>
      <use xlink:href="#DejaVuSans-28" transform="translate(991.414062 0)"/>
      <use xlink:href="#DejaVuSans-394" transform="translate(1030.427734 0)"/>
      <use xlink:href="#DejaVuSans-54" transform="translate(1098.835938 0)"/>
      <use xlink:href="#DejaVuSans-3d" transform="translate(1159.919922 0)"/>
      <use xlink:href="#DejaVuSans-31" transform="translate(1243.708984 0)"/>
      <use xlink:href="#DejaVuSans-30" transform="translate(1307.332031 0)"/>
      <use xlink:href="#DejaVuSans-20" transform="translate(1370.955078 0)"/>
      <use xlink:href="#DejaVuSans-4b" transform="translate(1402.742188 0)"/>
      <use xlink:href="#DejaVuSans-29" transform="translate(1468.318359 0)"/>
     </g>
    </g>
   </g>
  </g>
 </g>
 <defs>
  <clipPath id="pe47e617824">
   <rect x="50.87" y="42.04725" width="694.33" height="347.63275"/>
  </clipPath>
 </defs>
</svg>
