<?xml version="1.0" encoding="utf-8" standalone="no"?>
<!DOCTYPE svg PUBLIC "-//W3C//DTD SVG 1.1//EN"
  "http://www.w3.org/Graphics/SVG/1.1/DTD/svg11.dtd">
<svg xmlns:xlink="http://www.w3.org/1999/xlink" width="792pt" height="460.8pt" viewBox="0 0 792 460.8" xmlns="http://www.w3.org/2000/svg" version="1.1">
 <metadata>
  <rdf:RDF xmlns:dc="http://purl.org/dc/elements/1.1/" xmlns:cc="http://creativecommons.org/ns#" xmlns:rdf="http://www.w3.org/1999/02/22-rdf-syntax-ns#">
   <cc:Work>
    <dc:type rdf:resource="http://purl.org/dc/dcmitype/StillImage"/>
    <dc:date>2025-11-05T09:45:46.802291</dc:date>
    <dc:format>image/svg+xml</dc:format>
    <dc:creator>
     <cc:Agent>
      <dc:title>Matplotlib v3.10.1, https://matplotlib.org/</dc:title>
     </cc:Agent>
    </dc:creator>
   </cc:Work>
  </rdf:RDF>
 </metadata>
 <defs>
  <style type="text/css">*{stroke-linejoin: round; stroke-linecap: butt}</style>
 </defs>
 <g id="figure_1">
  <g id="patch_1">
   <path d="M 0 460.8 
L 792 460.8 
L 792 0 
L 0 0 
z
" style="fill: #ffffff"/>
  </g>
  <g id="axes_1">
   <g id="patch_2">
    <path d="M 50.87 418.48 
L 781.2 418.48 
L 781.2 42.04725 
L 50.87 42.04725 
z
" style="fill: #ffffff"/>
   </g>
   <g id="matplotlib.axis_1">
    <g id="xtick_1">
     <g id="line2d_1">
      <path d="M 84.066818 418.48 
L 84.066818 42.04725 
" clip-path="url(#p7c80767d5b)" style="fill: none; stroke-dasharray: 0.8,1.32; stroke-dashoffset: 0; stroke: #b0b0b0; stroke-opacity: 0.6; stroke-width: 0.8"/>
     </g>
     <g id="line2d_2">
      <defs>
       <path id="mb8e9c2dd2a" d="M 0 0 
L 0 3.5 
" style="stroke: #000000; stroke-width: 0.8"/>
      </defs>
      <g>
       <use xlink:href="#mb8e9c2dd2a" x="84.066818" y="418.48" style="stroke: #000000; stroke-width: 0.8"/>
      </g>
     </g>
     <g id="text_1">
      <!-- -2 -->
      <g transform="translate(79.081662 433.078438) scale(0.1 -0.1)">
       <defs>
        <path id="DejaVuSans-2d" d="M 313 2009 
L 1997 2009 
L 1997 1497 
L 313 1497 
L 313 2009 
z
" transform="scale(0.015625)"/>
        <path id="DejaVuSans-32" d="M 1228 531 
L 3431 531 
L 3431 0 
L 469 0 
L 469 531 
Q 828 903 1448 1529 
Q 2069 2156 2228 2338 
Q 2531 2678 2651 2914 
Q 2772 3150 2772 3378 
Q 2772 3750 2511 3984 
Q 2250 4219 1831 4219 
Q 1534 4219 1204 4116 
Q 875 4013 500 3803 
L 500 4441 
Q 881 4594 1212 4672 
Q 1544 4750 1819 4750 
Q 2544 4750 2975 4387 
Q 3406 4025 3406 3419 
Q 3406 3131 3298 2873 
Q 3191 2616 2906 2266 
Q 2828 2175 2409 1742 
Q 1991 1309 1228 531 
z
" transform="scale(0.015625)"/>
       </defs>
       <use xlink:href="#DejaVuSans-2d"/>
       <use xlink:href="#DejaVuSans-32" transform="translate(36.083984 0)"/>
      </g>
     </g>
    </g>
    <g id="xtick_2">
     <g id="line2d_3">
      <path d="M 104.81483 418.48 
L 104.81483 42.04725 
" clip-path="url(#p7c80767d5b)" style="fill: none; stroke-dasharray: 0.8,1.32; stroke-dashoffset: 0; stroke: #b0b0b0; stroke-opacity: 0.6; stroke-width: 0.8"/>
     </g>
     <g id="line2d_4">
      <g>
       <use xlink:href="#mb8e9c2dd2a" x="104.81483" y="418.48" style="stroke: #000000; stroke-width: 0.8"/>
      </g>
     </g>
     <g id="text_2">
      <!-- -1 -->
      <g transform="translate(99.829673 433.078438) scale(0.1 -0.1)">
       <defs>
        <path id="DejaVuSans-31" d="M 794 531 
L 1825 531 
L 1825 4091 
L 703 3866 
L 703 4441 
L 1819 4666 
L 2450 4666 
L 2450 531 
L 3481 531 
L 3481 0 
L 794 0 
L 794 531 
z
" transform="scale(0.015625)"/>
       </defs>
       <use xlink:href="#DejaVuSans-2d"/>
       <use xlink:href="#DejaVuSans-31" transform="translate(36.083984 0)"/>
      </g>
     </g>
    </g>
    <g id="xtick_3">
     <g id="line2d_5">
      <path d="M 125.562841 418.48 
L 125.562841 42.04725 
" clip-path="url(#p7c80767d5b)" style="fill: none; stroke-dasharray: 0.8,1.32; stroke-dashoffset: 0; stroke: #b0b0b0; stroke-opacity: 0.6; stroke-width: 0.8"/>
     </g>
     <g id="line2d_6">
      <g>
       <use xlink:href="#mb8e9c2dd2a" x="125.562841" y="418.48" style="stroke: #000000; stroke-width: 0.8"/>
      </g>
     </g>
     <g id="text_3">
      <!-- -1 -->
      <g transform="translate(120.577685 433.078438) scale(0.1 -0.1)">
       <use xlink:href="#DejaVuSans-2d"/>
       <use xlink:href="#DejaVuSans-31" transform="translate(36.083984 0)"/>
      </g>
     </g>
    </g>
    <g id="xtick_4">
     <g id="line2d_7">
      <path d="M 146.310852 418.48 
L 146.310852 42.04725 
" clip-path="url(#p7c80767d5b)" style="fill: none; stroke-dasharray: 0.8,1.32; stroke-dashoffset: 0; stroke: #b0b0b0; stroke-opacity: 0.6; stroke-width: 0.8"/>
     </g>
     <g id="line2d_8">
      <g>
       <use xlink:href="#mb8e9c2dd2a" x="146.310852" y="418.48" style="stroke: #000000; stroke-width: 0.8"/>
      </g>
     </g>
     <g id="text_4">
      <!-- 0 -->
      <g transform="translate(143.129602 433.078438) scale(0.1 -0.1)">
       <defs>
        <path id="DejaVuSans-30" d="M 2034 4250 
Q 1547 4250 1301 3770 
Q 1056 3291 1056 2328 
Q 1056 1369 1301 889 
Q 1547 409 2034 409 
Q 2525 409 2770 889 
Q 3016 1369 3016 2328 
Q 3016 3291 2770 3770 
Q 2525 4250 2034 4250 
z
M 2034 4750 
Q 2819 4750 3233 4129 
Q 3647 3509 3647 2328 
Q 3647 1150 3233 529 
Q 2819 -91 2034 -91 
Q 1250 -91 836 529 
Q 422 1150 422 2328 
Q 422 3509 836 4129 
Q 1250 4750 2034 4750 
z
" transform="scale(0.015625)"/>
       </defs>
       <use xlink:href="#DejaVuSans-30"/>
      </g>
     </g>
    </g>
    <g id="xtick_5">
     <g id="line2d_9">
      <path d="M 167.058864 418.48 
L 167.058864 42.04725 
" clip-path="url(#p7c80767d5b)" style="fill: none; stroke-dasharray: 0.8,1.32; stroke-dashoffset: 0; stroke: #b0b0b0; stroke-opacity: 0.6; stroke-width: 0.8"/>
     </g>
     <g id="line2d_10">
      <g>
       <use xlink:href="#mb8e9c2dd2a" x="167.058864" y="418.48" style="stroke: #000000; stroke-width: 0.8"/>
      </g>
     </g>
     <g id="text_5">
      <!-- Q=0 -->
      <g transform="translate(155.751832 433.078438) scale(0.1 -0.1)">
       <defs>
        <path id="DejaVuSans-51" d="M 2522 4238 
Q 1834 4238 1429 3725 
Q 1025 3213 1025 2328 
Q 1025 1447 1429 934 
Q 1834 422 2522 422 
Q 3209 422 3611 934 
Q 4013 1447 4013 2328 
Q 4013 3213 3611 3725 
Q 3209 4238 2522 4238 
z
M 3406 84 
L 4238 -825 
L 3475 -825 
L 2784 -78 
Q 2681 -84 2626 -87 
Q 2572 -91 2522 -91 
Q 1538 -91 948 567 
Q 359 1225 359 2328 
Q 359 3434 948 4092 
Q 1538 4750 2522 4750 
Q 3503 4750 4090 4092 
Q 4678 3434 4678 2328 
Q 4678 1516 4351 937 
Q 4025 359 3406 84 
z
" transform="scale(0.015625)"/>
        <path id="DejaVuSans-3d" d="M 678 2906 
L 4684 2906 
L 4684 2381 
L 678 2381 
L 678 2906 
z
M 678 1631 
L 4684 1631 
L 4684 1100 
L 678 1100 
L 678 1631 
z
" transform="scale(0.015625)"/>
       </defs>
       <use xlink:href="#DejaVuSans-51"/>
       <use xlink:href="#DejaVuSans-3d" transform="translate(78.710938 0)"/>
       <use xlink:href="#DejaVuSans-30" transform="translate(162.5 0)"/>
      </g>
     </g>
    </g>
    <g id="xtick_6">
     <g id="line2d_11">
      <path d="M 167.058864 418.48 
L 167.058864 42.04725 
" clip-path="url(#p7c80767d5b)" style="fill: none; stroke-dasharray: 0.8,1.32; stroke-dashoffset: 0; stroke: #b0b0b0; stroke-opacity: 0.6; stroke-width: 0.8"/>
     </g>
     <g id="line2d_12">
      <g>
       <use xlink:href="#mb8e9c2dd2a" x="167.058864" y="418.48" style="stroke: #000000; stroke-width: 0.8"/>
      </g>
     </g>
     <g id="text_6">
      <!-- Q=0 -->
      <g transform="translate(155.751832 433.078438) scale(0.1 -0.1)">
       <use xlink:href="#DejaVuSans-51"/>
       <use xlink:href="#DejaVuSans-3d" transform="translate(78.710938 0)"/>
       <use xlink:href="#DejaVuSans-30" transform="translate(162.5 0)"/>
      </g>
     </g>
    </g>
    <g id="xtick_7">
     <g id="line2d_13">
      <path d="M 291.546932 418.48 
L 291.546932 42.04725 
" clip-path="url(#p7c80767d5b)" style="fill: none; stroke-dasharray: 0.8,1.32; stroke-dashoffset: 0; stroke: #b0b0b0; stroke-opacity: 0.6; stroke-width: 0.8"/>
     </g>
     <g id="line2d_14">
      <g>
       <use xlink:href="#mb8e9c2dd2a" x="291.546932" y="418.48" style="stroke: #000000; stroke-width: 0.8"/>
      </g>
     </g>
     <g id="text_7">
      <!-- 0.25 -->
      <g transform="translate(280.414119 433.078438) scale(0.1 -0.1)">
       <defs>
        <path id="DejaVuSans-2e" d="M 684 794 
L 1344 794 
L 1344 0 
L 684 0 
L 684 794 
z
" transform="scale(0.015625)"/>
        <path id="DejaVuSans-35" d="M 691 4666 
L 3169 4666 
L 3169 4134 
L 1269 4134 
L 1269 2991 
Q 1406 3038 1543 3061 
Q 1681 3084 1819 3084 
Q 2600 3084 3056 2656 
Q 3513 2228 3513 1497 
Q 3513 744 3044 326 
Q 2575 -91 1722 -91 
Q 1428 -91 1123 -41 
Q 819 9 494 109 
L 494 744 
Q 775 591 1075 516 
Q 1375 441 1709 441 
Q 2250 441 2565 725 
Q 2881 1009 2881 1497 
Q 2881 1984 2565 2268 
Q 2250 2553 1709 2553 
Q 1456 2553 1204 2497 
Q 953 2441 691 2322 
L 691 4666 
z
" transform="scale(0.015625)"/>
       </defs>
       <use xlink:href="#DejaVuSans-30"/>
       <use xlink:href="#DejaVuSans-2e" transform="translate(63.623047 0)"/>
       <use xlink:href="#DejaVuSans-32" transform="translate(95.410156 0)"/>
       <use xlink:href="#DejaVuSans-35" transform="translate(159.033203 0)"/>
      </g>
     </g>
    </g>
    <g id="xtick_8">
     <g id="line2d_15">
      <path d="M 416.035 418.48 
L 416.035 42.04725 
" clip-path="url(#p7c80767d5b)" style="fill: none; stroke-dasharray: 0.8,1.32; stroke-dashoffset: 0; stroke: #b0b0b0; stroke-opacity: 0.6; stroke-width: 0.8"/>
     </g>
     <g id="line2d_16">
      <g>
       <use xlink:href="#mb8e9c2dd2a" x="416.035" y="418.48" style="stroke: #000000; stroke-width: 0.8"/>
      </g>
     </g>
     <g id="text_8">
      <!-- 0.5 -->
      <g transform="translate(408.083437 433.078438) scale(0.1 -0.1)">
       <use xlink:href="#DejaVuSans-30"/>
       <use xlink:href="#DejaVuSans-2e" transform="translate(63.623047 0)"/>
       <use xlink:href="#DejaVuSans-35" transform="translate(95.410156 0)"/>
      </g>
     </g>
    </g>
    <g id="xtick_9">
     <g id="line2d_17">
      <path d="M 540.523068 418.48 
L 540.523068 42.04725 
" clip-path="url(#p7c80767d5b)" style="fill: none; stroke-dasharray: 0.8,1.32; stroke-dashoffset: 0; stroke: #b0b0b0; stroke-opacity: 0.6; stroke-width: 0.8"/>
     </g>
     <g id="line2d_18">
      <g>
       <use xlink:href="#mb8e9c2dd2a" x="540.523068" y="418.48" style="stroke: #000000; stroke-width: 0.8"/>
      </g>
     </g>
     <g id="text_9">
      <!-- 0.75 -->
      <g transform="translate(529.390256 433.078438) scale(0.1 -0.1)">
       <defs>
        <path id="DejaVuSans-37" d="M 525 4666 
L 3525 4666 
L 3525 4397 
L 1831 0 
L 1172 0 
L 2766 4134 
L 525 4134 
L 525 4666 
z
" transform="scale(0.015625)"/>
       </defs>
       <use xlink:href="#DejaVuSans-30"/>
       <use xlink:href="#DejaVuSans-2e" transform="translate(63.623047 0)"/>
       <use xlink:href="#DejaVuSans-37" transform="translate(95.410156 0)"/>
       <use xlink:href="#DejaVuSans-35" transform="translate(159.033203 0)"/>
      </g>
     </g>
    </g>
    <g id="xtick_10">
     <g id="line2d_19">
      <path d="M 665.011136 418.48 
L 665.011136 42.04725 
" clip-path="url(#p7c80767d5b)" style="fill: none; stroke-dasharray: 0.8,1.32; stroke-dashoffset: 0; stroke: #b0b0b0; stroke-opacity: 0.6; stroke-width: 0.8"/>
     </g>
     <g id="line2d_20">
      <g>
       <use xlink:href="#mb8e9c2dd2a" x="665.011136" y="418.48" style="stroke: #000000; stroke-width: 0.8"/>
      </g>
     </g>
     <g id="text_10">
      <!-- 0 -->
      <g transform="translate(661.829886 433.078438) scale(0.1 -0.1)">
       <use xlink:href="#DejaVuSans-30"/>
      </g>
     </g>
    </g>
    <g id="xtick_11">
     <g id="line2d_21">
      <path d="M 665.011136 418.48 
L 665.011136 42.04725 
" clip-path="url(#p7c80767d5b)" style="fill: none; stroke-dasharray: 0.8,1.32; stroke-dashoffset: 0; stroke: #b0b0b0; stroke-opacity: 0.6; stroke-width: 0.8"/>
     </g>
     <g id="line2d_22">
      <g>
       <use xlink:href="#mb8e9c2dd2a" x="665.011136" y="418.48" style="stroke: #000000; stroke-width: 0.8"/>
      </g>
     </g>
     <g id="text_11">
      <!-- 0 -->
      <g transform="translate(661.829886 433.078438) scale(0.1 -0.1)">
       <use xlink:href="#DejaVuSans-30"/>
      </g>
     </g>
    </g>
    <g id="xtick_12">
     <g id="line2d_23">
      <path d="M 685.759148 418.48 
L 685.759148 42.04725 
" clip-path="url(#p7c80767d5b)" style="fill: none; stroke-dasharray: 0.8,1.32; stroke-dashoffset: 0; stroke: #b0b0b0; stroke-opacity: 0.6; stroke-width: 0.8"/>
     </g>
     <g id="line2d_24">
      <g>
       <use xlink:href="#mb8e9c2dd2a" x="685.759148" y="418.48" style="stroke: #000000; stroke-width: 0.8"/>
      </g>
     </g>
     <g id="text_12">
      <!-- 1 -->
      <g transform="translate(682.577898 433.078438) scale(0.1 -0.1)">
       <use xlink:href="#DejaVuSans-31"/>
      </g>
     </g>
    </g>
    <g id="xtick_13">
     <g id="line2d_25">
      <path d="M 706.507159 418.48 
L 706.507159 42.04725 
" clip-path="url(#p7c80767d5b)" style="fill: none; stroke-dasharray: 0.8,1.32; stroke-dashoffset: 0; stroke: #b0b0b0; stroke-opacity: 0.6; stroke-width: 0.8"/>
     </g>
     <g id="line2d_26">
      <g>
       <use xlink:href="#mb8e9c2dd2a" x="706.507159" y="418.48" style="stroke: #000000; stroke-width: 0.8"/>
      </g>
     </g>
     <g id="text_13">
      <!-- 2 -->
      <g transform="translate(703.325909 433.078438) scale(0.1 -0.1)">
       <use xlink:href="#DejaVuSans-32"/>
      </g>
     </g>
    </g>
    <g id="xtick_14">
     <g id="line2d_27">
      <path d="M 727.25517 418.48 
L 727.25517 42.04725 
" clip-path="url(#p7c80767d5b)" style="fill: none; stroke-dasharray: 0.8,1.32; stroke-dashoffset: 0; stroke: #b0b0b0; stroke-opacity: 0.6; stroke-width: 0.8"/>
     </g>
     <g id="line2d_28">
      <g>
       <use xlink:href="#mb8e9c2dd2a" x="727.25517" y="418.48" style="stroke: #000000; stroke-width: 0.8"/>
      </g>
     </g>
     <g id="text_14">
      <!-- 3 -->
      <g transform="translate(724.07392 433.078438) scale(0.1 -0.1)">
       <defs>
        <path id="DejaVuSans-33" d="M 2597 2516 
Q 3050 2419 3304 2112 
Q 3559 1806 3559 1356 
Q 3559 666 3084 287 
Q 2609 -91 1734 -91 
Q 1441 -91 1130 -33 
Q 819 25 488 141 
L 488 750 
Q 750 597 1062 519 
Q 1375 441 1716 441 
Q 2309 441 2620 675 
Q 2931 909 2931 1356 
Q 2931 1769 2642 2001 
Q 2353 2234 1838 2234 
L 1294 2234 
L 1294 2753 
L 1863 2753 
Q 2328 2753 2575 2939 
Q 2822 3125 2822 3475 
Q 2822 3834 2567 4026 
Q 2313 4219 1838 4219 
Q 1578 4219 1281 4162 
Q 984 4106 628 3988 
L 628 4550 
Q 988 4650 1302 4700 
Q 1616 4750 1894 4750 
Q 2613 4750 3031 4423 
Q 3450 4097 3450 3541 
Q 3450 3153 3228 2886 
Q 3006 2619 2597 2516 
z
" transform="scale(0.015625)"/>
       </defs>
       <use xlink:href="#DejaVuSans-33"/>
      </g>
     </g>
    </g>
    <g id="xtick_15">
     <g id="line2d_29">
      <path d="M 748.003182 418.48 
L 748.003182 42.04725 
" clip-path="url(#p7c80767d5b)" style="fill: none; stroke-dasharray: 0.8,1.32; stroke-dashoffset: 0; stroke: #b0b0b0; stroke-opacity: 0.6; stroke-width: 0.8"/>
     </g>
     <g id="line2d_30">
      <g>
       <use xlink:href="#mb8e9c2dd2a" x="748.003182" y="418.48" style="stroke: #000000; stroke-width: 0.8"/>
      </g>
     </g>
     <g id="text_15">
      <!-- 5 -->
      <g transform="translate(744.821932 433.078438) scale(0.1 -0.1)">
       <use xlink:href="#DejaVuSans-35"/>
      </g>
     </g>
    </g>
    <g id="text_16">
     <!-- Left: Subcooling ΔT [K] (compressed)   |   Middle: Quality Q (extended)   |   Right: Superheat ΔT [K] (compressed) -->
     <g transform="translate(133.574844 446.800313) scale(0.1 -0.1)">
      <defs>
       <path id="DejaVuSans-4c" d="M 628 4666 
L 1259 4666 
L 1259 531 
L 3531 531 
L 3531 0 
L 628 0 
L 628 4666 
z
" transform="scale(0.015625)"/>
       <path id="DejaVuSans-65" d="M 3597 1894 
L 3597 1613 
L 953 1613 
Q 991 1019 1311 708 
Q 1631 397 2203 397 
Q 2534 397 2845 478 
Q 3156 559 3463 722 
L 3463 178 
Q 3153 47 2828 -22 
Q 2503 -91 2169 -91 
Q 1331 -91 842 396 
Q 353 884 353 1716 
Q 353 2575 817 3079 
Q 1281 3584 2069 3584 
Q 2775 3584 3186 3129 
Q 3597 2675 3597 1894 
z
M 3022 2063 
Q 3016 2534 2758 2815 
Q 2500 3097 2075 3097 
Q 1594 3097 1305 2825 
Q 1016 2553 972 2059 
L 3022 2063 
z
" transform="scale(0.015625)"/>
       <path id="DejaVuSans-66" d="M 2375 4863 
L 2375 4384 
L 1825 4384 
Q 1516 4384 1395 4259 
Q 1275 4134 1275 3809 
L 1275 3500 
L 2222 3500 
L 2222 3053 
L 1275 3053 
L 1275 0 
L 697 0 
L 697 3053 
L 147 3053 
L 147 3500 
L 697 3500 
L 697 3744 
Q 697 4328 969 4595 
Q 1241 4863 1831 4863 
L 2375 4863 
z
" transform="scale(0.015625)"/>
       <path id="DejaVuSans-74" d="M 1172 4494 
L 1172 3500 
L 2356 3500 
L 2356 3053 
L 1172 3053 
L 1172 1153 
Q 1172 725 1289 603 
Q 1406 481 1766 481 
L 2356 481 
L 2356 0 
L 1766 0 
Q 1100 0 847 248 
Q 594 497 594 1153 
L 594 3053 
L 172 3053 
L 172 3500 
L 594 3500 
L 594 4494 
L 1172 4494 
z
" transform="scale(0.015625)"/>
       <path id="DejaVuSans-3a" d="M 750 794 
L 1409 794 
L 1409 0 
L 750 0 
L 750 794 
z
M 750 3309 
L 1409 3309 
L 1409 2516 
L 750 2516 
L 750 3309 
z
" transform="scale(0.015625)"/>
       <path id="DejaVuSans-20" transform="scale(0.015625)"/>
       <path id="DejaVuSans-53" d="M 3425 4513 
L 3425 3897 
Q 3066 4069 2747 4153 
Q 2428 4238 2131 4238 
Q 1616 4238 1336 4038 
Q 1056 3838 1056 3469 
Q 1056 3159 1242 3001 
Q 1428 2844 1947 2747 
L 2328 2669 
Q 3034 2534 3370 2195 
Q 3706 1856 3706 1288 
Q 3706 609 3251 259 
Q 2797 -91 1919 -91 
Q 1588 -91 1214 -16 
Q 841 59 441 206 
L 441 856 
Q 825 641 1194 531 
Q 1563 422 1919 422 
Q 2459 422 2753 634 
Q 3047 847 3047 1241 
Q 3047 1584 2836 1778 
Q 2625 1972 2144 2069 
L 1759 2144 
Q 1053 2284 737 2584 
Q 422 2884 422 3419 
Q 422 4038 858 4394 
Q 1294 4750 2059 4750 
Q 2388 4750 2728 4690 
Q 3069 4631 3425 4513 
z
" transform="scale(0.015625)"/>
       <path id="DejaVuSans-75" d="M 544 1381 
L 544 3500 
L 1119 3500 
L 1119 1403 
Q 1119 906 1312 657 
Q 1506 409 1894 409 
Q 2359 409 2629 706 
Q 2900 1003 2900 1516 
L 2900 3500 
L 3475 3500 
L 3475 0 
L 2900 0 
L 2900 538 
Q 2691 219 2414 64 
Q 2138 -91 1772 -91 
Q 1169 -91 856 284 
Q 544 659 544 1381 
z
M 1991 3584 
L 1991 3584 
z
" transform="scale(0.015625)"/>
       <path id="DejaVuSans-62" d="M 3116 1747 
Q 3116 2381 2855 2742 
Q 2594 3103 2138 3103 
Q 1681 3103 1420 2742 
Q 1159 2381 1159 1747 
Q 1159 1113 1420 752 
Q 1681 391 2138 391 
Q 2594 391 2855 752 
Q 3116 1113 3116 1747 
z
M 1159 2969 
Q 1341 3281 1617 3432 
Q 1894 3584 2278 3584 
Q 2916 3584 3314 3078 
Q 3713 2572 3713 1747 
Q 3713 922 3314 415 
Q 2916 -91 2278 -91 
Q 1894 -91 1617 61 
Q 1341 213 1159 525 
L 1159 0 
L 581 0 
L 581 4863 
L 1159 4863 
L 1159 2969 
z
" transform="scale(0.015625)"/>
       <path id="DejaVuSans-63" d="M 3122 3366 
L 3122 2828 
Q 2878 2963 2633 3030 
Q 2388 3097 2138 3097 
Q 1578 3097 1268 2742 
Q 959 2388 959 1747 
Q 959 1106 1268 751 
Q 1578 397 2138 397 
Q 2388 397 2633 464 
Q 2878 531 3122 666 
L 3122 134 
Q 2881 22 2623 -34 
Q 2366 -91 2075 -91 
Q 1284 -91 818 406 
Q 353 903 353 1747 
Q 353 2603 823 3093 
Q 1294 3584 2113 3584 
Q 2378 3584 2631 3529 
Q 2884 3475 3122 3366 
z
" transform="scale(0.015625)"/>
       <path id="DejaVuSans-6f" d="M 1959 3097 
Q 1497 3097 1228 2736 
Q 959 2375 959 1747 
Q 959 1119 1226 758 
Q 1494 397 1959 397 
Q 2419 397 2687 759 
Q 2956 1122 2956 1747 
Q 2956 2369 2687 2733 
Q 2419 3097 1959 3097 
z
M 1959 3584 
Q 2709 3584 3137 3096 
Q 3566 2609 3566 1747 
Q 3566 888 3137 398 
Q 2709 -91 1959 -91 
Q 1206 -91 779 398 
Q 353 888 353 1747 
Q 353 2609 779 3096 
Q 1206 3584 1959 3584 
z
" transform="scale(0.015625)"/>
       <path id="DejaVuSans-6c" d="M 603 4863 
L 1178 4863 
L 1178 0 
L 603 0 
L 603 4863 
z
" transform="scale(0.015625)"/>
       <path id="DejaVuSans-69" d="M 603 3500 
L 1178 3500 
L 1178 0 
L 603 0 
L 603 3500 
z
M 603 4863 
L 1178 4863 
L 1178 4134 
L 603 4134 
L 603 4863 
z
" transform="scale(0.015625)"/>
       <path id="DejaVuSans-6e" d="M 3513 2113 
L 3513 0 
L 2938 0 
L 2938 2094 
Q 2938 2591 2744 2837 
Q 2550 3084 2163 3084 
Q 1697 3084 1428 2787 
Q 1159 2491 1159 1978 
L 1159 0 
L 581 0 
L 581 3500 
L 1159 3500 
L 1159 2956 
Q 1366 3272 1645 3428 
Q 1925 3584 2291 3584 
Q 2894 3584 3203 3211 
Q 3513 2838 3513 2113 
z
" transform="scale(0.015625)"/>
       <path id="DejaVuSans-67" d="M 2906 1791 
Q 2906 2416 2648 2759 
Q 2391 3103 1925 3103 
Q 1463 3103 1205 2759 
Q 947 2416 947 1791 
Q 947 1169 1205 825 
Q 1463 481 1925 481 
Q 2391 481 2648 825 
Q 2906 1169 2906 1791 
z
M 3481 434 
Q 3481 -459 3084 -895 
Q 2688 -1331 1869 -1331 
Q 1566 -1331 1297 -1286 
Q 1028 -1241 775 -1147 
L 775 -588 
Q 1028 -725 1275 -790 
Q 1522 -856 1778 -856 
Q 2344 -856 2625 -561 
Q 2906 -266 2906 331 
L 2906 616 
Q 2728 306 2450 153 
Q 2172 0 1784 0 
Q 1141 0 747 490 
Q 353 981 353 1791 
Q 353 2603 747 3093 
Q 1141 3584 1784 3584 
Q 2172 3584 2450 3431 
Q 2728 3278 2906 2969 
L 2906 3500 
L 3481 3500 
L 3481 434 
z
" transform="scale(0.015625)"/>
       <path id="DejaVuSans-394" d="M 2188 4044 
L 906 525 
L 3472 525 
L 2188 4044 
z
M 50 0 
L 1831 4666 
L 2547 4666 
L 4325 0 
L 50 0 
z
" transform="scale(0.015625)"/>
       <path id="DejaVuSans-54" d="M -19 4666 
L 3928 4666 
L 3928 4134 
L 2272 4134 
L 2272 0 
L 1638 0 
L 1638 4134 
L -19 4134 
L -19 4666 
z
" transform="scale(0.015625)"/>
       <path id="DejaVuSans-5b" d="M 550 4863 
L 1875 4863 
L 1875 4416 
L 1125 4416 
L 1125 -397 
L 1875 -397 
L 1875 -844 
L 550 -844 
L 550 4863 
z
" transform="scale(0.015625)"/>
       <path id="DejaVuSans-4b" d="M 628 4666 
L 1259 4666 
L 1259 2694 
L 3353 4666 
L 4166 4666 
L 1850 2491 
L 4331 0 
L 3500 0 
L 1259 2247 
L 1259 0 
L 628 0 
L 628 4666 
z
" transform="scale(0.015625)"/>
       <path id="DejaVuSans-5d" d="M 1947 4863 
L 1947 -844 
L 622 -844 
L 622 -397 
L 1369 -397 
L 1369 4416 
L 622 4416 
L 622 4863 
L 1947 4863 
z
" transform="scale(0.015625)"/>
       <path id="DejaVuSans-28" d="M 1984 4856 
Q 1566 4138 1362 3434 
Q 1159 2731 1159 2009 
Q 1159 1288 1364 580 
Q 1569 -128 1984 -844 
L 1484 -844 
Q 1016 -109 783 600 
Q 550 1309 550 2009 
Q 550 2706 781 3412 
Q 1013 4119 1484 4856 
L 1984 4856 
z
" transform="scale(0.015625)"/>
       <path id="DejaVuSans-6d" d="M 3328 2828 
Q 3544 3216 3844 3400 
Q 4144 3584 4550 3584 
Q 5097 3584 5394 3201 
Q 5691 2819 5691 2113 
L 5691 0 
L 5113 0 
L 5113 2094 
Q 5113 2597 4934 2840 
Q 4756 3084 4391 3084 
Q 3944 3084 3684 2787 
Q 3425 2491 3425 1978 
L 3425 0 
L 2847 0 
L 2847 2094 
Q 2847 2600 2669 2842 
Q 2491 3084 2119 3084 
Q 1678 3084 1418 2786 
Q 1159 2488 1159 1978 
L 1159 0 
L 581 0 
L 581 3500 
L 1159 3500 
L 1159 2956 
Q 1356 3278 1631 3431 
Q 1906 3584 2284 3584 
Q 2666 3584 2933 3390 
Q 3200 3197 3328 2828 
z
" transform="scale(0.015625)"/>
       <path id="DejaVuSans-70" d="M 1159 525 
L 1159 -1331 
L 581 -1331 
L 581 3500 
L 1159 3500 
L 1159 2969 
Q 1341 3281 1617 3432 
Q 1894 3584 2278 3584 
Q 2916 3584 3314 3078 
Q 3713 2572 3713 1747 
Q 3713 922 3314 415 
Q 2916 -91 2278 -91 
Q 1894 -91 1617 61 
Q 1341 213 1159 525 
z
M 3116 1747 
Q 3116 2381 2855 2742 
Q 2594 3103 2138 3103 
Q 1681 3103 1420 2742 
Q 1159 2381 1159 1747 
Q 1159 1113 1420 752 
Q 1681 391 2138 391 
Q 2594 391 2855 752 
Q 3116 1113 3116 1747 
z
" transform="scale(0.015625)"/>
       <path id="DejaVuSans-72" d="M 2631 2963 
Q 2534 3019 2420 3045 
Q 2306 3072 2169 3072 
Q 1681 3072 1420 2755 
Q 1159 2438 1159 1844 
L 1159 0 
L 581 0 
L 581 3500 
L 1159 3500 
L 1159 2956 
Q 1341 3275 1631 3429 
Q 1922 3584 2338 3584 
Q 2397 3584 2469 3576 
Q 2541 3569 2628 3553 
L 2631 2963 
z
" transform="scale(0.015625)"/>
       <path id="DejaVuSans-73" d="M 2834 3397 
L 2834 2853 
Q 2591 2978 2328 3040 
Q 2066 3103 1784 3103 
Q 1356 3103 1142 2972 
Q 928 2841 928 2578 
Q 928 2378 1081 2264 
Q 1234 2150 1697 2047 
L 1894 2003 
Q 2506 1872 2764 1633 
Q 3022 1394 3022 966 
Q 3022 478 2636 193 
Q 2250 -91 1575 -91 
Q 1294 -91 989 -36 
Q 684 19 347 128 
L 347 722 
Q 666 556 975 473 
Q 1284 391 1588 391 
Q 1994 391 2212 530 
Q 2431 669 2431 922 
Q 2431 1156 2273 1281 
Q 2116 1406 1581 1522 
L 1381 1569 
Q 847 1681 609 1914 
Q 372 2147 372 2553 
Q 372 3047 722 3315 
Q 1072 3584 1716 3584 
Q 2034 3584 2315 3537 
Q 2597 3491 2834 3397 
z
" transform="scale(0.015625)"/>
       <path id="DejaVuSans-64" d="M 2906 2969 
L 2906 4863 
L 3481 4863 
L 3481 0 
L 2906 0 
L 2906 525 
Q 2725 213 2448 61 
Q 2172 -91 1784 -91 
Q 1150 -91 751 415 
Q 353 922 353 1747 
Q 353 2572 751 3078 
Q 1150 3584 1784 3584 
Q 2172 3584 2448 3432 
Q 2725 3281 2906 2969 
z
M 947 1747 
Q 947 1113 1208 752 
Q 1469 391 1925 391 
Q 2381 391 2643 752 
Q 2906 1113 2906 1747 
Q 2906 2381 2643 2742 
Q 2381 3103 1925 3103 
Q 1469 3103 1208 2742 
Q 947 2381 947 1747 
z
" transform="scale(0.015625)"/>
       <path id="DejaVuSans-29" d="M 513 4856 
L 1013 4856 
Q 1481 4119 1714 3412 
Q 1947 2706 1947 2009 
Q 1947 1309 1714 600 
Q 1481 -109 1013 -844 
L 513 -844 
Q 928 -128 1133 580 
Q 1338 1288 1338 2009 
Q 1338 2731 1133 3434 
Q 928 4138 513 4856 
z
" transform="scale(0.015625)"/>
       <path id="DejaVuSans-7c" d="M 1344 4891 
L 1344 -1509 
L 813 -1509 
L 813 4891 
L 1344 4891 
z
" transform="scale(0.015625)"/>
       <path id="DejaVuSans-4d" d="M 628 4666 
L 1569 4666 
L 2759 1491 
L 3956 4666 
L 4897 4666 
L 4897 0 
L 4281 0 
L 4281 4097 
L 3078 897 
L 2444 897 
L 1241 4097 
L 1241 0 
L 628 0 
L 628 4666 
z
" transform="scale(0.015625)"/>
       <path id="DejaVuSans-61" d="M 2194 1759 
Q 1497 1759 1228 1600 
Q 959 1441 959 1056 
Q 959 750 1161 570 
Q 1363 391 1709 391 
Q 2188 391 2477 730 
Q 2766 1069 2766 1631 
L 2766 1759 
L 2194 1759 
z
M 3341 1997 
L 3341 0 
L 2766 0 
L 2766 531 
Q 2569 213 2275 61 
Q 1981 -91 1556 -91 
Q 1019 -91 701 211 
Q 384 513 384 1019 
Q 384 1609 779 1909 
Q 1175 2209 1959 2209 
L 2766 2209 
L 2766 2266 
Q 2766 2663 2505 2880 
Q 2244 3097 1772 3097 
Q 1472 3097 1187 3025 
Q 903 2953 641 2809 
L 641 3341 
Q 956 3463 1253 3523 
Q 1550 3584 1831 3584 
Q 2591 3584 2966 3190 
Q 3341 2797 3341 1997 
z
" transform="scale(0.015625)"/>
       <path id="DejaVuSans-79" d="M 2059 -325 
Q 1816 -950 1584 -1140 
Q 1353 -1331 966 -1331 
L 506 -1331 
L 506 -850 
L 844 -850 
Q 1081 -850 1212 -737 
Q 1344 -625 1503 -206 
L 1606 56 
L 191 3500 
L 800 3500 
L 1894 763 
L 2988 3500 
L 3597 3500 
L 2059 -325 
z
" transform="scale(0.015625)"/>
       <path id="DejaVuSans-78" d="M 3513 3500 
L 2247 1797 
L 3578 0 
L 2900 0 
L 1881 1375 
L 863 0 
L 184 0 
L 1544 1831 
L 300 3500 
L 978 3500 
L 1906 2253 
L 2834 3500 
L 3513 3500 
z
" transform="scale(0.015625)"/>
       <path id="DejaVuSans-52" d="M 2841 2188 
Q 3044 2119 3236 1894 
Q 3428 1669 3622 1275 
L 4263 0 
L 3584 0 
L 2988 1197 
Q 2756 1666 2539 1819 
Q 2322 1972 1947 1972 
L 1259 1972 
L 1259 0 
L 628 0 
L 628 4666 
L 2053 4666 
Q 2853 4666 3247 4331 
Q 3641 3997 3641 3322 
Q 3641 2881 3436 2590 
Q 3231 2300 2841 2188 
z
M 1259 4147 
L 1259 2491 
L 2053 2491 
Q 2509 2491 2742 2702 
Q 2975 2913 2975 3322 
Q 2975 3731 2742 3939 
Q 2509 4147 2053 4147 
L 1259 4147 
z
" transform="scale(0.015625)"/>
       <path id="DejaVuSans-68" d="M 3513 2113 
L 3513 0 
L 2938 0 
L 2938 2094 
Q 2938 2591 2744 2837 
Q 2550 3084 2163 3084 
Q 1697 3084 1428 2787 
Q 1159 2491 1159 1978 
L 1159 0 
L 581 0 
L 581 4863 
L 1159 4863 
L 1159 2956 
Q 1366 3272 1645 3428 
Q 1925 3584 2291 3584 
Q 2894 3584 3203 3211 
Q 3513 2838 3513 2113 
z
" transform="scale(0.015625)"/>
      </defs>
      <use xlink:href="#DejaVuSans-4c"/>
      <use xlink:href="#DejaVuSans-65" transform="translate(53.962891 0)"/>
      <use xlink:href="#DejaVuSans-66" transform="translate(115.486328 0)"/>
      <use xlink:href="#DejaVuSans-74" transform="translate(148.941406 0)"/>
      <use xlink:href="#DejaVuSans-3a" transform="translate(188.150391 0)"/>
      <use xlink:href="#DejaVuSans-20" transform="translate(221.841797 0)"/>
      <use xlink:href="#DejaVuSans-53" transform="translate(253.628906 0)"/>
      <use xlink:href="#DejaVuSans-75" transform="translate(317.105469 0)"/>
      <use xlink:href="#DejaVuSans-62" transform="translate(380.484375 0)"/>
      <use xlink:href="#DejaVuSans-63" transform="translate(443.960938 0)"/>
      <use xlink:href="#DejaVuSans-6f" transform="translate(498.941406 0)"/>
      <use xlink:href="#DejaVuSans-6f" transform="translate(560.123047 0)"/>
      <use xlink:href="#DejaVuSans-6c" transform="translate(621.304688 0)"/>
      <use xlink:href="#DejaVuSans-69" transform="translate(649.087891 0)"/>
      <use xlink:href="#DejaVuSans-6e" transform="translate(676.871094 0)"/>
      <use xlink:href="#DejaVuSans-67" transform="translate(740.25 0)"/>
      <use xlink:href="#DejaVuSans-20" transform="translate(803.726562 0)"/>
      <use xlink:href="#DejaVuSans-394" transform="translate(835.513672 0)"/>
      <use xlink:href="#DejaVuSans-54" transform="translate(903.921875 0)"/>
      <use xlink:href="#DejaVuSans-20" transform="translate(965.005859 0)"/>
      <use xlink:href="#DejaVuSans-5b" transform="translate(996.792969 0)"/>
      <use xlink:href="#DejaVuSans-4b" transform="translate(1035.806641 0)"/>
      <use xlink:href="#DejaVuSans-5d" transform="translate(1101.382812 0)"/>
      <use xlink:href="#DejaVuSans-20" transform="translate(1140.396484 0)"/>
      <use xlink:href="#DejaVuSans-28" transform="translate(1172.183594 0)"/>
      <use xlink:href="#DejaVuSans-63" transform="translate(1211.197266 0)"/>
      <use xlink:href="#DejaVuSans-6f" transform="translate(1266.177734 0)"/>
      <use xlink:href="#DejaVuSans-6d" transform="translate(1327.359375 0)"/>
      <use xlink:href="#DejaVuSans-70" transform="translate(1424.771484 0)"/>
      <use xlink:href="#DejaVuSans-72" transform="translate(1488.248047 0)"/>
      <use xlink:href="#DejaVuSans-65" transform="translate(1527.111328 0)"/>
      <use xlink:href="#DejaVuSans-73" transform="translate(1588.634766 0)"/>
      <use xlink:href="#DejaVuSans-73" transform="translate(1640.734375 0)"/>
      <use xlink:href="#DejaVuSans-65" transform="translate(1692.833984 0)"/>
      <use xlink:href="#DejaVuSans-64" transform="translate(1754.357422 0)"/>
      <use xlink:href="#DejaVuSans-29" transform="translate(1817.833984 0)"/>
      <use xlink:href="#DejaVuSans-20" transform="translate(1856.847656 0)"/>
      <use xlink:href="#DejaVuSans-20" transform="translate(1888.634766 0)"/>
      <use xlink:href="#DejaVuSans-20" transform="translate(1920.421875 0)"/>
      <use xlink:href="#DejaVuSans-7c" transform="translate(1952.208984 0)"/>
      <use xlink:href="#DejaVuSans-20" transform="translate(1985.900391 0)"/>
      <use xlink:href="#DejaVuSans-20" transform="translate(2017.6875 0)"/>
      <use xlink:href="#DejaVuSans-20" transform="translate(2049.474609 0)"/>
      <use xlink:href="#DejaVuSans-4d" transform="translate(2081.261719 0)"/>
      <use xlink:href="#DejaVuSans-69" transform="translate(2167.541016 0)"/>
      <use xlink:href="#DejaVuSans-64" transform="translate(2195.324219 0)"/>
      <use xlink:href="#DejaVuSans-64" transform="translate(2258.800781 0)"/>
      <use xlink:href="#DejaVuSans-6c" transform="translate(2322.277344 0)"/>
      <use xlink:href="#DejaVuSans-65" transform="translate(2350.060547 0)"/>
      <use xlink:href="#DejaVuSans-3a" transform="translate(2411.583984 0)"/>
      <use xlink:href="#DejaVuSans-20" transform="translate(2445.275391 0)"/>
      <use xlink:href="#DejaVuSans-51" transform="translate(2477.0625 0)"/>
      <use xlink:href="#DejaVuSans-75" transform="translate(2555.773438 0)"/>
      <use xlink:href="#DejaVuSans-61" transform="translate(2619.152344 0)"/>
      <use xlink:href="#DejaVuSans-6c" transform="translate(2680.431641 0)"/>
      <use xlink:href="#DejaVuSans-69" transform="translate(2708.214844 0)"/>
      <use xlink:href="#DejaVuSans-74" transform="translate(2735.998047 0)"/>
      <use xlink:href="#DejaVuSans-79" transform="translate(2775.207031 0)"/>
      <use xlink:href="#DejaVuSans-20" transform="translate(2834.386719 0)"/>
      <use xlink:href="#DejaVuSans-51" transform="translate(2866.173828 0)"/>
      <use xlink:href="#DejaVuSans-20" transform="translate(2944.884766 0)"/>
      <use xlink:href="#DejaVuSans-28" transform="translate(2976.671875 0)"/>
      <use xlink:href="#DejaVuSans-65" transform="translate(3015.685547 0)"/>
      <use xlink:href="#DejaVuSans-78" transform="translate(3075.458984 0)"/>
      <use xlink:href="#DejaVuSans-74" transform="translate(3134.638672 0)"/>
      <use xlink:href="#DejaVuSans-65" transform="translate(3173.847656 0)"/>
      <use xlink:href="#DejaVuSans-6e" transform="translate(3235.371094 0)"/>
      <use xlink:href="#DejaVuSans-64" transform="translate(3298.75 0)"/>
      <use xlink:href="#DejaVuSans-65" transform="translate(3362.226562 0)"/>
      <use xlink:href="#DejaVuSans-64" transform="translate(3423.75 0)"/>
      <use xlink:href="#DejaVuSans-29" transform="translate(3487.226562 0)"/>
      <use xlink:href="#DejaVuSans-20" transform="translate(3526.240234 0)"/>
      <use xlink:href="#DejaVuSans-20" transform="translate(3558.027344 0)"/>
      <use xlink:href="#DejaVuSans-20" transform="translate(3589.814453 0)"/>
      <use xlink:href="#DejaVuSans-7c" transform="translate(3621.601562 0)"/>
      <use xlink:href="#DejaVuSans-20" transform="translate(3655.292969 0)"/>
      <use xlink:href="#DejaVuSans-20" transform="translate(3687.080078 0)"/>
      <use xlink:href="#DejaVuSans-20" transform="translate(3718.867188 0)"/>
      <use xlink:href="#DejaVuSans-52" transform="translate(3750.654297 0)"/>
      <use xlink:href="#DejaVuSans-69" transform="translate(3820.136719 0)"/>
      <use xlink:href="#DejaVuSans-67" transform="translate(3847.919922 0)"/>
      <use xlink:href="#DejaVuSans-68" transform="translate(3911.396484 0)"/>
      <use xlink:href="#DejaVuSans-74" transform="translate(3974.775391 0)"/>
      <use xlink:href="#DejaVuSans-3a" transform="translate(4013.984375 0)"/>
      <use xlink:href="#DejaVuSans-20" transform="translate(4047.675781 0)"/>
      <use xlink:href="#DejaVuSans-53" transform="translate(4079.462891 0)"/>
      <use xlink:href="#DejaVuSans-75" transform="translate(4142.939453 0)"/>
      <use xlink:href="#DejaVuSans-70" transform="translate(4206.318359 0)"/>
      <use xlink:href="#DejaVuSans-65" transform="translate(4269.794922 0)"/>
      <use xlink:href="#DejaVuSans-72" transform="translate(4331.318359 0)"/>
      <use xlink:href="#DejaVuSans-68" transform="translate(4370.681641 0)"/>
      <use xlink:href="#DejaVuSans-65" transform="translate(4434.060547 0)"/>
      <use xlink:href="#DejaVuSans-61" transform="translate(4495.583984 0)"/>
      <use xlink:href="#DejaVuSans-74" transform="translate(4556.863281 0)"/>
      <use xlink:href="#DejaVuSans-20" transform="translate(4596.072266 0)"/>
      <use xlink:href="#DejaVuSans-394" transform="translate(4627.859375 0)"/>
      <use xlink:href="#DejaVuSans-54" transform="translate(4696.267578 0)"/>
      <use xlink:href="#DejaVuSans-20" transform="translate(4757.351562 0)"/>
      <use xlink:href="#DejaVuSans-5b" transform="translate(4789.138672 0)"/>
      <use xlink:href="#DejaVuSans-4b" transform="translate(4828.152344 0)"/>
      <use xlink:href="#DejaVuSans-5d" transform="translate(4893.728516 0)"/>
      <use xlink:href="#DejaVuSans-20" transform="translate(4932.742188 0)"/>
      <use xlink:href="#DejaVuSans-28" transform="translate(4964.529297 0)"/>
      <use xlink:href="#DejaVuSans-63" transform="translate(5003.542969 0)"/>
      <use xlink:href="#DejaVuSans-6f" transform="translate(5058.523438 0)"/>
      <use xlink:href="#DejaVuSans-6d" transform="translate(5119.705078 0)"/>
      <use xlink:href="#DejaVuSans-70" transform="translate(5217.117188 0)"/>
      <use xlink:href="#DejaVuSans-72" transform="translate(5280.59375 0)"/>
      <use xlink:href="#DejaVuSans-65" transform="translate(5319.457031 0)"/>
      <use xlink:href="#DejaVuSans-73" transform="translate(5380.980469 0)"/>
      <use xlink:href="#DejaVuSans-73" transform="translate(5433.080078 0)"/>
      <use xlink:href="#DejaVuSans-65" transform="translate(5485.179688 0)"/>
      <use xlink:href="#DejaVuSans-64" transform="translate(5546.703125 0)"/>
      <use xlink:href="#DejaVuSans-29" transform="translate(5610.179688 0)"/>
     </g>
    </g>
   </g>
   <g id="matplotlib.axis_2">
    <g id="ytick_1">
     <g id="line2d_31">
      <path d="M 50.87 412.36378 
L 781.2 412.36378 
" clip-path="url(#p7c80767d5b)" style="fill: none; stroke-dasharray: 0.8,1.32; stroke-dashoffset: 0; stroke: #b0b0b0; stroke-opacity: 0.6; stroke-width: 0.8"/>
     </g>
     <g id="line2d_32">
      <defs>
       <path id="m6ccd7e70d8" d="M 0 0 
L -3.5 0 
" style="stroke: #000000; stroke-width: 0.8"/>
      </defs>
      <g>
       <use xlink:href="#m6ccd7e70d8" x="50.87" y="412.36378" style="stroke: #000000; stroke-width: 0.8"/>
      </g>
     </g>
     <g id="text_17">
      <!-- 0 -->
      <g transform="translate(37.5075 416.162998) scale(0.1 -0.1)">
       <use xlink:href="#DejaVuSans-30"/>
      </g>
     </g>
    </g>
    <g id="ytick_2">
     <g id="line2d_33">
      <path d="M 50.87 334.757332 
L 781.2 334.757332 
" clip-path="url(#p7c80767d5b)" style="fill: none; stroke-dasharray: 0.8,1.32; stroke-dashoffset: 0; stroke: #b0b0b0; stroke-opacity: 0.6; stroke-width: 0.8"/>
     </g>
     <g id="line2d_34">
      <g>
       <use xlink:href="#m6ccd7e70d8" x="50.87" y="334.757332" style="stroke: #000000; stroke-width: 0.8"/>
      </g>
     </g>
     <g id="text_18">
      <!-- 100 -->
      <g transform="translate(24.7825 338.556551) scale(0.1 -0.1)">
       <use xlink:href="#DejaVuSans-31"/>
       <use xlink:href="#DejaVuSans-30" transform="translate(63.623047 0)"/>
       <use xlink:href="#DejaVuSans-30" transform="translate(127.246094 0)"/>
      </g>
     </g>
    </g>
    <g id="ytick_3">
     <g id="line2d_35">
      <path d="M 50.87 257.150885 
L 781.2 257.150885 
" clip-path="url(#p7c80767d5b)" style="fill: none; stroke-dasharray: 0.8,1.32; stroke-dashoffset: 0; stroke: #b0b0b0; stroke-opacity: 0.6; stroke-width: 0.8"/>
     </g>
     <g id="line2d_36">
      <g>
       <use xlink:href="#m6ccd7e70d8" x="50.87" y="257.150885" style="stroke: #000000; stroke-width: 0.8"/>
      </g>
     </g>
     <g id="text_19">
      <!-- 200 -->
      <g transform="translate(24.7825 260.950104) scale(0.1 -0.1)">
       <use xlink:href="#DejaVuSans-32"/>
       <use xlink:href="#DejaVuSans-30" transform="translate(63.623047 0)"/>
       <use xlink:href="#DejaVuSans-30" transform="translate(127.246094 0)"/>
      </g>
     </g>
    </g>
    <g id="ytick_4">
     <g id="line2d_37">
      <path d="M 50.87 179.544438 
L 781.2 179.544438 
" clip-path="url(#p7c80767d5b)" style="fill: none; stroke-dasharray: 0.8,1.32; stroke-dashoffset: 0; stroke: #b0b0b0; stroke-opacity: 0.6; stroke-width: 0.8"/>
     </g>
     <g id="line2d_38">
      <g>
       <use xlink:href="#m6ccd7e70d8" x="50.87" y="179.544438" style="stroke: #000000; stroke-width: 0.8"/>
      </g>
     </g>
     <g id="text_20">
      <!-- 300 -->
      <g transform="translate(24.7825 183.343657) scale(0.1 -0.1)">
       <use xlink:href="#DejaVuSans-33"/>
       <use xlink:href="#DejaVuSans-30" transform="translate(63.623047 0)"/>
       <use xlink:href="#DejaVuSans-30" transform="translate(127.246094 0)"/>
      </g>
     </g>
    </g>
    <g id="ytick_5">
     <g id="line2d_39">
      <path d="M 50.87 101.93799 
L 781.2 101.93799 
" clip-path="url(#p7c80767d5b)" style="fill: none; stroke-dasharray: 0.8,1.32; stroke-dashoffset: 0; stroke: #b0b0b0; stroke-opacity: 0.6; stroke-width: 0.8"/>
     </g>
     <g id="line2d_40">
      <g>
       <use xlink:href="#m6ccd7e70d8" x="50.87" y="101.93799" style="stroke: #000000; stroke-width: 0.8"/>
      </g>
     </g>
     <g id="text_21">
      <!-- 400 -->
      <g transform="translate(24.7825 105.737209) scale(0.1 -0.1)">
       <defs>
        <path id="DejaVuSans-34" d="M 2419 4116 
L 825 1625 
L 2419 1625 
L 2419 4116 
z
M 2253 4666 
L 3047 4666 
L 3047 1625 
L 3713 1625 
L 3713 1100 
L 3047 1100 
L 3047 0 
L 2419 0 
L 2419 1100 
L 313 1100 
L 313 1709 
L 2253 4666 
z
" transform="scale(0.015625)"/>
       </defs>
       <use xlink:href="#DejaVuSans-34"/>
       <use xlink:href="#DejaVuSans-30" transform="translate(63.623047 0)"/>
       <use xlink:href="#DejaVuSans-30" transform="translate(127.246094 0)"/>
      </g>
     </g>
    </g>
    <g id="text_22">
     <!-- Speed of sound [m/s] -->
     <g transform="translate(18.702813 283.762844) rotate(-90) scale(0.1 -0.1)">
      <defs>
       <path id="DejaVuSans-2f" d="M 1625 4666 
L 2156 4666 
L 531 -594 
L 0 -594 
L 1625 4666 
z
" transform="scale(0.015625)"/>
      </defs>
      <use xlink:href="#DejaVuSans-53"/>
      <use xlink:href="#DejaVuSans-70" transform="translate(63.476562 0)"/>
      <use xlink:href="#DejaVuSans-65" transform="translate(126.953125 0)"/>
      <use xlink:href="#DejaVuSans-65" transform="translate(188.476562 0)"/>
      <use xlink:href="#DejaVuSans-64" transform="translate(250 0)"/>
      <use xlink:href="#DejaVuSans-20" transform="translate(313.476562 0)"/>
      <use xlink:href="#DejaVuSans-6f" transform="translate(345.263672 0)"/>
      <use xlink:href="#DejaVuSans-66" transform="translate(406.445312 0)"/>
      <use xlink:href="#DejaVuSans-20" transform="translate(441.650391 0)"/>
      <use xlink:href="#DejaVuSans-73" transform="translate(473.4375 0)"/>
      <use xlink:href="#DejaVuSans-6f" transform="translate(525.537109 0)"/>
      <use xlink:href="#DejaVuSans-75" transform="translate(586.71875 0)"/>
      <use xlink:href="#DejaVuSans-6e" transform="translate(650.097656 0)"/>
      <use xlink:href="#DejaVuSans-64" transform="translate(713.476562 0)"/>
      <use xlink:href="#DejaVuSans-20" transform="translate(776.953125 0)"/>
      <use xlink:href="#DejaVuSans-5b" transform="translate(808.740234 0)"/>
      <use xlink:href="#DejaVuSans-6d" transform="translate(847.753906 0)"/>
      <use xlink:href="#DejaVuSans-2f" transform="translate(945.166016 0)"/>
      <use xlink:href="#DejaVuSans-73" transform="translate(978.857422 0)"/>
      <use xlink:href="#DejaVuSans-5d" transform="translate(1030.957031 0)"/>
     </g>
    </g>
   </g>
   <g id="line2d_41">
    <path d="M 84.066818 59.15783 
L 90.982822 59.776549 
L 97.898826 60.395839 
L 104.81483 61.015706 
L 111.730833 61.636155 
L 118.646837 62.257192 
L 125.562841 62.878821 
L 132.478845 63.501049 
L 139.394848 64.123881 
L 146.310852 64.747323 
L 153.226856 65.37138 
L 160.14286 65.996059 
" clip-path="url(#p7c80767d5b)" style="fill: none; stroke: #1f77b4; stroke-width: 2; stroke-linecap: square"/>
   </g>
   <g id="line2d_42">
    <path d="M 177.017909 401.36942 
L 181.001527 400.106428 
L 184.985145 398.862484 
L 188.968764 397.636937 
L 192.952382 396.429168 
L 196.936 395.23859 
L 200.919618 394.064642 
L 204.903236 392.906792 
L 208.886855 391.764533 
L 212.870473 390.63738 
L 216.854091 389.524872 
L 220.837709 388.426568 
L 224.821327 387.342046 
L 228.804945 386.270904 
L 232.788564 385.212756 
L 236.772182 384.167233 
L 240.7558 383.133982 
L 244.739418 382.112664 
L 248.723036 381.102955 
L 252.706655 380.104542 
L 256.690273 379.117126 
L 260.673891 378.140421 
L 264.657509 377.174149 
L 268.641127 376.218045 
L 272.624745 375.271853 
L 276.608364 374.335328 
L 280.591982 373.408233 
L 284.5756 372.490339 
L 288.559218 371.581427 
L 292.542836 370.681285 
L 296.526455 369.789708 
L 300.510073 368.906498 
L 304.493691 368.031466 
L 308.477309 367.164427 
L 312.460927 366.305203 
L 316.444545 365.453623 
L 320.428164 364.60952 
L 324.411782 363.772734 
L 328.3954 362.943109 
L 332.379018 362.120494 
L 336.362636 361.304744 
L 340.346255 360.495718 
L 344.329873 359.693278 
L 348.313491 358.897292 
L 352.297109 358.107632 
L 356.280727 357.324172 
L 360.264345 356.546793 
L 364.247964 355.775375 
L 368.231582 355.009806 
L 372.2152 354.249975 
L 376.198818 353.495774 
L 380.182436 352.747099 
L 384.166055 352.003849 
L 388.149673 351.265923 
L 392.133291 350.533228 
L 396.116909 349.805669 
L 400.100527 349.083155 
L 404.084145 348.365599 
L 408.067764 347.652914 
L 412.051382 346.945017 
L 416.035 346.241826 
L 420.018618 345.543261 
L 424.002236 344.849246 
L 427.985855 344.159705 
L 431.969473 343.474564 
L 435.953091 342.793752 
L 439.936709 342.1172 
L 443.920327 341.444838 
L 447.903945 340.7766 
L 451.887564 340.112422 
L 455.871182 339.452241 
L 459.8548 338.795994 
L 463.838418 338.143621 
L 467.822036 337.495063 
L 471.805655 336.850264 
L 475.789273 336.209166 
L 479.772891 335.571715 
L 483.756509 334.937857 
L 487.740127 334.30754 
L 491.723745 333.680713 
L 495.707364 333.057324 
L 499.690982 332.437327 
L 503.6746 331.820671 
L 507.658218 331.207311 
L 511.641836 330.597201 
L 515.625455 329.990296 
L 519.609073 329.386551 
L 523.592691 328.785925 
L 527.576309 328.188374 
L 531.559927 327.593858 
L 535.543545 327.002336 
L 539.527164 326.413769 
L 543.510782 325.828118 
L 547.4944 325.245344 
L 551.478018 324.665412 
L 555.461636 324.088284 
L 559.445255 323.513925 
L 563.428873 322.942299 
L 567.412491 322.373373 
L 571.396109 321.807112 
L 575.379727 321.243484 
L 579.363345 320.682456 
L 583.346964 320.123997 
L 587.330582 319.568076 
L 591.3142 319.014661 
L 595.297818 318.463723 
L 599.281436 317.915233 
L 603.265055 317.369161 
L 607.248673 316.825479 
L 611.232291 316.28416 
L 615.215909 315.745175 
L 619.199527 315.208499 
L 623.183145 314.674104 
L 627.166764 314.141966 
L 631.150382 313.612058 
L 635.134 313.084355 
L 639.117618 312.558833 
L 643.101236 312.035468 
L 647.084855 311.514236 
L 651.068473 310.995114 
L 655.052091 310.478079 
" clip-path="url(#p7c80767d5b)" style="fill: none; stroke: #d62728; stroke-width: 2; stroke-linecap: square"/>
   </g>
   <g id="line2d_43">
    <path d="M 177.017909 367.394791 
L 181.001527 369.603889 
L 184.985145 370.47213 
L 188.968764 370.694394 
L 192.952382 370.561635 
L 196.936 370.217304 
L 200.919618 369.740077 
L 204.903236 369.176465 
L 208.886855 368.555536 
L 212.870473 367.896242 
L 216.854091 367.211357 
L 220.837709 366.509721 
L 224.821327 365.797578 
L 228.804945 365.079415 
L 232.788564 364.358498 
L 236.772182 363.637226 
L 240.7558 362.917373 
L 244.739418 362.200258 
L 248.723036 361.486858 
L 252.706655 360.777899 
L 256.690273 360.073913 
L 260.673891 359.375286 
L 264.657509 358.68229 
L 268.641127 357.995113 
L 272.624745 357.313872 
L 276.608364 356.638635 
L 280.591982 355.969427 
L 284.5756 355.306243 
L 288.559218 354.649052 
L 292.542836 353.997806 
L 296.526455 353.35244 
L 300.510073 352.712878 
L 304.493691 352.079038 
L 308.477309 351.45083 
L 312.460927 350.828159 
L 316.444545 350.210929 
L 320.428164 349.59904 
L 324.411782 348.992393 
L 328.3954 348.390886 
L 332.379018 347.794421 
L 336.362636 347.202899 
L 340.346255 346.61622 
L 344.329873 346.034289 
L 348.313491 345.45701 
L 352.297109 344.884291 
L 356.280727 344.316039 
L 360.264345 343.752166 
L 364.247964 343.192583 
L 368.231582 342.637207 
L 372.2152 342.085952 
L 376.198818 341.53874 
L 380.182436 340.995489 
L 384.166055 340.456124 
L 388.149673 339.920568 
L 392.133291 339.38875 
L 396.116909 338.860597 
L 400.100527 338.336042 
L 404.084145 337.815016 
L 408.067764 337.297453 
L 412.051382 336.783291 
L 416.035 336.272466 
L 420.018618 335.76492 
L 424.002236 335.260592 
L 427.985855 334.759426 
L 431.969473 334.261365 
L 435.953091 333.766357 
L 439.936709 333.274347 
L 443.920327 332.785286 
L 447.903945 332.299121 
L 451.887564 331.815806 
L 455.871182 331.335292 
L 459.8548 330.857533 
L 463.838418 330.382485 
L 467.822036 329.910102 
L 471.805655 329.440343 
L 475.789273 328.973166 
L 479.772891 328.508529 
L 483.756509 328.046394 
L 487.740127 327.586721 
L 491.723745 327.129473 
L 495.707364 326.674613 
L 499.690982 326.222105 
L 503.6746 325.771914 
L 507.658218 325.324005 
L 511.641836 324.878346 
L 515.625455 324.434903 
L 519.609073 323.993644 
L 523.592691 323.554539 
L 527.576309 323.117556 
L 531.559927 322.682666 
L 535.543545 322.24984 
L 539.527164 321.81905 
L 543.510782 321.390266 
L 547.4944 320.963464 
L 551.478018 320.538614 
L 555.461636 320.115693 
L 559.445255 319.694673 
L 563.428873 319.275531 
L 567.412491 318.858241 
L 571.396109 318.442779 
L 575.379727 318.029123 
L 579.363345 317.61725 
L 583.346964 317.207136 
L 587.330582 316.79876 
L 591.3142 316.3921 
L 595.297818 315.987136 
L 599.281436 315.583846 
L 603.265055 315.18221 
L 607.248673 314.782209 
L 611.232291 314.383822 
L 615.215909 313.987031 
L 619.199527 313.591816 
L 623.183145 313.19816 
L 627.166764 312.806045 
L 631.150382 312.415452 
L 635.134 312.026364 
L 639.117618 311.638765 
L 643.101236 311.252637 
L 647.084855 310.867964 
L 651.068473 310.48473 
L 655.052091 310.10292 
" clip-path="url(#p7c80767d5b)" style="fill: none; stroke-dasharray: 7.4,3.2; stroke-dashoffset: 0; stroke: #9467bd; stroke-width: 2"/>
   </g>
   <g id="line2d_44">
    <path d="M 177.017909 367.674125 
L 181.001527 369.868646 
L 184.985145 370.730446 
L 188.968764 370.950078 
L 192.952382 370.816684 
L 196.936 370.472825 
L 200.919618 369.996691 
L 204.903236 369.43451 
L 208.886855 368.815173 
L 212.870473 368.157522 
L 216.854091 367.474257 
L 220.837709 366.774168 
L 224.821327 366.063469 
L 228.804945 365.346626 
L 232.788564 364.626889 
L 236.772182 363.906649 
L 240.7558 363.187677 
L 244.739418 362.471288 
L 248.723036 361.758461 
L 252.706655 361.049921 
L 256.690273 360.346204 
L 260.673891 359.647697 
L 264.657509 358.954679 
L 268.641127 358.267339 
L 272.624745 357.5858 
L 276.608364 356.910134 
L 280.591982 356.24037 
L 284.5756 355.576507 
L 288.559218 354.918519 
L 292.542836 354.266362 
L 296.526455 353.619976 
L 300.510073 352.979289 
L 304.493691 352.344222 
L 308.477309 351.71469 
L 312.460927 351.090602 
L 316.444545 350.471865 
L 320.428164 349.858384 
L 324.411782 349.250061 
L 328.3954 348.6468 
L 332.379018 348.048505 
L 336.362636 347.45508 
L 340.346255 346.866429 
L 344.329873 346.282458 
L 348.313491 345.703076 
L 352.297109 345.128192 
L 356.280727 344.557718 
L 360.264345 343.991565 
L 364.247964 343.42965 
L 368.231582 342.871889 
L 372.2152 342.318201 
L 376.198818 341.768508 
L 380.182436 341.222731 
L 384.166055 340.680797 
L 388.149673 340.142631 
L 392.133291 339.608164 
L 396.116909 339.077324 
L 400.100527 338.550046 
L 404.084145 338.026262 
L 408.067764 337.50591 
L 412.051382 336.988926 
L 416.035 336.475251 
L 420.018618 335.964824 
L 424.002236 335.45759 
L 427.985855 334.953491 
L 431.969473 334.452473 
L 435.953091 333.954484 
L 439.936709 333.459471 
L 443.920327 332.967385 
L 447.903945 332.478176 
L 451.887564 331.991797 
L 455.871182 331.508201 
L 459.8548 331.027343 
L 463.838418 330.549178 
L 467.822036 330.073664 
L 471.805655 329.600759 
L 475.789273 329.130421 
L 479.772891 328.662611 
L 483.756509 328.19729 
L 487.740127 327.73442 
L 491.723745 327.273964 
L 495.707364 326.815885 
L 499.690982 326.360148 
L 503.6746 325.906719 
L 507.658218 325.455564 
L 511.641836 325.00665 
L 515.625455 324.559945 
L 519.609073 324.115418 
L 523.592691 323.673037 
L 527.576309 323.232773 
L 531.559927 322.794597 
L 535.543545 322.358479 
L 539.527164 321.924392 
L 543.510782 321.492308 
L 547.4944 321.062201 
L 551.478018 320.634044 
L 555.461636 320.207812 
L 559.445255 319.783479 
L 563.428873 319.361021 
L 567.412491 318.940413 
L 571.396109 318.521633 
L 575.379727 318.104656 
L 579.363345 317.689461 
L 583.346964 317.276024 
L 587.330582 316.864325 
L 591.3142 316.454342 
L 595.297818 316.046055 
L 599.281436 315.639442 
L 603.265055 315.234483 
L 607.248673 314.83116 
L 611.232291 314.429452 
L 615.215909 314.029341 
L 619.199527 313.630809 
L 623.183145 313.233836 
L 627.166764 312.838406 
L 631.150382 312.4445 
L 635.134 312.052101 
L 639.117618 311.661193 
L 643.101236 311.271759 
L 647.084855 310.883782 
L 651.068473 310.497247 
L 655.052091 310.112138 
" clip-path="url(#p7c80767d5b)" style="fill: none; stroke-dasharray: 12.8,3.2,2,3.2; stroke-dashoffset: 0; stroke: #ff7f0e; stroke-width: 2"/>
   </g>
   <g id="line2d_45">
    <path d="M 177.017909 401.36941 
L 181.001527 400.106413 
L 184.985145 398.862463 
L 188.968764 397.63691 
L 192.952382 396.429134 
L 196.936 395.238548 
L 200.919618 394.064592 
L 204.903236 392.906734 
L 208.886855 391.764466 
L 212.870473 390.637304 
L 216.854091 389.524786 
L 220.837709 388.426472 
L 224.821327 387.34194 
L 228.804945 386.270787 
L 232.788564 385.212628 
L 236.772182 384.167094 
L 240.7558 383.133832 
L 244.739418 382.112502 
L 248.723036 381.102781 
L 252.706655 380.104356 
L 256.690273 379.116928 
L 260.673891 378.14021 
L 264.657509 377.173926 
L 268.641127 376.217809 
L 272.624745 375.271605 
L 276.608364 374.335067 
L 280.591982 373.407959 
L 284.5756 372.490053 
L 288.559218 371.581128 
L 292.542836 370.680972 
L 296.526455 369.789382 
L 300.510073 368.906159 
L 304.493691 368.031113 
L 308.477309 367.164061 
L 312.460927 366.304824 
L 316.444545 365.45323 
L 320.428164 364.609114 
L 324.411782 363.772314 
L 328.3954 362.942675 
L 332.379018 362.120047 
L 336.362636 361.304283 
L 340.346255 360.495243 
L 344.329873 359.69279 
L 348.313491 358.89679 
L 352.297109 358.107116 
L 356.280727 357.323643 
L 360.264345 356.54625 
L 364.247964 355.774819 
L 368.231582 355.009236 
L 372.2152 354.249391 
L 376.198818 353.495177 
L 380.182436 352.746488 
L 384.166055 352.003224 
L 388.149673 351.265285 
L 392.133291 350.532576 
L 396.116909 349.805003 
L 400.100527 349.082476 
L 404.084145 348.364906 
L 408.067764 347.652208 
L 412.051382 346.944297 
L 416.035 346.241092 
L 420.018618 345.542514 
L 424.002236 344.848486 
L 427.985855 344.158931 
L 431.969473 343.473777 
L 435.953091 342.792952 
L 439.936709 342.116385 
L 443.920327 341.44401 
L 447.903945 340.775759 
L 451.887564 340.111568 
L 455.871182 339.451373 
L 459.8548 338.795113 
L 463.838418 338.142727 
L 467.822036 337.494157 
L 471.805655 336.849344 
L 475.789273 336.208233 
L 479.772891 335.570769 
L 483.756509 334.936898 
L 487.740127 334.306568 
L 491.723745 333.679728 
L 495.707364 333.056327 
L 499.690982 332.436316 
L 503.6746 331.819648 
L 507.658218 331.206275 
L 511.641836 330.596152 
L 515.625455 329.989234 
L 519.609073 329.385477 
L 523.592691 328.784838 
L 527.576309 328.187275 
L 531.559927 327.592746 
L 535.543545 327.001211 
L 539.527164 326.412632 
L 543.510782 325.826968 
L 547.4944 325.244182 
L 551.478018 324.664237 
L 555.461636 324.087097 
L 559.445255 323.512725 
L 563.428873 322.941087 
L 567.412491 322.372149 
L 571.396109 321.805876 
L 575.379727 321.242236 
L 579.363345 320.681196 
L 583.346964 320.122725 
L 587.330582 319.566791 
L 591.3142 319.013364 
L 595.297818 318.462414 
L 599.281436 317.913912 
L 603.265055 317.367828 
L 607.248673 316.824134 
L 611.232291 316.282803 
L 615.215909 315.743807 
L 619.199527 315.207119 
L 623.183145 314.672713 
L 627.166764 314.140562 
L 631.150382 313.610642 
L 635.134 313.082928 
L 639.117618 312.557395 
L 643.101236 312.034018 
L 647.084855 311.512775 
L 651.068473 310.993641 
L 655.052091 310.476594 
" clip-path="url(#p7c80767d5b)" style="fill: none; stroke-dasharray: 2,3.3; stroke-dashoffset: 0; stroke: #1f77b4; stroke-width: 2"/>
   </g>
   <g id="line2d_46">
    <path d="M 665.011136 309.154517 
L 667.872931 309.076279 
L 670.734726 308.998243 
L 673.59652 308.920408 
L 676.458315 308.842772 
L 679.32011 308.765335 
L 682.181904 308.688094 
L 685.043699 308.611048 
L 687.905494 308.534197 
L 690.767288 308.457538 
L 693.629083 308.381072 
L 696.490878 308.304795 
L 699.352672 308.228709 
L 702.214467 308.15281 
L 705.076262 308.077099 
L 707.938056 308.001573 
L 710.799851 307.926232 
L 713.661646 307.851074 
L 716.52344 307.776098 
L 719.385235 307.701304 
L 722.24703 307.62669 
L 725.108824 307.552255 
L 727.970619 307.477998 
L 730.832414 307.403917 
L 733.694208 307.330012 
L 736.556003 307.256282 
L 739.417798 307.182726 
L 742.279592 307.109341 
L 745.141387 307.036129 
L 748.003182 306.963086 
" clip-path="url(#p7c80767d5b)" style="fill: none; stroke: #2ca02c; stroke-width: 2; stroke-linecap: square"/>
   </g>
   <g id="line2d_47">
    <path d="M 167.058864 418.48 
L 167.058864 42.04725 
" clip-path="url(#p7c80767d5b)" style="fill: none; stroke: #000000; stroke-opacity: 0.6; stroke-linecap: square"/>
   </g>
   <g id="line2d_48">
    <path d="M 665.011136 418.48 
L 665.011136 42.04725 
" clip-path="url(#p7c80767d5b)" style="fill: none; stroke: #000000; stroke-opacity: 0.6; stroke-linecap: square"/>
   </g>
   <g id="patch_3">
    <path d="M 50.87 418.48 
L 50.87 42.04725 
" style="fill: none; stroke: #000000; stroke-width: 0.8; stroke-linejoin: miter; stroke-linecap: square"/>
   </g>
   <g id="patch_4">
    <path d="M 781.2 418.48 
L 781.2 42.04725 
" style="fill: none; stroke: #000000; stroke-width: 0.8; stroke-linejoin: miter; stroke-linecap: square"/>
   </g>
   <g id="patch_5">
    <path d="M 50.87 418.48 
L 781.2 418.48 
" style="fill: none; stroke: #000000; stroke-width: 0.8; stroke-linejoin: miter; stroke-linecap: square"/>
   </g>
   <g id="patch_6">
    <path d="M 50.87 42.04725 
L 781.2 42.04725 
" style="fill: none; stroke: #000000; stroke-width: 0.8; stroke-linejoin: miter; stroke-linecap: square"/>
   </g>
   <g id="text_23">
    <!-- Speed of Sound across Subcool → Two-phase → Superheat at T_evap=45.0 °C -->
    <g transform="translate(182.922812 22.276125) scale(0.12 -0.12)">
     <defs>
      <path id="DejaVuSans-2192" d="M 5050 2147 
L 5050 1866 
L 3822 638 
L 3447 1013 
L 4175 1741 
L 366 1741 
L 366 2272 
L 4175 2272 
L 3447 3000 
L 3822 3375 
L 5050 2147 
z
" transform="scale(0.015625)"/>
      <path id="DejaVuSans-77" d="M 269 3500 
L 844 3500 
L 1563 769 
L 2278 3500 
L 2956 3500 
L 3675 769 
L 4391 3500 
L 4966 3500 
L 4050 0 
L 3372 0 
L 2619 2869 
L 1863 0 
L 1184 0 
L 269 3500 
z
" transform="scale(0.015625)"/>
      <path id="DejaVuSans-5f" d="M 3263 -1063 
L 3263 -1509 
L -63 -1509 
L -63 -1063 
L 3263 -1063 
z
" transform="scale(0.015625)"/>
      <path id="DejaVuSans-76" d="M 191 3500 
L 800 3500 
L 1894 563 
L 2988 3500 
L 3597 3500 
L 2284 0 
L 1503 0 
L 191 3500 
z
" transform="scale(0.015625)"/>
      <path id="DejaVuSans-b0" d="M 1600 4347 
Q 1350 4347 1178 4173 
Q 1006 4000 1006 3750 
Q 1006 3503 1178 3333 
Q 1350 3163 1600 3163 
Q 1850 3163 2022 3333 
Q 2194 3503 2194 3750 
Q 2194 3997 2020 4172 
Q 1847 4347 1600 4347 
z
M 1600 4750 
Q 1800 4750 1984 4673 
Q 2169 4597 2303 4453 
Q 2447 4313 2519 4134 
Q 2591 3956 2591 3750 
Q 2591 3338 2302 3052 
Q 2013 2766 1594 2766 
Q 1172 2766 890 3047 
Q 609 3328 609 3750 
Q 609 4169 896 4459 
Q 1184 4750 1600 4750 
z
" transform="scale(0.015625)"/>
      <path id="DejaVuSans-43" d="M 4122 4306 
L 4122 3641 
Q 3803 3938 3442 4084 
Q 3081 4231 2675 4231 
Q 1875 4231 1450 3742 
Q 1025 3253 1025 2328 
Q 1025 1406 1450 917 
Q 1875 428 2675 428 
Q 3081 428 3442 575 
Q 3803 722 4122 1019 
L 4122 359 
Q 3791 134 3420 21 
Q 3050 -91 2638 -91 
Q 1578 -91 968 557 
Q 359 1206 359 2328 
Q 359 3453 968 4101 
Q 1578 4750 2638 4750 
Q 3056 4750 3426 4639 
Q 3797 4528 4122 4306 
z
" transform="scale(0.015625)"/>
     </defs>
     <use xlink:href="#DejaVuSans-53"/>
     <use xlink:href="#DejaVuSans-70" transform="translate(63.476562 0)"/>
     <use xlink:href="#DejaVuSans-65" transform="translate(126.953125 0)"/>
     <use xlink:href="#DejaVuSans-65" transform="translate(188.476562 0)"/>
     <use xlink:href="#DejaVuSans-64" transform="translate(250 0)"/>
     <use xlink:href="#DejaVuSans-20" transform="translate(313.476562 0)"/>
     <use xlink:href="#DejaVuSans-6f" transform="translate(345.263672 0)"/>
     <use xlink:href="#DejaVuSans-66" transform="translate(406.445312 0)"/>
     <use xlink:href="#DejaVuSans-20" transform="translate(441.650391 0)"/>
     <use xlink:href="#DejaVuSans-53" transform="translate(473.4375 0)"/>
     <use xlink:href="#DejaVuSans-6f" transform="translate(536.914062 0)"/>
     <use xlink:href="#DejaVuSans-75" transform="translate(598.095703 0)"/>
     <use xlink:href="#DejaVuSans-6e" transform="translate(661.474609 0)"/>
     <use xlink:href="#DejaVuSans-64" transform="translate(724.853516 0)"/>
     <use xlink:href="#DejaVuSans-20" transform="translate(788.330078 0)"/>
     <use xlink:href="#DejaVuSans-61" transform="translate(820.117188 0)"/>
     <use xlink:href="#DejaVuSans-63" transform="translate(881.396484 0)"/>
     <use xlink:href="#DejaVuSans-72" transform="translate(936.376953 0)"/>
     <use xlink:href="#DejaVuSans-6f" transform="translate(975.240234 0)"/>
     <use xlink:href="#DejaVuSans-73" transform="translate(1036.421875 0)"/>
     <use xlink:href="#DejaVuSans-73" transform="translate(1088.521484 0)"/>
     <use xlink:href="#DejaVuSans-20" transform="translate(1140.621094 0)"/>
     <use xlink:href="#DejaVuSans-53" transform="translate(1172.408203 0)"/>
     <use xlink:href="#DejaVuSans-75" transform="translate(1235.884766 0)"/>
     <use xlink:href="#DejaVuSans-62" transform="translate(1299.263672 0)"/>
     <use xlink:href="#DejaVuSans-63" transform="translate(1362.740234 0)"/>
     <use xlink:href="#DejaVuSans-6f" transform="translate(1417.720703 0)"/>
     <use xlink:href="#DejaVuSans-6f" transform="translate(1478.902344 0)"/>
     <use xlink:href="#DejaVuSans-6c" transform="translate(1540.083984 0)"/>
     <use xlink:href="#DejaVuSans-20" transform="translate(1567.867188 0)"/>
     <use xlink:href="#DejaVuSans-2192" transform="translate(1599.654297 0)"/>
     <use xlink:href="#DejaVuSans-20" transform="translate(1683.443359 0)"/>
     <use xlink:href="#DejaVuSans-54" transform="translate(1715.230469 0)"/>
     <use xlink:href="#DejaVuSans-77" transform="translate(1759.814453 0)"/>
     <use xlink:href="#DejaVuSans-6f" transform="translate(1841.601562 0)"/>
     <use xlink:href="#DejaVuSans-2d" transform="translate(1904.658203 0)"/>
     <use xlink:href="#DejaVuSans-70" transform="translate(1940.742188 0)"/>
     <use xlink:href="#DejaVuSans-68" transform="translate(2004.21875 0)"/>
     <use xlink:href="#DejaVuSans-61" transform="translate(2067.597656 0)"/>
     <use xlink:href="#DejaVuSans-73" transform="translate(2128.876953 0)"/>
     <use xlink:href="#DejaVuSans-65" transform="translate(2180.976562 0)"/>
     <use xlink:href="#DejaVuSans-20" transform="translate(2242.5 0)"/>
     <use xlink:href="#DejaVuSans-2192" transform="translate(2274.287109 0)"/>
     <use xlink:href="#DejaVuSans-20" transform="translate(2358.076172 0)"/>
     <use xlink:href="#DejaVuSans-53" transform="translate(2389.863281 0)"/>
     <use xlink:href="#DejaVuSans-75" transform="translate(2453.339844 0)"/>
     <use xlink:href="#DejaVuSans-70" transform="translate(2516.71875 0)"/>
     <use xlink:href="#DejaVuSans-65" transform="translate(2580.195312 0)"/>
     <use xlink:href="#DejaVuSans-72" transform="translate(2641.71875 0)"/>
     <use xlink:href="#DejaVuSans-68" transform="translate(2681.082031 0)"/>
     <use xlink:href="#DejaVuSans-65" transform="translate(2744.460938 0)"/>
     <use xlink:href="#DejaVuSans-61" transform="translate(2805.984375 0)"/>
     <use xlink:href="#DejaVuSans-74" transform="translate(2867.263672 0)"/>
     <use xlink:href="#DejaVuSans-20" transform="translate(2906.472656 0)"/>
     <use xlink:href="#DejaVuSans-61" transform="translate(2938.259766 0)"/>
     <use xlink:href="#DejaVuSans-74" transform="translate(2999.539062 0)"/>
     <use xlink:href="#DejaVuSans-20" transform="translate(3038.748047 0)"/>
     <use xlink:href="#DejaVuSans-54" transform="translate(3070.535156 0)"/>
     <use xlink:href="#DejaVuSans-5f" transform="translate(3131.619141 0)"/>
     <use xlink:href="#DejaVuSans-65" transform="translate(3181.619141 0)"/>
     <use xlink:href="#DejaVuSans-76" transform="translate(3243.142578 0)"/>
     <use xlink:href="#DejaVuSans-61" transform="translate(3302.322266 0)"/>
     <use xlink:href="#DejaVuSans-70" transform="translate(3363.601562 0)"/>
     <use xlink:href="#DejaVuSans-3d" transform="translate(3427.078125 0)"/>
     <use xlink:href="#DejaVuSans-34" transform="translate(3510.867188 0)"/>
     <use xlink:href="#DejaVuSans-35" transform="translate(3574.490234 0)"/>
     <use xlink:href="#DejaVuSans-2e" transform="translate(3638.113281 0)"/>
     <use xlink:href="#DejaVuSans-30" transform="translate(3669.900391 0)"/>
     <use xlink:href="#DejaVuSans-20" transform="translate(3733.523438 0)"/>
     <use xlink:href="#DejaVuSans-b0" transform="translate(3765.310547 0)"/>
     <use xlink:href="#DejaVuSans-43" transform="translate(3815.310547 0)"/>
    </g>
    <!-- REFPROP::R1234ZE(E) -->
    <g transform="translate(348.64 36.04725) scale(0.12 -0.12)">
     <defs>
      <path id="DejaVuSans-45" d="M 628 4666 
L 3578 4666 
L 3578 4134 
L 1259 4134 
L 1259 2753 
L 3481 2753 
L 3481 2222 
L 1259 2222 
L 1259 531 
L 3634 531 
L 3634 0 
L 628 0 
L 628 4666 
z
" transform="scale(0.015625)"/>
      <path id="DejaVuSans-46" d="M 628 4666 
L 3309 4666 
L 3309 4134 
L 1259 4134 
L 1259 2759 
L 3109 2759 
L 3109 2228 
L 1259 2228 
L 1259 0 
L 628 0 
L 628 4666 
z
" transform="scale(0.015625)"/>
      <path id="DejaVuSans-50" d="M 1259 4147 
L 1259 2394 
L 2053 2394 
Q 2494 2394 2734 2622 
Q 2975 2850 2975 3272 
Q 2975 3691 2734 3919 
Q 2494 4147 2053 4147 
L 1259 4147 
z
M 628 4666 
L 2053 4666 
Q 2838 4666 3239 4311 
Q 3641 3956 3641 3272 
Q 3641 2581 3239 2228 
Q 2838 1875 2053 1875 
L 1259 1875 
L 1259 0 
L 628 0 
L 628 4666 
z
" transform="scale(0.015625)"/>
      <path id="DejaVuSans-4f" d="M 2522 4238 
Q 1834 4238 1429 3725 
Q 1025 3213 1025 2328 
Q 1025 1447 1429 934 
Q 1834 422 2522 422 
Q 3209 422 3611 934 
Q 4013 1447 4013 2328 
Q 4013 3213 3611 3725 
Q 3209 4238 2522 4238 
z
M 2522 4750 
Q 3503 4750 4090 4092 
Q 4678 3434 4678 2328 
Q 4678 1225 4090 567 
Q 3503 -91 2522 -91 
Q 1538 -91 948 565 
Q 359 1222 359 2328 
Q 359 3434 948 4092 
Q 1538 4750 2522 4750 
z
" transform="scale(0.015625)"/>
      <path id="DejaVuSans-5a" d="M 359 4666 
L 4025 4666 
L 4025 4184 
L 1075 531 
L 4097 531 
L 4097 0 
L 288 0 
L 288 481 
L 3238 4134 
L 359 4134 
L 359 4666 
z
" transform="scale(0.015625)"/>
     </defs>
     <use xlink:href="#DejaVuSans-52"/>
     <use xlink:href="#DejaVuSans-45" transform="translate(69.482422 0)"/>
     <use xlink:href="#DejaVuSans-46" transform="translate(132.666016 0)"/>
     <use xlink:href="#DejaVuSans-50" transform="translate(190.185547 0)"/>
     <use xlink:href="#DejaVuSans-52" transform="translate(250.488281 0)"/>
     <use xlink:href="#DejaVuSans-4f" transform="translate(319.970703 0)"/>
     <use xlink:href="#DejaVuSans-50" transform="translate(398.681641 0)"/>
     <use xlink:href="#DejaVuSans-3a" transform="translate(458.984375 0)"/>
     <use xlink:href="#DejaVuSans-3a" transform="translate(492.675781 0)"/>
     <use xlink:href="#DejaVuSans-52" transform="translate(526.367188 0)"/>
     <use xlink:href="#DejaVuSans-31" transform="translate(595.849609 0)"/>
     <use xlink:href="#DejaVuSans-32" transform="translate(659.472656 0)"/>
     <use xlink:href="#DejaVuSans-33" transform="translate(723.095703 0)"/>
     <use xlink:href="#DejaVuSans-34" transform="translate(786.71875 0)"/>
     <use xlink:href="#DejaVuSans-5a" transform="translate(850.341797 0)"/>
     <use xlink:href="#DejaVuSans-45" transform="translate(918.847656 0)"/>
     <use xlink:href="#DejaVuSans-28" transform="translate(982.03125 0)"/>
     <use xlink:href="#DejaVuSans-45" transform="translate(1021.044922 0)"/>
     <use xlink:href="#DejaVuSans-29" transform="translate(1084.228516 0)"/>
    </g>
   </g>
   <g id="legend_1">
    <g id="patch_7">
     <path d="M 284.510781 138.437875 
L 547.559219 138.437875 
Q 549.559219 138.437875 549.559219 136.437875 
L 549.559219 49.04725 
Q 549.559219 47.04725 547.559219 47.04725 
L 284.510781 47.04725 
Q 282.510781 47.04725 282.510781 49.04725 
L 282.510781 136.437875 
Q 282.510781 138.437875 284.510781 138.437875 
z
" style="fill: #ffffff; opacity: 0.8; stroke: #cccccc; stroke-linejoin: miter"/>
    </g>
    <g id="line2d_49">
     <path d="M 286.510781 55.145688 
L 296.510781 55.145688 
L 306.510781 55.145688 
" style="fill: none; stroke: #1f77b4; stroke-width: 2; stroke-linecap: square"/>
    </g>
    <g id="text_24">
     <!-- Subcooled liquid (ΔT=2 K) -->
     <g transform="translate(314.510781 58.645688) scale(0.1 -0.1)">
      <defs>
       <path id="DejaVuSans-71" d="M 947 1747 
Q 947 1113 1208 752 
Q 1469 391 1925 391 
Q 2381 391 2643 752 
Q 2906 1113 2906 1747 
Q 2906 2381 2643 2742 
Q 2381 3103 1925 3103 
Q 1469 3103 1208 2742 
Q 947 2381 947 1747 
z
M 2906 525 
Q 2725 213 2448 61 
Q 2172 -91 1784 -91 
Q 1150 -91 751 415 
Q 353 922 353 1747 
Q 353 2572 751 3078 
Q 1150 3584 1784 3584 
Q 2172 3584 2448 3432 
Q 2725 3281 2906 2969 
L 2906 3500 
L 3481 3500 
L 3481 -1331 
L 2906 -1331 
L 2906 525 
z
" transform="scale(0.015625)"/>
      </defs>
      <use xlink:href="#DejaVuSans-53"/>
      <use xlink:href="#DejaVuSans-75" transform="translate(63.476562 0)"/>
      <use xlink:href="#DejaVuSans-62" transform="translate(126.855469 0)"/>
      <use xlink:href="#DejaVuSans-63" transform="translate(190.332031 0)"/>
      <use xlink:href="#DejaVuSans-6f" transform="translate(245.3125 0)"/>
      <use xlink:href="#DejaVuSans-6f" transform="translate(306.494141 0)"/>
      <use xlink:href="#DejaVuSans-6c" transform="translate(367.675781 0)"/>
      <use xlink:href="#DejaVuSans-65" transform="translate(395.458984 0)"/>
      <use xlink:href="#DejaVuSans-64" transform="translate(456.982422 0)"/>
      <use xlink:href="#DejaVuSans-20" transform="translate(520.458984 0)"/>
      <use xlink:href="#DejaVuSans-6c" transform="translate(552.246094 0)"/>
      <use xlink:href="#DejaVuSans-69" transform="translate(580.029297 0)"/>
      <use xlink:href="#DejaVuSans-71" transform="translate(607.8125 0)"/>
      <use xlink:href="#DejaVuSans-75" transform="translate(671.289062 0)"/>
      <use xlink:href="#DejaVuSans-69" transform="translate(734.667969 0)"/>
      <use xlink:href="#DejaVuSans-64" transform="translate(762.451172 0)"/>
      <use xlink:href="#DejaVuSans-20" transform="translate(825.927734 0)"/>
      <use xlink:href="#DejaVuSans-28" transform="translate(857.714844 0)"/>
      <use xlink:href="#DejaVuSans-394" transform="translate(896.728516 0)"/>
      <use xlink:href="#DejaVuSans-54" transform="translate(965.136719 0)"/>
      <use xlink:href="#DejaVuSans-3d" transform="translate(1026.220703 0)"/>
      <use xlink:href="#DejaVuSans-32" transform="translate(1110.009766 0)"/>
      <use xlink:href="#DejaVuSans-20" transform="translate(1173.632812 0)"/>
      <use xlink:href="#DejaVuSans-4b" transform="translate(1205.419922 0)"/>
      <use xlink:href="#DejaVuSans-29" transform="translate(1270.996094 0)"/>
     </g>
    </g>
    <g id="line2d_50">
     <path d="M 286.510781 69.823813 
L 296.510781 69.823813 
L 306.510781 69.823813 
" style="fill: none; stroke: #d62728; stroke-width: 2; stroke-linecap: square"/>
    </g>
    <g id="text_25">
     <!-- Two-phase (HEM - equilibrium) -->
     <g transform="translate(314.510781 73.323813) scale(0.1 -0.1)">
      <defs>
       <path id="DejaVuSans-48" d="M 628 4666 
L 1259 4666 
L 1259 2753 
L 3553 2753 
L 3553 4666 
L 4184 4666 
L 4184 0 
L 3553 0 
L 3553 2222 
L 1259 2222 
L 1259 0 
L 628 0 
L 628 4666 
z
" transform="scale(0.015625)"/>
      </defs>
      <use xlink:href="#DejaVuSans-54"/>
      <use xlink:href="#DejaVuSans-77" transform="translate(44.583984 0)"/>
      <use xlink:href="#DejaVuSans-6f" transform="translate(126.371094 0)"/>
      <use xlink:href="#DejaVuSans-2d" transform="translate(189.427734 0)"/>
      <use xlink:href="#DejaVuSans-70" transform="translate(225.511719 0)"/>
      <use xlink:href="#DejaVuSans-68" transform="translate(288.988281 0)"/>
      <use xlink:href="#DejaVuSans-61" transform="translate(352.367188 0)"/>
      <use xlink:href="#DejaVuSans-73" transform="translate(413.646484 0)"/>
      <use xlink:href="#DejaVuSans-65" transform="translate(465.746094 0)"/>
      <use xlink:href="#DejaVuSans-20" transform="translate(527.269531 0)"/>
      <use xlink:href="#DejaVuSans-28" transform="translate(559.056641 0)"/>
      <use xlink:href="#DejaVuSans-48" transform="translate(598.070312 0)"/>
      <use xlink:href="#DejaVuSans-45" transform="translate(673.265625 0)"/>
      <use xlink:href="#DejaVuSans-4d" transform="translate(736.449219 0)"/>
      <use xlink:href="#DejaVuSans-20" transform="translate(822.728516 0)"/>
      <use xlink:href="#DejaVuSans-2d" transform="translate(854.515625 0)"/>
      <use xlink:href="#DejaVuSans-20" transform="translate(890.599609 0)"/>
      <use xlink:href="#DejaVuSans-65" transform="translate(922.386719 0)"/>
      <use xlink:href="#DejaVuSans-71" transform="translate(983.910156 0)"/>
      <use xlink:href="#DejaVuSans-75" transform="translate(1047.386719 0)"/>
      <use xlink:href="#DejaVuSans-69" transform="translate(1110.765625 0)"/>
      <use xlink:href="#DejaVuSans-6c" transform="translate(1138.548828 0)"/>
      <use xlink:href="#DejaVuSans-69" transform="translate(1166.332031 0)"/>
      <use xlink:href="#DejaVuSans-62" transform="translate(1194.115234 0)"/>
      <use xlink:href="#DejaVuSans-72" transform="translate(1257.591797 0)"/>
      <use xlink:href="#DejaVuSans-69" transform="translate(1298.705078 0)"/>
      <use xlink:href="#DejaVuSans-75" transform="translate(1326.488281 0)"/>
      <use xlink:href="#DejaVuSans-6d" transform="translate(1389.867188 0)"/>
      <use xlink:href="#DejaVuSans-29" transform="translate(1487.279297 0)"/>
     </g>
    </g>
    <g id="line2d_51">
     <path d="M 286.510781 84.501937 
L 296.510781 84.501937 
L 306.510781 84.501937 
" style="fill: none; stroke-dasharray: 7.4,3.2; stroke-dashoffset: 0; stroke: #9467bd; stroke-width: 2"/>
    </g>
    <g id="text_26">
     <!-- Two-phase (Frozen / Wood) -->
     <g transform="translate(314.510781 88.001937) scale(0.1 -0.1)">
      <defs>
       <path id="DejaVuSans-7a" d="M 353 3500 
L 3084 3500 
L 3084 2975 
L 922 459 
L 3084 459 
L 3084 0 
L 275 0 
L 275 525 
L 2438 3041 
L 353 3041 
L 353 3500 
z
" transform="scale(0.015625)"/>
       <path id="DejaVuSans-57" d="M 213 4666 
L 850 4666 
L 1831 722 
L 2809 4666 
L 3519 4666 
L 4500 722 
L 5478 4666 
L 6119 4666 
L 4947 0 
L 4153 0 
L 3169 4050 
L 2175 0 
L 1381 0 
L 213 4666 
z
" transform="scale(0.015625)"/>
      </defs>
      <use xlink:href="#DejaVuSans-54"/>
      <use xlink:href="#DejaVuSans-77" transform="translate(44.583984 0)"/>
      <use xlink:href="#DejaVuSans-6f" transform="translate(126.371094 0)"/>
      <use xlink:href="#DejaVuSans-2d" transform="translate(189.427734 0)"/>
      <use xlink:href="#DejaVuSans-70" transform="translate(225.511719 0)"/>
      <use xlink:href="#DejaVuSans-68" transform="translate(288.988281 0)"/>
      <use xlink:href="#DejaVuSans-61" transform="translate(352.367188 0)"/>
      <use xlink:href="#DejaVuSans-73" transform="translate(413.646484 0)"/>
      <use xlink:href="#DejaVuSans-65" transform="translate(465.746094 0)"/>
      <use xlink:href="#DejaVuSans-20" transform="translate(527.269531 0)"/>
      <use xlink:href="#DejaVuSans-28" transform="translate(559.056641 0)"/>
      <use xlink:href="#DejaVuSans-46" transform="translate(598.070312 0)"/>
      <use xlink:href="#DejaVuSans-72" transform="translate(648.339844 0)"/>
      <use xlink:href="#DejaVuSans-6f" transform="translate(687.203125 0)"/>
      <use xlink:href="#DejaVuSans-7a" transform="translate(748.384766 0)"/>
      <use xlink:href="#DejaVuSans-65" transform="translate(800.875 0)"/>
      <use xlink:href="#DejaVuSans-6e" transform="translate(862.398438 0)"/>
      <use xlink:href="#DejaVuSans-20" transform="translate(925.777344 0)"/>
      <use xlink:href="#DejaVuSans-2f" transform="translate(957.564453 0)"/>
      <use xlink:href="#DejaVuSans-20" transform="translate(991.255859 0)"/>
      <use xlink:href="#DejaVuSans-57" transform="translate(1023.042969 0)"/>
      <use xlink:href="#DejaVuSans-6f" transform="translate(1116.044922 0)"/>
      <use xlink:href="#DejaVuSans-6f" transform="translate(1177.226562 0)"/>
      <use xlink:href="#DejaVuSans-64" transform="translate(1238.408203 0)"/>
      <use xlink:href="#DejaVuSans-29" transform="translate(1301.884766 0)"/>
     </g>
    </g>
    <g id="line2d_52">
     <path d="M 286.510781 99.223813 
L 296.510781 99.223813 
L 306.510781 99.223813 
" style="fill: none; stroke-dasharray: 12.8,3.2,2,3.2; stroke-dashoffset: 0; stroke: #ff7f0e; stroke-width: 2"/>
    </g>
    <g id="text_27">
     <!-- Two-phase (Relaxation |a|, f=200 Hz, τ=5 ms) -->
     <g transform="translate(314.510781 102.723813) scale(0.1 -0.1)">
      <defs>
       <path id="DejaVuSans-2c" d="M 750 794 
L 1409 794 
L 1409 256 
L 897 -744 
L 494 -744 
L 750 256 
L 750 794 
z
" transform="scale(0.015625)"/>
       <path id="DejaVuSans-3c4" d="M 2319 638 
Q 2431 488 2769 488 
L 3047 488 
L 3047 0 
L 2700 0 
Q 2138 0 1881 300 
Q 1625 606 1625 1269 
L 1625 2925 
L 313 2925 
L 313 3500 
L 3541 3500 
L 3541 2925 
L 2213 2925 
L 2213 1234 
Q 2213 781 2319 638 
z
" transform="scale(0.015625)"/>
      </defs>
      <use xlink:href="#DejaVuSans-54"/>
      <use xlink:href="#DejaVuSans-77" transform="translate(44.583984 0)"/>
      <use xlink:href="#DejaVuSans-6f" transform="translate(126.371094 0)"/>
      <use xlink:href="#DejaVuSans-2d" transform="translate(189.427734 0)"/>
      <use xlink:href="#DejaVuSans-70" transform="translate(225.511719 0)"/>
      <use xlink:href="#DejaVuSans-68" transform="translate(288.988281 0)"/>
      <use xlink:href="#DejaVuSans-61" transform="translate(352.367188 0)"/>
      <use xlink:href="#DejaVuSans-73" transform="translate(413.646484 0)"/>
      <use xlink:href="#DejaVuSans-65" transform="translate(465.746094 0)"/>
      <use xlink:href="#DejaVuSans-20" transform="translate(527.269531 0)"/>
      <use xlink:href="#DejaVuSans-28" transform="translate(559.056641 0)"/>
      <use xlink:href="#DejaVuSans-52" transform="translate(598.070312 0)"/>
      <use xlink:href="#DejaVuSans-65" transform="translate(663.052734 0)"/>
      <use xlink:href="#DejaVuSans-6c" transform="translate(724.576172 0)"/>
      <use xlink:href="#DejaVuSans-61" transform="translate(752.359375 0)"/>
      <use xlink:href="#DejaVuSans-78" transform="translate(813.638672 0)"/>
      <use xlink:href="#DejaVuSans-61" transform="translate(872.818359 0)"/>
      <use xlink:href="#DejaVuSans-74" transform="translate(934.097656 0)"/>
      <use xlink:href="#DejaVuSans-69" transform="translate(973.306641 0)"/>
      <use xlink:href="#DejaVuSans-6f" transform="translate(1001.089844 0)"/>
      <use xlink:href="#DejaVuSans-6e" transform="translate(1062.271484 0)"/>
      <use xlink:href="#DejaVuSans-20" transform="translate(1125.650391 0)"/>
      <use xlink:href="#DejaVuSans-7c" transform="translate(1157.4375 0)"/>
      <use xlink:href="#DejaVuSans-61" transform="translate(1191.128906 0)"/>
      <use xlink:href="#DejaVuSans-7c" transform="translate(1252.408203 0)"/>
      <use xlink:href="#DejaVuSans-2c" transform="translate(1286.099609 0)"/>
      <use xlink:href="#DejaVuSans-20" transform="translate(1317.886719 0)"/>
      <use xlink:href="#DejaVuSans-66" transform="translate(1349.673828 0)"/>
      <use xlink:href="#DejaVuSans-3d" transform="translate(1384.878906 0)"/>
      <use xlink:href="#DejaVuSans-32" transform="translate(1468.667969 0)"/>
      <use xlink:href="#DejaVuSans-30" transform="translate(1532.291016 0)"/>
      <use xlink:href="#DejaVuSans-30" transform="translate(1595.914062 0)"/>
      <use xlink:href="#DejaVuSans-20" transform="translate(1659.537109 0)"/>
      <use xlink:href="#DejaVuSans-48" transform="translate(1691.324219 0)"/>
      <use xlink:href="#DejaVuSans-7a" transform="translate(1766.519531 0)"/>
      <use xlink:href="#DejaVuSans-2c" transform="translate(1819.009766 0)"/>
      <use xlink:href="#DejaVuSans-20" transform="translate(1850.796875 0)"/>
      <use xlink:href="#DejaVuSans-3c4" transform="translate(1882.583984 0)"/>
      <use xlink:href="#DejaVuSans-3d" transform="translate(1942.789062 0)"/>
      <use xlink:href="#DejaVuSans-35" transform="translate(2026.578125 0)"/>
      <use xlink:href="#DejaVuSans-20" transform="translate(2090.201172 0)"/>
      <use xlink:href="#DejaVuSans-6d" transform="translate(2121.988281 0)"/>
      <use xlink:href="#DejaVuSans-73" transform="translate(2219.400391 0)"/>
      <use xlink:href="#DejaVuSans-29" transform="translate(2271.5 0)"/>
     </g>
    </g>
    <g id="line2d_53">
     <path d="M 286.510781 114.180063 
L 296.510781 114.180063 
L 306.510781 114.180063 
" style="fill: none; stroke-dasharray: 2,3.3; stroke-dashoffset: 0; stroke: #1f77b4; stroke-width: 2"/>
    </g>
    <g id="text_28">
     <!-- Two-phase (P–Q stable) -->
     <g transform="translate(314.510781 117.680063) scale(0.1 -0.1)">
      <defs>
       <path id="DejaVuSans-2013" d="M 313 1978 
L 2888 1978 
L 2888 1528 
L 313 1528 
L 313 1978 
z
" transform="scale(0.015625)"/>
      </defs>
      <use xlink:href="#DejaVuSans-54"/>
      <use xlink:href="#DejaVuSans-77" transform="translate(44.583984 0)"/>
      <use xlink:href="#DejaVuSans-6f" transform="translate(126.371094 0)"/>
      <use xlink:href="#DejaVuSans-2d" transform="translate(189.427734 0)"/>
      <use xlink:href="#DejaVuSans-70" transform="translate(225.511719 0)"/>
      <use xlink:href="#DejaVuSans-68" transform="translate(288.988281 0)"/>
      <use xlink:href="#DejaVuSans-61" transform="translate(352.367188 0)"/>
      <use xlink:href="#DejaVuSans-73" transform="translate(413.646484 0)"/>
      <use xlink:href="#DejaVuSans-65" transform="translate(465.746094 0)"/>
      <use xlink:href="#DejaVuSans-20" transform="translate(527.269531 0)"/>
      <use xlink:href="#DejaVuSans-28" transform="translate(559.056641 0)"/>
      <use xlink:href="#DejaVuSans-50" transform="translate(598.070312 0)"/>
      <use xlink:href="#DejaVuSans-2013" transform="translate(658.373047 0)"/>
      <use xlink:href="#DejaVuSans-51" transform="translate(708.373047 0)"/>
      <use xlink:href="#DejaVuSans-20" transform="translate(787.083984 0)"/>
      <use xlink:href="#DejaVuSans-73" transform="translate(818.871094 0)"/>
      <use xlink:href="#DejaVuSans-74" transform="translate(870.970703 0)"/>
      <use xlink:href="#DejaVuSans-61" transform="translate(910.179688 0)"/>
      <use xlink:href="#DejaVuSans-62" transform="translate(971.458984 0)"/>
      <use xlink:href="#DejaVuSans-6c" transform="translate(1034.935547 0)"/>
      <use xlink:href="#DejaVuSans-65" transform="translate(1062.71875 0)"/>
      <use xlink:href="#DejaVuSans-29" transform="translate(1124.242188 0)"/>
     </g>
    </g>
    <g id="line2d_54">
     <path d="M 286.510781 128.858188 
L 296.510781 128.858188 
L 306.510781 128.858188 
" style="fill: none; stroke: #2ca02c; stroke-width: 2; stroke-linecap: square"/>
    </g>
    <g id="text_29">
     <!-- Superheated vapor (ΔT=5 K) -->
     <g transform="translate(314.510781 132.358188) scale(0.1 -0.1)">
      <use xlink:href="#DejaVuSans-53"/>
      <use xlink:href="#DejaVuSans-75" transform="translate(63.476562 0)"/>
      <use xlink:href="#DejaVuSans-70" transform="translate(126.855469 0)"/>
      <use xlink:href="#DejaVuSans-65" transform="translate(190.332031 0)"/>
      <use xlink:href="#DejaVuSans-72" transform="translate(251.855469 0)"/>
      <use xlink:href="#DejaVuSans-68" transform="translate(291.21875 0)"/>
      <use xlink:href="#DejaVuSans-65" transform="translate(354.597656 0)"/>
      <use xlink:href="#DejaVuSans-61" transform="translate(416.121094 0)"/>
      <use xlink:href="#DejaVuSans-74" transform="translate(477.400391 0)"/>
      <use xlink:href="#DejaVuSans-65" transform="translate(516.609375 0)"/>
      <use xlink:href="#DejaVuSans-64" transform="translate(578.132812 0)"/>
      <use xlink:href="#DejaVuSans-20" transform="translate(641.609375 0)"/>
      <use xlink:href="#DejaVuSans-76" transform="translate(673.396484 0)"/>
      <use xlink:href="#DejaVuSans-61" transform="translate(732.576172 0)"/>
      <use xlink:href="#DejaVuSans-70" transform="translate(793.855469 0)"/>
      <use xlink:href="#DejaVuSans-6f" transform="translate(857.332031 0)"/>
      <use xlink:href="#DejaVuSans-72" transform="translate(918.513672 0)"/>
      <use xlink:href="#DejaVuSans-20" transform="translate(959.626953 0)"/>
      <use xlink:href="#DejaVuSans-28" transform="translate(991.414062 0)"/>
      <use xlink:href="#DejaVuSans-394" transform="translate(1030.427734 0)"/>
      <use xlink:href="#DejaVuSans-54" transform="translate(1098.835938 0)"/>
      <use xlink:href="#DejaVuSans-3d" transform="translate(1159.919922 0)"/>
      <use xlink:href="#DejaVuSans-35" transform="translate(1243.708984 0)"/>
      <use xlink:href="#DejaVuSans-20" transform="translate(1307.332031 0)"/>
      <use xlink:href="#DejaVuSans-4b" transform="translate(1339.119141 0)"/>
      <use xlink:href="#DejaVuSans-29" transform="translate(1404.695312 0)"/>
     </g>
    </g>
   </g>
  </g>
 </g>
 <defs>
  <clipPath id="p7c80767d5b">
   <rect x="50.87" y="42.04725" width="730.33" height="376.43275"/>
  </clipPath>
 </defs>
</svg>
