<?xml version="1.0" encoding="utf-8" standalone="no"?>
<!DOCTYPE svg PUBLIC "-//W3C//DTD SVG 1.1//EN"
  "http://www.w3.org/Graphics/SVG/1.1/DTD/svg11.dtd">
<svg xmlns:xlink="http://www.w3.org/1999/xlink" width="584.39952pt" height="368.39952pt" viewBox="0 0 584.39952 368.39952" xmlns="http://www.w3.org/2000/svg" version="1.1">
 <title>R1234ze(E) Δh vs T</title>
 <metadata>
  <rdf:RDF xmlns:dc="http://purl.org/dc/elements/1.1/" xmlns:cc="http://creativecommons.org/ns#" xmlns:rdf="http://www.w3.org/1999/02/22-rdf-syntax-ns#">
   <cc:Work>
    <dc:type rdf:resource="http://purl.org/dc/dcmitype/StillImage"/>
    <dc:title>R1234ze(E) Δh vs T</dc:title>
    <dc:date>2025-10-13T12:44:47.109835+00:00</dc:date>
    <dc:description>Δh per kg from Q≈0.01 to Q over 15–50 °C</dc:description>
    <dc:format>image/svg+xml</dc:format>
    <dc:creator>
     <cc:Agent>
      <dc:title>Vahid Khorshidi</dc:title>
     </cc:Agent>
    </dc:creator>
   </cc:Work>
  </rdf:RDF>
 </metadata>
 <defs>
  <style type="text/css">*{stroke-linejoin: round; stroke-linecap: butt}</style>
 </defs>
 <g id="figure_1">
  <g id="patch_1">
   <path d="M 0 368.39952 
L 584.39952 368.39952 
L 584.39952 0 
L 0 0 
L 0 368.39952 
z
" style="fill: none; opacity: 0"/>
  </g>
  <g id="axes_1">
   <g id="patch_2">
    <path d="M 45.205625 330.860301 
L 577.19952 330.860301 
L 577.19952 21.943125 
L 45.205625 21.943125 
L 45.205625 330.860301 
z
" style="fill: none"/>
   </g>
   <g id="patch_3">
    <path d="M 69.387166 330.860301 
L 553.017979 330.860301 
L 553.017979 21.943125 
L 69.387166 21.943125 
z
" clip-path="url(#p4fd4439e3c)" style="fill: #7f7f7f; opacity: 0.1; stroke: #7f7f7f; stroke-linejoin: miter"/>
   </g>
   <g id="matplotlib.axis_1">
    <g id="xtick_1">
     <g id="line2d_1">
      <path d="M 69.387166 330.860301 
L 69.387166 21.943125 
" clip-path="url(#p4fd4439e3c)" style="fill: none; stroke-dasharray: 0.8,1.32; stroke-dashoffset: 0; stroke: #b0b0b0; stroke-opacity: 0.5; stroke-width: 0.8"/>
     </g>
     <g id="line2d_2">
      <defs>
       <path id="m9f06529ca7" d="M 0 0 
L 0 3.5 
" style="stroke: #000000; stroke-width: 0.8"/>
      </defs>
      <g>
       <use xlink:href="#m9f06529ca7" x="69.387166" y="330.860301" style="stroke: #000000; stroke-width: 0.8"/>
      </g>
     </g>
     <g id="text_1">
      <text style="font-size: 10px; font-family: 'Arial', sans-serif; text-anchor: middle" x="69.387166" y="345.018114" transform="rotate(-0 69.387166 345.018114)">15</text>
     </g>
    </g>
    <g id="xtick_2">
     <g id="line2d_3">
      <path d="M 138.477282 330.860301 
L 138.477282 21.943125 
" clip-path="url(#p4fd4439e3c)" style="fill: none; stroke-dasharray: 0.8,1.32; stroke-dashoffset: 0; stroke: #b0b0b0; stroke-opacity: 0.5; stroke-width: 0.8"/>
     </g>
     <g id="line2d_4">
      <g>
       <use xlink:href="#m9f06529ca7" x="138.477282" y="330.860301" style="stroke: #000000; stroke-width: 0.8"/>
      </g>
     </g>
     <g id="text_2">
      <text style="font-size: 10px; font-family: 'Arial', sans-serif; text-anchor: middle" x="138.477282" y="345.018114" transform="rotate(-0 138.477282 345.018114)">20</text>
     </g>
    </g>
    <g id="xtick_3">
     <g id="line2d_5">
      <path d="M 207.567398 330.860301 
L 207.567398 21.943125 
" clip-path="url(#p4fd4439e3c)" style="fill: none; stroke-dasharray: 0.8,1.32; stroke-dashoffset: 0; stroke: #b0b0b0; stroke-opacity: 0.5; stroke-width: 0.8"/>
     </g>
     <g id="line2d_6">
      <g>
       <use xlink:href="#m9f06529ca7" x="207.567398" y="330.860301" style="stroke: #000000; stroke-width: 0.8"/>
      </g>
     </g>
     <g id="text_3">
      <text style="font-size: 10px; font-family: 'Arial', sans-serif; text-anchor: middle" x="207.567398" y="345.018114" transform="rotate(-0 207.567398 345.018114)">25</text>
     </g>
    </g>
    <g id="xtick_4">
     <g id="line2d_7">
      <path d="M 276.657514 330.860301 
L 276.657514 21.943125 
" clip-path="url(#p4fd4439e3c)" style="fill: none; stroke-dasharray: 0.8,1.32; stroke-dashoffset: 0; stroke: #b0b0b0; stroke-opacity: 0.5; stroke-width: 0.8"/>
     </g>
     <g id="line2d_8">
      <g>
       <use xlink:href="#m9f06529ca7" x="276.657514" y="330.860301" style="stroke: #000000; stroke-width: 0.8"/>
      </g>
     </g>
     <g id="text_4">
      <text style="font-size: 10px; font-family: 'Arial', sans-serif; text-anchor: middle" x="276.657514" y="345.018114" transform="rotate(-0 276.657514 345.018114)">30</text>
     </g>
    </g>
    <g id="xtick_5">
     <g id="line2d_9">
      <path d="M 345.747631 330.860301 
L 345.747631 21.943125 
" clip-path="url(#p4fd4439e3c)" style="fill: none; stroke-dasharray: 0.8,1.32; stroke-dashoffset: 0; stroke: #b0b0b0; stroke-opacity: 0.5; stroke-width: 0.8"/>
     </g>
     <g id="line2d_10">
      <g>
       <use xlink:href="#m9f06529ca7" x="345.747631" y="330.860301" style="stroke: #000000; stroke-width: 0.8"/>
      </g>
     </g>
     <g id="text_5">
      <text style="font-size: 10px; font-family: 'Arial', sans-serif; text-anchor: middle" x="345.747631" y="345.018114" transform="rotate(-0 345.747631 345.018114)">35</text>
     </g>
    </g>
    <g id="xtick_6">
     <g id="line2d_11">
      <path d="M 414.837747 330.860301 
L 414.837747 21.943125 
" clip-path="url(#p4fd4439e3c)" style="fill: none; stroke-dasharray: 0.8,1.32; stroke-dashoffset: 0; stroke: #b0b0b0; stroke-opacity: 0.5; stroke-width: 0.8"/>
     </g>
     <g id="line2d_12">
      <g>
       <use xlink:href="#m9f06529ca7" x="414.837747" y="330.860301" style="stroke: #000000; stroke-width: 0.8"/>
      </g>
     </g>
     <g id="text_6">
      <text style="font-size: 10px; font-family: 'Arial', sans-serif; text-anchor: middle" x="414.837747" y="345.018114" transform="rotate(-0 414.837747 345.018114)">40</text>
     </g>
    </g>
    <g id="xtick_7">
     <g id="line2d_13">
      <path d="M 483.927863 330.860301 
L 483.927863 21.943125 
" clip-path="url(#p4fd4439e3c)" style="fill: none; stroke-dasharray: 0.8,1.32; stroke-dashoffset: 0; stroke: #b0b0b0; stroke-opacity: 0.5; stroke-width: 0.8"/>
     </g>
     <g id="line2d_14">
      <g>
       <use xlink:href="#m9f06529ca7" x="483.927863" y="330.860301" style="stroke: #000000; stroke-width: 0.8"/>
      </g>
     </g>
     <g id="text_7">
      <text style="font-size: 10px; font-family: 'Arial', sans-serif; text-anchor: middle" x="483.927863" y="345.018114" transform="rotate(-0 483.927863 345.018114)">45</text>
     </g>
    </g>
    <g id="xtick_8">
     <g id="line2d_15">
      <path d="M 553.017979 330.860301 
L 553.017979 21.943125 
" clip-path="url(#p4fd4439e3c)" style="fill: none; stroke-dasharray: 0.8,1.32; stroke-dashoffset: 0; stroke: #b0b0b0; stroke-opacity: 0.5; stroke-width: 0.8"/>
     </g>
     <g id="line2d_16">
      <g>
       <use xlink:href="#m9f06529ca7" x="553.017979" y="330.860301" style="stroke: #000000; stroke-width: 0.8"/>
      </g>
     </g>
     <g id="text_8">
      <text style="font-size: 10px; font-family: 'Arial', sans-serif; text-anchor: middle" x="553.017979" y="345.018114" transform="rotate(-0 553.017979 345.018114)">50</text>
     </g>
    </g>
    <g id="text_9">
     <text style="font-size: 11px; font-family: 'Arial', sans-serif; text-anchor: middle" x="311.202572" y="359.01327" transform="rotate(-0 311.202572 359.01327)">Temperature [°C]</text>
    </g>
   </g>
   <g id="matplotlib.axis_2">
    <g id="ytick_1">
     <g id="line2d_17">
      <path d="M 45.205625 307.148527 
L 577.19952 307.148527 
" clip-path="url(#p4fd4439e3c)" style="fill: none; stroke-dasharray: 0.8,1.32; stroke-dashoffset: 0; stroke: #b0b0b0; stroke-opacity: 0.5; stroke-width: 0.8"/>
     </g>
     <g id="line2d_18">
      <defs>
       <path id="m0b2c617d6d" d="M 0 0 
L -3.5 0 
" style="stroke: #000000; stroke-width: 0.8"/>
      </defs>
      <g>
       <use xlink:href="#m0b2c617d6d" x="45.205625" y="307.148527" style="stroke: #000000; stroke-width: 0.8"/>
      </g>
     </g>
     <g id="text_10">
      <text style="font-size: 10px; font-family: 'Arial', sans-serif; text-anchor: end" x="38.205625" y="310.727434" transform="rotate(-0 38.205625 310.727434)">40</text>
     </g>
    </g>
    <g id="ytick_2">
     <g id="line2d_19">
      <path d="M 45.205625 251.576488 
L 577.19952 251.576488 
" clip-path="url(#p4fd4439e3c)" style="fill: none; stroke-dasharray: 0.8,1.32; stroke-dashoffset: 0; stroke: #b0b0b0; stroke-opacity: 0.5; stroke-width: 0.8"/>
     </g>
     <g id="line2d_20">
      <g>
       <use xlink:href="#m0b2c617d6d" x="45.205625" y="251.576488" style="stroke: #000000; stroke-width: 0.8"/>
      </g>
     </g>
     <g id="text_11">
      <text style="font-size: 10px; font-family: 'Arial', sans-serif; text-anchor: end" x="38.205625" y="255.155395" transform="rotate(-0 38.205625 255.155395)">60</text>
     </g>
    </g>
    <g id="ytick_3">
     <g id="line2d_21">
      <path d="M 45.205625 196.00445 
L 577.19952 196.00445 
" clip-path="url(#p4fd4439e3c)" style="fill: none; stroke-dasharray: 0.8,1.32; stroke-dashoffset: 0; stroke: #b0b0b0; stroke-opacity: 0.5; stroke-width: 0.8"/>
     </g>
     <g id="line2d_22">
      <g>
       <use xlink:href="#m0b2c617d6d" x="45.205625" y="196.00445" style="stroke: #000000; stroke-width: 0.8"/>
      </g>
     </g>
     <g id="text_12">
      <text style="font-size: 10px; font-family: 'Arial', sans-serif; text-anchor: end" x="38.205625" y="199.583356" transform="rotate(-0 38.205625 199.583356)">80</text>
     </g>
    </g>
    <g id="ytick_4">
     <g id="line2d_23">
      <path d="M 45.205625 140.432411 
L 577.19952 140.432411 
" clip-path="url(#p4fd4439e3c)" style="fill: none; stroke-dasharray: 0.8,1.32; stroke-dashoffset: 0; stroke: #b0b0b0; stroke-opacity: 0.5; stroke-width: 0.8"/>
     </g>
     <g id="line2d_24">
      <g>
       <use xlink:href="#m0b2c617d6d" x="45.205625" y="140.432411" style="stroke: #000000; stroke-width: 0.8"/>
      </g>
     </g>
     <g id="text_13">
      <text style="font-size: 10px; font-family: 'Arial', sans-serif; text-anchor: end" x="38.205625" y="144.011317" transform="rotate(-0 38.205625 144.011317)">100</text>
     </g>
    </g>
    <g id="ytick_5">
     <g id="line2d_25">
      <path d="M 45.205625 84.860372 
L 577.19952 84.860372 
" clip-path="url(#p4fd4439e3c)" style="fill: none; stroke-dasharray: 0.8,1.32; stroke-dashoffset: 0; stroke: #b0b0b0; stroke-opacity: 0.5; stroke-width: 0.8"/>
     </g>
     <g id="line2d_26">
      <g>
       <use xlink:href="#m0b2c617d6d" x="45.205625" y="84.860372" style="stroke: #000000; stroke-width: 0.8"/>
      </g>
     </g>
     <g id="text_14">
      <text style="font-size: 10px; font-family: 'Arial', sans-serif; text-anchor: end" x="38.205625" y="88.439278" transform="rotate(-0 38.205625 88.439278)">120</text>
     </g>
    </g>
    <g id="ytick_6">
     <g id="line2d_27">
      <path d="M 45.205625 29.288333 
L 577.19952 29.288333 
" clip-path="url(#p4fd4439e3c)" style="fill: none; stroke-dasharray: 0.8,1.32; stroke-dashoffset: 0; stroke: #b0b0b0; stroke-opacity: 0.5; stroke-width: 0.8"/>
     </g>
     <g id="line2d_28">
      <g>
       <use xlink:href="#m0b2c617d6d" x="45.205625" y="29.288333" style="stroke: #000000; stroke-width: 0.8"/>
      </g>
     </g>
     <g id="text_15">
      <text style="font-size: 10px; font-family: 'Arial', sans-serif; text-anchor: end" x="38.205625" y="32.867239" transform="rotate(-0 38.205625 32.867239)">140</text>
     </g>
    </g>
    <g id="text_16">
     <text style="font-size: 11px; font-family: 'Arial', sans-serif; text-anchor: middle" x="15.207656" y="176.401713" transform="rotate(-90 15.207656 176.401713)">Δh [kJ/kg]</text>
    </g>
   </g>
   <g id="line2d_29">
    <path d="M 69.387166 181.125579 
L 83.205189 182.082527 
L 97.023212 183.046516 
L 110.841235 184.017687 
L 124.659259 184.996185 
L 138.477282 185.982154 
L 152.295305 186.975744 
L 166.113328 187.97711 
L 179.931352 188.986405 
L 193.749375 190.003792 
L 207.567398 191.029432 
L 221.385421 192.063494 
L 235.203445 193.10615 
L 249.021468 194.157575 
L 262.839491 195.21795 
L 276.657514 196.287461 
L 290.475538 197.366299 
L 304.293561 198.45466 
L 318.111584 199.552746 
L 331.929607 200.660765 
L 345.747631 201.778931 
L 359.565654 202.907466 
L 373.383677 204.046598 
L 387.2017 205.196563 
L 401.019724 206.357603 
L 414.837747 207.52997 
L 428.65577 208.713925 
L 442.473793 209.909735 
L 456.291817 211.117678 
L 470.10984 212.338041 
L 483.927863 213.571122 
L 497.745886 214.817228 
L 511.56391 216.076677 
L 525.381933 217.349798 
L 539.199956 218.636933 
L 553.017979 219.938435 
" clip-path="url(#p4fd4439e3c)" style="fill: none; stroke: #1f77b4; stroke-width: 2; stroke-linecap: square"/>
   </g>
   <g id="line2d_30">
    <path d="M 69.387166 35.921278 
L 83.205189 37.464111 
L 97.023212 39.018298 
L 110.841235 40.584064 
L 124.659259 42.161641 
L 138.477282 43.751265 
L 152.295305 45.353177 
L 166.113328 46.967623 
L 179.931352 48.594855 
L 193.749375 50.235131 
L 207.567398 51.888714 
L 221.385421 53.555876 
L 235.203445 55.236892 
L 249.021468 56.932046 
L 262.839491 58.641631 
L 276.657514 60.365945 
L 290.475538 62.105296 
L 304.293561 63.86 
L 318.111584 65.630383 
L 331.929607 67.416781 
L 345.747631 69.219539 
L 359.565654 71.039014 
L 373.383677 72.875573 
L 387.2017 74.729598 
L 401.019724 76.601479 
L 414.837747 78.491622 
L 428.65577 80.400447 
L 442.473793 82.328385 
L 456.291817 84.275885 
L 470.10984 86.24341 
L 483.927863 88.231439 
L 497.745886 90.240467 
L 511.56391 92.271007 
L 525.381933 94.32359 
L 539.199956 96.398766 
L 553.017979 98.497106 
" clip-path="url(#p4fd4439e3c)" style="fill: none; stroke: #ff7f0e; stroke-width: 2; stroke-linecap: square"/>
   </g>
   <g id="patch_4">
    <path d="M 45.205625 330.860301 
L 45.205625 21.943125 
" style="fill: none; stroke: #000000; stroke-width: 0.8; stroke-linejoin: miter; stroke-linecap: square"/>
   </g>
   <g id="patch_5">
    <path d="M 577.19952 330.860301 
L 577.19952 21.943125 
" style="fill: none; stroke: #000000; stroke-width: 0.8; stroke-linejoin: miter; stroke-linecap: square"/>
   </g>
   <g id="patch_6">
    <path d="M 45.205625 330.860301 
L 577.19952 330.860301 
" style="fill: none; stroke: #000000; stroke-width: 0.8; stroke-linejoin: miter; stroke-linecap: square"/>
   </g>
   <g id="patch_7">
    <path d="M 45.205625 21.943125 
L 577.19952 21.943125 
" style="fill: none; stroke: #000000; stroke-width: 0.8; stroke-linejoin: miter; stroke-linecap: square"/>
   </g>
   <g id="text_17">
    <text style="font-size: 12px; font-family: 'Arial', sans-serif; text-anchor: middle" x="311.202572" y="15.943125" transform="rotate(-0 311.202572 15.943125)">R1234ze(E): Δh from Q≈0.01 to Q over Temperature</text>
   </g>
   <g id="line2d_31">
    <path d="M 69.387166 315.484333 
L 553.017979 315.484333 
" clip-path="url(#p4fd4439e3c)" style="fill: none; stroke-dasharray: 7.4,3.2; stroke-dashoffset: 0; stroke: #2ca02c; stroke-width: 2"/>
   </g>
   <g id="legend_1">
    <g id="patch_8">
     <path d="M 408.926082 206.370463 
L 570.19952 206.370463 
Q 572.19952 206.370463 572.19952 204.370463 
L 572.19952 148.432963 
Q 572.19952 146.432963 570.19952 146.432963 
L 408.926082 146.432963 
Q 406.926082 146.432963 406.926082 148.432963 
L 406.926082 204.370463 
Q 406.926082 206.370463 408.926082 206.370463 
z
" style="fill: #ffffff; opacity: 0.8; stroke: #cccccc; stroke-linejoin: miter"/>
    </g>
    <g id="line2d_32">
     <path d="M 410.926082 154.090776 
L 420.926082 154.090776 
L 430.926082 154.090776 
" style="fill: none; stroke: #1f77b4; stroke-width: 2; stroke-linecap: square"/>
    </g>
    <g id="text_18">
     <text style="font-size: 10px; font-family: 'Arial', sans-serif; text-anchor: start" x="438.926082" y="157.590776" transform="rotate(-0 438.926082 157.590776)">Q = 0.5</text>
    </g>
    <g id="line2d_33">
     <path d="M 410.926082 168.236088 
L 420.926082 168.236088 
L 430.926082 168.236088 
" style="fill: none; stroke: #ff7f0e; stroke-width: 2; stroke-linecap: square"/>
    </g>
    <g id="text_19">
     <text style="font-size: 10px; font-family: 'Arial', sans-serif; text-anchor: start" x="438.926082" y="171.736088" transform="rotate(-0 438.926082 171.736088)">Q = 0.8</text>
    </g>
    <g id="patch_9">
     <path d="M 410.926082 185.881401 
L 430.926082 185.881401 
L 430.926082 178.881401 
L 410.926082 178.881401 
z
" style="fill: #7f7f7f; opacity: 0.1; stroke: #7f7f7f; stroke-linejoin: miter"/>
    </g>
    <g id="text_20">
     <text style="font-size: 10px; font-family: 'Arial', sans-serif; text-anchor: start" x="438.926082" y="185.881401" transform="rotate(-0 438.926082 185.881401)">Two-phase region</text>
    </g>
    <g id="line2d_34">
     <path d="M 410.926082 196.765776 
L 420.926082 196.765776 
L 430.926082 196.765776 
" style="fill: none; stroke-dasharray: 7.4,3.2; stroke-dashoffset: 0; stroke: #2ca02c; stroke-width: 2"/>
    </g>
    <g id="text_21">
     <text style="font-size: 10px; font-family: 'Arial', sans-serif; text-anchor: start" x="438.926082" y="200.265776" transform="rotate(-0 438.926082 200.265776)">PG25 ΔT=10°C (≈37.0 kJ/kg)</text>
    </g>
   </g>
  </g>
 </g>
 <defs>
  <clipPath id="p4fd4439e3c">
   <rect x="45.205625" y="21.943125" width="531.993895" height="308.917176"/>
  </clipPath>
 </defs>
</svg>
